solid OpenSCAD_Model
  facet normal 0 0 -1
    outer loop
      vertex 142.5 117.5 0
      vertex 157.5 122.5 0
      vertex 157.5 117.5 0
    endloop
  endfacet
  facet normal -0 0 -1
    outer loop
      vertex 157.5 122.5 0
      vertex 142.5 117.5 0
      vertex 142.5 122.5 0
    endloop
  endfacet
  facet normal 0 0 -1
    outer loop
      vertex 142.5 97.5 0
      vertex 157.5 102.5 0
      vertex 157.5 97.5 0
    endloop
  endfacet
  facet normal -0 0 -1
    outer loop
      vertex 157.5 102.5 0
      vertex 142.5 97.5 0
      vertex 142.5 102.5 0
    endloop
  endfacet
  facet normal 0 0 -1
    outer loop
      vertex 142.5 77.5 0
      vertex 157.5 82.5 0
      vertex 157.5 77.5 0
    endloop
  endfacet
  facet normal -0 0 -1
    outer loop
      vertex 157.5 82.5 0
      vertex 142.5 77.5 0
      vertex 142.5 82.5 0
    endloop
  endfacet
  facet normal 0 0 -1
    outer loop
      vertex 142.5 57.5 0
      vertex 157.5 62.5 0
      vertex 157.5 57.5 0
    endloop
  endfacet
  facet normal -0 0 -1
    outer loop
      vertex 157.5 62.5 0
      vertex 142.5 57.5 0
      vertex 142.5 62.5 0
    endloop
  endfacet
  facet normal 0 0 -1
    outer loop
      vertex 142.5 37.5 0
      vertex 157.5 42.5 0
      vertex 157.5 37.5 0
    endloop
  endfacet
  facet normal -0 0 -1
    outer loop
      vertex 157.5 42.5 0
      vertex 142.5 37.5 0
      vertex 142.5 42.5 0
    endloop
  endfacet
  facet normal 0 0 -1
    outer loop
      vertex 142.5 17.5 0
      vertex 157.5 22.5 0
      vertex 157.5 17.5 0
    endloop
  endfacet
  facet normal -0 0 -1
    outer loop
      vertex 157.5 22.5 0
      vertex 142.5 17.5 0
      vertex 142.5 22.5 0
    endloop
  endfacet
  facet normal 0 0 -1
    outer loop
      vertex 162.5 117.5 0
      vertex 177.5 122.5 0
      vertex 177.5 117.5 0
    endloop
  endfacet
  facet normal -0 0 -1
    outer loop
      vertex 177.5 122.5 0
      vertex 162.5 117.5 0
      vertex 162.5 122.5 0
    endloop
  endfacet
  facet normal 0 0 -1
    outer loop
      vertex 162.5 97.5 0
      vertex 177.5 102.5 0
      vertex 177.5 97.5 0
    endloop
  endfacet
  facet normal -0 0 -1
    outer loop
      vertex 177.5 102.5 0
      vertex 162.5 97.5 0
      vertex 162.5 102.5 0
    endloop
  endfacet
  facet normal 0 0 -1
    outer loop
      vertex 162.5 77.5 0
      vertex 177.5 82.5 0
      vertex 177.5 77.5 0
    endloop
  endfacet
  facet normal -0 0 -1
    outer loop
      vertex 177.5 82.5 0
      vertex 162.5 77.5 0
      vertex 162.5 82.5 0
    endloop
  endfacet
  facet normal 0 0 -1
    outer loop
      vertex 162.5 57.5 0
      vertex 177.5 62.5 0
      vertex 177.5 57.5 0
    endloop
  endfacet
  facet normal -0 0 -1
    outer loop
      vertex 177.5 62.5 0
      vertex 162.5 57.5 0
      vertex 162.5 62.5 0
    endloop
  endfacet
  facet normal 0 0 -1
    outer loop
      vertex 162.5 37.5 0
      vertex 177.5 42.5 0
      vertex 177.5 37.5 0
    endloop
  endfacet
  facet normal -0 0 -1
    outer loop
      vertex 177.5 42.5 0
      vertex 162.5 37.5 0
      vertex 162.5 42.5 0
    endloop
  endfacet
  facet normal 0 0 -1
    outer loop
      vertex 162.5 17.5 0
      vertex 177.5 22.5 0
      vertex 177.5 17.5 0
    endloop
  endfacet
  facet normal -0 0 -1
    outer loop
      vertex 177.5 22.5 0
      vertex 162.5 17.5 0
      vertex 162.5 22.5 0
    endloop
  endfacet
  facet normal 0 0 -1
    outer loop
      vertex 182.5 117.5 0
      vertex 197.5 122.5 0
      vertex 197.5 117.5 0
    endloop
  endfacet
  facet normal -0 0 -1
    outer loop
      vertex 197.5 122.5 0
      vertex 182.5 117.5 0
      vertex 182.5 122.5 0
    endloop
  endfacet
  facet normal 0 0 -1
    outer loop
      vertex 182.5 97.5 0
      vertex 197.5 102.5 0
      vertex 197.5 97.5 0
    endloop
  endfacet
  facet normal -0 0 -1
    outer loop
      vertex 197.5 102.5 0
      vertex 182.5 97.5 0
      vertex 182.5 102.5 0
    endloop
  endfacet
  facet normal 0 0 -1
    outer loop
      vertex 182.5 77.5 0
      vertex 197.5 82.5 0
      vertex 197.5 77.5 0
    endloop
  endfacet
  facet normal -0 0 -1
    outer loop
      vertex 197.5 82.5 0
      vertex 182.5 77.5 0
      vertex 182.5 82.5 0
    endloop
  endfacet
  facet normal 0 0 -1
    outer loop
      vertex 182.5 57.5 0
      vertex 197.5 62.5 0
      vertex 197.5 57.5 0
    endloop
  endfacet
  facet normal -0 0 -1
    outer loop
      vertex 197.5 62.5 0
      vertex 182.5 57.5 0
      vertex 182.5 62.5 0
    endloop
  endfacet
  facet normal 0 0 -1
    outer loop
      vertex 182.5 37.5 0
      vertex 197.5 42.5 0
      vertex 197.5 37.5 0
    endloop
  endfacet
  facet normal -0 0 -1
    outer loop
      vertex 197.5 42.5 0
      vertex 182.5 37.5 0
      vertex 182.5 42.5 0
    endloop
  endfacet
  facet normal 0 0 -1
    outer loop
      vertex 182.5 17.5 0
      vertex 197.5 22.5 0
      vertex 197.5 17.5 0
    endloop
  endfacet
  facet normal -0 0 -1
    outer loop
      vertex 197.5 22.5 0
      vertex 182.5 17.5 0
      vertex 182.5 22.5 0
    endloop
  endfacet
  facet normal 0 0 -1
    outer loop
      vertex 202.5 117.5 0
      vertex 217.5 122.5 0
      vertex 217.5 117.5 0
    endloop
  endfacet
  facet normal -0 0 -1
    outer loop
      vertex 217.5 122.5 0
      vertex 202.5 117.5 0
      vertex 202.5 122.5 0
    endloop
  endfacet
  facet normal 0 0 -1
    outer loop
      vertex 202.5 97.5 0
      vertex 217.5 102.5 0
      vertex 217.5 97.5 0
    endloop
  endfacet
  facet normal -0 0 -1
    outer loop
      vertex 217.5 102.5 0
      vertex 202.5 97.5 0
      vertex 202.5 102.5 0
    endloop
  endfacet
  facet normal 0 0 -1
    outer loop
      vertex 202.5 77.5 0
      vertex 217.5 82.5 0
      vertex 217.5 77.5 0
    endloop
  endfacet
  facet normal -0 0 -1
    outer loop
      vertex 217.5 82.5 0
      vertex 202.5 77.5 0
      vertex 202.5 82.5 0
    endloop
  endfacet
  facet normal 0 0 -1
    outer loop
      vertex 202.5 57.5 0
      vertex 217.5 62.5 0
      vertex 217.5 57.5 0
    endloop
  endfacet
  facet normal -0 0 -1
    outer loop
      vertex 217.5 62.5 0
      vertex 202.5 57.5 0
      vertex 202.5 62.5 0
    endloop
  endfacet
  facet normal 0 0 -1
    outer loop
      vertex 202.5 37.5 0
      vertex 217.5 42.5 0
      vertex 217.5 37.5 0
    endloop
  endfacet
  facet normal -0 0 -1
    outer loop
      vertex 217.5 42.5 0
      vertex 202.5 37.5 0
      vertex 202.5 42.5 0
    endloop
  endfacet
  facet normal 0 0 -1
    outer loop
      vertex 202.5 17.5 0
      vertex 217.5 22.5 0
      vertex 217.5 17.5 0
    endloop
  endfacet
  facet normal -0 0 -1
    outer loop
      vertex 217.5 22.5 0
      vertex 202.5 17.5 0
      vertex 202.5 22.5 0
    endloop
  endfacet
  facet normal 0 0 -1
    outer loop
      vertex 222.5 117.5 0
      vertex 237.5 122.5 0
      vertex 237.5 117.5 0
    endloop
  endfacet
  facet normal -0 0 -1
    outer loop
      vertex 237.5 122.5 0
      vertex 222.5 117.5 0
      vertex 222.5 122.5 0
    endloop
  endfacet
  facet normal 0 0 -1
    outer loop
      vertex 222.5 97.5 0
      vertex 237.5 102.5 0
      vertex 237.5 97.5 0
    endloop
  endfacet
  facet normal -0 0 -1
    outer loop
      vertex 237.5 102.5 0
      vertex 222.5 97.5 0
      vertex 222.5 102.5 0
    endloop
  endfacet
  facet normal 0 0 -1
    outer loop
      vertex 222.5 77.5 0
      vertex 237.5 82.5 0
      vertex 237.5 77.5 0
    endloop
  endfacet
  facet normal -0 0 -1
    outer loop
      vertex 237.5 82.5 0
      vertex 222.5 77.5 0
      vertex 222.5 82.5 0
    endloop
  endfacet
  facet normal 0 0 -1
    outer loop
      vertex 222.5 57.5 0
      vertex 237.5 62.5 0
      vertex 237.5 57.5 0
    endloop
  endfacet
  facet normal -0 0 -1
    outer loop
      vertex 237.5 62.5 0
      vertex 222.5 57.5 0
      vertex 222.5 62.5 0
    endloop
  endfacet
  facet normal 0 0 -1
    outer loop
      vertex 222.5 37.5 0
      vertex 237.5 42.5 0
      vertex 237.5 37.5 0
    endloop
  endfacet
  facet normal -0 0 -1
    outer loop
      vertex 237.5 42.5 0
      vertex 222.5 37.5 0
      vertex 222.5 42.5 0
    endloop
  endfacet
  facet normal 0 0 -1
    outer loop
      vertex 222.5 17.5 0
      vertex 237.5 22.5 0
      vertex 237.5 17.5 0
    endloop
  endfacet
  facet normal -0 0 -1
    outer loop
      vertex 237.5 22.5 0
      vertex 222.5 17.5 0
      vertex 222.5 22.5 0
    endloop
  endfacet
  facet normal 0 0 -1
    outer loop
      vertex 242.5 117.5 0
      vertex 257.5 122.5 0
      vertex 257.5 117.5 0
    endloop
  endfacet
  facet normal -0 0 -1
    outer loop
      vertex 257.5 122.5 0
      vertex 242.5 117.5 0
      vertex 242.5 122.5 0
    endloop
  endfacet
  facet normal 0 0 -1
    outer loop
      vertex 242.5 97.5 0
      vertex 257.5 102.5 0
      vertex 257.5 97.5 0
    endloop
  endfacet
  facet normal -0 0 -1
    outer loop
      vertex 257.5 102.5 0
      vertex 242.5 97.5 0
      vertex 242.5 102.5 0
    endloop
  endfacet
  facet normal 0 0 -1
    outer loop
      vertex 242.5 77.5 0
      vertex 257.5 82.5 0
      vertex 257.5 77.5 0
    endloop
  endfacet
  facet normal -0 0 -1
    outer loop
      vertex 257.5 82.5 0
      vertex 242.5 77.5 0
      vertex 242.5 82.5 0
    endloop
  endfacet
  facet normal 0 0 -1
    outer loop
      vertex 242.5 57.5 0
      vertex 257.5 62.5 0
      vertex 257.5 57.5 0
    endloop
  endfacet
  facet normal -0 0 -1
    outer loop
      vertex 257.5 62.5 0
      vertex 242.5 57.5 0
      vertex 242.5 62.5 0
    endloop
  endfacet
  facet normal 0 0 -1
    outer loop
      vertex 242.5 37.5 0
      vertex 257.5 42.5 0
      vertex 257.5 37.5 0
    endloop
  endfacet
  facet normal -0 0 -1
    outer loop
      vertex 257.5 42.5 0
      vertex 242.5 37.5 0
      vertex 242.5 42.5 0
    endloop
  endfacet
  facet normal 0 0 -1
    outer loop
      vertex 242.5 17.5 0
      vertex 257.5 22.5 0
      vertex 257.5 17.5 0
    endloop
  endfacet
  facet normal -0 0 -1
    outer loop
      vertex 257.5 22.5 0
      vertex 242.5 17.5 0
      vertex 242.5 22.5 0
    endloop
  endfacet
  facet normal 0 0 -1
    outer loop
      vertex 257.5 17.5 0
      vertex 260 0 0
      vertex 257.5 2.5 0
    endloop
  endfacet
  facet normal 0 0 -1
    outer loop
      vertex 260 0 0
      vertex 242.5 2.5 0
      vertex 257.5 2.5 0
    endloop
  endfacet
  facet normal 0 0 -1
    outer loop
      vertex 237.5 17.5 0
      vertex 242.5 17.5 0
      vertex 242.5 2.5 0
    endloop
  endfacet
  facet normal 0 0 -1
    outer loop
      vertex 242.5 17.5 0
      vertex 237.5 17.5 0
      vertex 242.5 22.5 0
    endloop
  endfacet
  facet normal 0 0 -1
    outer loop
      vertex 242.5 22.5 0
      vertex 237.5 22.5 0
      vertex 242.5 37.5 0
    endloop
  endfacet
  facet normal 0 0 -1
    outer loop
      vertex 237.5 37.5 0
      vertex 242.5 37.5 0
      vertex 237.5 22.5 0
    endloop
  endfacet
  facet normal 0 0 -1
    outer loop
      vertex 237.5 42.5 0
      vertex 242.5 42.5 0
      vertex 237.5 37.5 0
    endloop
  endfacet
  facet normal 0 0 -1
    outer loop
      vertex 242.5 42.5 0
      vertex 237.5 42.5 0
      vertex 242.5 57.5 0
    endloop
  endfacet
  facet normal 0 0 -1
    outer loop
      vertex 242.5 57.5 0
      vertex 237.5 57.5 0
      vertex 242.5 62.5 0
    endloop
  endfacet
  facet normal 0 0 -1
    outer loop
      vertex 237.5 62.5 0
      vertex 242.5 62.5 0
      vertex 237.5 57.5 0
    endloop
  endfacet
  facet normal 0 0 -1
    outer loop
      vertex 237.5 77.5 0
      vertex 242.5 77.5 0
      vertex 237.5 62.5 0
    endloop
  endfacet
  facet normal 0 0 -1
    outer loop
      vertex 242.5 77.5 0
      vertex 237.5 77.5 0
      vertex 242.5 82.5 0
    endloop
  endfacet
  facet normal 0 0 -1
    outer loop
      vertex 242.5 82.5 0
      vertex 237.5 82.5 0
      vertex 242.5 97.5 0
    endloop
  endfacet
  facet normal 0 0 -1
    outer loop
      vertex 237.5 97.5 0
      vertex 242.5 97.5 0
      vertex 237.5 82.5 0
    endloop
  endfacet
  facet normal 0 0 -1
    outer loop
      vertex 237.5 17.5 0
      vertex 242.5 2.5 0
      vertex 237.5 2.5 0
    endloop
  endfacet
  facet normal 0 0 -1
    outer loop
      vertex 260 0 0
      vertex 237.5 2.5 0
      vertex 242.5 2.5 0
    endloop
  endfacet
  facet normal 0 0 -1
    outer loop
      vertex 260 0 0
      vertex 222.5 2.5 0
      vertex 237.5 2.5 0
    endloop
  endfacet
  facet normal 0 0 -1
    outer loop
      vertex 217.5 17.5 0
      vertex 222.5 17.5 0
      vertex 222.5 2.5 0
    endloop
  endfacet
  facet normal 0 0 -1
    outer loop
      vertex 222.5 17.5 0
      vertex 217.5 17.5 0
      vertex 222.5 22.5 0
    endloop
  endfacet
  facet normal 0 0 -1
    outer loop
      vertex 222.5 22.5 0
      vertex 217.5 22.5 0
      vertex 222.5 37.5 0
    endloop
  endfacet
  facet normal 0 0 -1
    outer loop
      vertex 217.5 37.5 0
      vertex 222.5 37.5 0
      vertex 217.5 22.5 0
    endloop
  endfacet
  facet normal 0 0 -1
    outer loop
      vertex 217.5 42.5 0
      vertex 222.5 42.5 0
      vertex 217.5 37.5 0
    endloop
  endfacet
  facet normal 0 0 -1
    outer loop
      vertex 222.5 42.5 0
      vertex 217.5 42.5 0
      vertex 222.5 57.5 0
    endloop
  endfacet
  facet normal 0 0 -1
    outer loop
      vertex 222.5 57.5 0
      vertex 217.5 57.5 0
      vertex 222.5 62.5 0
    endloop
  endfacet
  facet normal 0 0 -1
    outer loop
      vertex 217.5 62.5 0
      vertex 222.5 62.5 0
      vertex 217.5 57.5 0
    endloop
  endfacet
  facet normal 0 0 -1
    outer loop
      vertex 217.5 77.5 0
      vertex 222.5 77.5 0
      vertex 217.5 62.5 0
    endloop
  endfacet
  facet normal 0 0 -1
    outer loop
      vertex 222.5 77.5 0
      vertex 217.5 77.5 0
      vertex 222.5 82.5 0
    endloop
  endfacet
  facet normal 0 0 -1
    outer loop
      vertex 222.5 82.5 0
      vertex 217.5 82.5 0
      vertex 222.5 97.5 0
    endloop
  endfacet
  facet normal 0 0 -1
    outer loop
      vertex 217.5 97.5 0
      vertex 222.5 97.5 0
      vertex 217.5 82.5 0
    endloop
  endfacet
  facet normal 0 0 -1
    outer loop
      vertex 217.5 17.5 0
      vertex 222.5 2.5 0
      vertex 217.5 2.5 0
    endloop
  endfacet
  facet normal 0 0 -1
    outer loop
      vertex 260 0 0
      vertex 217.5 2.5 0
      vertex 222.5 2.5 0
    endloop
  endfacet
  facet normal 0 0 -1
    outer loop
      vertex 260 0 0
      vertex 202.5 2.5 0
      vertex 217.5 2.5 0
    endloop
  endfacet
  facet normal 0 0 -1
    outer loop
      vertex 197.5 17.5 0
      vertex 202.5 17.5 0
      vertex 202.5 2.5 0
    endloop
  endfacet
  facet normal 0 0 -1
    outer loop
      vertex 202.5 17.5 0
      vertex 197.5 17.5 0
      vertex 202.5 22.5 0
    endloop
  endfacet
  facet normal 0 0 -1
    outer loop
      vertex 202.5 22.5 0
      vertex 197.5 22.5 0
      vertex 202.5 37.5 0
    endloop
  endfacet
  facet normal 0 0 -1
    outer loop
      vertex 197.5 37.5 0
      vertex 202.5 37.5 0
      vertex 197.5 22.5 0
    endloop
  endfacet
  facet normal 0 0 -1
    outer loop
      vertex 197.5 42.5 0
      vertex 202.5 42.5 0
      vertex 197.5 37.5 0
    endloop
  endfacet
  facet normal 0 0 -1
    outer loop
      vertex 202.5 42.5 0
      vertex 197.5 42.5 0
      vertex 202.5 57.5 0
    endloop
  endfacet
  facet normal 0 0 -1
    outer loop
      vertex 202.5 57.5 0
      vertex 197.5 57.5 0
      vertex 202.5 62.5 0
    endloop
  endfacet
  facet normal 0 0 -1
    outer loop
      vertex 197.5 62.5 0
      vertex 202.5 62.5 0
      vertex 197.5 57.5 0
    endloop
  endfacet
  facet normal 0 0 -1
    outer loop
      vertex 197.5 77.5 0
      vertex 202.5 77.5 0
      vertex 197.5 62.5 0
    endloop
  endfacet
  facet normal 0 0 -1
    outer loop
      vertex 202.5 77.5 0
      vertex 197.5 77.5 0
      vertex 202.5 82.5 0
    endloop
  endfacet
  facet normal 0 0 -1
    outer loop
      vertex 202.5 82.5 0
      vertex 197.5 82.5 0
      vertex 202.5 97.5 0
    endloop
  endfacet
  facet normal 0 0 -1
    outer loop
      vertex 197.5 97.5 0
      vertex 202.5 97.5 0
      vertex 197.5 82.5 0
    endloop
  endfacet
  facet normal 0 0 -1
    outer loop
      vertex 197.5 17.5 0
      vertex 202.5 2.5 0
      vertex 197.5 2.5 0
    endloop
  endfacet
  facet normal 0 0 -1
    outer loop
      vertex 260 0 0
      vertex 197.5 2.5 0
      vertex 202.5 2.5 0
    endloop
  endfacet
  facet normal 0 0 -1
    outer loop
      vertex 140 0 0
      vertex 197.5 2.5 0
      vertex 260 0 0
    endloop
  endfacet
  facet normal 0 0 -1
    outer loop
      vertex 177.5 17.5 0
      vertex 182.5 17.5 0
      vertex 182.5 2.5 0
    endloop
  endfacet
  facet normal 0 0 -1
    outer loop
      vertex 182.5 17.5 0
      vertex 177.5 17.5 0
      vertex 182.5 22.5 0
    endloop
  endfacet
  facet normal 0 0 -1
    outer loop
      vertex 182.5 22.5 0
      vertex 177.5 22.5 0
      vertex 182.5 37.5 0
    endloop
  endfacet
  facet normal 0 0 -1
    outer loop
      vertex 177.5 37.5 0
      vertex 182.5 37.5 0
      vertex 177.5 22.5 0
    endloop
  endfacet
  facet normal 0 0 -1
    outer loop
      vertex 177.5 42.5 0
      vertex 182.5 42.5 0
      vertex 177.5 37.5 0
    endloop
  endfacet
  facet normal 0 0 -1
    outer loop
      vertex 182.5 42.5 0
      vertex 177.5 42.5 0
      vertex 182.5 57.5 0
    endloop
  endfacet
  facet normal 0 0 -1
    outer loop
      vertex 182.5 57.5 0
      vertex 177.5 57.5 0
      vertex 182.5 62.5 0
    endloop
  endfacet
  facet normal 0 0 -1
    outer loop
      vertex 177.5 62.5 0
      vertex 182.5 62.5 0
      vertex 177.5 57.5 0
    endloop
  endfacet
  facet normal 0 0 -1
    outer loop
      vertex 177.5 77.5 0
      vertex 182.5 77.5 0
      vertex 177.5 62.5 0
    endloop
  endfacet
  facet normal 0 0 -1
    outer loop
      vertex 182.5 77.5 0
      vertex 177.5 77.5 0
      vertex 182.5 82.5 0
    endloop
  endfacet
  facet normal 0 0 -1
    outer loop
      vertex 182.5 82.5 0
      vertex 177.5 82.5 0
      vertex 182.5 97.5 0
    endloop
  endfacet
  facet normal 0 0 -1
    outer loop
      vertex 177.5 97.5 0
      vertex 182.5 97.5 0
      vertex 177.5 82.5 0
    endloop
  endfacet
  facet normal 0 0 -1
    outer loop
      vertex 177.5 17.5 0
      vertex 182.5 2.5 0
      vertex 177.5 2.5 0
    endloop
  endfacet
  facet normal -0 0 -1
    outer loop
      vertex 197.5 2.5 0
      vertex 140 0 0
      vertex 182.5 2.5 0
    endloop
  endfacet
  facet normal -0 0 -1
    outer loop
      vertex 182.5 2.5 0
      vertex 140 0 0
      vertex 177.5 2.5 0
    endloop
  endfacet
  facet normal 0 0 -1
    outer loop
      vertex 157.5 17.5 0
      vertex 162.5 17.5 0
      vertex 162.5 2.5 0
    endloop
  endfacet
  facet normal 0 0 -1
    outer loop
      vertex 162.5 17.5 0
      vertex 157.5 17.5 0
      vertex 162.5 22.5 0
    endloop
  endfacet
  facet normal 0 0 -1
    outer loop
      vertex 162.5 22.5 0
      vertex 157.5 22.5 0
      vertex 162.5 37.5 0
    endloop
  endfacet
  facet normal 0 0 -1
    outer loop
      vertex 157.5 37.5 0
      vertex 162.5 37.5 0
      vertex 157.5 22.5 0
    endloop
  endfacet
  facet normal 0 0 -1
    outer loop
      vertex 157.5 42.5 0
      vertex 162.5 42.5 0
      vertex 157.5 37.5 0
    endloop
  endfacet
  facet normal 0 0 -1
    outer loop
      vertex 162.5 42.5 0
      vertex 157.5 42.5 0
      vertex 162.5 57.5 0
    endloop
  endfacet
  facet normal 0 0 -1
    outer loop
      vertex 162.5 57.5 0
      vertex 157.5 57.5 0
      vertex 162.5 62.5 0
    endloop
  endfacet
  facet normal 0 0 -1
    outer loop
      vertex 157.5 62.5 0
      vertex 162.5 62.5 0
      vertex 157.5 57.5 0
    endloop
  endfacet
  facet normal 0 0 -1
    outer loop
      vertex 157.5 77.5 0
      vertex 162.5 77.5 0
      vertex 157.5 62.5 0
    endloop
  endfacet
  facet normal 0 0 -1
    outer loop
      vertex 162.5 77.5 0
      vertex 157.5 77.5 0
      vertex 162.5 82.5 0
    endloop
  endfacet
  facet normal 0 0 -1
    outer loop
      vertex 162.5 82.5 0
      vertex 157.5 82.5 0
      vertex 162.5 97.5 0
    endloop
  endfacet
  facet normal 0 0 -1
    outer loop
      vertex 157.5 97.5 0
      vertex 162.5 97.5 0
      vertex 157.5 82.5 0
    endloop
  endfacet
  facet normal 0 0 -1
    outer loop
      vertex 157.5 17.5 0
      vertex 162.5 2.5 0
      vertex 157.5 2.5 0
    endloop
  endfacet
  facet normal -0 0 -1
    outer loop
      vertex 177.5 2.5 0
      vertex 140 0 0
      vertex 162.5 2.5 0
    endloop
  endfacet
  facet normal -0 0 -1
    outer loop
      vertex 162.5 2.5 0
      vertex 140 0 0
      vertex 157.5 2.5 0
    endloop
  endfacet
  facet normal 0 0 -1
    outer loop
      vertex 140 0 0
      vertex 142.5 17.5 0
      vertex 142.5 2.5 0
    endloop
  endfacet
  facet normal -0 0 -1
    outer loop
      vertex 142.5 17.5 0
      vertex 140 0 0
      vertex 142.5 22.5 0
    endloop
  endfacet
  facet normal -0 0 -1
    outer loop
      vertex 142.5 22.5 0
      vertex 140 0 0
      vertex 142.5 37.5 0
    endloop
  endfacet
  facet normal -0 0 -1
    outer loop
      vertex 142.5 37.5 0
      vertex 140 0 0
      vertex 142.5 42.5 0
    endloop
  endfacet
  facet normal -0 0 -1
    outer loop
      vertex 142.5 42.5 0
      vertex 140 0 0
      vertex 142.5 57.5 0
    endloop
  endfacet
  facet normal -0 0 -1
    outer loop
      vertex 142.5 57.5 0
      vertex 140 0 0
      vertex 142.5 62.5 0
    endloop
  endfacet
  facet normal -0 0 -1
    outer loop
      vertex 142.5 62.5 0
      vertex 140 0 0
      vertex 142.5 77.5 0
    endloop
  endfacet
  facet normal 0 0 -1
    outer loop
      vertex 140 140 0
      vertex 142.5 77.5 0
      vertex 140 0 0
    endloop
  endfacet
  facet normal 0 0 -1
    outer loop
      vertex 142.5 77.5 0
      vertex 140 140 0
      vertex 142.5 82.5 0
    endloop
  endfacet
  facet normal 0 0 -1
    outer loop
      vertex 142.5 82.5 0
      vertex 140 140 0
      vertex 142.5 97.5 0
    endloop
  endfacet
  facet normal 0 0 -1
    outer loop
      vertex 142.5 97.5 0
      vertex 140 140 0
      vertex 142.5 102.5 0
    endloop
  endfacet
  facet normal 0 0 -1
    outer loop
      vertex 142.5 102.5 0
      vertex 140 140 0
      vertex 142.5 117.5 0
    endloop
  endfacet
  facet normal 0 0 -1
    outer loop
      vertex 142.5 117.5 0
      vertex 140 140 0
      vertex 142.5 122.5 0
    endloop
  endfacet
  facet normal -0 0 -1
    outer loop
      vertex 157.5 2.5 0
      vertex 140 0 0
      vertex 142.5 2.5 0
    endloop
  endfacet
  facet normal 0 0 -1
    outer loop
      vertex 257.5 22.5 0
      vertex 260 0 0
      vertex 257.5 17.5 0
    endloop
  endfacet
  facet normal 0 0 -1
    outer loop
      vertex 257.5 37.5 0
      vertex 260 0 0
      vertex 257.5 22.5 0
    endloop
  endfacet
  facet normal 0 0 -1
    outer loop
      vertex 257.5 42.5 0
      vertex 260 0 0
      vertex 257.5 37.5 0
    endloop
  endfacet
  facet normal 0 0 -1
    outer loop
      vertex 257.5 57.5 0
      vertex 260 0 0
      vertex 257.5 42.5 0
    endloop
  endfacet
  facet normal 0 0 -1
    outer loop
      vertex 257.5 62.5 0
      vertex 260 0 0
      vertex 257.5 57.5 0
    endloop
  endfacet
  facet normal 0 0 -1
    outer loop
      vertex 260 0 0
      vertex 257.5 62.5 0
      vertex 260 140 0
    endloop
  endfacet
  facet normal 0 0 -1
    outer loop
      vertex 257.5 77.5 0
      vertex 260 140 0
      vertex 257.5 62.5 0
    endloop
  endfacet
  facet normal 0 0 -1
    outer loop
      vertex 257.5 82.5 0
      vertex 260 140 0
      vertex 257.5 77.5 0
    endloop
  endfacet
  facet normal 0 0 -1
    outer loop
      vertex 257.5 97.5 0
      vertex 260 140 0
      vertex 257.5 82.5 0
    endloop
  endfacet
  facet normal 0 0 -1
    outer loop
      vertex 257.5 102.5 0
      vertex 260 140 0
      vertex 257.5 97.5 0
    endloop
  endfacet
  facet normal 0 0 -1
    outer loop
      vertex 257.5 117.5 0
      vertex 260 140 0
      vertex 257.5 102.5 0
    endloop
  endfacet
  facet normal 0 0 -1
    outer loop
      vertex 257.5 122.5 0
      vertex 260 140 0
      vertex 257.5 117.5 0
    endloop
  endfacet
  facet normal 0 0 -1
    outer loop
      vertex 257.5 137.5 0
      vertex 260 140 0
      vertex 257.5 122.5 0
    endloop
  endfacet
  facet normal 0 0 -1
    outer loop
      vertex 242.5 137.5 0
      vertex 260 140 0
      vertex 257.5 137.5 0
    endloop
  endfacet
  facet normal -0 0 -1
    outer loop
      vertex 242.5 22.5 0
      vertex 237.5 17.5 0
      vertex 237.5 22.5 0
    endloop
  endfacet
  facet normal 0 0 -1
    outer loop
      vertex 242.5 37.5 0
      vertex 237.5 37.5 0
      vertex 242.5 42.5 0
    endloop
  endfacet
  facet normal 0 0 -1
    outer loop
      vertex 237.5 57.5 0
      vertex 242.5 57.5 0
      vertex 237.5 42.5 0
    endloop
  endfacet
  facet normal 0 0 -1
    outer loop
      vertex 242.5 62.5 0
      vertex 237.5 62.5 0
      vertex 242.5 77.5 0
    endloop
  endfacet
  facet normal 0 0 -1
    outer loop
      vertex 237.5 82.5 0
      vertex 242.5 82.5 0
      vertex 237.5 77.5 0
    endloop
  endfacet
  facet normal 0 0 -1
    outer loop
      vertex 242.5 97.5 0
      vertex 237.5 97.5 0
      vertex 242.5 102.5 0
    endloop
  endfacet
  facet normal 0 0 -1
    outer loop
      vertex 237.5 102.5 0
      vertex 242.5 102.5 0
      vertex 237.5 97.5 0
    endloop
  endfacet
  facet normal 0 0 -1
    outer loop
      vertex 242.5 102.5 0
      vertex 237.5 102.5 0
      vertex 242.5 117.5 0
    endloop
  endfacet
  facet normal 0 0 -1
    outer loop
      vertex 237.5 117.5 0
      vertex 242.5 117.5 0
      vertex 237.5 102.5 0
    endloop
  endfacet
  facet normal 0 0 -1
    outer loop
      vertex 242.5 117.5 0
      vertex 237.5 117.5 0
      vertex 242.5 122.5 0
    endloop
  endfacet
  facet normal 0 0 -1
    outer loop
      vertex 237.5 122.5 0
      vertex 242.5 122.5 0
      vertex 237.5 117.5 0
    endloop
  endfacet
  facet normal 0 0 -1
    outer loop
      vertex 242.5 122.5 0
      vertex 237.5 122.5 0
      vertex 242.5 137.5 0
    endloop
  endfacet
  facet normal 0 0 -1
    outer loop
      vertex 237.5 137.5 0
      vertex 242.5 137.5 0
      vertex 237.5 122.5 0
    endloop
  endfacet
  facet normal 0 0 -1
    outer loop
      vertex 237.5 137.5 0
      vertex 260 140 0
      vertex 242.5 137.5 0
    endloop
  endfacet
  facet normal 0 0 -1
    outer loop
      vertex 222.5 137.5 0
      vertex 260 140 0
      vertex 237.5 137.5 0
    endloop
  endfacet
  facet normal -0 0 -1
    outer loop
      vertex 222.5 22.5 0
      vertex 217.5 17.5 0
      vertex 217.5 22.5 0
    endloop
  endfacet
  facet normal 0 0 -1
    outer loop
      vertex 222.5 37.5 0
      vertex 217.5 37.5 0
      vertex 222.5 42.5 0
    endloop
  endfacet
  facet normal 0 0 -1
    outer loop
      vertex 217.5 57.5 0
      vertex 222.5 57.5 0
      vertex 217.5 42.5 0
    endloop
  endfacet
  facet normal 0 0 -1
    outer loop
      vertex 222.5 62.5 0
      vertex 217.5 62.5 0
      vertex 222.5 77.5 0
    endloop
  endfacet
  facet normal 0 0 -1
    outer loop
      vertex 217.5 82.5 0
      vertex 222.5 82.5 0
      vertex 217.5 77.5 0
    endloop
  endfacet
  facet normal 0 0 -1
    outer loop
      vertex 222.5 97.5 0
      vertex 217.5 97.5 0
      vertex 222.5 102.5 0
    endloop
  endfacet
  facet normal 0 0 -1
    outer loop
      vertex 217.5 102.5 0
      vertex 222.5 102.5 0
      vertex 217.5 97.5 0
    endloop
  endfacet
  facet normal 0 0 -1
    outer loop
      vertex 222.5 102.5 0
      vertex 217.5 102.5 0
      vertex 222.5 117.5 0
    endloop
  endfacet
  facet normal 0 0 -1
    outer loop
      vertex 217.5 117.5 0
      vertex 222.5 117.5 0
      vertex 217.5 102.5 0
    endloop
  endfacet
  facet normal 0 0 -1
    outer loop
      vertex 222.5 117.5 0
      vertex 217.5 117.5 0
      vertex 222.5 122.5 0
    endloop
  endfacet
  facet normal 0 0 -1
    outer loop
      vertex 217.5 122.5 0
      vertex 222.5 122.5 0
      vertex 217.5 117.5 0
    endloop
  endfacet
  facet normal 0 0 -1
    outer loop
      vertex 222.5 122.5 0
      vertex 217.5 122.5 0
      vertex 222.5 137.5 0
    endloop
  endfacet
  facet normal 0 0 -1
    outer loop
      vertex 217.5 137.5 0
      vertex 222.5 137.5 0
      vertex 217.5 122.5 0
    endloop
  endfacet
  facet normal 0 0 -1
    outer loop
      vertex 217.5 137.5 0
      vertex 260 140 0
      vertex 222.5 137.5 0
    endloop
  endfacet
  facet normal 0 0 -1
    outer loop
      vertex 202.5 137.5 0
      vertex 260 140 0
      vertex 217.5 137.5 0
    endloop
  endfacet
  facet normal -0 0 -1
    outer loop
      vertex 202.5 22.5 0
      vertex 197.5 17.5 0
      vertex 197.5 22.5 0
    endloop
  endfacet
  facet normal 0 0 -1
    outer loop
      vertex 202.5 37.5 0
      vertex 197.5 37.5 0
      vertex 202.5 42.5 0
    endloop
  endfacet
  facet normal 0 0 -1
    outer loop
      vertex 197.5 57.5 0
      vertex 202.5 57.5 0
      vertex 197.5 42.5 0
    endloop
  endfacet
  facet normal 0 0 -1
    outer loop
      vertex 202.5 62.5 0
      vertex 197.5 62.5 0
      vertex 202.5 77.5 0
    endloop
  endfacet
  facet normal 0 0 -1
    outer loop
      vertex 197.5 82.5 0
      vertex 202.5 82.5 0
      vertex 197.5 77.5 0
    endloop
  endfacet
  facet normal 0 0 -1
    outer loop
      vertex 202.5 97.5 0
      vertex 197.5 97.5 0
      vertex 202.5 102.5 0
    endloop
  endfacet
  facet normal 0 0 -1
    outer loop
      vertex 197.5 102.5 0
      vertex 202.5 102.5 0
      vertex 197.5 97.5 0
    endloop
  endfacet
  facet normal 0 0 -1
    outer loop
      vertex 202.5 102.5 0
      vertex 197.5 102.5 0
      vertex 202.5 117.5 0
    endloop
  endfacet
  facet normal 0 0 -1
    outer loop
      vertex 197.5 117.5 0
      vertex 202.5 117.5 0
      vertex 197.5 102.5 0
    endloop
  endfacet
  facet normal 0 0 -1
    outer loop
      vertex 202.5 117.5 0
      vertex 197.5 117.5 0
      vertex 202.5 122.5 0
    endloop
  endfacet
  facet normal 0 0 -1
    outer loop
      vertex 197.5 122.5 0
      vertex 202.5 122.5 0
      vertex 197.5 117.5 0
    endloop
  endfacet
  facet normal 0 0 -1
    outer loop
      vertex 202.5 122.5 0
      vertex 197.5 122.5 0
      vertex 202.5 137.5 0
    endloop
  endfacet
  facet normal 0 0 -1
    outer loop
      vertex 197.5 137.5 0
      vertex 202.5 137.5 0
      vertex 197.5 122.5 0
    endloop
  endfacet
  facet normal 0 0 -1
    outer loop
      vertex 197.5 137.5 0
      vertex 260 140 0
      vertex 202.5 137.5 0
    endloop
  endfacet
  facet normal 0 0 -1
    outer loop
      vertex 140 140 0
      vertex 197.5 137.5 0
      vertex 182.5 137.5 0
    endloop
  endfacet
  facet normal -0 0 -1
    outer loop
      vertex 182.5 22.5 0
      vertex 177.5 17.5 0
      vertex 177.5 22.5 0
    endloop
  endfacet
  facet normal 0 0 -1
    outer loop
      vertex 182.5 37.5 0
      vertex 177.5 37.5 0
      vertex 182.5 42.5 0
    endloop
  endfacet
  facet normal 0 0 -1
    outer loop
      vertex 177.5 57.5 0
      vertex 182.5 57.5 0
      vertex 177.5 42.5 0
    endloop
  endfacet
  facet normal 0 0 -1
    outer loop
      vertex 182.5 62.5 0
      vertex 177.5 62.5 0
      vertex 182.5 77.5 0
    endloop
  endfacet
  facet normal 0 0 -1
    outer loop
      vertex 177.5 82.5 0
      vertex 182.5 82.5 0
      vertex 177.5 77.5 0
    endloop
  endfacet
  facet normal 0 0 -1
    outer loop
      vertex 182.5 97.5 0
      vertex 177.5 97.5 0
      vertex 182.5 102.5 0
    endloop
  endfacet
  facet normal 0 0 -1
    outer loop
      vertex 177.5 102.5 0
      vertex 182.5 102.5 0
      vertex 177.5 97.5 0
    endloop
  endfacet
  facet normal 0 0 -1
    outer loop
      vertex 182.5 102.5 0
      vertex 177.5 102.5 0
      vertex 182.5 117.5 0
    endloop
  endfacet
  facet normal 0 0 -1
    outer loop
      vertex 177.5 117.5 0
      vertex 182.5 117.5 0
      vertex 177.5 102.5 0
    endloop
  endfacet
  facet normal 0 0 -1
    outer loop
      vertex 182.5 117.5 0
      vertex 177.5 117.5 0
      vertex 182.5 122.5 0
    endloop
  endfacet
  facet normal 0 0 -1
    outer loop
      vertex 177.5 122.5 0
      vertex 182.5 122.5 0
      vertex 177.5 117.5 0
    endloop
  endfacet
  facet normal 0 0 -1
    outer loop
      vertex 182.5 122.5 0
      vertex 177.5 122.5 0
      vertex 182.5 137.5 0
    endloop
  endfacet
  facet normal 0 0 -1
    outer loop
      vertex 177.5 137.5 0
      vertex 182.5 137.5 0
      vertex 177.5 122.5 0
    endloop
  endfacet
  facet normal 0 0 -1
    outer loop
      vertex 140 140 0
      vertex 182.5 137.5 0
      vertex 177.5 137.5 0
    endloop
  endfacet
  facet normal 0 0 -1
    outer loop
      vertex 140 140 0
      vertex 177.5 137.5 0
      vertex 162.5 137.5 0
    endloop
  endfacet
  facet normal -0 0 -1
    outer loop
      vertex 162.5 22.5 0
      vertex 157.5 17.5 0
      vertex 157.5 22.5 0
    endloop
  endfacet
  facet normal 0 0 -1
    outer loop
      vertex 162.5 37.5 0
      vertex 157.5 37.5 0
      vertex 162.5 42.5 0
    endloop
  endfacet
  facet normal 0 0 -1
    outer loop
      vertex 157.5 57.5 0
      vertex 162.5 57.5 0
      vertex 157.5 42.5 0
    endloop
  endfacet
  facet normal 0 0 -1
    outer loop
      vertex 162.5 62.5 0
      vertex 157.5 62.5 0
      vertex 162.5 77.5 0
    endloop
  endfacet
  facet normal 0 0 -1
    outer loop
      vertex 157.5 82.5 0
      vertex 162.5 82.5 0
      vertex 157.5 77.5 0
    endloop
  endfacet
  facet normal 0 0 -1
    outer loop
      vertex 162.5 97.5 0
      vertex 157.5 97.5 0
      vertex 162.5 102.5 0
    endloop
  endfacet
  facet normal 0 0 -1
    outer loop
      vertex 157.5 102.5 0
      vertex 162.5 102.5 0
      vertex 157.5 97.5 0
    endloop
  endfacet
  facet normal 0 0 -1
    outer loop
      vertex 162.5 102.5 0
      vertex 157.5 102.5 0
      vertex 162.5 117.5 0
    endloop
  endfacet
  facet normal 0 0 -1
    outer loop
      vertex 157.5 117.5 0
      vertex 162.5 117.5 0
      vertex 157.5 102.5 0
    endloop
  endfacet
  facet normal 0 0 -1
    outer loop
      vertex 162.5 117.5 0
      vertex 157.5 117.5 0
      vertex 162.5 122.5 0
    endloop
  endfacet
  facet normal 0 0 -1
    outer loop
      vertex 157.5 122.5 0
      vertex 162.5 122.5 0
      vertex 157.5 117.5 0
    endloop
  endfacet
  facet normal 0 0 -1
    outer loop
      vertex 162.5 122.5 0
      vertex 157.5 122.5 0
      vertex 162.5 137.5 0
    endloop
  endfacet
  facet normal 0 0 -1
    outer loop
      vertex 157.5 137.5 0
      vertex 162.5 137.5 0
      vertex 157.5 122.5 0
    endloop
  endfacet
  facet normal 0 0 -1
    outer loop
      vertex 140 140 0
      vertex 162.5 137.5 0
      vertex 157.5 137.5 0
    endloop
  endfacet
  facet normal 0 0 -1
    outer loop
      vertex 140 140 0
      vertex 157.5 137.5 0
      vertex 142.5 137.5 0
    endloop
  endfacet
  facet normal 0 0 -1
    outer loop
      vertex 197.5 137.5 0
      vertex 140 140 0
      vertex 260 140 0
    endloop
  endfacet
  facet normal 0 0 -1
    outer loop
      vertex 142.5 122.5 0
      vertex 140 140 0
      vertex 142.5 137.5 0
    endloop
  endfacet
  facet normal 0 0.768221 0.640184
    outer loop
      vertex 237.5 2.5 0
      vertex 220 0 3
      vertex 240 0 3
    endloop
  endfacet
  facet normal 0 0.768221 0.640184
    outer loop
      vertex 220 0 3
      vertex 237.5 2.5 0
      vertex 222.5 2.5 0
    endloop
  endfacet
  facet normal 0 0.768221 0.640184
    outer loop
      vertex 217.5 2.5 0
      vertex 200 0 3
      vertex 220 0 3
    endloop
  endfacet
  facet normal 0 0.768221 0.640184
    outer loop
      vertex 200 0 3
      vertex 217.5 2.5 0
      vertex 202.5 2.5 0
    endloop
  endfacet
  facet normal 0 0.768221 0.640184
    outer loop
      vertex 157.5 2.5 0
      vertex 140 0 3
      vertex 160 0 3
    endloop
  endfacet
  facet normal 0 0.768221 0.640184
    outer loop
      vertex 140 0 3
      vertex 157.5 2.5 0
      vertex 142.5 2.5 0
    endloop
  endfacet
  facet normal 0 0.768221 0.640184
    outer loop
      vertex 197.5 2.5 0
      vertex 180 0 3
      vertex 200 0 3
    endloop
  endfacet
  facet normal 0 0.768221 0.640184
    outer loop
      vertex 180 0 3
      vertex 197.5 2.5 0
      vertex 182.5 2.5 0
    endloop
  endfacet
  facet normal 0 0.768221 0.640184
    outer loop
      vertex 177.5 2.5 0
      vertex 160 0 3
      vertex 180 0 3
    endloop
  endfacet
  facet normal 0 0.768221 0.640184
    outer loop
      vertex 160 0 3
      vertex 177.5 2.5 0
      vertex 162.5 2.5 0
    endloop
  endfacet
  facet normal 0 0.768221 0.640184
    outer loop
      vertex 257.5 2.5 0
      vertex 240 0 3
      vertex 260 0 3
    endloop
  endfacet
  facet normal 0 0.768221 0.640184
    outer loop
      vertex 240 0 3
      vertex 257.5 2.5 0
      vertex 242.5 2.5 0
    endloop
  endfacet
  facet normal 0 0.768221 0.640184
    outer loop
      vertex 157.5 22.5 0
      vertex 140 20 3
      vertex 160 20 3
    endloop
  endfacet
  facet normal 0 0.768221 0.640184
    outer loop
      vertex 140 20 3
      vertex 157.5 22.5 0
      vertex 142.5 22.5 0
    endloop
  endfacet
  facet normal 0 0.768221 0.640184
    outer loop
      vertex 257.5 22.5 0
      vertex 240 20 3
      vertex 260 20 3
    endloop
  endfacet
  facet normal 0 0.768221 0.640184
    outer loop
      vertex 240 20 3
      vertex 257.5 22.5 0
      vertex 242.5 22.5 0
    endloop
  endfacet
  facet normal 0 0.768221 0.640184
    outer loop
      vertex 177.5 22.5 0
      vertex 160 20 3
      vertex 180 20 3
    endloop
  endfacet
  facet normal 0 0.768221 0.640184
    outer loop
      vertex 160 20 3
      vertex 177.5 22.5 0
      vertex 162.5 22.5 0
    endloop
  endfacet
  facet normal 0 0.768221 0.640184
    outer loop
      vertex 197.5 22.5 0
      vertex 180 20 3
      vertex 200 20 3
    endloop
  endfacet
  facet normal 0 0.768221 0.640184
    outer loop
      vertex 180 20 3
      vertex 197.5 22.5 0
      vertex 182.5 22.5 0
    endloop
  endfacet
  facet normal 0 0.768221 0.640184
    outer loop
      vertex 217.5 22.5 0
      vertex 200 20 3
      vertex 220 20 3
    endloop
  endfacet
  facet normal 0 0.768221 0.640184
    outer loop
      vertex 200 20 3
      vertex 217.5 22.5 0
      vertex 202.5 22.5 0
    endloop
  endfacet
  facet normal 0 0.768221 0.640184
    outer loop
      vertex 237.5 22.5 0
      vertex 220 20 3
      vertex 240 20 3
    endloop
  endfacet
  facet normal 0 0.768221 0.640184
    outer loop
      vertex 220 20 3
      vertex 237.5 22.5 0
      vertex 222.5 22.5 0
    endloop
  endfacet
  facet normal 0 -0.768221 0.640184
    outer loop
      vertex 142.5 17.5 0
      vertex 160 20 3
      vertex 140 20 3
    endloop
  endfacet
  facet normal 0 -0.768221 0.640184
    outer loop
      vertex 160 20 3
      vertex 142.5 17.5 0
      vertex 157.5 17.5 0
    endloop
  endfacet
  facet normal 0 -0.768221 0.640184
    outer loop
      vertex 242.5 17.5 0
      vertex 260 20 3
      vertex 240 20 3
    endloop
  endfacet
  facet normal 0 -0.768221 0.640184
    outer loop
      vertex 260 20 3
      vertex 242.5 17.5 0
      vertex 257.5 17.5 0
    endloop
  endfacet
  facet normal 0 -0.768221 0.640184
    outer loop
      vertex 162.5 17.5 0
      vertex 180 20 3
      vertex 160 20 3
    endloop
  endfacet
  facet normal 0 -0.768221 0.640184
    outer loop
      vertex 180 20 3
      vertex 162.5 17.5 0
      vertex 177.5 17.5 0
    endloop
  endfacet
  facet normal 0 -0.768221 0.640184
    outer loop
      vertex 182.5 17.5 0
      vertex 200 20 3
      vertex 180 20 3
    endloop
  endfacet
  facet normal 0 -0.768221 0.640184
    outer loop
      vertex 200 20 3
      vertex 182.5 17.5 0
      vertex 197.5 17.5 0
    endloop
  endfacet
  facet normal 0 -0.768221 0.640184
    outer loop
      vertex 202.5 17.5 0
      vertex 220 20 3
      vertex 200 20 3
    endloop
  endfacet
  facet normal 0 -0.768221 0.640184
    outer loop
      vertex 220 20 3
      vertex 202.5 17.5 0
      vertex 217.5 17.5 0
    endloop
  endfacet
  facet normal 0 -0.768221 0.640184
    outer loop
      vertex 222.5 17.5 0
      vertex 240 20 3
      vertex 220 20 3
    endloop
  endfacet
  facet normal 0 -0.768221 0.640184
    outer loop
      vertex 240 20 3
      vertex 222.5 17.5 0
      vertex 237.5 17.5 0
    endloop
  endfacet
  facet normal 0 0.768221 0.640184
    outer loop
      vertex 157.5 42.5 0
      vertex 140 40 3
      vertex 160 40 3
    endloop
  endfacet
  facet normal 0 0.768221 0.640184
    outer loop
      vertex 140 40 3
      vertex 157.5 42.5 0
      vertex 142.5 42.5 0
    endloop
  endfacet
  facet normal 0 0.768221 0.640184
    outer loop
      vertex 257.5 42.5 0
      vertex 240 40 3
      vertex 260 40 3
    endloop
  endfacet
  facet normal 0 0.768221 0.640184
    outer loop
      vertex 240 40 3
      vertex 257.5 42.5 0
      vertex 242.5 42.5 0
    endloop
  endfacet
  facet normal 0 0.768221 0.640184
    outer loop
      vertex 177.5 42.5 0
      vertex 160 40 3
      vertex 180 40 3
    endloop
  endfacet
  facet normal 0 0.768221 0.640184
    outer loop
      vertex 160 40 3
      vertex 177.5 42.5 0
      vertex 162.5 42.5 0
    endloop
  endfacet
  facet normal 0 0.768221 0.640184
    outer loop
      vertex 197.5 42.5 0
      vertex 180 40 3
      vertex 200 40 3
    endloop
  endfacet
  facet normal 0 0.768221 0.640184
    outer loop
      vertex 180 40 3
      vertex 197.5 42.5 0
      vertex 182.5 42.5 0
    endloop
  endfacet
  facet normal 0 0.768221 0.640184
    outer loop
      vertex 217.5 42.5 0
      vertex 200 40 3
      vertex 220 40 3
    endloop
  endfacet
  facet normal 0 0.768221 0.640184
    outer loop
      vertex 200 40 3
      vertex 217.5 42.5 0
      vertex 202.5 42.5 0
    endloop
  endfacet
  facet normal 0 0.768221 0.640184
    outer loop
      vertex 237.5 42.5 0
      vertex 220 40 3
      vertex 240 40 3
    endloop
  endfacet
  facet normal 0 0.768221 0.640184
    outer loop
      vertex 220 40 3
      vertex 237.5 42.5 0
      vertex 222.5 42.5 0
    endloop
  endfacet
  facet normal 0 -0.768221 0.640184
    outer loop
      vertex 142.5 37.5 0
      vertex 160 40 3
      vertex 140 40 3
    endloop
  endfacet
  facet normal 0 -0.768221 0.640184
    outer loop
      vertex 160 40 3
      vertex 142.5 37.5 0
      vertex 157.5 37.5 0
    endloop
  endfacet
  facet normal 0 -0.768221 0.640184
    outer loop
      vertex 242.5 37.5 0
      vertex 260 40 3
      vertex 240 40 3
    endloop
  endfacet
  facet normal 0 -0.768221 0.640184
    outer loop
      vertex 260 40 3
      vertex 242.5 37.5 0
      vertex 257.5 37.5 0
    endloop
  endfacet
  facet normal 0 -0.768221 0.640184
    outer loop
      vertex 162.5 37.5 0
      vertex 180 40 3
      vertex 160 40 3
    endloop
  endfacet
  facet normal 0 -0.768221 0.640184
    outer loop
      vertex 180 40 3
      vertex 162.5 37.5 0
      vertex 177.5 37.5 0
    endloop
  endfacet
  facet normal 0 -0.768221 0.640184
    outer loop
      vertex 182.5 37.5 0
      vertex 200 40 3
      vertex 180 40 3
    endloop
  endfacet
  facet normal 0 -0.768221 0.640184
    outer loop
      vertex 200 40 3
      vertex 182.5 37.5 0
      vertex 197.5 37.5 0
    endloop
  endfacet
  facet normal 0 -0.768221 0.640184
    outer loop
      vertex 202.5 37.5 0
      vertex 220 40 3
      vertex 200 40 3
    endloop
  endfacet
  facet normal 0 -0.768221 0.640184
    outer loop
      vertex 220 40 3
      vertex 202.5 37.5 0
      vertex 217.5 37.5 0
    endloop
  endfacet
  facet normal 0 -0.768221 0.640184
    outer loop
      vertex 222.5 37.5 0
      vertex 240 40 3
      vertex 220 40 3
    endloop
  endfacet
  facet normal 0 -0.768221 0.640184
    outer loop
      vertex 240 40 3
      vertex 222.5 37.5 0
      vertex 237.5 37.5 0
    endloop
  endfacet
  facet normal 0 0.768221 0.640184
    outer loop
      vertex 157.5 62.5 0
      vertex 140 60 3
      vertex 160 60 3
    endloop
  endfacet
  facet normal 0 0.768221 0.640184
    outer loop
      vertex 140 60 3
      vertex 157.5 62.5 0
      vertex 142.5 62.5 0
    endloop
  endfacet
  facet normal 0 0.768221 0.640184
    outer loop
      vertex 257.5 62.5 0
      vertex 240 60 3
      vertex 260 60 3
    endloop
  endfacet
  facet normal 0 0.768221 0.640184
    outer loop
      vertex 240 60 3
      vertex 257.5 62.5 0
      vertex 242.5 62.5 0
    endloop
  endfacet
  facet normal 0 0.768221 0.640184
    outer loop
      vertex 177.5 62.5 0
      vertex 160 60 3
      vertex 180 60 3
    endloop
  endfacet
  facet normal 0 0.768221 0.640184
    outer loop
      vertex 160 60 3
      vertex 177.5 62.5 0
      vertex 162.5 62.5 0
    endloop
  endfacet
  facet normal 0 0.768221 0.640184
    outer loop
      vertex 197.5 62.5 0
      vertex 180 60 3
      vertex 200 60 3
    endloop
  endfacet
  facet normal 0 0.768221 0.640184
    outer loop
      vertex 180 60 3
      vertex 197.5 62.5 0
      vertex 182.5 62.5 0
    endloop
  endfacet
  facet normal 0 0.768221 0.640184
    outer loop
      vertex 217.5 62.5 0
      vertex 200 60 3
      vertex 220 60 3
    endloop
  endfacet
  facet normal 0 0.768221 0.640184
    outer loop
      vertex 200 60 3
      vertex 217.5 62.5 0
      vertex 202.5 62.5 0
    endloop
  endfacet
  facet normal 0 0.768221 0.640184
    outer loop
      vertex 237.5 62.5 0
      vertex 220 60 3
      vertex 240 60 3
    endloop
  endfacet
  facet normal 0 0.768221 0.640184
    outer loop
      vertex 220 60 3
      vertex 237.5 62.5 0
      vertex 222.5 62.5 0
    endloop
  endfacet
  facet normal 0 -0.768221 0.640184
    outer loop
      vertex 142.5 57.5 0
      vertex 160 60 3
      vertex 140 60 3
    endloop
  endfacet
  facet normal 0 -0.768221 0.640184
    outer loop
      vertex 160 60 3
      vertex 142.5 57.5 0
      vertex 157.5 57.5 0
    endloop
  endfacet
  facet normal 0 -0.768221 0.640184
    outer loop
      vertex 242.5 57.5 0
      vertex 260 60 3
      vertex 240 60 3
    endloop
  endfacet
  facet normal 0 -0.768221 0.640184
    outer loop
      vertex 260 60 3
      vertex 242.5 57.5 0
      vertex 257.5 57.5 0
    endloop
  endfacet
  facet normal 0 -0.768221 0.640184
    outer loop
      vertex 162.5 57.5 0
      vertex 180 60 3
      vertex 160 60 3
    endloop
  endfacet
  facet normal 0 -0.768221 0.640184
    outer loop
      vertex 180 60 3
      vertex 162.5 57.5 0
      vertex 177.5 57.5 0
    endloop
  endfacet
  facet normal 0 -0.768221 0.640184
    outer loop
      vertex 182.5 57.5 0
      vertex 200 60 3
      vertex 180 60 3
    endloop
  endfacet
  facet normal 0 -0.768221 0.640184
    outer loop
      vertex 200 60 3
      vertex 182.5 57.5 0
      vertex 197.5 57.5 0
    endloop
  endfacet
  facet normal 0 -0.768221 0.640184
    outer loop
      vertex 202.5 57.5 0
      vertex 220 60 3
      vertex 200 60 3
    endloop
  endfacet
  facet normal 0 -0.768221 0.640184
    outer loop
      vertex 220 60 3
      vertex 202.5 57.5 0
      vertex 217.5 57.5 0
    endloop
  endfacet
  facet normal 0 -0.768221 0.640184
    outer loop
      vertex 222.5 57.5 0
      vertex 240 60 3
      vertex 220 60 3
    endloop
  endfacet
  facet normal 0 -0.768221 0.640184
    outer loop
      vertex 240 60 3
      vertex 222.5 57.5 0
      vertex 237.5 57.5 0
    endloop
  endfacet
  facet normal 0 0.768221 0.640184
    outer loop
      vertex 157.5 82.5 0
      vertex 140 80 3
      vertex 160 80 3
    endloop
  endfacet
  facet normal 0 0.768221 0.640184
    outer loop
      vertex 140 80 3
      vertex 157.5 82.5 0
      vertex 142.5 82.5 0
    endloop
  endfacet
  facet normal 0 0.768221 0.640184
    outer loop
      vertex 257.5 82.5 0
      vertex 240 80 3
      vertex 260 80 3
    endloop
  endfacet
  facet normal 0 0.768221 0.640184
    outer loop
      vertex 240 80 3
      vertex 257.5 82.5 0
      vertex 242.5 82.5 0
    endloop
  endfacet
  facet normal 0 0.768221 0.640184
    outer loop
      vertex 177.5 82.5 0
      vertex 160 80 3
      vertex 180 80 3
    endloop
  endfacet
  facet normal 0 0.768221 0.640184
    outer loop
      vertex 160 80 3
      vertex 177.5 82.5 0
      vertex 162.5 82.5 0
    endloop
  endfacet
  facet normal 0 0.768221 0.640184
    outer loop
      vertex 197.5 82.5 0
      vertex 180 80 3
      vertex 200 80 3
    endloop
  endfacet
  facet normal 0 0.768221 0.640184
    outer loop
      vertex 180 80 3
      vertex 197.5 82.5 0
      vertex 182.5 82.5 0
    endloop
  endfacet
  facet normal 0 0.768221 0.640184
    outer loop
      vertex 217.5 82.5 0
      vertex 200 80 3
      vertex 220 80 3
    endloop
  endfacet
  facet normal 0 0.768221 0.640184
    outer loop
      vertex 200 80 3
      vertex 217.5 82.5 0
      vertex 202.5 82.5 0
    endloop
  endfacet
  facet normal 0 0.768221 0.640184
    outer loop
      vertex 237.5 82.5 0
      vertex 220 80 3
      vertex 240 80 3
    endloop
  endfacet
  facet normal 0 0.768221 0.640184
    outer loop
      vertex 220 80 3
      vertex 237.5 82.5 0
      vertex 222.5 82.5 0
    endloop
  endfacet
  facet normal 0 -0.768221 0.640184
    outer loop
      vertex 142.5 77.5 0
      vertex 160 80 3
      vertex 140 80 3
    endloop
  endfacet
  facet normal 0 -0.768221 0.640184
    outer loop
      vertex 160 80 3
      vertex 142.5 77.5 0
      vertex 157.5 77.5 0
    endloop
  endfacet
  facet normal 0 -0.768221 0.640184
    outer loop
      vertex 242.5 77.5 0
      vertex 260 80 3
      vertex 240 80 3
    endloop
  endfacet
  facet normal 0 -0.768221 0.640184
    outer loop
      vertex 260 80 3
      vertex 242.5 77.5 0
      vertex 257.5 77.5 0
    endloop
  endfacet
  facet normal 0 -0.768221 0.640184
    outer loop
      vertex 162.5 77.5 0
      vertex 180 80 3
      vertex 160 80 3
    endloop
  endfacet
  facet normal 0 -0.768221 0.640184
    outer loop
      vertex 180 80 3
      vertex 162.5 77.5 0
      vertex 177.5 77.5 0
    endloop
  endfacet
  facet normal 0 -0.768221 0.640184
    outer loop
      vertex 182.5 77.5 0
      vertex 200 80 3
      vertex 180 80 3
    endloop
  endfacet
  facet normal 0 -0.768221 0.640184
    outer loop
      vertex 200 80 3
      vertex 182.5 77.5 0
      vertex 197.5 77.5 0
    endloop
  endfacet
  facet normal 0 -0.768221 0.640184
    outer loop
      vertex 202.5 77.5 0
      vertex 220 80 3
      vertex 200 80 3
    endloop
  endfacet
  facet normal 0 -0.768221 0.640184
    outer loop
      vertex 220 80 3
      vertex 202.5 77.5 0
      vertex 217.5 77.5 0
    endloop
  endfacet
  facet normal 0 -0.768221 0.640184
    outer loop
      vertex 222.5 77.5 0
      vertex 240 80 3
      vertex 220 80 3
    endloop
  endfacet
  facet normal 0 -0.768221 0.640184
    outer loop
      vertex 240 80 3
      vertex 222.5 77.5 0
      vertex 237.5 77.5 0
    endloop
  endfacet
  facet normal 0 0.768221 0.640184
    outer loop
      vertex 157.5 102.5 0
      vertex 140 100 3
      vertex 160 100 3
    endloop
  endfacet
  facet normal 0 0.768221 0.640184
    outer loop
      vertex 140 100 3
      vertex 157.5 102.5 0
      vertex 142.5 102.5 0
    endloop
  endfacet
  facet normal 0 0.768221 0.640184
    outer loop
      vertex 257.5 102.5 0
      vertex 240 100 3
      vertex 260 100 3
    endloop
  endfacet
  facet normal 0 0.768221 0.640184
    outer loop
      vertex 240 100 3
      vertex 257.5 102.5 0
      vertex 242.5 102.5 0
    endloop
  endfacet
  facet normal 0 0.768221 0.640184
    outer loop
      vertex 177.5 102.5 0
      vertex 160 100 3
      vertex 180 100 3
    endloop
  endfacet
  facet normal 0 0.768221 0.640184
    outer loop
      vertex 160 100 3
      vertex 177.5 102.5 0
      vertex 162.5 102.5 0
    endloop
  endfacet
  facet normal 0 0.768221 0.640184
    outer loop
      vertex 197.5 102.5 0
      vertex 180 100 3
      vertex 200 100 3
    endloop
  endfacet
  facet normal 0 0.768221 0.640184
    outer loop
      vertex 180 100 3
      vertex 197.5 102.5 0
      vertex 182.5 102.5 0
    endloop
  endfacet
  facet normal 0 0.768221 0.640184
    outer loop
      vertex 217.5 102.5 0
      vertex 200 100 3
      vertex 220 100 3
    endloop
  endfacet
  facet normal 0 0.768221 0.640184
    outer loop
      vertex 200 100 3
      vertex 217.5 102.5 0
      vertex 202.5 102.5 0
    endloop
  endfacet
  facet normal 0 0.768221 0.640184
    outer loop
      vertex 237.5 102.5 0
      vertex 220 100 3
      vertex 240 100 3
    endloop
  endfacet
  facet normal 0 0.768221 0.640184
    outer loop
      vertex 220 100 3
      vertex 237.5 102.5 0
      vertex 222.5 102.5 0
    endloop
  endfacet
  facet normal 0 -0.768221 0.640184
    outer loop
      vertex 142.5 97.5 0
      vertex 160 100 3
      vertex 140 100 3
    endloop
  endfacet
  facet normal 0 -0.768221 0.640184
    outer loop
      vertex 160 100 3
      vertex 142.5 97.5 0
      vertex 157.5 97.5 0
    endloop
  endfacet
  facet normal 0 -0.768221 0.640184
    outer loop
      vertex 242.5 97.5 0
      vertex 260 100 3
      vertex 240 100 3
    endloop
  endfacet
  facet normal 0 -0.768221 0.640184
    outer loop
      vertex 260 100 3
      vertex 242.5 97.5 0
      vertex 257.5 97.5 0
    endloop
  endfacet
  facet normal 0 -0.768221 0.640184
    outer loop
      vertex 162.5 97.5 0
      vertex 180 100 3
      vertex 160 100 3
    endloop
  endfacet
  facet normal 0 -0.768221 0.640184
    outer loop
      vertex 180 100 3
      vertex 162.5 97.5 0
      vertex 177.5 97.5 0
    endloop
  endfacet
  facet normal 0 -0.768221 0.640184
    outer loop
      vertex 182.5 97.5 0
      vertex 200 100 3
      vertex 180 100 3
    endloop
  endfacet
  facet normal 0 -0.768221 0.640184
    outer loop
      vertex 200 100 3
      vertex 182.5 97.5 0
      vertex 197.5 97.5 0
    endloop
  endfacet
  facet normal 0 -0.768221 0.640184
    outer loop
      vertex 202.5 97.5 0
      vertex 220 100 3
      vertex 200 100 3
    endloop
  endfacet
  facet normal 0 -0.768221 0.640184
    outer loop
      vertex 220 100 3
      vertex 202.5 97.5 0
      vertex 217.5 97.5 0
    endloop
  endfacet
  facet normal 0 -0.768221 0.640184
    outer loop
      vertex 222.5 97.5 0
      vertex 240 100 3
      vertex 220 100 3
    endloop
  endfacet
  facet normal 0 -0.768221 0.640184
    outer loop
      vertex 240 100 3
      vertex 222.5 97.5 0
      vertex 237.5 97.5 0
    endloop
  endfacet
  facet normal 0 0.768221 0.640184
    outer loop
      vertex 157.5 122.5 0
      vertex 140 120 3
      vertex 160 120 3
    endloop
  endfacet
  facet normal 0 0.768221 0.640184
    outer loop
      vertex 140 120 3
      vertex 157.5 122.5 0
      vertex 142.5 122.5 0
    endloop
  endfacet
  facet normal 0 0.768221 0.640184
    outer loop
      vertex 257.5 122.5 0
      vertex 240 120 3
      vertex 260 120 3
    endloop
  endfacet
  facet normal 0 0.768221 0.640184
    outer loop
      vertex 240 120 3
      vertex 257.5 122.5 0
      vertex 242.5 122.5 0
    endloop
  endfacet
  facet normal 0 0.768221 0.640184
    outer loop
      vertex 177.5 122.5 0
      vertex 160 120 3
      vertex 180 120 3
    endloop
  endfacet
  facet normal 0 0.768221 0.640184
    outer loop
      vertex 160 120 3
      vertex 177.5 122.5 0
      vertex 162.5 122.5 0
    endloop
  endfacet
  facet normal 0 0.768221 0.640184
    outer loop
      vertex 197.5 122.5 0
      vertex 180 120 3
      vertex 200 120 3
    endloop
  endfacet
  facet normal 0 0.768221 0.640184
    outer loop
      vertex 180 120 3
      vertex 197.5 122.5 0
      vertex 182.5 122.5 0
    endloop
  endfacet
  facet normal 0 0.768221 0.640184
    outer loop
      vertex 217.5 122.5 0
      vertex 200 120 3
      vertex 220 120 3
    endloop
  endfacet
  facet normal 0 0.768221 0.640184
    outer loop
      vertex 200 120 3
      vertex 217.5 122.5 0
      vertex 202.5 122.5 0
    endloop
  endfacet
  facet normal 0 0.768221 0.640184
    outer loop
      vertex 237.5 122.5 0
      vertex 220 120 3
      vertex 240 120 3
    endloop
  endfacet
  facet normal 0 0.768221 0.640184
    outer loop
      vertex 220 120 3
      vertex 237.5 122.5 0
      vertex 222.5 122.5 0
    endloop
  endfacet
  facet normal 0 -0.768221 0.640184
    outer loop
      vertex 142.5 117.5 0
      vertex 160 120 3
      vertex 140 120 3
    endloop
  endfacet
  facet normal 0 -0.768221 0.640184
    outer loop
      vertex 160 120 3
      vertex 142.5 117.5 0
      vertex 157.5 117.5 0
    endloop
  endfacet
  facet normal 0 -0.768221 0.640184
    outer loop
      vertex 242.5 117.5 0
      vertex 260 120 3
      vertex 240 120 3
    endloop
  endfacet
  facet normal 0 -0.768221 0.640184
    outer loop
      vertex 260 120 3
      vertex 242.5 117.5 0
      vertex 257.5 117.5 0
    endloop
  endfacet
  facet normal 0 -0.768221 0.640184
    outer loop
      vertex 162.5 117.5 0
      vertex 180 120 3
      vertex 160 120 3
    endloop
  endfacet
  facet normal 0 -0.768221 0.640184
    outer loop
      vertex 180 120 3
      vertex 162.5 117.5 0
      vertex 177.5 117.5 0
    endloop
  endfacet
  facet normal 0 -0.768221 0.640184
    outer loop
      vertex 182.5 117.5 0
      vertex 200 120 3
      vertex 180 120 3
    endloop
  endfacet
  facet normal 0 -0.768221 0.640184
    outer loop
      vertex 200 120 3
      vertex 182.5 117.5 0
      vertex 197.5 117.5 0
    endloop
  endfacet
  facet normal 0 -0.768221 0.640184
    outer loop
      vertex 202.5 117.5 0
      vertex 220 120 3
      vertex 200 120 3
    endloop
  endfacet
  facet normal 0 -0.768221 0.640184
    outer loop
      vertex 220 120 3
      vertex 202.5 117.5 0
      vertex 217.5 117.5 0
    endloop
  endfacet
  facet normal 0 -0.768221 0.640184
    outer loop
      vertex 222.5 117.5 0
      vertex 240 120 3
      vertex 220 120 3
    endloop
  endfacet
  facet normal 0 -0.768221 0.640184
    outer loop
      vertex 240 120 3
      vertex 222.5 117.5 0
      vertex 237.5 117.5 0
    endloop
  endfacet
  facet normal 0 -0.768221 0.640184
    outer loop
      vertex 222.5 137.5 0
      vertex 240 140 3
      vertex 220 140 3
    endloop
  endfacet
  facet normal 0 -0.768221 0.640184
    outer loop
      vertex 240 140 3
      vertex 222.5 137.5 0
      vertex 237.5 137.5 0
    endloop
  endfacet
  facet normal 0 -0.768221 0.640184
    outer loop
      vertex 202.5 137.5 0
      vertex 220 140 3
      vertex 200 140 3
    endloop
  endfacet
  facet normal 0 -0.768221 0.640184
    outer loop
      vertex 220 140 3
      vertex 202.5 137.5 0
      vertex 217.5 137.5 0
    endloop
  endfacet
  facet normal 0 -0.768221 0.640184
    outer loop
      vertex 142.5 137.5 0
      vertex 160 140 3
      vertex 140 140 3
    endloop
  endfacet
  facet normal 0 -0.768221 0.640184
    outer loop
      vertex 160 140 3
      vertex 142.5 137.5 0
      vertex 157.5 137.5 0
    endloop
  endfacet
  facet normal 0 -0.768221 0.640184
    outer loop
      vertex 182.5 137.5 0
      vertex 200 140 3
      vertex 180 140 3
    endloop
  endfacet
  facet normal 0 -0.768221 0.640184
    outer loop
      vertex 200 140 3
      vertex 182.5 137.5 0
      vertex 197.5 137.5 0
    endloop
  endfacet
  facet normal 0 -0.768221 0.640184
    outer loop
      vertex 162.5 137.5 0
      vertex 180 140 3
      vertex 160 140 3
    endloop
  endfacet
  facet normal 0 -0.768221 0.640184
    outer loop
      vertex 180 140 3
      vertex 162.5 137.5 0
      vertex 177.5 137.5 0
    endloop
  endfacet
  facet normal 0 -0.768221 0.640184
    outer loop
      vertex 242.5 137.5 0
      vertex 260 140 3
      vertex 240 140 3
    endloop
  endfacet
  facet normal 0 -0.768221 0.640184
    outer loop
      vertex 260 140 3
      vertex 242.5 137.5 0
      vertex 257.5 137.5 0
    endloop
  endfacet
  facet normal 0.768221 0 0.640184
    outer loop
      vertex 140 140 3
      vertex 142.5 122.5 0
      vertex 142.5 137.5 0
    endloop
  endfacet
  facet normal 0.768221 0 0.640184
    outer loop
      vertex 142.5 122.5 0
      vertex 140 140 3
      vertex 140 120 3
    endloop
  endfacet
  facet normal 0.768221 0 0.640184
    outer loop
      vertex 140 20 3
      vertex 142.5 2.5 0
      vertex 142.5 17.5 0
    endloop
  endfacet
  facet normal 0.768221 0 0.640184
    outer loop
      vertex 142.5 2.5 0
      vertex 140 20 3
      vertex 140 0 3
    endloop
  endfacet
  facet normal 0.768221 0 0.640184
    outer loop
      vertex 140 40 3
      vertex 142.5 22.5 0
      vertex 142.5 37.5 0
    endloop
  endfacet
  facet normal 0.768221 0 0.640184
    outer loop
      vertex 142.5 22.5 0
      vertex 140 40 3
      vertex 140 20 3
    endloop
  endfacet
  facet normal 0.768221 0 0.640184
    outer loop
      vertex 140 60 3
      vertex 142.5 42.5 0
      vertex 142.5 57.5 0
    endloop
  endfacet
  facet normal 0.768221 0 0.640184
    outer loop
      vertex 142.5 42.5 0
      vertex 140 60 3
      vertex 140 40 3
    endloop
  endfacet
  facet normal 0.768221 0 0.640184
    outer loop
      vertex 140 120 3
      vertex 142.5 102.5 0
      vertex 142.5 117.5 0
    endloop
  endfacet
  facet normal 0.768221 0 0.640184
    outer loop
      vertex 142.5 102.5 0
      vertex 140 120 3
      vertex 140 100 3
    endloop
  endfacet
  facet normal 0.768221 0 0.640184
    outer loop
      vertex 140 100 3
      vertex 142.5 82.5 0
      vertex 142.5 97.5 0
    endloop
  endfacet
  facet normal 0.768221 0 0.640184
    outer loop
      vertex 142.5 82.5 0
      vertex 140 100 3
      vertex 140 80 3
    endloop
  endfacet
  facet normal 0.768221 0 0.640184
    outer loop
      vertex 140 80 3
      vertex 142.5 62.5 0
      vertex 142.5 77.5 0
    endloop
  endfacet
  facet normal 0.768221 0 0.640184
    outer loop
      vertex 142.5 62.5 0
      vertex 140 80 3
      vertex 140 60 3
    endloop
  endfacet
  facet normal 0.768221 0 0.640184
    outer loop
      vertex 160 140 3
      vertex 162.5 122.5 0
      vertex 162.5 137.5 0
    endloop
  endfacet
  facet normal 0.768221 0 0.640184
    outer loop
      vertex 162.5 122.5 0
      vertex 160 140 3
      vertex 160 120 3
    endloop
  endfacet
  facet normal 0.768221 0 0.640184
    outer loop
      vertex 160 20 3
      vertex 162.5 2.5 0
      vertex 162.5 17.5 0
    endloop
  endfacet
  facet normal 0.768221 0 0.640184
    outer loop
      vertex 162.5 2.5 0
      vertex 160 20 3
      vertex 160 0 3
    endloop
  endfacet
  facet normal 0.768221 0 0.640184
    outer loop
      vertex 160 40 3
      vertex 162.5 22.5 0
      vertex 162.5 37.5 0
    endloop
  endfacet
  facet normal 0.768221 0 0.640184
    outer loop
      vertex 162.5 22.5 0
      vertex 160 40 3
      vertex 160 20 3
    endloop
  endfacet
  facet normal 0.768221 0 0.640184
    outer loop
      vertex 160 60 3
      vertex 162.5 42.5 0
      vertex 162.5 57.5 0
    endloop
  endfacet
  facet normal 0.768221 0 0.640184
    outer loop
      vertex 162.5 42.5 0
      vertex 160 60 3
      vertex 160 40 3
    endloop
  endfacet
  facet normal 0.768221 0 0.640184
    outer loop
      vertex 160 120 3
      vertex 162.5 102.5 0
      vertex 162.5 117.5 0
    endloop
  endfacet
  facet normal 0.768221 0 0.640184
    outer loop
      vertex 162.5 102.5 0
      vertex 160 120 3
      vertex 160 100 3
    endloop
  endfacet
  facet normal 0.768221 0 0.640184
    outer loop
      vertex 160 100 3
      vertex 162.5 82.5 0
      vertex 162.5 97.5 0
    endloop
  endfacet
  facet normal 0.768221 0 0.640184
    outer loop
      vertex 162.5 82.5 0
      vertex 160 100 3
      vertex 160 80 3
    endloop
  endfacet
  facet normal 0.768221 0 0.640184
    outer loop
      vertex 160 80 3
      vertex 162.5 62.5 0
      vertex 162.5 77.5 0
    endloop
  endfacet
  facet normal 0.768221 0 0.640184
    outer loop
      vertex 162.5 62.5 0
      vertex 160 80 3
      vertex 160 60 3
    endloop
  endfacet
  facet normal -0.768221 0 0.640184
    outer loop
      vertex 157.5 122.5 0
      vertex 160 140 3
      vertex 157.5 137.5 0
    endloop
  endfacet
  facet normal -0.768221 0 0.640184
    outer loop
      vertex 160 140 3
      vertex 157.5 122.5 0
      vertex 160 120 3
    endloop
  endfacet
  facet normal -0.768221 0 0.640184
    outer loop
      vertex 157.5 2.5 0
      vertex 160 20 3
      vertex 157.5 17.5 0
    endloop
  endfacet
  facet normal -0.768221 0 0.640184
    outer loop
      vertex 160 20 3
      vertex 157.5 2.5 0
      vertex 160 0 3
    endloop
  endfacet
  facet normal -0.768221 0 0.640184
    outer loop
      vertex 157.5 22.5 0
      vertex 160 40 3
      vertex 157.5 37.5 0
    endloop
  endfacet
  facet normal -0.768221 0 0.640184
    outer loop
      vertex 160 40 3
      vertex 157.5 22.5 0
      vertex 160 20 3
    endloop
  endfacet
  facet normal -0.768221 0 0.640184
    outer loop
      vertex 157.5 42.5 0
      vertex 160 60 3
      vertex 157.5 57.5 0
    endloop
  endfacet
  facet normal -0.768221 0 0.640184
    outer loop
      vertex 160 60 3
      vertex 157.5 42.5 0
      vertex 160 40 3
    endloop
  endfacet
  facet normal -0.768221 0 0.640184
    outer loop
      vertex 157.5 102.5 0
      vertex 160 120 3
      vertex 157.5 117.5 0
    endloop
  endfacet
  facet normal -0.768221 0 0.640184
    outer loop
      vertex 160 120 3
      vertex 157.5 102.5 0
      vertex 160 100 3
    endloop
  endfacet
  facet normal -0.768221 0 0.640184
    outer loop
      vertex 157.5 82.5 0
      vertex 160 100 3
      vertex 157.5 97.5 0
    endloop
  endfacet
  facet normal -0.768221 0 0.640184
    outer loop
      vertex 160 100 3
      vertex 157.5 82.5 0
      vertex 160 80 3
    endloop
  endfacet
  facet normal -0.768221 0 0.640184
    outer loop
      vertex 157.5 62.5 0
      vertex 160 80 3
      vertex 157.5 77.5 0
    endloop
  endfacet
  facet normal -0.768221 0 0.640184
    outer loop
      vertex 160 80 3
      vertex 157.5 62.5 0
      vertex 160 60 3
    endloop
  endfacet
  facet normal 0.768221 0 0.640184
    outer loop
      vertex 180 140 3
      vertex 182.5 122.5 0
      vertex 182.5 137.5 0
    endloop
  endfacet
  facet normal 0.768221 0 0.640184
    outer loop
      vertex 182.5 122.5 0
      vertex 180 140 3
      vertex 180 120 3
    endloop
  endfacet
  facet normal 0.768221 0 0.640184
    outer loop
      vertex 180 20 3
      vertex 182.5 2.5 0
      vertex 182.5 17.5 0
    endloop
  endfacet
  facet normal 0.768221 0 0.640184
    outer loop
      vertex 182.5 2.5 0
      vertex 180 20 3
      vertex 180 0 3
    endloop
  endfacet
  facet normal 0.768221 0 0.640184
    outer loop
      vertex 180 40 3
      vertex 182.5 22.5 0
      vertex 182.5 37.5 0
    endloop
  endfacet
  facet normal 0.768221 0 0.640184
    outer loop
      vertex 182.5 22.5 0
      vertex 180 40 3
      vertex 180 20 3
    endloop
  endfacet
  facet normal 0.768221 0 0.640184
    outer loop
      vertex 180 60 3
      vertex 182.5 42.5 0
      vertex 182.5 57.5 0
    endloop
  endfacet
  facet normal 0.768221 0 0.640184
    outer loop
      vertex 182.5 42.5 0
      vertex 180 60 3
      vertex 180 40 3
    endloop
  endfacet
  facet normal 0.768221 0 0.640184
    outer loop
      vertex 180 120 3
      vertex 182.5 102.5 0
      vertex 182.5 117.5 0
    endloop
  endfacet
  facet normal 0.768221 0 0.640184
    outer loop
      vertex 182.5 102.5 0
      vertex 180 120 3
      vertex 180 100 3
    endloop
  endfacet
  facet normal 0.768221 0 0.640184
    outer loop
      vertex 180 100 3
      vertex 182.5 82.5 0
      vertex 182.5 97.5 0
    endloop
  endfacet
  facet normal 0.768221 0 0.640184
    outer loop
      vertex 182.5 82.5 0
      vertex 180 100 3
      vertex 180 80 3
    endloop
  endfacet
  facet normal 0.768221 0 0.640184
    outer loop
      vertex 180 80 3
      vertex 182.5 62.5 0
      vertex 182.5 77.5 0
    endloop
  endfacet
  facet normal 0.768221 0 0.640184
    outer loop
      vertex 182.5 62.5 0
      vertex 180 80 3
      vertex 180 60 3
    endloop
  endfacet
  facet normal -0.768221 0 0.640184
    outer loop
      vertex 177.5 122.5 0
      vertex 180 140 3
      vertex 177.5 137.5 0
    endloop
  endfacet
  facet normal -0.768221 0 0.640184
    outer loop
      vertex 180 140 3
      vertex 177.5 122.5 0
      vertex 180 120 3
    endloop
  endfacet
  facet normal -0.768221 0 0.640184
    outer loop
      vertex 177.5 2.5 0
      vertex 180 20 3
      vertex 177.5 17.5 0
    endloop
  endfacet
  facet normal -0.768221 0 0.640184
    outer loop
      vertex 180 20 3
      vertex 177.5 2.5 0
      vertex 180 0 3
    endloop
  endfacet
  facet normal -0.768221 0 0.640184
    outer loop
      vertex 177.5 22.5 0
      vertex 180 40 3
      vertex 177.5 37.5 0
    endloop
  endfacet
  facet normal -0.768221 0 0.640184
    outer loop
      vertex 180 40 3
      vertex 177.5 22.5 0
      vertex 180 20 3
    endloop
  endfacet
  facet normal -0.768221 0 0.640184
    outer loop
      vertex 177.5 42.5 0
      vertex 180 60 3
      vertex 177.5 57.5 0
    endloop
  endfacet
  facet normal -0.768221 0 0.640184
    outer loop
      vertex 180 60 3
      vertex 177.5 42.5 0
      vertex 180 40 3
    endloop
  endfacet
  facet normal -0.768221 0 0.640184
    outer loop
      vertex 177.5 102.5 0
      vertex 180 120 3
      vertex 177.5 117.5 0
    endloop
  endfacet
  facet normal -0.768221 0 0.640184
    outer loop
      vertex 180 120 3
      vertex 177.5 102.5 0
      vertex 180 100 3
    endloop
  endfacet
  facet normal -0.768221 0 0.640184
    outer loop
      vertex 177.5 82.5 0
      vertex 180 100 3
      vertex 177.5 97.5 0
    endloop
  endfacet
  facet normal -0.768221 0 0.640184
    outer loop
      vertex 180 100 3
      vertex 177.5 82.5 0
      vertex 180 80 3
    endloop
  endfacet
  facet normal -0.768221 0 0.640184
    outer loop
      vertex 177.5 62.5 0
      vertex 180 80 3
      vertex 177.5 77.5 0
    endloop
  endfacet
  facet normal -0.768221 0 0.640184
    outer loop
      vertex 180 80 3
      vertex 177.5 62.5 0
      vertex 180 60 3
    endloop
  endfacet
  facet normal 0.768221 0 0.640184
    outer loop
      vertex 200 140 3
      vertex 202.5 122.5 0
      vertex 202.5 137.5 0
    endloop
  endfacet
  facet normal 0.768221 0 0.640184
    outer loop
      vertex 202.5 122.5 0
      vertex 200 140 3
      vertex 200 120 3
    endloop
  endfacet
  facet normal 0.768221 0 0.640184
    outer loop
      vertex 200 20 3
      vertex 202.5 2.5 0
      vertex 202.5 17.5 0
    endloop
  endfacet
  facet normal 0.768221 0 0.640184
    outer loop
      vertex 202.5 2.5 0
      vertex 200 20 3
      vertex 200 0 3
    endloop
  endfacet
  facet normal 0.768221 0 0.640184
    outer loop
      vertex 200 40 3
      vertex 202.5 22.5 0
      vertex 202.5 37.5 0
    endloop
  endfacet
  facet normal 0.768221 0 0.640184
    outer loop
      vertex 202.5 22.5 0
      vertex 200 40 3
      vertex 200 20 3
    endloop
  endfacet
  facet normal 0.768221 0 0.640184
    outer loop
      vertex 200 60 3
      vertex 202.5 42.5 0
      vertex 202.5 57.5 0
    endloop
  endfacet
  facet normal 0.768221 0 0.640184
    outer loop
      vertex 202.5 42.5 0
      vertex 200 60 3
      vertex 200 40 3
    endloop
  endfacet
  facet normal 0.768221 0 0.640184
    outer loop
      vertex 200 120 3
      vertex 202.5 102.5 0
      vertex 202.5 117.5 0
    endloop
  endfacet
  facet normal 0.768221 0 0.640184
    outer loop
      vertex 202.5 102.5 0
      vertex 200 120 3
      vertex 200 100 3
    endloop
  endfacet
  facet normal 0.768221 0 0.640184
    outer loop
      vertex 200 100 3
      vertex 202.5 82.5 0
      vertex 202.5 97.5 0
    endloop
  endfacet
  facet normal 0.768221 0 0.640184
    outer loop
      vertex 202.5 82.5 0
      vertex 200 100 3
      vertex 200 80 3
    endloop
  endfacet
  facet normal 0.768221 0 0.640184
    outer loop
      vertex 200 80 3
      vertex 202.5 62.5 0
      vertex 202.5 77.5 0
    endloop
  endfacet
  facet normal 0.768221 0 0.640184
    outer loop
      vertex 202.5 62.5 0
      vertex 200 80 3
      vertex 200 60 3
    endloop
  endfacet
  facet normal -0.768221 0 0.640184
    outer loop
      vertex 197.5 122.5 0
      vertex 200 140 3
      vertex 197.5 137.5 0
    endloop
  endfacet
  facet normal -0.768221 0 0.640184
    outer loop
      vertex 200 140 3
      vertex 197.5 122.5 0
      vertex 200 120 3
    endloop
  endfacet
  facet normal -0.768221 0 0.640184
    outer loop
      vertex 197.5 2.5 0
      vertex 200 20 3
      vertex 197.5 17.5 0
    endloop
  endfacet
  facet normal -0.768221 0 0.640184
    outer loop
      vertex 200 20 3
      vertex 197.5 2.5 0
      vertex 200 0 3
    endloop
  endfacet
  facet normal -0.768221 0 0.640184
    outer loop
      vertex 197.5 22.5 0
      vertex 200 40 3
      vertex 197.5 37.5 0
    endloop
  endfacet
  facet normal -0.768221 0 0.640184
    outer loop
      vertex 200 40 3
      vertex 197.5 22.5 0
      vertex 200 20 3
    endloop
  endfacet
  facet normal -0.768221 0 0.640184
    outer loop
      vertex 197.5 42.5 0
      vertex 200 60 3
      vertex 197.5 57.5 0
    endloop
  endfacet
  facet normal -0.768221 0 0.640184
    outer loop
      vertex 200 60 3
      vertex 197.5 42.5 0
      vertex 200 40 3
    endloop
  endfacet
  facet normal -0.768221 0 0.640184
    outer loop
      vertex 197.5 102.5 0
      vertex 200 120 3
      vertex 197.5 117.5 0
    endloop
  endfacet
  facet normal -0.768221 0 0.640184
    outer loop
      vertex 200 120 3
      vertex 197.5 102.5 0
      vertex 200 100 3
    endloop
  endfacet
  facet normal -0.768221 0 0.640184
    outer loop
      vertex 197.5 82.5 0
      vertex 200 100 3
      vertex 197.5 97.5 0
    endloop
  endfacet
  facet normal -0.768221 0 0.640184
    outer loop
      vertex 200 100 3
      vertex 197.5 82.5 0
      vertex 200 80 3
    endloop
  endfacet
  facet normal -0.768221 0 0.640184
    outer loop
      vertex 197.5 62.5 0
      vertex 200 80 3
      vertex 197.5 77.5 0
    endloop
  endfacet
  facet normal -0.768221 0 0.640184
    outer loop
      vertex 200 80 3
      vertex 197.5 62.5 0
      vertex 200 60 3
    endloop
  endfacet
  facet normal 0.768221 0 0.640184
    outer loop
      vertex 220 140 3
      vertex 222.5 122.5 0
      vertex 222.5 137.5 0
    endloop
  endfacet
  facet normal 0.768221 0 0.640184
    outer loop
      vertex 222.5 122.5 0
      vertex 220 140 3
      vertex 220 120 3
    endloop
  endfacet
  facet normal 0.768221 0 0.640184
    outer loop
      vertex 220 20 3
      vertex 222.5 2.5 0
      vertex 222.5 17.5 0
    endloop
  endfacet
  facet normal 0.768221 0 0.640184
    outer loop
      vertex 222.5 2.5 0
      vertex 220 20 3
      vertex 220 0 3
    endloop
  endfacet
  facet normal 0.768221 0 0.640184
    outer loop
      vertex 220 40 3
      vertex 222.5 22.5 0
      vertex 222.5 37.5 0
    endloop
  endfacet
  facet normal 0.768221 0 0.640184
    outer loop
      vertex 222.5 22.5 0
      vertex 220 40 3
      vertex 220 20 3
    endloop
  endfacet
  facet normal 0.768221 0 0.640184
    outer loop
      vertex 220 60 3
      vertex 222.5 42.5 0
      vertex 222.5 57.5 0
    endloop
  endfacet
  facet normal 0.768221 0 0.640184
    outer loop
      vertex 222.5 42.5 0
      vertex 220 60 3
      vertex 220 40 3
    endloop
  endfacet
  facet normal 0.768221 0 0.640184
    outer loop
      vertex 220 120 3
      vertex 222.5 102.5 0
      vertex 222.5 117.5 0
    endloop
  endfacet
  facet normal 0.768221 0 0.640184
    outer loop
      vertex 222.5 102.5 0
      vertex 220 120 3
      vertex 220 100 3
    endloop
  endfacet
  facet normal 0.768221 0 0.640184
    outer loop
      vertex 220 100 3
      vertex 222.5 82.5 0
      vertex 222.5 97.5 0
    endloop
  endfacet
  facet normal 0.768221 0 0.640184
    outer loop
      vertex 222.5 82.5 0
      vertex 220 100 3
      vertex 220 80 3
    endloop
  endfacet
  facet normal 0.768221 0 0.640184
    outer loop
      vertex 220 80 3
      vertex 222.5 62.5 0
      vertex 222.5 77.5 0
    endloop
  endfacet
  facet normal 0.768221 0 0.640184
    outer loop
      vertex 222.5 62.5 0
      vertex 220 80 3
      vertex 220 60 3
    endloop
  endfacet
  facet normal -0.768221 0 0.640184
    outer loop
      vertex 217.5 122.5 0
      vertex 220 140 3
      vertex 217.5 137.5 0
    endloop
  endfacet
  facet normal -0.768221 0 0.640184
    outer loop
      vertex 220 140 3
      vertex 217.5 122.5 0
      vertex 220 120 3
    endloop
  endfacet
  facet normal -0.768221 0 0.640184
    outer loop
      vertex 217.5 2.5 0
      vertex 220 20 3
      vertex 217.5 17.5 0
    endloop
  endfacet
  facet normal -0.768221 0 0.640184
    outer loop
      vertex 220 20 3
      vertex 217.5 2.5 0
      vertex 220 0 3
    endloop
  endfacet
  facet normal -0.768221 0 0.640184
    outer loop
      vertex 217.5 22.5 0
      vertex 220 40 3
      vertex 217.5 37.5 0
    endloop
  endfacet
  facet normal -0.768221 0 0.640184
    outer loop
      vertex 220 40 3
      vertex 217.5 22.5 0
      vertex 220 20 3
    endloop
  endfacet
  facet normal -0.768221 0 0.640184
    outer loop
      vertex 217.5 42.5 0
      vertex 220 60 3
      vertex 217.5 57.5 0
    endloop
  endfacet
  facet normal -0.768221 0 0.640184
    outer loop
      vertex 220 60 3
      vertex 217.5 42.5 0
      vertex 220 40 3
    endloop
  endfacet
  facet normal -0.768221 0 0.640184
    outer loop
      vertex 217.5 102.5 0
      vertex 220 120 3
      vertex 217.5 117.5 0
    endloop
  endfacet
  facet normal -0.768221 0 0.640184
    outer loop
      vertex 220 120 3
      vertex 217.5 102.5 0
      vertex 220 100 3
    endloop
  endfacet
  facet normal -0.768221 0 0.640184
    outer loop
      vertex 217.5 82.5 0
      vertex 220 100 3
      vertex 217.5 97.5 0
    endloop
  endfacet
  facet normal -0.768221 0 0.640184
    outer loop
      vertex 220 100 3
      vertex 217.5 82.5 0
      vertex 220 80 3
    endloop
  endfacet
  facet normal -0.768221 0 0.640184
    outer loop
      vertex 217.5 62.5 0
      vertex 220 80 3
      vertex 217.5 77.5 0
    endloop
  endfacet
  facet normal -0.768221 0 0.640184
    outer loop
      vertex 220 80 3
      vertex 217.5 62.5 0
      vertex 220 60 3
    endloop
  endfacet
  facet normal 0.768221 0 0.640184
    outer loop
      vertex 240 140 3
      vertex 242.5 122.5 0
      vertex 242.5 137.5 0
    endloop
  endfacet
  facet normal 0.768221 0 0.640184
    outer loop
      vertex 242.5 122.5 0
      vertex 240 140 3
      vertex 240 120 3
    endloop
  endfacet
  facet normal 0.768221 0 0.640184
    outer loop
      vertex 240 20 3
      vertex 242.5 2.5 0
      vertex 242.5 17.5 0
    endloop
  endfacet
  facet normal 0.768221 0 0.640184
    outer loop
      vertex 242.5 2.5 0
      vertex 240 20 3
      vertex 240 0 3
    endloop
  endfacet
  facet normal 0.768221 0 0.640184
    outer loop
      vertex 240 40 3
      vertex 242.5 22.5 0
      vertex 242.5 37.5 0
    endloop
  endfacet
  facet normal 0.768221 0 0.640184
    outer loop
      vertex 242.5 22.5 0
      vertex 240 40 3
      vertex 240 20 3
    endloop
  endfacet
  facet normal 0.768221 0 0.640184
    outer loop
      vertex 240 60 3
      vertex 242.5 42.5 0
      vertex 242.5 57.5 0
    endloop
  endfacet
  facet normal 0.768221 0 0.640184
    outer loop
      vertex 242.5 42.5 0
      vertex 240 60 3
      vertex 240 40 3
    endloop
  endfacet
  facet normal 0.768221 0 0.640184
    outer loop
      vertex 240 120 3
      vertex 242.5 102.5 0
      vertex 242.5 117.5 0
    endloop
  endfacet
  facet normal 0.768221 0 0.640184
    outer loop
      vertex 242.5 102.5 0
      vertex 240 120 3
      vertex 240 100 3
    endloop
  endfacet
  facet normal 0.768221 0 0.640184
    outer loop
      vertex 240 100 3
      vertex 242.5 82.5 0
      vertex 242.5 97.5 0
    endloop
  endfacet
  facet normal 0.768221 0 0.640184
    outer loop
      vertex 242.5 82.5 0
      vertex 240 100 3
      vertex 240 80 3
    endloop
  endfacet
  facet normal 0.768221 0 0.640184
    outer loop
      vertex 240 80 3
      vertex 242.5 62.5 0
      vertex 242.5 77.5 0
    endloop
  endfacet
  facet normal 0.768221 0 0.640184
    outer loop
      vertex 242.5 62.5 0
      vertex 240 80 3
      vertex 240 60 3
    endloop
  endfacet
  facet normal -0.768221 0 0.640184
    outer loop
      vertex 237.5 122.5 0
      vertex 240 140 3
      vertex 237.5 137.5 0
    endloop
  endfacet
  facet normal -0.768221 0 0.640184
    outer loop
      vertex 240 140 3
      vertex 237.5 122.5 0
      vertex 240 120 3
    endloop
  endfacet
  facet normal -0.768221 0 0.640184
    outer loop
      vertex 237.5 2.5 0
      vertex 240 20 3
      vertex 237.5 17.5 0
    endloop
  endfacet
  facet normal -0.768221 0 0.640184
    outer loop
      vertex 240 20 3
      vertex 237.5 2.5 0
      vertex 240 0 3
    endloop
  endfacet
  facet normal -0.768221 0 0.640184
    outer loop
      vertex 237.5 22.5 0
      vertex 240 40 3
      vertex 237.5 37.5 0
    endloop
  endfacet
  facet normal -0.768221 0 0.640184
    outer loop
      vertex 240 40 3
      vertex 237.5 22.5 0
      vertex 240 20 3
    endloop
  endfacet
  facet normal -0.768221 0 0.640184
    outer loop
      vertex 237.5 42.5 0
      vertex 240 60 3
      vertex 237.5 57.5 0
    endloop
  endfacet
  facet normal -0.768221 0 0.640184
    outer loop
      vertex 240 60 3
      vertex 237.5 42.5 0
      vertex 240 40 3
    endloop
  endfacet
  facet normal -0.768221 0 0.640184
    outer loop
      vertex 237.5 102.5 0
      vertex 240 120 3
      vertex 237.5 117.5 0
    endloop
  endfacet
  facet normal -0.768221 0 0.640184
    outer loop
      vertex 240 120 3
      vertex 237.5 102.5 0
      vertex 240 100 3
    endloop
  endfacet
  facet normal -0.768221 0 0.640184
    outer loop
      vertex 237.5 82.5 0
      vertex 240 100 3
      vertex 237.5 97.5 0
    endloop
  endfacet
  facet normal -0.768221 0 0.640184
    outer loop
      vertex 240 100 3
      vertex 237.5 82.5 0
      vertex 240 80 3
    endloop
  endfacet
  facet normal -0.768221 0 0.640184
    outer loop
      vertex 237.5 62.5 0
      vertex 240 80 3
      vertex 237.5 77.5 0
    endloop
  endfacet
  facet normal -0.768221 0 0.640184
    outer loop
      vertex 240 80 3
      vertex 237.5 62.5 0
      vertex 240 60 3
    endloop
  endfacet
  facet normal -0.768221 0 0.640184
    outer loop
      vertex 257.5 122.5 0
      vertex 260 140 3
      vertex 257.5 137.5 0
    endloop
  endfacet
  facet normal -0.768221 0 0.640184
    outer loop
      vertex 260 140 3
      vertex 257.5 122.5 0
      vertex 260 120 3
    endloop
  endfacet
  facet normal -0.768221 0 0.640184
    outer loop
      vertex 257.5 2.5 0
      vertex 260 20 3
      vertex 257.5 17.5 0
    endloop
  endfacet
  facet normal -0.768221 0 0.640184
    outer loop
      vertex 260 20 3
      vertex 257.5 2.5 0
      vertex 260 0 3
    endloop
  endfacet
  facet normal -0.768221 0 0.640184
    outer loop
      vertex 257.5 22.5 0
      vertex 260 40 3
      vertex 257.5 37.5 0
    endloop
  endfacet
  facet normal -0.768221 0 0.640184
    outer loop
      vertex 260 40 3
      vertex 257.5 22.5 0
      vertex 260 20 3
    endloop
  endfacet
  facet normal -0.768221 0 0.640184
    outer loop
      vertex 257.5 42.5 0
      vertex 260 60 3
      vertex 257.5 57.5 0
    endloop
  endfacet
  facet normal -0.768221 0 0.640184
    outer loop
      vertex 260 60 3
      vertex 257.5 42.5 0
      vertex 260 40 3
    endloop
  endfacet
  facet normal -0.768221 0 0.640184
    outer loop
      vertex 257.5 102.5 0
      vertex 260 120 3
      vertex 257.5 117.5 0
    endloop
  endfacet
  facet normal -0.768221 0 0.640184
    outer loop
      vertex 260 120 3
      vertex 257.5 102.5 0
      vertex 260 100 3
    endloop
  endfacet
  facet normal -0.768221 0 0.640184
    outer loop
      vertex 257.5 82.5 0
      vertex 260 100 3
      vertex 257.5 97.5 0
    endloop
  endfacet
  facet normal -0.768221 0 0.640184
    outer loop
      vertex 260 100 3
      vertex 257.5 82.5 0
      vertex 260 80 3
    endloop
  endfacet
  facet normal -0.768221 0 0.640184
    outer loop
      vertex 257.5 62.5 0
      vertex 260 80 3
      vertex 257.5 77.5 0
    endloop
  endfacet
  facet normal -0.768221 0 0.640184
    outer loop
      vertex 260 80 3
      vertex 257.5 62.5 0
      vertex 260 60 3
    endloop
  endfacet
  facet normal 0 -1 0
    outer loop
      vertex 140 0 0
      vertex 160 0 3
      vertex 140 0 3
    endloop
  endfacet
  facet normal 0 -1 -0
    outer loop
      vertex 160 0 3
      vertex 140 0 0
      vertex 180 0 3
    endloop
  endfacet
  facet normal 0 -1 -0
    outer loop
      vertex 180 0 3
      vertex 140 0 0
      vertex 200 0 3
    endloop
  endfacet
  facet normal 0 -1 0
    outer loop
      vertex 260 0 0
      vertex 200 0 3
      vertex 140 0 0
    endloop
  endfacet
  facet normal 0 -1 0
    outer loop
      vertex 200 0 3
      vertex 260 0 0
      vertex 220 0 3
    endloop
  endfacet
  facet normal 0 -1 0
    outer loop
      vertex 220 0 3
      vertex 260 0 0
      vertex 240 0 3
    endloop
  endfacet
  facet normal 0 -1 0
    outer loop
      vertex 240 0 3
      vertex 260 0 0
      vertex 260 0 3
    endloop
  endfacet
  facet normal 0 1 -0
    outer loop
      vertex 260 140 0
      vertex 240 140 3
      vertex 260 140 3
    endloop
  endfacet
  facet normal 0 1 0
    outer loop
      vertex 240 140 3
      vertex 260 140 0
      vertex 220 140 3
    endloop
  endfacet
  facet normal 0 1 0
    outer loop
      vertex 220 140 3
      vertex 260 140 0
      vertex 200 140 3
    endloop
  endfacet
  facet normal 0 1 0
    outer loop
      vertex 140 140 0
      vertex 200 140 3
      vertex 260 140 0
    endloop
  endfacet
  facet normal 0 1 0
    outer loop
      vertex 200 140 3
      vertex 140 140 0
      vertex 180 140 3
    endloop
  endfacet
  facet normal 0 1 0
    outer loop
      vertex 180 140 3
      vertex 140 140 0
      vertex 160 140 3
    endloop
  endfacet
  facet normal 0 1 0
    outer loop
      vertex 160 140 3
      vertex 140 140 0
      vertex 140 140 3
    endloop
  endfacet
  facet normal -1 0 0
    outer loop
      vertex 140 140 0
      vertex 140 120 3
      vertex 140 140 3
    endloop
  endfacet
  facet normal -1 0 0
    outer loop
      vertex 140 140 0
      vertex 140 100 3
      vertex 140 120 3
    endloop
  endfacet
  facet normal -1 0 0
    outer loop
      vertex 140 140 0
      vertex 140 80 3
      vertex 140 100 3
    endloop
  endfacet
  facet normal -1 0 0
    outer loop
      vertex 140 140 0
      vertex 140 60 3
      vertex 140 80 3
    endloop
  endfacet
  facet normal -1 0 0
    outer loop
      vertex 140 0 0
      vertex 140 60 3
      vertex 140 140 0
    endloop
  endfacet
  facet normal -1 -0 0
    outer loop
      vertex 140 60 3
      vertex 140 0 0
      vertex 140 40 3
    endloop
  endfacet
  facet normal -1 -0 0
    outer loop
      vertex 140 40 3
      vertex 140 0 0
      vertex 140 20 3
    endloop
  endfacet
  facet normal -1 -0 0
    outer loop
      vertex 140 20 3
      vertex 140 0 0
      vertex 140 0 3
    endloop
  endfacet
  facet normal 1 -0 0
    outer loop
      vertex 260 120 3
      vertex 260 140 0
      vertex 260 140 3
    endloop
  endfacet
  facet normal 1 -0 0
    outer loop
      vertex 260 100 3
      vertex 260 140 0
      vertex 260 120 3
    endloop
  endfacet
  facet normal 1 -0 0
    outer loop
      vertex 260 80 3
      vertex 260 140 0
      vertex 260 100 3
    endloop
  endfacet
  facet normal 1 -0 0
    outer loop
      vertex 260 60 3
      vertex 260 140 0
      vertex 260 80 3
    endloop
  endfacet
  facet normal 1 0 0
    outer loop
      vertex 260 0 0
      vertex 260 60 3
      vertex 260 40 3
    endloop
  endfacet
  facet normal 1 0 0
    outer loop
      vertex 260 0 0
      vertex 260 40 3
      vertex 260 20 3
    endloop
  endfacet
  facet normal 1 0 0
    outer loop
      vertex 260 0 0
      vertex 260 20 3
      vertex 260 0 3
    endloop
  endfacet
  facet normal 1 0 0
    outer loop
      vertex 260 60 3
      vertex 260 0 0
      vertex 260 140 0
    endloop
  endfacet
endsolid OpenSCAD_Model
