solid OpenSCAD_Model
  facet normal 0 0 -1
    outer loop
      vertex 142.5 237.5 0
      vertex 157.5 242.5 0
      vertex 157.5 237.5 0
    endloop
  endfacet
  facet normal -0 0 -1
    outer loop
      vertex 157.5 242.5 0
      vertex 142.5 237.5 0
      vertex 142.5 242.5 0
    endloop
  endfacet
  facet normal 0 0 -1
    outer loop
      vertex 142.5 217.5 0
      vertex 157.5 222.5 0
      vertex 157.5 217.5 0
    endloop
  endfacet
  facet normal -0 0 -1
    outer loop
      vertex 157.5 222.5 0
      vertex 142.5 217.5 0
      vertex 142.5 222.5 0
    endloop
  endfacet
  facet normal 0 0 -1
    outer loop
      vertex 142.5 197.5 0
      vertex 157.5 202.5 0
      vertex 157.5 197.5 0
    endloop
  endfacet
  facet normal -0 0 -1
    outer loop
      vertex 157.5 202.5 0
      vertex 142.5 197.5 0
      vertex 142.5 202.5 0
    endloop
  endfacet
  facet normal 0 0 -1
    outer loop
      vertex 142.5 177.5 0
      vertex 157.5 182.5 0
      vertex 157.5 177.5 0
    endloop
  endfacet
  facet normal -0 0 -1
    outer loop
      vertex 157.5 182.5 0
      vertex 142.5 177.5 0
      vertex 142.5 182.5 0
    endloop
  endfacet
  facet normal 0 0 -1
    outer loop
      vertex 142.5 157.5 0
      vertex 157.5 162.5 0
      vertex 157.5 157.5 0
    endloop
  endfacet
  facet normal -0 0 -1
    outer loop
      vertex 157.5 162.5 0
      vertex 142.5 157.5 0
      vertex 142.5 162.5 0
    endloop
  endfacet
  facet normal 0 0 -1
    outer loop
      vertex 162.5 237.5 0
      vertex 177.5 242.5 0
      vertex 177.5 237.5 0
    endloop
  endfacet
  facet normal -0 0 -1
    outer loop
      vertex 177.5 242.5 0
      vertex 162.5 237.5 0
      vertex 162.5 242.5 0
    endloop
  endfacet
  facet normal 0 0 -1
    outer loop
      vertex 162.5 217.5 0
      vertex 177.5 222.5 0
      vertex 177.5 217.5 0
    endloop
  endfacet
  facet normal -0 0 -1
    outer loop
      vertex 177.5 222.5 0
      vertex 162.5 217.5 0
      vertex 162.5 222.5 0
    endloop
  endfacet
  facet normal 0 0 -1
    outer loop
      vertex 162.5 197.5 0
      vertex 177.5 202.5 0
      vertex 177.5 197.5 0
    endloop
  endfacet
  facet normal -0 0 -1
    outer loop
      vertex 177.5 202.5 0
      vertex 162.5 197.5 0
      vertex 162.5 202.5 0
    endloop
  endfacet
  facet normal 0 0 -1
    outer loop
      vertex 162.5 177.5 0
      vertex 177.5 182.5 0
      vertex 177.5 177.5 0
    endloop
  endfacet
  facet normal -0 0 -1
    outer loop
      vertex 177.5 182.5 0
      vertex 162.5 177.5 0
      vertex 162.5 182.5 0
    endloop
  endfacet
  facet normal 0 0 -1
    outer loop
      vertex 162.5 157.5 0
      vertex 177.5 162.5 0
      vertex 177.5 157.5 0
    endloop
  endfacet
  facet normal -0 0 -1
    outer loop
      vertex 177.5 162.5 0
      vertex 162.5 157.5 0
      vertex 162.5 162.5 0
    endloop
  endfacet
  facet normal 0 0 -1
    outer loop
      vertex 182.5 237.5 0
      vertex 197.5 242.5 0
      vertex 197.5 237.5 0
    endloop
  endfacet
  facet normal -0 0 -1
    outer loop
      vertex 197.5 242.5 0
      vertex 182.5 237.5 0
      vertex 182.5 242.5 0
    endloop
  endfacet
  facet normal 0 0 -1
    outer loop
      vertex 182.5 217.5 0
      vertex 197.5 222.5 0
      vertex 197.5 217.5 0
    endloop
  endfacet
  facet normal -0 0 -1
    outer loop
      vertex 197.5 222.5 0
      vertex 182.5 217.5 0
      vertex 182.5 222.5 0
    endloop
  endfacet
  facet normal 0 0 -1
    outer loop
      vertex 182.5 197.5 0
      vertex 197.5 202.5 0
      vertex 197.5 197.5 0
    endloop
  endfacet
  facet normal -0 0 -1
    outer loop
      vertex 197.5 202.5 0
      vertex 182.5 197.5 0
      vertex 182.5 202.5 0
    endloop
  endfacet
  facet normal 0 0 -1
    outer loop
      vertex 182.5 177.5 0
      vertex 197.5 182.5 0
      vertex 197.5 177.5 0
    endloop
  endfacet
  facet normal -0 0 -1
    outer loop
      vertex 197.5 182.5 0
      vertex 182.5 177.5 0
      vertex 182.5 182.5 0
    endloop
  endfacet
  facet normal 0 0 -1
    outer loop
      vertex 182.5 157.5 0
      vertex 197.5 162.5 0
      vertex 197.5 157.5 0
    endloop
  endfacet
  facet normal -0 0 -1
    outer loop
      vertex 197.5 162.5 0
      vertex 182.5 157.5 0
      vertex 182.5 162.5 0
    endloop
  endfacet
  facet normal 0 0 -1
    outer loop
      vertex 202.5 237.5 0
      vertex 217.5 242.5 0
      vertex 217.5 237.5 0
    endloop
  endfacet
  facet normal -0 0 -1
    outer loop
      vertex 217.5 242.5 0
      vertex 202.5 237.5 0
      vertex 202.5 242.5 0
    endloop
  endfacet
  facet normal 0 0 -1
    outer loop
      vertex 202.5 217.5 0
      vertex 217.5 222.5 0
      vertex 217.5 217.5 0
    endloop
  endfacet
  facet normal -0 0 -1
    outer loop
      vertex 217.5 222.5 0
      vertex 202.5 217.5 0
      vertex 202.5 222.5 0
    endloop
  endfacet
  facet normal 0 0 -1
    outer loop
      vertex 202.5 197.5 0
      vertex 217.5 202.5 0
      vertex 217.5 197.5 0
    endloop
  endfacet
  facet normal -0 0 -1
    outer loop
      vertex 217.5 202.5 0
      vertex 202.5 197.5 0
      vertex 202.5 202.5 0
    endloop
  endfacet
  facet normal 0 0 -1
    outer loop
      vertex 202.5 177.5 0
      vertex 217.5 182.5 0
      vertex 217.5 177.5 0
    endloop
  endfacet
  facet normal -0 0 -1
    outer loop
      vertex 217.5 182.5 0
      vertex 202.5 177.5 0
      vertex 202.5 182.5 0
    endloop
  endfacet
  facet normal 0 0 -1
    outer loop
      vertex 202.5 157.5 0
      vertex 217.5 162.5 0
      vertex 217.5 157.5 0
    endloop
  endfacet
  facet normal -0 0 -1
    outer loop
      vertex 217.5 162.5 0
      vertex 202.5 157.5 0
      vertex 202.5 162.5 0
    endloop
  endfacet
  facet normal 0 0 -1
    outer loop
      vertex 222.5 237.5 0
      vertex 237.5 242.5 0
      vertex 237.5 237.5 0
    endloop
  endfacet
  facet normal -0 0 -1
    outer loop
      vertex 237.5 242.5 0
      vertex 222.5 237.5 0
      vertex 222.5 242.5 0
    endloop
  endfacet
  facet normal 0 0 -1
    outer loop
      vertex 222.5 217.5 0
      vertex 237.5 222.5 0
      vertex 237.5 217.5 0
    endloop
  endfacet
  facet normal -0 0 -1
    outer loop
      vertex 237.5 222.5 0
      vertex 222.5 217.5 0
      vertex 222.5 222.5 0
    endloop
  endfacet
  facet normal 0 0 -1
    outer loop
      vertex 222.5 197.5 0
      vertex 237.5 202.5 0
      vertex 237.5 197.5 0
    endloop
  endfacet
  facet normal -0 0 -1
    outer loop
      vertex 237.5 202.5 0
      vertex 222.5 197.5 0
      vertex 222.5 202.5 0
    endloop
  endfacet
  facet normal 0 0 -1
    outer loop
      vertex 222.5 177.5 0
      vertex 237.5 182.5 0
      vertex 237.5 177.5 0
    endloop
  endfacet
  facet normal -0 0 -1
    outer loop
      vertex 237.5 182.5 0
      vertex 222.5 177.5 0
      vertex 222.5 182.5 0
    endloop
  endfacet
  facet normal 0 0 -1
    outer loop
      vertex 222.5 157.5 0
      vertex 237.5 162.5 0
      vertex 237.5 157.5 0
    endloop
  endfacet
  facet normal -0 0 -1
    outer loop
      vertex 237.5 162.5 0
      vertex 222.5 157.5 0
      vertex 222.5 162.5 0
    endloop
  endfacet
  facet normal 0 0 -1
    outer loop
      vertex 242.5 237.5 0
      vertex 257.5 242.5 0
      vertex 257.5 237.5 0
    endloop
  endfacet
  facet normal -0 0 -1
    outer loop
      vertex 257.5 242.5 0
      vertex 242.5 237.5 0
      vertex 242.5 242.5 0
    endloop
  endfacet
  facet normal 0 0 -1
    outer loop
      vertex 242.5 217.5 0
      vertex 257.5 222.5 0
      vertex 257.5 217.5 0
    endloop
  endfacet
  facet normal -0 0 -1
    outer loop
      vertex 257.5 222.5 0
      vertex 242.5 217.5 0
      vertex 242.5 222.5 0
    endloop
  endfacet
  facet normal 0 0 -1
    outer loop
      vertex 242.5 197.5 0
      vertex 257.5 202.5 0
      vertex 257.5 197.5 0
    endloop
  endfacet
  facet normal -0 0 -1
    outer loop
      vertex 257.5 202.5 0
      vertex 242.5 197.5 0
      vertex 242.5 202.5 0
    endloop
  endfacet
  facet normal 0 0 -1
    outer loop
      vertex 242.5 177.5 0
      vertex 257.5 182.5 0
      vertex 257.5 177.5 0
    endloop
  endfacet
  facet normal -0 0 -1
    outer loop
      vertex 257.5 182.5 0
      vertex 242.5 177.5 0
      vertex 242.5 182.5 0
    endloop
  endfacet
  facet normal 0 0 -1
    outer loop
      vertex 242.5 157.5 0
      vertex 257.5 162.5 0
      vertex 257.5 157.5 0
    endloop
  endfacet
  facet normal -0 0 -1
    outer loop
      vertex 257.5 162.5 0
      vertex 242.5 157.5 0
      vertex 242.5 162.5 0
    endloop
  endfacet
  facet normal 0 0 -1
    outer loop
      vertex 257.5 157.5 0
      vertex 260 140 0
      vertex 257.5 142.5 0
    endloop
  endfacet
  facet normal 0 0 -1
    outer loop
      vertex 260 140 0
      vertex 242.5 142.5 0
      vertex 257.5 142.5 0
    endloop
  endfacet
  facet normal 0 0 -1
    outer loop
      vertex 237.5 157.5 0
      vertex 242.5 157.5 0
      vertex 242.5 142.5 0
    endloop
  endfacet
  facet normal 0 0 -1
    outer loop
      vertex 242.5 157.5 0
      vertex 237.5 157.5 0
      vertex 242.5 162.5 0
    endloop
  endfacet
  facet normal 0 0 -1
    outer loop
      vertex 242.5 162.5 0
      vertex 237.5 162.5 0
      vertex 242.5 177.5 0
    endloop
  endfacet
  facet normal 0 0 -1
    outer loop
      vertex 237.5 177.5 0
      vertex 242.5 177.5 0
      vertex 237.5 162.5 0
    endloop
  endfacet
  facet normal 0 0 -1
    outer loop
      vertex 237.5 182.5 0
      vertex 242.5 182.5 0
      vertex 237.5 177.5 0
    endloop
  endfacet
  facet normal 0 0 -1
    outer loop
      vertex 242.5 182.5 0
      vertex 237.5 182.5 0
      vertex 242.5 197.5 0
    endloop
  endfacet
  facet normal 0 0 -1
    outer loop
      vertex 242.5 197.5 0
      vertex 237.5 197.5 0
      vertex 242.5 202.5 0
    endloop
  endfacet
  facet normal 0 0 -1
    outer loop
      vertex 237.5 202.5 0
      vertex 242.5 202.5 0
      vertex 237.5 197.5 0
    endloop
  endfacet
  facet normal 0 0 -1
    outer loop
      vertex 237.5 217.5 0
      vertex 242.5 217.5 0
      vertex 237.5 202.5 0
    endloop
  endfacet
  facet normal 0 0 -1
    outer loop
      vertex 242.5 217.5 0
      vertex 237.5 217.5 0
      vertex 242.5 222.5 0
    endloop
  endfacet
  facet normal 0 0 -1
    outer loop
      vertex 237.5 157.5 0
      vertex 242.5 142.5 0
      vertex 237.5 142.5 0
    endloop
  endfacet
  facet normal 0 0 -1
    outer loop
      vertex 260 140 0
      vertex 237.5 142.5 0
      vertex 242.5 142.5 0
    endloop
  endfacet
  facet normal 0 0 -1
    outer loop
      vertex 260 140 0
      vertex 222.5 142.5 0
      vertex 237.5 142.5 0
    endloop
  endfacet
  facet normal 0 0 -1
    outer loop
      vertex 217.5 157.5 0
      vertex 222.5 157.5 0
      vertex 222.5 142.5 0
    endloop
  endfacet
  facet normal 0 0 -1
    outer loop
      vertex 222.5 157.5 0
      vertex 217.5 157.5 0
      vertex 222.5 162.5 0
    endloop
  endfacet
  facet normal 0 0 -1
    outer loop
      vertex 222.5 162.5 0
      vertex 217.5 162.5 0
      vertex 222.5 177.5 0
    endloop
  endfacet
  facet normal 0 0 -1
    outer loop
      vertex 217.5 177.5 0
      vertex 222.5 177.5 0
      vertex 217.5 162.5 0
    endloop
  endfacet
  facet normal 0 0 -1
    outer loop
      vertex 217.5 182.5 0
      vertex 222.5 182.5 0
      vertex 217.5 177.5 0
    endloop
  endfacet
  facet normal 0 0 -1
    outer loop
      vertex 222.5 182.5 0
      vertex 217.5 182.5 0
      vertex 222.5 197.5 0
    endloop
  endfacet
  facet normal 0 0 -1
    outer loop
      vertex 222.5 197.5 0
      vertex 217.5 197.5 0
      vertex 222.5 202.5 0
    endloop
  endfacet
  facet normal 0 0 -1
    outer loop
      vertex 217.5 202.5 0
      vertex 222.5 202.5 0
      vertex 217.5 197.5 0
    endloop
  endfacet
  facet normal 0 0 -1
    outer loop
      vertex 217.5 217.5 0
      vertex 222.5 217.5 0
      vertex 217.5 202.5 0
    endloop
  endfacet
  facet normal 0 0 -1
    outer loop
      vertex 222.5 217.5 0
      vertex 217.5 217.5 0
      vertex 222.5 222.5 0
    endloop
  endfacet
  facet normal 0 0 -1
    outer loop
      vertex 217.5 157.5 0
      vertex 222.5 142.5 0
      vertex 217.5 142.5 0
    endloop
  endfacet
  facet normal 0 0 -1
    outer loop
      vertex 260 140 0
      vertex 217.5 142.5 0
      vertex 222.5 142.5 0
    endloop
  endfacet
  facet normal 0 0 -1
    outer loop
      vertex 260 140 0
      vertex 202.5 142.5 0
      vertex 217.5 142.5 0
    endloop
  endfacet
  facet normal 0 0 -1
    outer loop
      vertex 197.5 157.5 0
      vertex 202.5 157.5 0
      vertex 202.5 142.5 0
    endloop
  endfacet
  facet normal 0 0 -1
    outer loop
      vertex 202.5 157.5 0
      vertex 197.5 157.5 0
      vertex 202.5 162.5 0
    endloop
  endfacet
  facet normal 0 0 -1
    outer loop
      vertex 202.5 162.5 0
      vertex 197.5 162.5 0
      vertex 202.5 177.5 0
    endloop
  endfacet
  facet normal 0 0 -1
    outer loop
      vertex 197.5 177.5 0
      vertex 202.5 177.5 0
      vertex 197.5 162.5 0
    endloop
  endfacet
  facet normal 0 0 -1
    outer loop
      vertex 197.5 182.5 0
      vertex 202.5 182.5 0
      vertex 197.5 177.5 0
    endloop
  endfacet
  facet normal 0 0 -1
    outer loop
      vertex 202.5 182.5 0
      vertex 197.5 182.5 0
      vertex 202.5 197.5 0
    endloop
  endfacet
  facet normal 0 0 -1
    outer loop
      vertex 202.5 197.5 0
      vertex 197.5 197.5 0
      vertex 202.5 202.5 0
    endloop
  endfacet
  facet normal 0 0 -1
    outer loop
      vertex 197.5 202.5 0
      vertex 202.5 202.5 0
      vertex 197.5 197.5 0
    endloop
  endfacet
  facet normal 0 0 -1
    outer loop
      vertex 197.5 217.5 0
      vertex 202.5 217.5 0
      vertex 197.5 202.5 0
    endloop
  endfacet
  facet normal 0 0 -1
    outer loop
      vertex 202.5 217.5 0
      vertex 197.5 217.5 0
      vertex 202.5 222.5 0
    endloop
  endfacet
  facet normal 0 0 -1
    outer loop
      vertex 197.5 157.5 0
      vertex 202.5 142.5 0
      vertex 197.5 142.5 0
    endloop
  endfacet
  facet normal 0 0 -1
    outer loop
      vertex 260 140 0
      vertex 197.5 142.5 0
      vertex 202.5 142.5 0
    endloop
  endfacet
  facet normal 0 0 -1
    outer loop
      vertex 140 140 0
      vertex 197.5 142.5 0
      vertex 260 140 0
    endloop
  endfacet
  facet normal 0 0 -1
    outer loop
      vertex 177.5 157.5 0
      vertex 182.5 157.5 0
      vertex 182.5 142.5 0
    endloop
  endfacet
  facet normal 0 0 -1
    outer loop
      vertex 182.5 157.5 0
      vertex 177.5 157.5 0
      vertex 182.5 162.5 0
    endloop
  endfacet
  facet normal 0 0 -1
    outer loop
      vertex 182.5 162.5 0
      vertex 177.5 162.5 0
      vertex 182.5 177.5 0
    endloop
  endfacet
  facet normal 0 0 -1
    outer loop
      vertex 177.5 177.5 0
      vertex 182.5 177.5 0
      vertex 177.5 162.5 0
    endloop
  endfacet
  facet normal 0 0 -1
    outer loop
      vertex 177.5 182.5 0
      vertex 182.5 182.5 0
      vertex 177.5 177.5 0
    endloop
  endfacet
  facet normal 0 0 -1
    outer loop
      vertex 182.5 182.5 0
      vertex 177.5 182.5 0
      vertex 182.5 197.5 0
    endloop
  endfacet
  facet normal 0 0 -1
    outer loop
      vertex 182.5 197.5 0
      vertex 177.5 197.5 0
      vertex 182.5 202.5 0
    endloop
  endfacet
  facet normal 0 0 -1
    outer loop
      vertex 177.5 202.5 0
      vertex 182.5 202.5 0
      vertex 177.5 197.5 0
    endloop
  endfacet
  facet normal 0 0 -1
    outer loop
      vertex 177.5 217.5 0
      vertex 182.5 217.5 0
      vertex 177.5 202.5 0
    endloop
  endfacet
  facet normal 0 0 -1
    outer loop
      vertex 182.5 217.5 0
      vertex 177.5 217.5 0
      vertex 182.5 222.5 0
    endloop
  endfacet
  facet normal 0 0 -1
    outer loop
      vertex 177.5 157.5 0
      vertex 182.5 142.5 0
      vertex 177.5 142.5 0
    endloop
  endfacet
  facet normal -0 0 -1
    outer loop
      vertex 197.5 142.5 0
      vertex 140 140 0
      vertex 182.5 142.5 0
    endloop
  endfacet
  facet normal -0 0 -1
    outer loop
      vertex 182.5 142.5 0
      vertex 140 140 0
      vertex 177.5 142.5 0
    endloop
  endfacet
  facet normal 0 0 -1
    outer loop
      vertex 157.5 157.5 0
      vertex 162.5 157.5 0
      vertex 162.5 142.5 0
    endloop
  endfacet
  facet normal 0 0 -1
    outer loop
      vertex 162.5 157.5 0
      vertex 157.5 157.5 0
      vertex 162.5 162.5 0
    endloop
  endfacet
  facet normal 0 0 -1
    outer loop
      vertex 162.5 162.5 0
      vertex 157.5 162.5 0
      vertex 162.5 177.5 0
    endloop
  endfacet
  facet normal 0 0 -1
    outer loop
      vertex 157.5 177.5 0
      vertex 162.5 177.5 0
      vertex 157.5 162.5 0
    endloop
  endfacet
  facet normal 0 0 -1
    outer loop
      vertex 157.5 182.5 0
      vertex 162.5 182.5 0
      vertex 157.5 177.5 0
    endloop
  endfacet
  facet normal 0 0 -1
    outer loop
      vertex 162.5 182.5 0
      vertex 157.5 182.5 0
      vertex 162.5 197.5 0
    endloop
  endfacet
  facet normal 0 0 -1
    outer loop
      vertex 162.5 197.5 0
      vertex 157.5 197.5 0
      vertex 162.5 202.5 0
    endloop
  endfacet
  facet normal 0 0 -1
    outer loop
      vertex 157.5 202.5 0
      vertex 162.5 202.5 0
      vertex 157.5 197.5 0
    endloop
  endfacet
  facet normal 0 0 -1
    outer loop
      vertex 157.5 217.5 0
      vertex 162.5 217.5 0
      vertex 157.5 202.5 0
    endloop
  endfacet
  facet normal 0 0 -1
    outer loop
      vertex 162.5 217.5 0
      vertex 157.5 217.5 0
      vertex 162.5 222.5 0
    endloop
  endfacet
  facet normal 0 0 -1
    outer loop
      vertex 157.5 157.5 0
      vertex 162.5 142.5 0
      vertex 157.5 142.5 0
    endloop
  endfacet
  facet normal -0 0 -1
    outer loop
      vertex 177.5 142.5 0
      vertex 140 140 0
      vertex 162.5 142.5 0
    endloop
  endfacet
  facet normal -0 0 -1
    outer loop
      vertex 162.5 142.5 0
      vertex 140 140 0
      vertex 157.5 142.5 0
    endloop
  endfacet
  facet normal 0 0 -1
    outer loop
      vertex 140 140 0
      vertex 142.5 157.5 0
      vertex 142.5 142.5 0
    endloop
  endfacet
  facet normal -0 0 -1
    outer loop
      vertex 142.5 157.5 0
      vertex 140 140 0
      vertex 142.5 162.5 0
    endloop
  endfacet
  facet normal -0 0 -1
    outer loop
      vertex 142.5 162.5 0
      vertex 140 140 0
      vertex 142.5 177.5 0
    endloop
  endfacet
  facet normal -0 0 -1
    outer loop
      vertex 142.5 177.5 0
      vertex 140 140 0
      vertex 142.5 182.5 0
    endloop
  endfacet
  facet normal -0 0 -1
    outer loop
      vertex 142.5 182.5 0
      vertex 140 140 0
      vertex 142.5 197.5 0
    endloop
  endfacet
  facet normal -0 0 -1
    outer loop
      vertex 142.5 197.5 0
      vertex 140 140 0
      vertex 142.5 202.5 0
    endloop
  endfacet
  facet normal 0 0 -1
    outer loop
      vertex 140 260 0
      vertex 142.5 202.5 0
      vertex 140 140 0
    endloop
  endfacet
  facet normal 0 0 -1
    outer loop
      vertex 142.5 202.5 0
      vertex 140 260 0
      vertex 142.5 217.5 0
    endloop
  endfacet
  facet normal 0 0 -1
    outer loop
      vertex 142.5 217.5 0
      vertex 140 260 0
      vertex 142.5 222.5 0
    endloop
  endfacet
  facet normal 0 0 -1
    outer loop
      vertex 142.5 222.5 0
      vertex 140 260 0
      vertex 142.5 237.5 0
    endloop
  endfacet
  facet normal 0 0 -1
    outer loop
      vertex 142.5 237.5 0
      vertex 140 260 0
      vertex 142.5 242.5 0
    endloop
  endfacet
  facet normal -0 0 -1
    outer loop
      vertex 157.5 142.5 0
      vertex 140 140 0
      vertex 142.5 142.5 0
    endloop
  endfacet
  facet normal 0 0 -1
    outer loop
      vertex 257.5 162.5 0
      vertex 260 140 0
      vertex 257.5 157.5 0
    endloop
  endfacet
  facet normal 0 0 -1
    outer loop
      vertex 257.5 177.5 0
      vertex 260 140 0
      vertex 257.5 162.5 0
    endloop
  endfacet
  facet normal 0 0 -1
    outer loop
      vertex 257.5 182.5 0
      vertex 260 140 0
      vertex 257.5 177.5 0
    endloop
  endfacet
  facet normal 0 0 -1
    outer loop
      vertex 257.5 197.5 0
      vertex 260 140 0
      vertex 257.5 182.5 0
    endloop
  endfacet
  facet normal 0 0 -1
    outer loop
      vertex 260 140 0
      vertex 257.5 197.5 0
      vertex 260 260 0
    endloop
  endfacet
  facet normal 0 0 -1
    outer loop
      vertex 257.5 202.5 0
      vertex 260 260 0
      vertex 257.5 197.5 0
    endloop
  endfacet
  facet normal 0 0 -1
    outer loop
      vertex 257.5 217.5 0
      vertex 260 260 0
      vertex 257.5 202.5 0
    endloop
  endfacet
  facet normal 0 0 -1
    outer loop
      vertex 257.5 222.5 0
      vertex 260 260 0
      vertex 257.5 217.5 0
    endloop
  endfacet
  facet normal 0 0 -1
    outer loop
      vertex 257.5 237.5 0
      vertex 260 260 0
      vertex 257.5 222.5 0
    endloop
  endfacet
  facet normal 0 0 -1
    outer loop
      vertex 257.5 242.5 0
      vertex 260 260 0
      vertex 257.5 237.5 0
    endloop
  endfacet
  facet normal 0 0 -1
    outer loop
      vertex 257.5 257.5 0
      vertex 260 260 0
      vertex 257.5 242.5 0
    endloop
  endfacet
  facet normal 0 0 -1
    outer loop
      vertex 242.5 257.5 0
      vertex 260 260 0
      vertex 257.5 257.5 0
    endloop
  endfacet
  facet normal -0 0 -1
    outer loop
      vertex 242.5 162.5 0
      vertex 237.5 157.5 0
      vertex 237.5 162.5 0
    endloop
  endfacet
  facet normal 0 0 -1
    outer loop
      vertex 242.5 177.5 0
      vertex 237.5 177.5 0
      vertex 242.5 182.5 0
    endloop
  endfacet
  facet normal 0 0 -1
    outer loop
      vertex 237.5 197.5 0
      vertex 242.5 197.5 0
      vertex 237.5 182.5 0
    endloop
  endfacet
  facet normal 0 0 -1
    outer loop
      vertex 242.5 202.5 0
      vertex 237.5 202.5 0
      vertex 242.5 217.5 0
    endloop
  endfacet
  facet normal 0 0 -1
    outer loop
      vertex 237.5 222.5 0
      vertex 242.5 222.5 0
      vertex 237.5 217.5 0
    endloop
  endfacet
  facet normal 0 0 -1
    outer loop
      vertex 242.5 222.5 0
      vertex 237.5 222.5 0
      vertex 242.5 237.5 0
    endloop
  endfacet
  facet normal 0 0 -1
    outer loop
      vertex 237.5 237.5 0
      vertex 242.5 237.5 0
      vertex 237.5 222.5 0
    endloop
  endfacet
  facet normal 0 0 -1
    outer loop
      vertex 242.5 237.5 0
      vertex 237.5 237.5 0
      vertex 242.5 242.5 0
    endloop
  endfacet
  facet normal 0 0 -1
    outer loop
      vertex 237.5 242.5 0
      vertex 242.5 242.5 0
      vertex 237.5 237.5 0
    endloop
  endfacet
  facet normal 0 0 -1
    outer loop
      vertex 242.5 242.5 0
      vertex 237.5 242.5 0
      vertex 242.5 257.5 0
    endloop
  endfacet
  facet normal 0 0 -1
    outer loop
      vertex 237.5 257.5 0
      vertex 242.5 257.5 0
      vertex 237.5 242.5 0
    endloop
  endfacet
  facet normal 0 0 -1
    outer loop
      vertex 237.5 257.5 0
      vertex 260 260 0
      vertex 242.5 257.5 0
    endloop
  endfacet
  facet normal 0 0 -1
    outer loop
      vertex 222.5 257.5 0
      vertex 260 260 0
      vertex 237.5 257.5 0
    endloop
  endfacet
  facet normal -0 0 -1
    outer loop
      vertex 222.5 162.5 0
      vertex 217.5 157.5 0
      vertex 217.5 162.5 0
    endloop
  endfacet
  facet normal 0 0 -1
    outer loop
      vertex 222.5 177.5 0
      vertex 217.5 177.5 0
      vertex 222.5 182.5 0
    endloop
  endfacet
  facet normal 0 0 -1
    outer loop
      vertex 217.5 197.5 0
      vertex 222.5 197.5 0
      vertex 217.5 182.5 0
    endloop
  endfacet
  facet normal 0 0 -1
    outer loop
      vertex 222.5 202.5 0
      vertex 217.5 202.5 0
      vertex 222.5 217.5 0
    endloop
  endfacet
  facet normal 0 0 -1
    outer loop
      vertex 217.5 222.5 0
      vertex 222.5 222.5 0
      vertex 217.5 217.5 0
    endloop
  endfacet
  facet normal 0 0 -1
    outer loop
      vertex 222.5 222.5 0
      vertex 217.5 222.5 0
      vertex 222.5 237.5 0
    endloop
  endfacet
  facet normal 0 0 -1
    outer loop
      vertex 217.5 237.5 0
      vertex 222.5 237.5 0
      vertex 217.5 222.5 0
    endloop
  endfacet
  facet normal 0 0 -1
    outer loop
      vertex 222.5 237.5 0
      vertex 217.5 237.5 0
      vertex 222.5 242.5 0
    endloop
  endfacet
  facet normal 0 0 -1
    outer loop
      vertex 217.5 242.5 0
      vertex 222.5 242.5 0
      vertex 217.5 237.5 0
    endloop
  endfacet
  facet normal 0 0 -1
    outer loop
      vertex 222.5 242.5 0
      vertex 217.5 242.5 0
      vertex 222.5 257.5 0
    endloop
  endfacet
  facet normal 0 0 -1
    outer loop
      vertex 217.5 257.5 0
      vertex 222.5 257.5 0
      vertex 217.5 242.5 0
    endloop
  endfacet
  facet normal 0 0 -1
    outer loop
      vertex 217.5 257.5 0
      vertex 260 260 0
      vertex 222.5 257.5 0
    endloop
  endfacet
  facet normal 0 0 -1
    outer loop
      vertex 202.5 257.5 0
      vertex 260 260 0
      vertex 217.5 257.5 0
    endloop
  endfacet
  facet normal -0 0 -1
    outer loop
      vertex 202.5 162.5 0
      vertex 197.5 157.5 0
      vertex 197.5 162.5 0
    endloop
  endfacet
  facet normal 0 0 -1
    outer loop
      vertex 202.5 177.5 0
      vertex 197.5 177.5 0
      vertex 202.5 182.5 0
    endloop
  endfacet
  facet normal 0 0 -1
    outer loop
      vertex 197.5 197.5 0
      vertex 202.5 197.5 0
      vertex 197.5 182.5 0
    endloop
  endfacet
  facet normal 0 0 -1
    outer loop
      vertex 202.5 202.5 0
      vertex 197.5 202.5 0
      vertex 202.5 217.5 0
    endloop
  endfacet
  facet normal 0 0 -1
    outer loop
      vertex 197.5 222.5 0
      vertex 202.5 222.5 0
      vertex 197.5 217.5 0
    endloop
  endfacet
  facet normal 0 0 -1
    outer loop
      vertex 202.5 222.5 0
      vertex 197.5 222.5 0
      vertex 202.5 237.5 0
    endloop
  endfacet
  facet normal 0 0 -1
    outer loop
      vertex 197.5 237.5 0
      vertex 202.5 237.5 0
      vertex 197.5 222.5 0
    endloop
  endfacet
  facet normal 0 0 -1
    outer loop
      vertex 202.5 237.5 0
      vertex 197.5 237.5 0
      vertex 202.5 242.5 0
    endloop
  endfacet
  facet normal 0 0 -1
    outer loop
      vertex 197.5 242.5 0
      vertex 202.5 242.5 0
      vertex 197.5 237.5 0
    endloop
  endfacet
  facet normal 0 0 -1
    outer loop
      vertex 202.5 242.5 0
      vertex 197.5 242.5 0
      vertex 202.5 257.5 0
    endloop
  endfacet
  facet normal 0 0 -1
    outer loop
      vertex 197.5 257.5 0
      vertex 202.5 257.5 0
      vertex 197.5 242.5 0
    endloop
  endfacet
  facet normal 0 0 -1
    outer loop
      vertex 197.5 257.5 0
      vertex 260 260 0
      vertex 202.5 257.5 0
    endloop
  endfacet
  facet normal 0 0 -1
    outer loop
      vertex 140 260 0
      vertex 197.5 257.5 0
      vertex 182.5 257.5 0
    endloop
  endfacet
  facet normal -0 0 -1
    outer loop
      vertex 182.5 162.5 0
      vertex 177.5 157.5 0
      vertex 177.5 162.5 0
    endloop
  endfacet
  facet normal 0 0 -1
    outer loop
      vertex 182.5 177.5 0
      vertex 177.5 177.5 0
      vertex 182.5 182.5 0
    endloop
  endfacet
  facet normal 0 0 -1
    outer loop
      vertex 177.5 197.5 0
      vertex 182.5 197.5 0
      vertex 177.5 182.5 0
    endloop
  endfacet
  facet normal 0 0 -1
    outer loop
      vertex 182.5 202.5 0
      vertex 177.5 202.5 0
      vertex 182.5 217.5 0
    endloop
  endfacet
  facet normal 0 0 -1
    outer loop
      vertex 177.5 222.5 0
      vertex 182.5 222.5 0
      vertex 177.5 217.5 0
    endloop
  endfacet
  facet normal 0 0 -1
    outer loop
      vertex 182.5 222.5 0
      vertex 177.5 222.5 0
      vertex 182.5 237.5 0
    endloop
  endfacet
  facet normal 0 0 -1
    outer loop
      vertex 177.5 237.5 0
      vertex 182.5 237.5 0
      vertex 177.5 222.5 0
    endloop
  endfacet
  facet normal 0 0 -1
    outer loop
      vertex 182.5 237.5 0
      vertex 177.5 237.5 0
      vertex 182.5 242.5 0
    endloop
  endfacet
  facet normal 0 0 -1
    outer loop
      vertex 177.5 242.5 0
      vertex 182.5 242.5 0
      vertex 177.5 237.5 0
    endloop
  endfacet
  facet normal 0 0 -1
    outer loop
      vertex 182.5 242.5 0
      vertex 177.5 242.5 0
      vertex 182.5 257.5 0
    endloop
  endfacet
  facet normal 0 0 -1
    outer loop
      vertex 177.5 257.5 0
      vertex 182.5 257.5 0
      vertex 177.5 242.5 0
    endloop
  endfacet
  facet normal 0 0 -1
    outer loop
      vertex 140 260 0
      vertex 182.5 257.5 0
      vertex 177.5 257.5 0
    endloop
  endfacet
  facet normal 0 0 -1
    outer loop
      vertex 140 260 0
      vertex 177.5 257.5 0
      vertex 162.5 257.5 0
    endloop
  endfacet
  facet normal -0 0 -1
    outer loop
      vertex 162.5 162.5 0
      vertex 157.5 157.5 0
      vertex 157.5 162.5 0
    endloop
  endfacet
  facet normal 0 0 -1
    outer loop
      vertex 162.5 177.5 0
      vertex 157.5 177.5 0
      vertex 162.5 182.5 0
    endloop
  endfacet
  facet normal 0 0 -1
    outer loop
      vertex 157.5 197.5 0
      vertex 162.5 197.5 0
      vertex 157.5 182.5 0
    endloop
  endfacet
  facet normal 0 0 -1
    outer loop
      vertex 162.5 202.5 0
      vertex 157.5 202.5 0
      vertex 162.5 217.5 0
    endloop
  endfacet
  facet normal 0 0 -1
    outer loop
      vertex 157.5 222.5 0
      vertex 162.5 222.5 0
      vertex 157.5 217.5 0
    endloop
  endfacet
  facet normal 0 0 -1
    outer loop
      vertex 162.5 222.5 0
      vertex 157.5 222.5 0
      vertex 162.5 237.5 0
    endloop
  endfacet
  facet normal 0 0 -1
    outer loop
      vertex 157.5 237.5 0
      vertex 162.5 237.5 0
      vertex 157.5 222.5 0
    endloop
  endfacet
  facet normal 0 0 -1
    outer loop
      vertex 162.5 237.5 0
      vertex 157.5 237.5 0
      vertex 162.5 242.5 0
    endloop
  endfacet
  facet normal 0 0 -1
    outer loop
      vertex 157.5 242.5 0
      vertex 162.5 242.5 0
      vertex 157.5 237.5 0
    endloop
  endfacet
  facet normal 0 0 -1
    outer loop
      vertex 162.5 242.5 0
      vertex 157.5 242.5 0
      vertex 162.5 257.5 0
    endloop
  endfacet
  facet normal 0 0 -1
    outer loop
      vertex 157.5 257.5 0
      vertex 162.5 257.5 0
      vertex 157.5 242.5 0
    endloop
  endfacet
  facet normal 0 0 -1
    outer loop
      vertex 140 260 0
      vertex 162.5 257.5 0
      vertex 157.5 257.5 0
    endloop
  endfacet
  facet normal 0 0 -1
    outer loop
      vertex 140 260 0
      vertex 157.5 257.5 0
      vertex 142.5 257.5 0
    endloop
  endfacet
  facet normal 0 0 -1
    outer loop
      vertex 197.5 257.5 0
      vertex 140 260 0
      vertex 260 260 0
    endloop
  endfacet
  facet normal 0 0 -1
    outer loop
      vertex 142.5 242.5 0
      vertex 140 260 0
      vertex 142.5 257.5 0
    endloop
  endfacet
  facet normal 0 0.768221 0.640184
    outer loop
      vertex 157.5 142.5 0
      vertex 140 140 3
      vertex 160 140 3
    endloop
  endfacet
  facet normal 0 0.768221 0.640184
    outer loop
      vertex 140 140 3
      vertex 157.5 142.5 0
      vertex 142.5 142.5 0
    endloop
  endfacet
  facet normal 0 0.768221 0.640184
    outer loop
      vertex 257.5 142.5 0
      vertex 240 140 3
      vertex 260 140 3
    endloop
  endfacet
  facet normal 0 0.768221 0.640184
    outer loop
      vertex 240 140 3
      vertex 257.5 142.5 0
      vertex 242.5 142.5 0
    endloop
  endfacet
  facet normal 0 0.768221 0.640184
    outer loop
      vertex 237.5 142.5 0
      vertex 220 140 3
      vertex 240 140 3
    endloop
  endfacet
  facet normal 0 0.768221 0.640184
    outer loop
      vertex 220 140 3
      vertex 237.5 142.5 0
      vertex 222.5 142.5 0
    endloop
  endfacet
  facet normal 0 0.768221 0.640184
    outer loop
      vertex 217.5 142.5 0
      vertex 200 140 3
      vertex 220 140 3
    endloop
  endfacet
  facet normal 0 0.768221 0.640184
    outer loop
      vertex 200 140 3
      vertex 217.5 142.5 0
      vertex 202.5 142.5 0
    endloop
  endfacet
  facet normal 0 0.768221 0.640184
    outer loop
      vertex 197.5 142.5 0
      vertex 180 140 3
      vertex 200 140 3
    endloop
  endfacet
  facet normal 0 0.768221 0.640184
    outer loop
      vertex 180 140 3
      vertex 197.5 142.5 0
      vertex 182.5 142.5 0
    endloop
  endfacet
  facet normal 0 0.768221 0.640184
    outer loop
      vertex 177.5 142.5 0
      vertex 160 140 3
      vertex 180 140 3
    endloop
  endfacet
  facet normal 0 0.768221 0.640184
    outer loop
      vertex 160 140 3
      vertex 177.5 142.5 0
      vertex 162.5 142.5 0
    endloop
  endfacet
  facet normal 0 0.768221 0.640184
    outer loop
      vertex 157.5 162.5 0
      vertex 140 160 3
      vertex 160 160 3
    endloop
  endfacet
  facet normal 0 0.768221 0.640184
    outer loop
      vertex 140 160 3
      vertex 157.5 162.5 0
      vertex 142.5 162.5 0
    endloop
  endfacet
  facet normal 0 0.768221 0.640184
    outer loop
      vertex 257.5 162.5 0
      vertex 240 160 3
      vertex 260 160 3
    endloop
  endfacet
  facet normal 0 0.768221 0.640184
    outer loop
      vertex 240 160 3
      vertex 257.5 162.5 0
      vertex 242.5 162.5 0
    endloop
  endfacet
  facet normal 0 0.768221 0.640184
    outer loop
      vertex 177.5 162.5 0
      vertex 160 160 3
      vertex 180 160 3
    endloop
  endfacet
  facet normal 0 0.768221 0.640184
    outer loop
      vertex 160 160 3
      vertex 177.5 162.5 0
      vertex 162.5 162.5 0
    endloop
  endfacet
  facet normal 0 0.768221 0.640184
    outer loop
      vertex 197.5 162.5 0
      vertex 180 160 3
      vertex 200 160 3
    endloop
  endfacet
  facet normal 0 0.768221 0.640184
    outer loop
      vertex 180 160 3
      vertex 197.5 162.5 0
      vertex 182.5 162.5 0
    endloop
  endfacet
  facet normal 0 0.768221 0.640184
    outer loop
      vertex 217.5 162.5 0
      vertex 200 160 3
      vertex 220 160 3
    endloop
  endfacet
  facet normal 0 0.768221 0.640184
    outer loop
      vertex 200 160 3
      vertex 217.5 162.5 0
      vertex 202.5 162.5 0
    endloop
  endfacet
  facet normal 0 0.768221 0.640184
    outer loop
      vertex 237.5 162.5 0
      vertex 220 160 3
      vertex 240 160 3
    endloop
  endfacet
  facet normal 0 0.768221 0.640184
    outer loop
      vertex 220 160 3
      vertex 237.5 162.5 0
      vertex 222.5 162.5 0
    endloop
  endfacet
  facet normal 0 -0.768221 0.640184
    outer loop
      vertex 142.5 157.5 0
      vertex 160 160 3
      vertex 140 160 3
    endloop
  endfacet
  facet normal 0 -0.768221 0.640184
    outer loop
      vertex 160 160 3
      vertex 142.5 157.5 0
      vertex 157.5 157.5 0
    endloop
  endfacet
  facet normal 0 -0.768221 0.640184
    outer loop
      vertex 242.5 157.5 0
      vertex 260 160 3
      vertex 240 160 3
    endloop
  endfacet
  facet normal 0 -0.768221 0.640184
    outer loop
      vertex 260 160 3
      vertex 242.5 157.5 0
      vertex 257.5 157.5 0
    endloop
  endfacet
  facet normal 0 -0.768221 0.640184
    outer loop
      vertex 162.5 157.5 0
      vertex 180 160 3
      vertex 160 160 3
    endloop
  endfacet
  facet normal 0 -0.768221 0.640184
    outer loop
      vertex 180 160 3
      vertex 162.5 157.5 0
      vertex 177.5 157.5 0
    endloop
  endfacet
  facet normal 0 -0.768221 0.640184
    outer loop
      vertex 182.5 157.5 0
      vertex 200 160 3
      vertex 180 160 3
    endloop
  endfacet
  facet normal 0 -0.768221 0.640184
    outer loop
      vertex 200 160 3
      vertex 182.5 157.5 0
      vertex 197.5 157.5 0
    endloop
  endfacet
  facet normal 0 -0.768221 0.640184
    outer loop
      vertex 202.5 157.5 0
      vertex 220 160 3
      vertex 200 160 3
    endloop
  endfacet
  facet normal 0 -0.768221 0.640184
    outer loop
      vertex 220 160 3
      vertex 202.5 157.5 0
      vertex 217.5 157.5 0
    endloop
  endfacet
  facet normal 0 -0.768221 0.640184
    outer loop
      vertex 222.5 157.5 0
      vertex 240 160 3
      vertex 220 160 3
    endloop
  endfacet
  facet normal 0 -0.768221 0.640184
    outer loop
      vertex 240 160 3
      vertex 222.5 157.5 0
      vertex 237.5 157.5 0
    endloop
  endfacet
  facet normal 0 0.768221 0.640184
    outer loop
      vertex 157.5 182.5 0
      vertex 140 180 3
      vertex 160 180 3
    endloop
  endfacet
  facet normal 0 0.768221 0.640184
    outer loop
      vertex 140 180 3
      vertex 157.5 182.5 0
      vertex 142.5 182.5 0
    endloop
  endfacet
  facet normal 0 0.768221 0.640184
    outer loop
      vertex 257.5 182.5 0
      vertex 240 180 3
      vertex 260 180 3
    endloop
  endfacet
  facet normal 0 0.768221 0.640184
    outer loop
      vertex 240 180 3
      vertex 257.5 182.5 0
      vertex 242.5 182.5 0
    endloop
  endfacet
  facet normal 0 0.768221 0.640184
    outer loop
      vertex 177.5 182.5 0
      vertex 160 180 3
      vertex 180 180 3
    endloop
  endfacet
  facet normal 0 0.768221 0.640184
    outer loop
      vertex 160 180 3
      vertex 177.5 182.5 0
      vertex 162.5 182.5 0
    endloop
  endfacet
  facet normal 0 0.768221 0.640184
    outer loop
      vertex 197.5 182.5 0
      vertex 180 180 3
      vertex 200 180 3
    endloop
  endfacet
  facet normal 0 0.768221 0.640184
    outer loop
      vertex 180 180 3
      vertex 197.5 182.5 0
      vertex 182.5 182.5 0
    endloop
  endfacet
  facet normal 0 0.768221 0.640184
    outer loop
      vertex 217.5 182.5 0
      vertex 200 180 3
      vertex 220 180 3
    endloop
  endfacet
  facet normal 0 0.768221 0.640184
    outer loop
      vertex 200 180 3
      vertex 217.5 182.5 0
      vertex 202.5 182.5 0
    endloop
  endfacet
  facet normal 0 0.768221 0.640184
    outer loop
      vertex 237.5 182.5 0
      vertex 220 180 3
      vertex 240 180 3
    endloop
  endfacet
  facet normal 0 0.768221 0.640184
    outer loop
      vertex 220 180 3
      vertex 237.5 182.5 0
      vertex 222.5 182.5 0
    endloop
  endfacet
  facet normal 0 -0.768221 0.640184
    outer loop
      vertex 142.5 177.5 0
      vertex 160 180 3
      vertex 140 180 3
    endloop
  endfacet
  facet normal 0 -0.768221 0.640184
    outer loop
      vertex 160 180 3
      vertex 142.5 177.5 0
      vertex 157.5 177.5 0
    endloop
  endfacet
  facet normal 0 -0.768221 0.640184
    outer loop
      vertex 242.5 177.5 0
      vertex 260 180 3
      vertex 240 180 3
    endloop
  endfacet
  facet normal 0 -0.768221 0.640184
    outer loop
      vertex 260 180 3
      vertex 242.5 177.5 0
      vertex 257.5 177.5 0
    endloop
  endfacet
  facet normal 0 -0.768221 0.640184
    outer loop
      vertex 162.5 177.5 0
      vertex 180 180 3
      vertex 160 180 3
    endloop
  endfacet
  facet normal 0 -0.768221 0.640184
    outer loop
      vertex 180 180 3
      vertex 162.5 177.5 0
      vertex 177.5 177.5 0
    endloop
  endfacet
  facet normal 0 -0.768221 0.640184
    outer loop
      vertex 182.5 177.5 0
      vertex 200 180 3
      vertex 180 180 3
    endloop
  endfacet
  facet normal 0 -0.768221 0.640184
    outer loop
      vertex 200 180 3
      vertex 182.5 177.5 0
      vertex 197.5 177.5 0
    endloop
  endfacet
  facet normal 0 -0.768221 0.640184
    outer loop
      vertex 202.5 177.5 0
      vertex 220 180 3
      vertex 200 180 3
    endloop
  endfacet
  facet normal 0 -0.768221 0.640184
    outer loop
      vertex 220 180 3
      vertex 202.5 177.5 0
      vertex 217.5 177.5 0
    endloop
  endfacet
  facet normal 0 -0.768221 0.640184
    outer loop
      vertex 222.5 177.5 0
      vertex 240 180 3
      vertex 220 180 3
    endloop
  endfacet
  facet normal 0 -0.768221 0.640184
    outer loop
      vertex 240 180 3
      vertex 222.5 177.5 0
      vertex 237.5 177.5 0
    endloop
  endfacet
  facet normal 0 0.768221 0.640184
    outer loop
      vertex 157.5 202.5 0
      vertex 140 200 3
      vertex 160 200 3
    endloop
  endfacet
  facet normal 0 0.768221 0.640184
    outer loop
      vertex 140 200 3
      vertex 157.5 202.5 0
      vertex 142.5 202.5 0
    endloop
  endfacet
  facet normal 0 0.768221 0.640184
    outer loop
      vertex 257.5 202.5 0
      vertex 240 200 3
      vertex 260 200 3
    endloop
  endfacet
  facet normal 0 0.768221 0.640184
    outer loop
      vertex 240 200 3
      vertex 257.5 202.5 0
      vertex 242.5 202.5 0
    endloop
  endfacet
  facet normal 0 0.768221 0.640184
    outer loop
      vertex 177.5 202.5 0
      vertex 160 200 3
      vertex 180 200 3
    endloop
  endfacet
  facet normal 0 0.768221 0.640184
    outer loop
      vertex 160 200 3
      vertex 177.5 202.5 0
      vertex 162.5 202.5 0
    endloop
  endfacet
  facet normal 0 0.768221 0.640184
    outer loop
      vertex 197.5 202.5 0
      vertex 180 200 3
      vertex 200 200 3
    endloop
  endfacet
  facet normal 0 0.768221 0.640184
    outer loop
      vertex 180 200 3
      vertex 197.5 202.5 0
      vertex 182.5 202.5 0
    endloop
  endfacet
  facet normal 0 0.768221 0.640184
    outer loop
      vertex 217.5 202.5 0
      vertex 200 200 3
      vertex 220 200 3
    endloop
  endfacet
  facet normal 0 0.768221 0.640184
    outer loop
      vertex 200 200 3
      vertex 217.5 202.5 0
      vertex 202.5 202.5 0
    endloop
  endfacet
  facet normal 0 0.768221 0.640184
    outer loop
      vertex 237.5 202.5 0
      vertex 220 200 3
      vertex 240 200 3
    endloop
  endfacet
  facet normal 0 0.768221 0.640184
    outer loop
      vertex 220 200 3
      vertex 237.5 202.5 0
      vertex 222.5 202.5 0
    endloop
  endfacet
  facet normal 0 -0.768221 0.640184
    outer loop
      vertex 142.5 197.5 0
      vertex 160 200 3
      vertex 140 200 3
    endloop
  endfacet
  facet normal 0 -0.768221 0.640184
    outer loop
      vertex 160 200 3
      vertex 142.5 197.5 0
      vertex 157.5 197.5 0
    endloop
  endfacet
  facet normal 0 -0.768221 0.640184
    outer loop
      vertex 242.5 197.5 0
      vertex 260 200 3
      vertex 240 200 3
    endloop
  endfacet
  facet normal 0 -0.768221 0.640184
    outer loop
      vertex 260 200 3
      vertex 242.5 197.5 0
      vertex 257.5 197.5 0
    endloop
  endfacet
  facet normal 0 -0.768221 0.640184
    outer loop
      vertex 162.5 197.5 0
      vertex 180 200 3
      vertex 160 200 3
    endloop
  endfacet
  facet normal 0 -0.768221 0.640184
    outer loop
      vertex 180 200 3
      vertex 162.5 197.5 0
      vertex 177.5 197.5 0
    endloop
  endfacet
  facet normal 0 -0.768221 0.640184
    outer loop
      vertex 182.5 197.5 0
      vertex 200 200 3
      vertex 180 200 3
    endloop
  endfacet
  facet normal 0 -0.768221 0.640184
    outer loop
      vertex 200 200 3
      vertex 182.5 197.5 0
      vertex 197.5 197.5 0
    endloop
  endfacet
  facet normal 0 -0.768221 0.640184
    outer loop
      vertex 202.5 197.5 0
      vertex 220 200 3
      vertex 200 200 3
    endloop
  endfacet
  facet normal 0 -0.768221 0.640184
    outer loop
      vertex 220 200 3
      vertex 202.5 197.5 0
      vertex 217.5 197.5 0
    endloop
  endfacet
  facet normal 0 -0.768221 0.640184
    outer loop
      vertex 222.5 197.5 0
      vertex 240 200 3
      vertex 220 200 3
    endloop
  endfacet
  facet normal 0 -0.768221 0.640184
    outer loop
      vertex 240 200 3
      vertex 222.5 197.5 0
      vertex 237.5 197.5 0
    endloop
  endfacet
  facet normal 0 0.768221 0.640184
    outer loop
      vertex 157.5 222.5 0
      vertex 140 220 3
      vertex 160 220 3
    endloop
  endfacet
  facet normal 0 0.768221 0.640184
    outer loop
      vertex 140 220 3
      vertex 157.5 222.5 0
      vertex 142.5 222.5 0
    endloop
  endfacet
  facet normal 0 0.768221 0.640184
    outer loop
      vertex 257.5 222.5 0
      vertex 240 220 3
      vertex 260 220 3
    endloop
  endfacet
  facet normal 0 0.768221 0.640184
    outer loop
      vertex 240 220 3
      vertex 257.5 222.5 0
      vertex 242.5 222.5 0
    endloop
  endfacet
  facet normal 0 0.768221 0.640184
    outer loop
      vertex 177.5 222.5 0
      vertex 160 220 3
      vertex 180 220 3
    endloop
  endfacet
  facet normal 0 0.768221 0.640184
    outer loop
      vertex 160 220 3
      vertex 177.5 222.5 0
      vertex 162.5 222.5 0
    endloop
  endfacet
  facet normal 0 0.768221 0.640184
    outer loop
      vertex 197.5 222.5 0
      vertex 180 220 3
      vertex 200 220 3
    endloop
  endfacet
  facet normal 0 0.768221 0.640184
    outer loop
      vertex 180 220 3
      vertex 197.5 222.5 0
      vertex 182.5 222.5 0
    endloop
  endfacet
  facet normal 0 0.768221 0.640184
    outer loop
      vertex 217.5 222.5 0
      vertex 200 220 3
      vertex 220 220 3
    endloop
  endfacet
  facet normal 0 0.768221 0.640184
    outer loop
      vertex 200 220 3
      vertex 217.5 222.5 0
      vertex 202.5 222.5 0
    endloop
  endfacet
  facet normal 0 0.768221 0.640184
    outer loop
      vertex 237.5 222.5 0
      vertex 220 220 3
      vertex 240 220 3
    endloop
  endfacet
  facet normal 0 0.768221 0.640184
    outer loop
      vertex 220 220 3
      vertex 237.5 222.5 0
      vertex 222.5 222.5 0
    endloop
  endfacet
  facet normal 0 -0.768221 0.640184
    outer loop
      vertex 142.5 217.5 0
      vertex 160 220 3
      vertex 140 220 3
    endloop
  endfacet
  facet normal 0 -0.768221 0.640184
    outer loop
      vertex 160 220 3
      vertex 142.5 217.5 0
      vertex 157.5 217.5 0
    endloop
  endfacet
  facet normal 0 -0.768221 0.640184
    outer loop
      vertex 242.5 217.5 0
      vertex 260 220 3
      vertex 240 220 3
    endloop
  endfacet
  facet normal 0 -0.768221 0.640184
    outer loop
      vertex 260 220 3
      vertex 242.5 217.5 0
      vertex 257.5 217.5 0
    endloop
  endfacet
  facet normal 0 -0.768221 0.640184
    outer loop
      vertex 162.5 217.5 0
      vertex 180 220 3
      vertex 160 220 3
    endloop
  endfacet
  facet normal 0 -0.768221 0.640184
    outer loop
      vertex 180 220 3
      vertex 162.5 217.5 0
      vertex 177.5 217.5 0
    endloop
  endfacet
  facet normal 0 -0.768221 0.640184
    outer loop
      vertex 182.5 217.5 0
      vertex 200 220 3
      vertex 180 220 3
    endloop
  endfacet
  facet normal 0 -0.768221 0.640184
    outer loop
      vertex 200 220 3
      vertex 182.5 217.5 0
      vertex 197.5 217.5 0
    endloop
  endfacet
  facet normal 0 -0.768221 0.640184
    outer loop
      vertex 202.5 217.5 0
      vertex 220 220 3
      vertex 200 220 3
    endloop
  endfacet
  facet normal 0 -0.768221 0.640184
    outer loop
      vertex 220 220 3
      vertex 202.5 217.5 0
      vertex 217.5 217.5 0
    endloop
  endfacet
  facet normal 0 -0.768221 0.640184
    outer loop
      vertex 222.5 217.5 0
      vertex 240 220 3
      vertex 220 220 3
    endloop
  endfacet
  facet normal 0 -0.768221 0.640184
    outer loop
      vertex 240 220 3
      vertex 222.5 217.5 0
      vertex 237.5 217.5 0
    endloop
  endfacet
  facet normal 0 0.768221 0.640184
    outer loop
      vertex 157.5 242.5 0
      vertex 140 240 3
      vertex 160 240 3
    endloop
  endfacet
  facet normal 0 0.768221 0.640184
    outer loop
      vertex 140 240 3
      vertex 157.5 242.5 0
      vertex 142.5 242.5 0
    endloop
  endfacet
  facet normal 0 0.768221 0.640184
    outer loop
      vertex 257.5 242.5 0
      vertex 240 240 3
      vertex 260 240 3
    endloop
  endfacet
  facet normal 0 0.768221 0.640184
    outer loop
      vertex 240 240 3
      vertex 257.5 242.5 0
      vertex 242.5 242.5 0
    endloop
  endfacet
  facet normal 0 0.768221 0.640184
    outer loop
      vertex 177.5 242.5 0
      vertex 160 240 3
      vertex 180 240 3
    endloop
  endfacet
  facet normal 0 0.768221 0.640184
    outer loop
      vertex 160 240 3
      vertex 177.5 242.5 0
      vertex 162.5 242.5 0
    endloop
  endfacet
  facet normal 0 0.768221 0.640184
    outer loop
      vertex 197.5 242.5 0
      vertex 180 240 3
      vertex 200 240 3
    endloop
  endfacet
  facet normal 0 0.768221 0.640184
    outer loop
      vertex 180 240 3
      vertex 197.5 242.5 0
      vertex 182.5 242.5 0
    endloop
  endfacet
  facet normal 0 0.768221 0.640184
    outer loop
      vertex 217.5 242.5 0
      vertex 200 240 3
      vertex 220 240 3
    endloop
  endfacet
  facet normal 0 0.768221 0.640184
    outer loop
      vertex 200 240 3
      vertex 217.5 242.5 0
      vertex 202.5 242.5 0
    endloop
  endfacet
  facet normal 0 0.768221 0.640184
    outer loop
      vertex 237.5 242.5 0
      vertex 220 240 3
      vertex 240 240 3
    endloop
  endfacet
  facet normal 0 0.768221 0.640184
    outer loop
      vertex 220 240 3
      vertex 237.5 242.5 0
      vertex 222.5 242.5 0
    endloop
  endfacet
  facet normal 0 -0.768221 0.640184
    outer loop
      vertex 142.5 237.5 0
      vertex 160 240 3
      vertex 140 240 3
    endloop
  endfacet
  facet normal 0 -0.768221 0.640184
    outer loop
      vertex 160 240 3
      vertex 142.5 237.5 0
      vertex 157.5 237.5 0
    endloop
  endfacet
  facet normal 0 -0.768221 0.640184
    outer loop
      vertex 242.5 237.5 0
      vertex 260 240 3
      vertex 240 240 3
    endloop
  endfacet
  facet normal 0 -0.768221 0.640184
    outer loop
      vertex 260 240 3
      vertex 242.5 237.5 0
      vertex 257.5 237.5 0
    endloop
  endfacet
  facet normal 0 -0.768221 0.640184
    outer loop
      vertex 162.5 237.5 0
      vertex 180 240 3
      vertex 160 240 3
    endloop
  endfacet
  facet normal 0 -0.768221 0.640184
    outer loop
      vertex 180 240 3
      vertex 162.5 237.5 0
      vertex 177.5 237.5 0
    endloop
  endfacet
  facet normal 0 -0.768221 0.640184
    outer loop
      vertex 182.5 237.5 0
      vertex 200 240 3
      vertex 180 240 3
    endloop
  endfacet
  facet normal 0 -0.768221 0.640184
    outer loop
      vertex 200 240 3
      vertex 182.5 237.5 0
      vertex 197.5 237.5 0
    endloop
  endfacet
  facet normal 0 -0.768221 0.640184
    outer loop
      vertex 202.5 237.5 0
      vertex 220 240 3
      vertex 200 240 3
    endloop
  endfacet
  facet normal 0 -0.768221 0.640184
    outer loop
      vertex 220 240 3
      vertex 202.5 237.5 0
      vertex 217.5 237.5 0
    endloop
  endfacet
  facet normal 0 -0.768221 0.640184
    outer loop
      vertex 222.5 237.5 0
      vertex 240 240 3
      vertex 220 240 3
    endloop
  endfacet
  facet normal 0 -0.768221 0.640184
    outer loop
      vertex 240 240 3
      vertex 222.5 237.5 0
      vertex 237.5 237.5 0
    endloop
  endfacet
  facet normal 0 -0.768221 0.640184
    outer loop
      vertex 142.5 257.5 0
      vertex 160 260 3
      vertex 140 260 3
    endloop
  endfacet
  facet normal 0 -0.768221 0.640184
    outer loop
      vertex 160 260 3
      vertex 142.5 257.5 0
      vertex 157.5 257.5 0
    endloop
  endfacet
  facet normal 0 -0.768221 0.640184
    outer loop
      vertex 242.5 257.5 0
      vertex 260 260 3
      vertex 240 260 3
    endloop
  endfacet
  facet normal 0 -0.768221 0.640184
    outer loop
      vertex 260 260 3
      vertex 242.5 257.5 0
      vertex 257.5 257.5 0
    endloop
  endfacet
  facet normal 0 -0.768221 0.640184
    outer loop
      vertex 222.5 257.5 0
      vertex 240 260 3
      vertex 220 260 3
    endloop
  endfacet
  facet normal 0 -0.768221 0.640184
    outer loop
      vertex 240 260 3
      vertex 222.5 257.5 0
      vertex 237.5 257.5 0
    endloop
  endfacet
  facet normal 0 -0.768221 0.640184
    outer loop
      vertex 202.5 257.5 0
      vertex 220 260 3
      vertex 200 260 3
    endloop
  endfacet
  facet normal 0 -0.768221 0.640184
    outer loop
      vertex 220 260 3
      vertex 202.5 257.5 0
      vertex 217.5 257.5 0
    endloop
  endfacet
  facet normal 0 -0.768221 0.640184
    outer loop
      vertex 182.5 257.5 0
      vertex 200 260 3
      vertex 180 260 3
    endloop
  endfacet
  facet normal 0 -0.768221 0.640184
    outer loop
      vertex 200 260 3
      vertex 182.5 257.5 0
      vertex 197.5 257.5 0
    endloop
  endfacet
  facet normal 0 -0.768221 0.640184
    outer loop
      vertex 162.5 257.5 0
      vertex 180 260 3
      vertex 160 260 3
    endloop
  endfacet
  facet normal 0 -0.768221 0.640184
    outer loop
      vertex 180 260 3
      vertex 162.5 257.5 0
      vertex 177.5 257.5 0
    endloop
  endfacet
  facet normal 0.768221 0 0.640184
    outer loop
      vertex 140 220 3
      vertex 142.5 202.5 0
      vertex 142.5 217.5 0
    endloop
  endfacet
  facet normal 0.768221 0 0.640184
    outer loop
      vertex 142.5 202.5 0
      vertex 140 220 3
      vertex 140 200 3
    endloop
  endfacet
  facet normal 0.768221 0 0.640184
    outer loop
      vertex 140 240 3
      vertex 142.5 222.5 0
      vertex 142.5 237.5 0
    endloop
  endfacet
  facet normal 0.768221 0 0.640184
    outer loop
      vertex 142.5 222.5 0
      vertex 140 240 3
      vertex 140 220 3
    endloop
  endfacet
  facet normal 0.768221 0 0.640184
    outer loop
      vertex 140 160 3
      vertex 142.5 142.5 0
      vertex 142.5 157.5 0
    endloop
  endfacet
  facet normal 0.768221 0 0.640184
    outer loop
      vertex 142.5 142.5 0
      vertex 140 160 3
      vertex 140 140 3
    endloop
  endfacet
  facet normal 0.768221 0 0.640184
    outer loop
      vertex 140 180 3
      vertex 142.5 162.5 0
      vertex 142.5 177.5 0
    endloop
  endfacet
  facet normal 0.768221 0 0.640184
    outer loop
      vertex 142.5 162.5 0
      vertex 140 180 3
      vertex 140 160 3
    endloop
  endfacet
  facet normal 0.768221 0 0.640184
    outer loop
      vertex 140 200 3
      vertex 142.5 182.5 0
      vertex 142.5 197.5 0
    endloop
  endfacet
  facet normal 0.768221 0 0.640184
    outer loop
      vertex 142.5 182.5 0
      vertex 140 200 3
      vertex 140 180 3
    endloop
  endfacet
  facet normal 0.768221 0 0.640184
    outer loop
      vertex 140 260 3
      vertex 142.5 242.5 0
      vertex 142.5 257.5 0
    endloop
  endfacet
  facet normal 0.768221 0 0.640184
    outer loop
      vertex 142.5 242.5 0
      vertex 140 260 3
      vertex 140 240 3
    endloop
  endfacet
  facet normal 0.768221 0 0.640184
    outer loop
      vertex 160 260 3
      vertex 162.5 242.5 0
      vertex 162.5 257.5 0
    endloop
  endfacet
  facet normal 0.768221 0 0.640184
    outer loop
      vertex 162.5 242.5 0
      vertex 160 260 3
      vertex 160 240 3
    endloop
  endfacet
  facet normal 0.768221 0 0.640184
    outer loop
      vertex 160 160 3
      vertex 162.5 142.5 0
      vertex 162.5 157.5 0
    endloop
  endfacet
  facet normal 0.768221 0 0.640184
    outer loop
      vertex 162.5 142.5 0
      vertex 160 160 3
      vertex 160 140 3
    endloop
  endfacet
  facet normal 0.768221 0 0.640184
    outer loop
      vertex 160 220 3
      vertex 162.5 202.5 0
      vertex 162.5 217.5 0
    endloop
  endfacet
  facet normal 0.768221 0 0.640184
    outer loop
      vertex 162.5 202.5 0
      vertex 160 220 3
      vertex 160 200 3
    endloop
  endfacet
  facet normal 0.768221 0 0.640184
    outer loop
      vertex 160 240 3
      vertex 162.5 222.5 0
      vertex 162.5 237.5 0
    endloop
  endfacet
  facet normal 0.768221 0 0.640184
    outer loop
      vertex 162.5 222.5 0
      vertex 160 240 3
      vertex 160 220 3
    endloop
  endfacet
  facet normal 0.768221 0 0.640184
    outer loop
      vertex 160 180 3
      vertex 162.5 162.5 0
      vertex 162.5 177.5 0
    endloop
  endfacet
  facet normal 0.768221 0 0.640184
    outer loop
      vertex 162.5 162.5 0
      vertex 160 180 3
      vertex 160 160 3
    endloop
  endfacet
  facet normal 0.768221 0 0.640184
    outer loop
      vertex 160 200 3
      vertex 162.5 182.5 0
      vertex 162.5 197.5 0
    endloop
  endfacet
  facet normal 0.768221 0 0.640184
    outer loop
      vertex 162.5 182.5 0
      vertex 160 200 3
      vertex 160 180 3
    endloop
  endfacet
  facet normal -0.768221 0 0.640184
    outer loop
      vertex 157.5 242.5 0
      vertex 160 260 3
      vertex 157.5 257.5 0
    endloop
  endfacet
  facet normal -0.768221 0 0.640184
    outer loop
      vertex 160 260 3
      vertex 157.5 242.5 0
      vertex 160 240 3
    endloop
  endfacet
  facet normal -0.768221 0 0.640184
    outer loop
      vertex 157.5 142.5 0
      vertex 160 160 3
      vertex 157.5 157.5 0
    endloop
  endfacet
  facet normal -0.768221 0 0.640184
    outer loop
      vertex 160 160 3
      vertex 157.5 142.5 0
      vertex 160 140 3
    endloop
  endfacet
  facet normal -0.768221 0 0.640184
    outer loop
      vertex 157.5 202.5 0
      vertex 160 220 3
      vertex 157.5 217.5 0
    endloop
  endfacet
  facet normal -0.768221 0 0.640184
    outer loop
      vertex 160 220 3
      vertex 157.5 202.5 0
      vertex 160 200 3
    endloop
  endfacet
  facet normal -0.768221 0 0.640184
    outer loop
      vertex 157.5 222.5 0
      vertex 160 240 3
      vertex 157.5 237.5 0
    endloop
  endfacet
  facet normal -0.768221 0 0.640184
    outer loop
      vertex 160 240 3
      vertex 157.5 222.5 0
      vertex 160 220 3
    endloop
  endfacet
  facet normal -0.768221 0 0.640184
    outer loop
      vertex 157.5 162.5 0
      vertex 160 180 3
      vertex 157.5 177.5 0
    endloop
  endfacet
  facet normal -0.768221 0 0.640184
    outer loop
      vertex 160 180 3
      vertex 157.5 162.5 0
      vertex 160 160 3
    endloop
  endfacet
  facet normal -0.768221 0 0.640184
    outer loop
      vertex 157.5 182.5 0
      vertex 160 200 3
      vertex 157.5 197.5 0
    endloop
  endfacet
  facet normal -0.768221 0 0.640184
    outer loop
      vertex 160 200 3
      vertex 157.5 182.5 0
      vertex 160 180 3
    endloop
  endfacet
  facet normal 0.768221 0 0.640184
    outer loop
      vertex 180 260 3
      vertex 182.5 242.5 0
      vertex 182.5 257.5 0
    endloop
  endfacet
  facet normal 0.768221 0 0.640184
    outer loop
      vertex 182.5 242.5 0
      vertex 180 260 3
      vertex 180 240 3
    endloop
  endfacet
  facet normal 0.768221 0 0.640184
    outer loop
      vertex 180 160 3
      vertex 182.5 142.5 0
      vertex 182.5 157.5 0
    endloop
  endfacet
  facet normal 0.768221 0 0.640184
    outer loop
      vertex 182.5 142.5 0
      vertex 180 160 3
      vertex 180 140 3
    endloop
  endfacet
  facet normal 0.768221 0 0.640184
    outer loop
      vertex 180 220 3
      vertex 182.5 202.5 0
      vertex 182.5 217.5 0
    endloop
  endfacet
  facet normal 0.768221 0 0.640184
    outer loop
      vertex 182.5 202.5 0
      vertex 180 220 3
      vertex 180 200 3
    endloop
  endfacet
  facet normal 0.768221 0 0.640184
    outer loop
      vertex 180 240 3
      vertex 182.5 222.5 0
      vertex 182.5 237.5 0
    endloop
  endfacet
  facet normal 0.768221 0 0.640184
    outer loop
      vertex 182.5 222.5 0
      vertex 180 240 3
      vertex 180 220 3
    endloop
  endfacet
  facet normal 0.768221 0 0.640184
    outer loop
      vertex 180 180 3
      vertex 182.5 162.5 0
      vertex 182.5 177.5 0
    endloop
  endfacet
  facet normal 0.768221 0 0.640184
    outer loop
      vertex 182.5 162.5 0
      vertex 180 180 3
      vertex 180 160 3
    endloop
  endfacet
  facet normal 0.768221 0 0.640184
    outer loop
      vertex 180 200 3
      vertex 182.5 182.5 0
      vertex 182.5 197.5 0
    endloop
  endfacet
  facet normal 0.768221 0 0.640184
    outer loop
      vertex 182.5 182.5 0
      vertex 180 200 3
      vertex 180 180 3
    endloop
  endfacet
  facet normal -0.768221 0 0.640184
    outer loop
      vertex 177.5 242.5 0
      vertex 180 260 3
      vertex 177.5 257.5 0
    endloop
  endfacet
  facet normal -0.768221 0 0.640184
    outer loop
      vertex 180 260 3
      vertex 177.5 242.5 0
      vertex 180 240 3
    endloop
  endfacet
  facet normal -0.768221 0 0.640184
    outer loop
      vertex 177.5 142.5 0
      vertex 180 160 3
      vertex 177.5 157.5 0
    endloop
  endfacet
  facet normal -0.768221 0 0.640184
    outer loop
      vertex 180 160 3
      vertex 177.5 142.5 0
      vertex 180 140 3
    endloop
  endfacet
  facet normal -0.768221 0 0.640184
    outer loop
      vertex 177.5 202.5 0
      vertex 180 220 3
      vertex 177.5 217.5 0
    endloop
  endfacet
  facet normal -0.768221 0 0.640184
    outer loop
      vertex 180 220 3
      vertex 177.5 202.5 0
      vertex 180 200 3
    endloop
  endfacet
  facet normal -0.768221 0 0.640184
    outer loop
      vertex 177.5 222.5 0
      vertex 180 240 3
      vertex 177.5 237.5 0
    endloop
  endfacet
  facet normal -0.768221 0 0.640184
    outer loop
      vertex 180 240 3
      vertex 177.5 222.5 0
      vertex 180 220 3
    endloop
  endfacet
  facet normal -0.768221 0 0.640184
    outer loop
      vertex 177.5 162.5 0
      vertex 180 180 3
      vertex 177.5 177.5 0
    endloop
  endfacet
  facet normal -0.768221 0 0.640184
    outer loop
      vertex 180 180 3
      vertex 177.5 162.5 0
      vertex 180 160 3
    endloop
  endfacet
  facet normal -0.768221 0 0.640184
    outer loop
      vertex 177.5 182.5 0
      vertex 180 200 3
      vertex 177.5 197.5 0
    endloop
  endfacet
  facet normal -0.768221 0 0.640184
    outer loop
      vertex 180 200 3
      vertex 177.5 182.5 0
      vertex 180 180 3
    endloop
  endfacet
  facet normal 0.768221 0 0.640184
    outer loop
      vertex 200 260 3
      vertex 202.5 242.5 0
      vertex 202.5 257.5 0
    endloop
  endfacet
  facet normal 0.768221 0 0.640184
    outer loop
      vertex 202.5 242.5 0
      vertex 200 260 3
      vertex 200 240 3
    endloop
  endfacet
  facet normal 0.768221 0 0.640184
    outer loop
      vertex 200 160 3
      vertex 202.5 142.5 0
      vertex 202.5 157.5 0
    endloop
  endfacet
  facet normal 0.768221 0 0.640184
    outer loop
      vertex 202.5 142.5 0
      vertex 200 160 3
      vertex 200 140 3
    endloop
  endfacet
  facet normal 0.768221 0 0.640184
    outer loop
      vertex 200 220 3
      vertex 202.5 202.5 0
      vertex 202.5 217.5 0
    endloop
  endfacet
  facet normal 0.768221 0 0.640184
    outer loop
      vertex 202.5 202.5 0
      vertex 200 220 3
      vertex 200 200 3
    endloop
  endfacet
  facet normal 0.768221 0 0.640184
    outer loop
      vertex 200 240 3
      vertex 202.5 222.5 0
      vertex 202.5 237.5 0
    endloop
  endfacet
  facet normal 0.768221 0 0.640184
    outer loop
      vertex 202.5 222.5 0
      vertex 200 240 3
      vertex 200 220 3
    endloop
  endfacet
  facet normal 0.768221 0 0.640184
    outer loop
      vertex 200 180 3
      vertex 202.5 162.5 0
      vertex 202.5 177.5 0
    endloop
  endfacet
  facet normal 0.768221 0 0.640184
    outer loop
      vertex 202.5 162.5 0
      vertex 200 180 3
      vertex 200 160 3
    endloop
  endfacet
  facet normal 0.768221 0 0.640184
    outer loop
      vertex 200 200 3
      vertex 202.5 182.5 0
      vertex 202.5 197.5 0
    endloop
  endfacet
  facet normal 0.768221 0 0.640184
    outer loop
      vertex 202.5 182.5 0
      vertex 200 200 3
      vertex 200 180 3
    endloop
  endfacet
  facet normal -0.768221 0 0.640184
    outer loop
      vertex 197.5 242.5 0
      vertex 200 260 3
      vertex 197.5 257.5 0
    endloop
  endfacet
  facet normal -0.768221 0 0.640184
    outer loop
      vertex 200 260 3
      vertex 197.5 242.5 0
      vertex 200 240 3
    endloop
  endfacet
  facet normal -0.768221 0 0.640184
    outer loop
      vertex 197.5 142.5 0
      vertex 200 160 3
      vertex 197.5 157.5 0
    endloop
  endfacet
  facet normal -0.768221 0 0.640184
    outer loop
      vertex 200 160 3
      vertex 197.5 142.5 0
      vertex 200 140 3
    endloop
  endfacet
  facet normal -0.768221 0 0.640184
    outer loop
      vertex 197.5 202.5 0
      vertex 200 220 3
      vertex 197.5 217.5 0
    endloop
  endfacet
  facet normal -0.768221 0 0.640184
    outer loop
      vertex 200 220 3
      vertex 197.5 202.5 0
      vertex 200 200 3
    endloop
  endfacet
  facet normal -0.768221 0 0.640184
    outer loop
      vertex 197.5 222.5 0
      vertex 200 240 3
      vertex 197.5 237.5 0
    endloop
  endfacet
  facet normal -0.768221 0 0.640184
    outer loop
      vertex 200 240 3
      vertex 197.5 222.5 0
      vertex 200 220 3
    endloop
  endfacet
  facet normal -0.768221 0 0.640184
    outer loop
      vertex 197.5 162.5 0
      vertex 200 180 3
      vertex 197.5 177.5 0
    endloop
  endfacet
  facet normal -0.768221 0 0.640184
    outer loop
      vertex 200 180 3
      vertex 197.5 162.5 0
      vertex 200 160 3
    endloop
  endfacet
  facet normal -0.768221 0 0.640184
    outer loop
      vertex 197.5 182.5 0
      vertex 200 200 3
      vertex 197.5 197.5 0
    endloop
  endfacet
  facet normal -0.768221 0 0.640184
    outer loop
      vertex 200 200 3
      vertex 197.5 182.5 0
      vertex 200 180 3
    endloop
  endfacet
  facet normal 0.768221 0 0.640184
    outer loop
      vertex 220 260 3
      vertex 222.5 242.5 0
      vertex 222.5 257.5 0
    endloop
  endfacet
  facet normal 0.768221 0 0.640184
    outer loop
      vertex 222.5 242.5 0
      vertex 220 260 3
      vertex 220 240 3
    endloop
  endfacet
  facet normal 0.768221 0 0.640184
    outer loop
      vertex 220 160 3
      vertex 222.5 142.5 0
      vertex 222.5 157.5 0
    endloop
  endfacet
  facet normal 0.768221 0 0.640184
    outer loop
      vertex 222.5 142.5 0
      vertex 220 160 3
      vertex 220 140 3
    endloop
  endfacet
  facet normal 0.768221 0 0.640184
    outer loop
      vertex 220 220 3
      vertex 222.5 202.5 0
      vertex 222.5 217.5 0
    endloop
  endfacet
  facet normal 0.768221 0 0.640184
    outer loop
      vertex 222.5 202.5 0
      vertex 220 220 3
      vertex 220 200 3
    endloop
  endfacet
  facet normal 0.768221 0 0.640184
    outer loop
      vertex 220 240 3
      vertex 222.5 222.5 0
      vertex 222.5 237.5 0
    endloop
  endfacet
  facet normal 0.768221 0 0.640184
    outer loop
      vertex 222.5 222.5 0
      vertex 220 240 3
      vertex 220 220 3
    endloop
  endfacet
  facet normal 0.768221 0 0.640184
    outer loop
      vertex 220 180 3
      vertex 222.5 162.5 0
      vertex 222.5 177.5 0
    endloop
  endfacet
  facet normal 0.768221 0 0.640184
    outer loop
      vertex 222.5 162.5 0
      vertex 220 180 3
      vertex 220 160 3
    endloop
  endfacet
  facet normal 0.768221 0 0.640184
    outer loop
      vertex 220 200 3
      vertex 222.5 182.5 0
      vertex 222.5 197.5 0
    endloop
  endfacet
  facet normal 0.768221 0 0.640184
    outer loop
      vertex 222.5 182.5 0
      vertex 220 200 3
      vertex 220 180 3
    endloop
  endfacet
  facet normal -0.768221 0 0.640184
    outer loop
      vertex 217.5 242.5 0
      vertex 220 260 3
      vertex 217.5 257.5 0
    endloop
  endfacet
  facet normal -0.768221 0 0.640184
    outer loop
      vertex 220 260 3
      vertex 217.5 242.5 0
      vertex 220 240 3
    endloop
  endfacet
  facet normal -0.768221 0 0.640184
    outer loop
      vertex 217.5 142.5 0
      vertex 220 160 3
      vertex 217.5 157.5 0
    endloop
  endfacet
  facet normal -0.768221 0 0.640184
    outer loop
      vertex 220 160 3
      vertex 217.5 142.5 0
      vertex 220 140 3
    endloop
  endfacet
  facet normal -0.768221 0 0.640184
    outer loop
      vertex 217.5 202.5 0
      vertex 220 220 3
      vertex 217.5 217.5 0
    endloop
  endfacet
  facet normal -0.768221 0 0.640184
    outer loop
      vertex 220 220 3
      vertex 217.5 202.5 0
      vertex 220 200 3
    endloop
  endfacet
  facet normal -0.768221 0 0.640184
    outer loop
      vertex 217.5 222.5 0
      vertex 220 240 3
      vertex 217.5 237.5 0
    endloop
  endfacet
  facet normal -0.768221 0 0.640184
    outer loop
      vertex 220 240 3
      vertex 217.5 222.5 0
      vertex 220 220 3
    endloop
  endfacet
  facet normal -0.768221 0 0.640184
    outer loop
      vertex 217.5 162.5 0
      vertex 220 180 3
      vertex 217.5 177.5 0
    endloop
  endfacet
  facet normal -0.768221 0 0.640184
    outer loop
      vertex 220 180 3
      vertex 217.5 162.5 0
      vertex 220 160 3
    endloop
  endfacet
  facet normal -0.768221 0 0.640184
    outer loop
      vertex 217.5 182.5 0
      vertex 220 200 3
      vertex 217.5 197.5 0
    endloop
  endfacet
  facet normal -0.768221 0 0.640184
    outer loop
      vertex 220 200 3
      vertex 217.5 182.5 0
      vertex 220 180 3
    endloop
  endfacet
  facet normal 0.768221 0 0.640184
    outer loop
      vertex 240 260 3
      vertex 242.5 242.5 0
      vertex 242.5 257.5 0
    endloop
  endfacet
  facet normal 0.768221 0 0.640184
    outer loop
      vertex 242.5 242.5 0
      vertex 240 260 3
      vertex 240 240 3
    endloop
  endfacet
  facet normal 0.768221 0 0.640184
    outer loop
      vertex 240 160 3
      vertex 242.5 142.5 0
      vertex 242.5 157.5 0
    endloop
  endfacet
  facet normal 0.768221 0 0.640184
    outer loop
      vertex 242.5 142.5 0
      vertex 240 160 3
      vertex 240 140 3
    endloop
  endfacet
  facet normal 0.768221 0 0.640184
    outer loop
      vertex 240 220 3
      vertex 242.5 202.5 0
      vertex 242.5 217.5 0
    endloop
  endfacet
  facet normal 0.768221 0 0.640184
    outer loop
      vertex 242.5 202.5 0
      vertex 240 220 3
      vertex 240 200 3
    endloop
  endfacet
  facet normal 0.768221 0 0.640184
    outer loop
      vertex 240 240 3
      vertex 242.5 222.5 0
      vertex 242.5 237.5 0
    endloop
  endfacet
  facet normal 0.768221 0 0.640184
    outer loop
      vertex 242.5 222.5 0
      vertex 240 240 3
      vertex 240 220 3
    endloop
  endfacet
  facet normal 0.768221 0 0.640184
    outer loop
      vertex 240 180 3
      vertex 242.5 162.5 0
      vertex 242.5 177.5 0
    endloop
  endfacet
  facet normal 0.768221 0 0.640184
    outer loop
      vertex 242.5 162.5 0
      vertex 240 180 3
      vertex 240 160 3
    endloop
  endfacet
  facet normal 0.768221 0 0.640184
    outer loop
      vertex 240 200 3
      vertex 242.5 182.5 0
      vertex 242.5 197.5 0
    endloop
  endfacet
  facet normal 0.768221 0 0.640184
    outer loop
      vertex 242.5 182.5 0
      vertex 240 200 3
      vertex 240 180 3
    endloop
  endfacet
  facet normal -0.768221 0 0.640184
    outer loop
      vertex 237.5 242.5 0
      vertex 240 260 3
      vertex 237.5 257.5 0
    endloop
  endfacet
  facet normal -0.768221 0 0.640184
    outer loop
      vertex 240 260 3
      vertex 237.5 242.5 0
      vertex 240 240 3
    endloop
  endfacet
  facet normal -0.768221 0 0.640184
    outer loop
      vertex 237.5 142.5 0
      vertex 240 160 3
      vertex 237.5 157.5 0
    endloop
  endfacet
  facet normal -0.768221 0 0.640184
    outer loop
      vertex 240 160 3
      vertex 237.5 142.5 0
      vertex 240 140 3
    endloop
  endfacet
  facet normal -0.768221 0 0.640184
    outer loop
      vertex 237.5 202.5 0
      vertex 240 220 3
      vertex 237.5 217.5 0
    endloop
  endfacet
  facet normal -0.768221 0 0.640184
    outer loop
      vertex 240 220 3
      vertex 237.5 202.5 0
      vertex 240 200 3
    endloop
  endfacet
  facet normal -0.768221 0 0.640184
    outer loop
      vertex 237.5 222.5 0
      vertex 240 240 3
      vertex 237.5 237.5 0
    endloop
  endfacet
  facet normal -0.768221 0 0.640184
    outer loop
      vertex 240 240 3
      vertex 237.5 222.5 0
      vertex 240 220 3
    endloop
  endfacet
  facet normal -0.768221 0 0.640184
    outer loop
      vertex 237.5 162.5 0
      vertex 240 180 3
      vertex 237.5 177.5 0
    endloop
  endfacet
  facet normal -0.768221 0 0.640184
    outer loop
      vertex 240 180 3
      vertex 237.5 162.5 0
      vertex 240 160 3
    endloop
  endfacet
  facet normal -0.768221 0 0.640184
    outer loop
      vertex 237.5 182.5 0
      vertex 240 200 3
      vertex 237.5 197.5 0
    endloop
  endfacet
  facet normal -0.768221 0 0.640184
    outer loop
      vertex 240 200 3
      vertex 237.5 182.5 0
      vertex 240 180 3
    endloop
  endfacet
  facet normal -0.768221 0 0.640184
    outer loop
      vertex 257.5 202.5 0
      vertex 260 220 3
      vertex 257.5 217.5 0
    endloop
  endfacet
  facet normal -0.768221 0 0.640184
    outer loop
      vertex 260 220 3
      vertex 257.5 202.5 0
      vertex 260 200 3
    endloop
  endfacet
  facet normal -0.768221 0 0.640184
    outer loop
      vertex 257.5 222.5 0
      vertex 260 240 3
      vertex 257.5 237.5 0
    endloop
  endfacet
  facet normal -0.768221 0 0.640184
    outer loop
      vertex 260 240 3
      vertex 257.5 222.5 0
      vertex 260 220 3
    endloop
  endfacet
  facet normal -0.768221 0 0.640184
    outer loop
      vertex 257.5 142.5 0
      vertex 260 160 3
      vertex 257.5 157.5 0
    endloop
  endfacet
  facet normal -0.768221 0 0.640184
    outer loop
      vertex 260 160 3
      vertex 257.5 142.5 0
      vertex 260 140 3
    endloop
  endfacet
  facet normal -0.768221 0 0.640184
    outer loop
      vertex 257.5 162.5 0
      vertex 260 180 3
      vertex 257.5 177.5 0
    endloop
  endfacet
  facet normal -0.768221 0 0.640184
    outer loop
      vertex 260 180 3
      vertex 257.5 162.5 0
      vertex 260 160 3
    endloop
  endfacet
  facet normal -0.768221 0 0.640184
    outer loop
      vertex 257.5 182.5 0
      vertex 260 200 3
      vertex 257.5 197.5 0
    endloop
  endfacet
  facet normal -0.768221 0 0.640184
    outer loop
      vertex 260 200 3
      vertex 257.5 182.5 0
      vertex 260 180 3
    endloop
  endfacet
  facet normal -0.768221 0 0.640184
    outer loop
      vertex 257.5 242.5 0
      vertex 260 260 3
      vertex 257.5 257.5 0
    endloop
  endfacet
  facet normal -0.768221 0 0.640184
    outer loop
      vertex 260 260 3
      vertex 257.5 242.5 0
      vertex 260 240 3
    endloop
  endfacet
  facet normal 0 -1 0
    outer loop
      vertex 140 140 0
      vertex 160 140 3
      vertex 140 140 3
    endloop
  endfacet
  facet normal 0 -1 -0
    outer loop
      vertex 160 140 3
      vertex 140 140 0
      vertex 180 140 3
    endloop
  endfacet
  facet normal 0 -1 -0
    outer loop
      vertex 180 140 3
      vertex 140 140 0
      vertex 200 140 3
    endloop
  endfacet
  facet normal 0 -1 0
    outer loop
      vertex 260 140 0
      vertex 200 140 3
      vertex 140 140 0
    endloop
  endfacet
  facet normal 0 -1 0
    outer loop
      vertex 200 140 3
      vertex 260 140 0
      vertex 220 140 3
    endloop
  endfacet
  facet normal 0 -1 0
    outer loop
      vertex 220 140 3
      vertex 260 140 0
      vertex 240 140 3
    endloop
  endfacet
  facet normal 0 -1 0
    outer loop
      vertex 240 140 3
      vertex 260 140 0
      vertex 260 140 3
    endloop
  endfacet
  facet normal 0 1 -0
    outer loop
      vertex 260 260 0
      vertex 240 260 3
      vertex 260 260 3
    endloop
  endfacet
  facet normal 0 1 0
    outer loop
      vertex 240 260 3
      vertex 260 260 0
      vertex 220 260 3
    endloop
  endfacet
  facet normal 0 1 0
    outer loop
      vertex 220 260 3
      vertex 260 260 0
      vertex 200 260 3
    endloop
  endfacet
  facet normal 0 1 0
    outer loop
      vertex 140 260 0
      vertex 200 260 3
      vertex 260 260 0
    endloop
  endfacet
  facet normal 0 1 0
    outer loop
      vertex 200 260 3
      vertex 140 260 0
      vertex 180 260 3
    endloop
  endfacet
  facet normal 0 1 0
    outer loop
      vertex 180 260 3
      vertex 140 260 0
      vertex 160 260 3
    endloop
  endfacet
  facet normal 0 1 0
    outer loop
      vertex 160 260 3
      vertex 140 260 0
      vertex 140 260 3
    endloop
  endfacet
  facet normal -1 0 0
    outer loop
      vertex 140 260 0
      vertex 140 240 3
      vertex 140 260 3
    endloop
  endfacet
  facet normal -1 0 0
    outer loop
      vertex 140 260 0
      vertex 140 220 3
      vertex 140 240 3
    endloop
  endfacet
  facet normal -1 0 0
    outer loop
      vertex 140 260 0
      vertex 140 200 3
      vertex 140 220 3
    endloop
  endfacet
  facet normal -1 0 0
    outer loop
      vertex 140 140 0
      vertex 140 200 3
      vertex 140 260 0
    endloop
  endfacet
  facet normal -1 -0 0
    outer loop
      vertex 140 200 3
      vertex 140 140 0
      vertex 140 180 3
    endloop
  endfacet
  facet normal -1 -0 0
    outer loop
      vertex 140 180 3
      vertex 140 140 0
      vertex 140 160 3
    endloop
  endfacet
  facet normal -1 -0 0
    outer loop
      vertex 140 160 3
      vertex 140 140 0
      vertex 140 140 3
    endloop
  endfacet
  facet normal 1 -0 0
    outer loop
      vertex 260 240 3
      vertex 260 260 0
      vertex 260 260 3
    endloop
  endfacet
  facet normal 1 -0 0
    outer loop
      vertex 260 220 3
      vertex 260 260 0
      vertex 260 240 3
    endloop
  endfacet
  facet normal 1 -0 0
    outer loop
      vertex 260 200 3
      vertex 260 260 0
      vertex 260 220 3
    endloop
  endfacet
  facet normal 1 0 0
    outer loop
      vertex 260 140 0
      vertex 260 200 3
      vertex 260 180 3
    endloop
  endfacet
  facet normal 1 0 0
    outer loop
      vertex 260 140 0
      vertex 260 180 3
      vertex 260 160 3
    endloop
  endfacet
  facet normal 1 0 0
    outer loop
      vertex 260 140 0
      vertex 260 160 3
      vertex 260 140 3
    endloop
  endfacet
  facet normal 1 0 0
    outer loop
      vertex 260 200 3
      vertex 260 140 0
      vertex 260 260 0
    endloop
  endfacet
endsolid OpenSCAD_Model
