solid OpenSCAD_Model
  facet normal 0 0 -1
    outer loop
      vertex 2.5 42.5 0
      vertex 17.5 57.5 0
      vertex 17.5 42.5 0
    endloop
  endfacet
  facet normal -0 0 -1
    outer loop
      vertex 17.5 57.5 0
      vertex 2.5 42.5 0
      vertex 2.5 57.5 0
    endloop
  endfacet
  facet normal 0 0 -1
    outer loop
      vertex 22.5 42.5 0
      vertex 37.5 57.5 0
      vertex 37.5 42.5 0
    endloop
  endfacet
  facet normal -0 0 -1
    outer loop
      vertex 37.5 57.5 0
      vertex 22.5 42.5 0
      vertex 22.5 57.5 0
    endloop
  endfacet
  facet normal 0 0 -1
    outer loop
      vertex 42.5 42.5 0
      vertex 57.5 57.5 0
      vertex 57.5 42.5 0
    endloop
  endfacet
  facet normal -0 0 -1
    outer loop
      vertex 57.5 57.5 0
      vertex 42.5 42.5 0
      vertex 42.5 57.5 0
    endloop
  endfacet
  facet normal 0 0 -1
    outer loop
      vertex 62.5 42.5 0
      vertex 77.5 57.5 0
      vertex 77.5 42.5 0
    endloop
  endfacet
  facet normal -0 0 -1
    outer loop
      vertex 77.5 57.5 0
      vertex 62.5 42.5 0
      vertex 62.5 57.5 0
    endloop
  endfacet
  facet normal 0 0 -1
    outer loop
      vertex 2.5 22.5 0
      vertex 17.5 37.5 0
      vertex 17.5 22.5 0
    endloop
  endfacet
  facet normal -0 0 -1
    outer loop
      vertex 17.5 37.5 0
      vertex 2.5 22.5 0
      vertex 2.5 37.5 0
    endloop
  endfacet
  facet normal 0 0 -1
    outer loop
      vertex 22.5 22.5 0
      vertex 37.5 37.5 0
      vertex 37.5 22.5 0
    endloop
  endfacet
  facet normal -0 0 -1
    outer loop
      vertex 37.5 37.5 0
      vertex 22.5 22.5 0
      vertex 22.5 37.5 0
    endloop
  endfacet
  facet normal 0 0 -1
    outer loop
      vertex 42.5 22.5 0
      vertex 57.5 37.5 0
      vertex 57.5 22.5 0
    endloop
  endfacet
  facet normal -0 0 -1
    outer loop
      vertex 57.5 37.5 0
      vertex 42.5 22.5 0
      vertex 42.5 37.5 0
    endloop
  endfacet
  facet normal 0 0 -1
    outer loop
      vertex 62.5 22.5 0
      vertex 77.5 37.5 0
      vertex 77.5 22.5 0
    endloop
  endfacet
  facet normal -0 0 -1
    outer loop
      vertex 77.5 37.5 0
      vertex 62.5 22.5 0
      vertex 62.5 37.5 0
    endloop
  endfacet
  facet normal 0 0 -1
    outer loop
      vertex 2.5 2.5 0
      vertex 17.5 17.5 0
      vertex 17.5 2.5 0
    endloop
  endfacet
  facet normal -0 0 -1
    outer loop
      vertex 17.5 17.5 0
      vertex 2.5 2.5 0
      vertex 2.5 17.5 0
    endloop
  endfacet
  facet normal 0 0 -1
    outer loop
      vertex 22.5 2.5 0
      vertex 37.5 17.5 0
      vertex 37.5 2.5 0
    endloop
  endfacet
  facet normal -0 0 -1
    outer loop
      vertex 37.5 17.5 0
      vertex 22.5 2.5 0
      vertex 22.5 17.5 0
    endloop
  endfacet
  facet normal 0 0 -1
    outer loop
      vertex 42.5 2.5 0
      vertex 57.5 17.5 0
      vertex 57.5 2.5 0
    endloop
  endfacet
  facet normal -0 0 -1
    outer loop
      vertex 57.5 17.5 0
      vertex 42.5 2.5 0
      vertex 42.5 17.5 0
    endloop
  endfacet
  facet normal 0 0 -1
    outer loop
      vertex 62.5 2.5 0
      vertex 77.5 17.5 0
      vertex 77.5 2.5 0
    endloop
  endfacet
  facet normal -0 0 -1
    outer loop
      vertex 77.5 17.5 0
      vertex 62.5 2.5 0
      vertex 62.5 17.5 0
    endloop
  endfacet
  facet normal 0 -0.768221 -0.640184
    outer loop
      vertex 62.5 2.5 0
      vertex 80 0 3
      vertex 60 0 3
    endloop
  endfacet
  facet normal 0 -0.768221 -0.640184
    outer loop
      vertex 80 0 3
      vertex 62.5 2.5 0
      vertex 77.5 2.5 0
    endloop
  endfacet
  facet normal 0 -0.768221 -0.640184
    outer loop
      vertex 42.5 2.5 0
      vertex 60 0 3
      vertex 40 0 3
    endloop
  endfacet
  facet normal 0 -0.768221 -0.640184
    outer loop
      vertex 60 0 3
      vertex 42.5 2.5 0
      vertex 57.5 2.5 0
    endloop
  endfacet
  facet normal 0 -0.768221 -0.640184
    outer loop
      vertex 22.5 2.5 0
      vertex 40 0 3
      vertex 20 0 3
    endloop
  endfacet
  facet normal 0 -0.768221 -0.640184
    outer loop
      vertex 40 0 3
      vertex 22.5 2.5 0
      vertex 37.5 2.5 0
    endloop
  endfacet
  facet normal 0 -0.768221 -0.640184
    outer loop
      vertex 2.5 2.5 0
      vertex 20 0 3
      vertex 0 0 3
    endloop
  endfacet
  facet normal 0 -0.768221 -0.640184
    outer loop
      vertex 20 0 3
      vertex 2.5 2.5 0
      vertex 17.5 2.5 0
    endloop
  endfacet
  facet normal 0 -0.768221 -0.640184
    outer loop
      vertex 2.5 22.5 0
      vertex 20 20 3
      vertex 0 20 3
    endloop
  endfacet
  facet normal 0 -0.768221 -0.640184
    outer loop
      vertex 20 20 3
      vertex 2.5 22.5 0
      vertex 17.5 22.5 0
    endloop
  endfacet
  facet normal 0 -0.768221 -0.640184
    outer loop
      vertex 62.5 22.5 0
      vertex 80 20 3
      vertex 60 20 3
    endloop
  endfacet
  facet normal 0 -0.768221 -0.640184
    outer loop
      vertex 80 20 3
      vertex 62.5 22.5 0
      vertex 77.5 22.5 0
    endloop
  endfacet
  facet normal 0 -0.768221 -0.640184
    outer loop
      vertex 22.5 22.5 0
      vertex 40 20 3
      vertex 20 20 3
    endloop
  endfacet
  facet normal 0 -0.768221 -0.640184
    outer loop
      vertex 40 20 3
      vertex 22.5 22.5 0
      vertex 37.5 22.5 0
    endloop
  endfacet
  facet normal 0 -0.768221 -0.640184
    outer loop
      vertex 42.5 22.5 0
      vertex 60 20 3
      vertex 40 20 3
    endloop
  endfacet
  facet normal 0 -0.768221 -0.640184
    outer loop
      vertex 60 20 3
      vertex 42.5 22.5 0
      vertex 57.5 22.5 0
    endloop
  endfacet
  facet normal 0 0.768221 -0.640184
    outer loop
      vertex 17.5 17.5 0
      vertex 0 20 3
      vertex 20 20 3
    endloop
  endfacet
  facet normal 0 0.768221 -0.640184
    outer loop
      vertex 0 20 3
      vertex 17.5 17.5 0
      vertex 2.5 17.5 0
    endloop
  endfacet
  facet normal 0 0.768221 -0.640184
    outer loop
      vertex 77.5 17.5 0
      vertex 60 20 3
      vertex 80 20 3
    endloop
  endfacet
  facet normal 0 0.768221 -0.640184
    outer loop
      vertex 60 20 3
      vertex 77.5 17.5 0
      vertex 62.5 17.5 0
    endloop
  endfacet
  facet normal 0 0.768221 -0.640184
    outer loop
      vertex 37.5 17.5 0
      vertex 20 20 3
      vertex 40 20 3
    endloop
  endfacet
  facet normal 0 0.768221 -0.640184
    outer loop
      vertex 20 20 3
      vertex 37.5 17.5 0
      vertex 22.5 17.5 0
    endloop
  endfacet
  facet normal 0 0.768221 -0.640184
    outer loop
      vertex 57.5 17.5 0
      vertex 40 20 3
      vertex 60 20 3
    endloop
  endfacet
  facet normal 0 0.768221 -0.640184
    outer loop
      vertex 40 20 3
      vertex 57.5 17.5 0
      vertex 42.5 17.5 0
    endloop
  endfacet
  facet normal 0 -0.768221 -0.640184
    outer loop
      vertex 2.5 42.5 0
      vertex 20 40 3
      vertex 0 40 3
    endloop
  endfacet
  facet normal 0 -0.768221 -0.640184
    outer loop
      vertex 20 40 3
      vertex 2.5 42.5 0
      vertex 17.5 42.5 0
    endloop
  endfacet
  facet normal 0 -0.768221 -0.640184
    outer loop
      vertex 62.5 42.5 0
      vertex 80 40 3
      vertex 60 40 3
    endloop
  endfacet
  facet normal 0 -0.768221 -0.640184
    outer loop
      vertex 80 40 3
      vertex 62.5 42.5 0
      vertex 77.5 42.5 0
    endloop
  endfacet
  facet normal 0 -0.768221 -0.640184
    outer loop
      vertex 22.5 42.5 0
      vertex 40 40 3
      vertex 20 40 3
    endloop
  endfacet
  facet normal 0 -0.768221 -0.640184
    outer loop
      vertex 40 40 3
      vertex 22.5 42.5 0
      vertex 37.5 42.5 0
    endloop
  endfacet
  facet normal 0 -0.768221 -0.640184
    outer loop
      vertex 42.5 42.5 0
      vertex 60 40 3
      vertex 40 40 3
    endloop
  endfacet
  facet normal 0 -0.768221 -0.640184
    outer loop
      vertex 60 40 3
      vertex 42.5 42.5 0
      vertex 57.5 42.5 0
    endloop
  endfacet
  facet normal 0 0.768221 -0.640184
    outer loop
      vertex 17.5 37.5 0
      vertex 0 40 3
      vertex 20 40 3
    endloop
  endfacet
  facet normal 0 0.768221 -0.640184
    outer loop
      vertex 0 40 3
      vertex 17.5 37.5 0
      vertex 2.5 37.5 0
    endloop
  endfacet
  facet normal 0 0.768221 -0.640184
    outer loop
      vertex 77.5 37.5 0
      vertex 60 40 3
      vertex 80 40 3
    endloop
  endfacet
  facet normal 0 0.768221 -0.640184
    outer loop
      vertex 60 40 3
      vertex 77.5 37.5 0
      vertex 62.5 37.5 0
    endloop
  endfacet
  facet normal 0 0.768221 -0.640184
    outer loop
      vertex 37.5 37.5 0
      vertex 20 40 3
      vertex 40 40 3
    endloop
  endfacet
  facet normal 0 0.768221 -0.640184
    outer loop
      vertex 20 40 3
      vertex 37.5 37.5 0
      vertex 22.5 37.5 0
    endloop
  endfacet
  facet normal 0 0.768221 -0.640184
    outer loop
      vertex 57.5 37.5 0
      vertex 40 40 3
      vertex 60 40 3
    endloop
  endfacet
  facet normal 0 0.768221 -0.640184
    outer loop
      vertex 40 40 3
      vertex 57.5 37.5 0
      vertex 42.5 37.5 0
    endloop
  endfacet
  facet normal 0 0.768221 -0.640184
    outer loop
      vertex 77.5 57.5 0
      vertex 60 60 3
      vertex 80 60 3
    endloop
  endfacet
  facet normal 0 0.768221 -0.640184
    outer loop
      vertex 60 60 3
      vertex 77.5 57.5 0
      vertex 62.5 57.5 0
    endloop
  endfacet
  facet normal 0 0.768221 -0.640184
    outer loop
      vertex 57.5 57.5 0
      vertex 40 60 3
      vertex 60 60 3
    endloop
  endfacet
  facet normal 0 0.768221 -0.640184
    outer loop
      vertex 40 60 3
      vertex 57.5 57.5 0
      vertex 42.5 57.5 0
    endloop
  endfacet
  facet normal 0 0.768221 -0.640184
    outer loop
      vertex 37.5 57.5 0
      vertex 20 60 3
      vertex 40 60 3
    endloop
  endfacet
  facet normal 0 0.768221 -0.640184
    outer loop
      vertex 20 60 3
      vertex 37.5 57.5 0
      vertex 22.5 57.5 0
    endloop
  endfacet
  facet normal 0 0.768221 -0.640184
    outer loop
      vertex 17.5 57.5 0
      vertex 0 60 3
      vertex 20 60 3
    endloop
  endfacet
  facet normal 0 0.768221 -0.640184
    outer loop
      vertex 0 60 3
      vertex 17.5 57.5 0
      vertex 2.5 57.5 0
    endloop
  endfacet
  facet normal -0.768221 0 -0.640184
    outer loop
      vertex 2.5 42.5 0
      vertex 0 60 3
      vertex 2.5 57.5 0
    endloop
  endfacet
  facet normal -0.768221 -0 -0.640184
    outer loop
      vertex 0 60 3
      vertex 2.5 42.5 0
      vertex 0 40 3
    endloop
  endfacet
  facet normal -0.768221 0 -0.640184
    outer loop
      vertex 2.5 2.5 0
      vertex 0 20 3
      vertex 2.5 17.5 0
    endloop
  endfacet
  facet normal -0.768221 -0 -0.640184
    outer loop
      vertex 0 20 3
      vertex 2.5 2.5 0
      vertex 0 0 3
    endloop
  endfacet
  facet normal -0.768221 0 -0.640184
    outer loop
      vertex 2.5 22.5 0
      vertex 0 40 3
      vertex 2.5 37.5 0
    endloop
  endfacet
  facet normal -0.768221 -0 -0.640184
    outer loop
      vertex 0 40 3
      vertex 2.5 22.5 0
      vertex 0 20 3
    endloop
  endfacet
  facet normal -0.768221 0 -0.640184
    outer loop
      vertex 22.5 42.5 0
      vertex 20 60 3
      vertex 22.5 57.5 0
    endloop
  endfacet
  facet normal -0.768221 -0 -0.640184
    outer loop
      vertex 20 60 3
      vertex 22.5 42.5 0
      vertex 20 40 3
    endloop
  endfacet
  facet normal -0.768221 0 -0.640184
    outer loop
      vertex 22.5 2.5 0
      vertex 20 20 3
      vertex 22.5 17.5 0
    endloop
  endfacet
  facet normal -0.768221 -0 -0.640184
    outer loop
      vertex 20 20 3
      vertex 22.5 2.5 0
      vertex 20 0 3
    endloop
  endfacet
  facet normal -0.768221 0 -0.640184
    outer loop
      vertex 22.5 22.5 0
      vertex 20 40 3
      vertex 22.5 37.5 0
    endloop
  endfacet
  facet normal -0.768221 -0 -0.640184
    outer loop
      vertex 20 40 3
      vertex 22.5 22.5 0
      vertex 20 20 3
    endloop
  endfacet
  facet normal 0.768221 0 -0.640184
    outer loop
      vertex 20 60 3
      vertex 17.5 42.5 0
      vertex 17.5 57.5 0
    endloop
  endfacet
  facet normal 0.768221 0 -0.640184
    outer loop
      vertex 17.5 42.5 0
      vertex 20 60 3
      vertex 20 40 3
    endloop
  endfacet
  facet normal 0.768221 0 -0.640184
    outer loop
      vertex 20 20 3
      vertex 17.5 2.5 0
      vertex 17.5 17.5 0
    endloop
  endfacet
  facet normal 0.768221 0 -0.640184
    outer loop
      vertex 17.5 2.5 0
      vertex 20 20 3
      vertex 20 0 3
    endloop
  endfacet
  facet normal 0.768221 0 -0.640184
    outer loop
      vertex 20 40 3
      vertex 17.5 22.5 0
      vertex 17.5 37.5 0
    endloop
  endfacet
  facet normal 0.768221 0 -0.640184
    outer loop
      vertex 17.5 22.5 0
      vertex 20 40 3
      vertex 20 20 3
    endloop
  endfacet
  facet normal -0.768221 0 -0.640184
    outer loop
      vertex 42.5 42.5 0
      vertex 40 60 3
      vertex 42.5 57.5 0
    endloop
  endfacet
  facet normal -0.768221 -0 -0.640184
    outer loop
      vertex 40 60 3
      vertex 42.5 42.5 0
      vertex 40 40 3
    endloop
  endfacet
  facet normal -0.768221 0 -0.640184
    outer loop
      vertex 42.5 2.5 0
      vertex 40 20 3
      vertex 42.5 17.5 0
    endloop
  endfacet
  facet normal -0.768221 -0 -0.640184
    outer loop
      vertex 40 20 3
      vertex 42.5 2.5 0
      vertex 40 0 3
    endloop
  endfacet
  facet normal -0.768221 0 -0.640184
    outer loop
      vertex 42.5 22.5 0
      vertex 40 40 3
      vertex 42.5 37.5 0
    endloop
  endfacet
  facet normal -0.768221 -0 -0.640184
    outer loop
      vertex 40 40 3
      vertex 42.5 22.5 0
      vertex 40 20 3
    endloop
  endfacet
  facet normal 0.768221 0 -0.640184
    outer loop
      vertex 40 60 3
      vertex 37.5 42.5 0
      vertex 37.5 57.5 0
    endloop
  endfacet
  facet normal 0.768221 0 -0.640184
    outer loop
      vertex 37.5 42.5 0
      vertex 40 60 3
      vertex 40 40 3
    endloop
  endfacet
  facet normal 0.768221 0 -0.640184
    outer loop
      vertex 40 20 3
      vertex 37.5 2.5 0
      vertex 37.5 17.5 0
    endloop
  endfacet
  facet normal 0.768221 0 -0.640184
    outer loop
      vertex 37.5 2.5 0
      vertex 40 20 3
      vertex 40 0 3
    endloop
  endfacet
  facet normal 0.768221 0 -0.640184
    outer loop
      vertex 40 40 3
      vertex 37.5 22.5 0
      vertex 37.5 37.5 0
    endloop
  endfacet
  facet normal 0.768221 0 -0.640184
    outer loop
      vertex 37.5 22.5 0
      vertex 40 40 3
      vertex 40 20 3
    endloop
  endfacet
  facet normal -0.768221 0 -0.640184
    outer loop
      vertex 62.5 42.5 0
      vertex 60 60 3
      vertex 62.5 57.5 0
    endloop
  endfacet
  facet normal -0.768221 -0 -0.640184
    outer loop
      vertex 60 60 3
      vertex 62.5 42.5 0
      vertex 60 40 3
    endloop
  endfacet
  facet normal -0.768221 0 -0.640184
    outer loop
      vertex 62.5 2.5 0
      vertex 60 20 3
      vertex 62.5 17.5 0
    endloop
  endfacet
  facet normal -0.768221 -0 -0.640184
    outer loop
      vertex 60 20 3
      vertex 62.5 2.5 0
      vertex 60 0 3
    endloop
  endfacet
  facet normal -0.768221 0 -0.640184
    outer loop
      vertex 62.5 22.5 0
      vertex 60 40 3
      vertex 62.5 37.5 0
    endloop
  endfacet
  facet normal -0.768221 -0 -0.640184
    outer loop
      vertex 60 40 3
      vertex 62.5 22.5 0
      vertex 60 20 3
    endloop
  endfacet
  facet normal 0.768221 0 -0.640184
    outer loop
      vertex 60 60 3
      vertex 57.5 42.5 0
      vertex 57.5 57.5 0
    endloop
  endfacet
  facet normal 0.768221 0 -0.640184
    outer loop
      vertex 57.5 42.5 0
      vertex 60 60 3
      vertex 60 40 3
    endloop
  endfacet
  facet normal 0.768221 0 -0.640184
    outer loop
      vertex 60 20 3
      vertex 57.5 2.5 0
      vertex 57.5 17.5 0
    endloop
  endfacet
  facet normal 0.768221 0 -0.640184
    outer loop
      vertex 57.5 2.5 0
      vertex 60 20 3
      vertex 60 0 3
    endloop
  endfacet
  facet normal 0.768221 0 -0.640184
    outer loop
      vertex 60 40 3
      vertex 57.5 22.5 0
      vertex 57.5 37.5 0
    endloop
  endfacet
  facet normal 0.768221 0 -0.640184
    outer loop
      vertex 57.5 22.5 0
      vertex 60 40 3
      vertex 60 20 3
    endloop
  endfacet
  facet normal 0.768221 0 -0.640184
    outer loop
      vertex 80 60 3
      vertex 77.5 42.5 0
      vertex 77.5 57.5 0
    endloop
  endfacet
  facet normal 0.768221 0 -0.640184
    outer loop
      vertex 77.5 42.5 0
      vertex 80 60 3
      vertex 80 40 3
    endloop
  endfacet
  facet normal 0.768221 0 -0.640184
    outer loop
      vertex 80 20 3
      vertex 77.5 2.5 0
      vertex 77.5 17.5 0
    endloop
  endfacet
  facet normal 0.768221 0 -0.640184
    outer loop
      vertex 77.5 2.5 0
      vertex 80 20 3
      vertex 80 0 3
    endloop
  endfacet
  facet normal 0.768221 0 -0.640184
    outer loop
      vertex 80 40 3
      vertex 77.5 22.5 0
      vertex 77.5 37.5 0
    endloop
  endfacet
  facet normal 0.768221 0 -0.640184
    outer loop
      vertex 77.5 22.5 0
      vertex 80 40 3
      vertex 80 20 3
    endloop
  endfacet
  facet normal 1 0 0
    outer loop
      vertex 80 60 50
      vertex 80 40 3
      vertex 80 60 3
    endloop
  endfacet
  facet normal 1 0 0
    outer loop
      vertex 80 60 50
      vertex 80 20 3
      vertex 80 40 3
    endloop
  endfacet
  facet normal 1 -0 0
    outer loop
      vertex 80 0 50
      vertex 80 20 3
      vertex 80 60 50
    endloop
  endfacet
  facet normal 1 0 0
    outer loop
      vertex 80 20 3
      vertex 80 0 50
      vertex 80 0 3
    endloop
  endfacet
  facet normal 0 0 1
    outer loop
      vertex 25 60 50
      vertex 3.5 54.5 50
      vertex 25 54.5 50
    endloop
  endfacet
  facet normal 0 0 1
    outer loop
      vertex 3.5 54.5 50
      vertex 0 60 50
      vertex 3.5 5.5 50
    endloop
  endfacet
  facet normal -0 0 1
    outer loop
      vertex 0 60 50
      vertex 3.5 54.5 50
      vertex 25 60 50
    endloop
  endfacet
  facet normal -0 0 1
    outer loop
      vertex 3.5 5.5 50
      vertex 25 0 50
      vertex 25 5.5 50
    endloop
  endfacet
  facet normal 0 0 1
    outer loop
      vertex 3.5 5.5 50
      vertex 0 0 50
      vertex 25 0 50
    endloop
  endfacet
  facet normal 0 0 1
    outer loop
      vertex 0 0 50
      vertex 3.5 5.5 50
      vertex 0 60 50
    endloop
  endfacet
  facet normal 0 0 1
    outer loop
      vertex 80 60 50
      vertex 76.5 54.5 50
      vertex 80 0 50
    endloop
  endfacet
  facet normal -0 0 1
    outer loop
      vertex 55 60 50
      vertex 76.5 54.5 50
      vertex 80 60 50
    endloop
  endfacet
  facet normal 0 0 1
    outer loop
      vertex 76.5 54.5 50
      vertex 55 60 50
      vertex 55 54.5 50
    endloop
  endfacet
  facet normal -0 0 1
    outer loop
      vertex 76.5 5.5 50
      vertex 80 0 50
      vertex 76.5 54.5 50
    endloop
  endfacet
  facet normal 0 0 1
    outer loop
      vertex 55 0 50
      vertex 76.5 5.5 50
      vertex 55 5.5 50
    endloop
  endfacet
  facet normal 0 0 1
    outer loop
      vertex 76.5 5.5 50
      vertex 55 0 50
      vertex 80 0 50
    endloop
  endfacet
  facet normal -1 0 0
    outer loop
      vertex 0 40 3
      vertex 0 60 50
      vertex 0 60 3
    endloop
  endfacet
  facet normal -1 0 0
    outer loop
      vertex 0 20 3
      vertex 0 60 50
      vertex 0 40 3
    endloop
  endfacet
  facet normal -1 0 0
    outer loop
      vertex 0 0 50
      vertex 0 20 3
      vertex 0 0 3
    endloop
  endfacet
  facet normal -1 0 0
    outer loop
      vertex 0 20 3
      vertex 0 0 50
      vertex 0 60 50
    endloop
  endfacet
  facet normal 0 1 0
    outer loop
      vertex 80 60 50
      vertex 55 60 6
      vertex 55 60 50
    endloop
  endfacet
  facet normal 0 1 -0
    outer loop
      vertex 60 60 3
      vertex 55 60 6
      vertex 80 60 3
    endloop
  endfacet
  facet normal 0 1 -0
    outer loop
      vertex 80 60 3
      vertex 55 60 6
      vertex 80 60 50
    endloop
  endfacet
  facet normal 0 1 -0
    outer loop
      vertex 25 60 6
      vertex 0 60 50
      vertex 25 60 50
    endloop
  endfacet
  facet normal 0 1 0
    outer loop
      vertex 40 60 3
      vertex 55 60 6
      vertex 60 60 3
    endloop
  endfacet
  facet normal 0 1 0
    outer loop
      vertex 55 60 6
      vertex 40 60 3
      vertex 25 60 6
    endloop
  endfacet
  facet normal 0 1 0
    outer loop
      vertex 20 60 3
      vertex 25 60 6
      vertex 40 60 3
    endloop
  endfacet
  facet normal 0 1 0
    outer loop
      vertex 0 60 3
      vertex 25 60 6
      vertex 20 60 3
    endloop
  endfacet
  facet normal 0 1 0
    outer loop
      vertex 25 60 6
      vertex 0 60 3
      vertex 0 60 50
    endloop
  endfacet
  facet normal 0 -1 0
    outer loop
      vertex 0 0 50
      vertex 25 0 6
      vertex 25 0 50
    endloop
  endfacet
  facet normal 0 -1 0
    outer loop
      vertex 20 0 3
      vertex 25 0 6
      vertex 0 0 3
    endloop
  endfacet
  facet normal 0 -1 0
    outer loop
      vertex 0 0 3
      vertex 25 0 6
      vertex 0 0 50
    endloop
  endfacet
  facet normal 0 -1 0
    outer loop
      vertex 55 0 6
      vertex 80 0 50
      vertex 55 0 50
    endloop
  endfacet
  facet normal 0 -1 0
    outer loop
      vertex 40 0 3
      vertex 25 0 6
      vertex 20 0 3
    endloop
  endfacet
  facet normal 0 -1 0
    outer loop
      vertex 25 0 6
      vertex 40 0 3
      vertex 55 0 6
    endloop
  endfacet
  facet normal 0 -1 0
    outer loop
      vertex 60 0 3
      vertex 55 0 6
      vertex 40 0 3
    endloop
  endfacet
  facet normal 0 -1 0
    outer loop
      vertex 80 0 3
      vertex 55 0 6
      vertex 60 0 3
    endloop
  endfacet
  facet normal 0 -1 0
    outer loop
      vertex 55 0 6
      vertex 80 0 3
      vertex 80 0 50
    endloop
  endfacet
  facet normal 0 0 1
    outer loop
      vertex 3.5 53 6
      vertex 3.5 8.00685 6
      vertex 37.0153 30.5034 6
    endloop
  endfacet
  facet normal 0 0 1
    outer loop
      vertex 39.7067 28.6968 6
      vertex 5.14819 5.5 6
      vertex 25 5.5 6
    endloop
  endfacet
  facet normal 0 0 1
    outer loop
      vertex 39.7067 28.6968 6
      vertex 55 5.5 6
      vertex 74.2653 5.5 6
    endloop
  endfacet
  facet normal 0 0 1
    outer loop
      vertex 25 5.5 6
      vertex 55 5.5 6
      vertex 39.7067 28.6968 6
    endloop
  endfacet
  facet normal 0 0 1
    outer loop
      vertex 55 5.5 6
      vertex 25 5.5 6
      vertex 55 0 6
    endloop
  endfacet
  facet normal 0 0 1
    outer loop
      vertex 55 0 6
      vertex 25 5.5 6
      vertex 25 0 6
    endloop
  endfacet
  facet normal 0 0 1
    outer loop
      vertex 25 54.5 6
      vertex 55 54.5 6
      vertex 55 60 6
    endloop
  endfacet
  facet normal 0 0 1
    outer loop
      vertex 25 54.5 6
      vertex 55 60 6
      vertex 25 60 6
    endloop
  endfacet
  facet normal 0 0 1
    outer loop
      vertex 55 54.5 6
      vertex 25 54.5 6
      vertex 39.7067 32.31 6
    endloop
  endfacet
  facet normal 0 0 1
    outer loop
      vertex 39.7067 32.31 6
      vertex 25 54.5 6
      vertex 6.64819 54.5 6
    endloop
  endfacet
  facet normal 0 0 1
    outer loop
      vertex 72.7653 54.5 6
      vertex 55 54.5 6
      vertex 39.7067 32.31 6
    endloop
  endfacet
  facet normal 0 0 1
    outer loop
      vertex 76.5 53.3937 6
      vertex 42.3982 30.5034 6
      vertex 76.5 7.61317 6
    endloop
  endfacet
  facet normal 0 1 0
    outer loop
      vertex 25 5.5 50
      vertex 5.14819 5.5 12.5
      vertex 3.5 5.5 50
    endloop
  endfacet
  facet normal 0 1 -0
    outer loop
      vertex 25 5.5 6
      vertex 5.14819 5.5 12.5
      vertex 25 5.5 50
    endloop
  endfacet
  facet normal 0 1 0
    outer loop
      vertex 5.14819 5.5 12.5
      vertex 25 5.5 6
      vertex 5.14819 5.5 6
    endloop
  endfacet
  facet normal 0 1 0
    outer loop
      vertex 3.5 5.5 50
      vertex 5.14819 5.5 12.5
      vertex 3.5 5.5 12.5
    endloop
  endfacet
  facet normal 1 -0 0
    outer loop
      vertex 25 0 50
      vertex 25 5.5 6
      vertex 25 5.5 50
    endloop
  endfacet
  facet normal 1 0 0
    outer loop
      vertex 25 5.5 6
      vertex 25 0 50
      vertex 25 0 6
    endloop
  endfacet
  facet normal -1 0 0
    outer loop
      vertex 55 0 6
      vertex 55 5.5 50
      vertex 55 5.5 6
    endloop
  endfacet
  facet normal -1 -0 0
    outer loop
      vertex 55 5.5 50
      vertex 55 0 6
      vertex 55 0 50
    endloop
  endfacet
  facet normal 0 1 0
    outer loop
      vertex 74.2653 5.5 12.5
      vertex 76.5 5.5 50
      vertex 76.5 5.5 12.5
    endloop
  endfacet
  facet normal 0 1 0
    outer loop
      vertex 76.5 5.5 50
      vertex 74.2653 5.5 12.5
      vertex 55 5.5 50
    endloop
  endfacet
  facet normal 0 1 0
    outer loop
      vertex 55 5.5 6
      vertex 74.2653 5.5 12.5
      vertex 74.2653 5.5 6
    endloop
  endfacet
  facet normal 0 1 0
    outer loop
      vertex 74.2653 5.5 12.5
      vertex 55 5.5 6
      vertex 55 5.5 50
    endloop
  endfacet
  facet normal -1 0 0
    outer loop
      vertex 76.5 53.3937 6
      vertex 76.5 7.61317 6
      vertex 76.5 53.3937 12.5
    endloop
  endfacet
  facet normal -1 0 0
    outer loop
      vertex 76.5 53.3937 12.5
      vertex 76.5 54.5 50
      vertex 76.5 54.5 12.5
    endloop
  endfacet
  facet normal -1 0 0
    outer loop
      vertex 76.5 7.61317 12.5
      vertex 76.5 53.3937 12.5
      vertex 76.5 7.61317 6
    endloop
  endfacet
  facet normal -1 0 0
    outer loop
      vertex 76.5 53.3937 12.5
      vertex 76.5 7.61317 12.5
      vertex 76.5 54.5 50
    endloop
  endfacet
  facet normal -1 0 0
    outer loop
      vertex 76.5 5.5 50
      vertex 76.5 7.61317 12.5
      vertex 76.5 5.5 12.5
    endloop
  endfacet
  facet normal -1 0 0
    outer loop
      vertex 76.5 7.61317 12.5
      vertex 76.5 5.5 50
      vertex 76.5 54.5 50
    endloop
  endfacet
  facet normal 0 -1 0
    outer loop
      vertex 55 54.5 50
      vertex 72.7653 54.5 12.5
      vertex 76.5 54.5 50
    endloop
  endfacet
  facet normal 0 -1 0
    outer loop
      vertex 55 54.5 6
      vertex 72.7653 54.5 12.5
      vertex 55 54.5 50
    endloop
  endfacet
  facet normal 0 -1 -0
    outer loop
      vertex 72.7653 54.5 12.5
      vertex 55 54.5 6
      vertex 72.7653 54.5 6
    endloop
  endfacet
  facet normal 0 -1 -0
    outer loop
      vertex 76.5 54.5 50
      vertex 72.7653 54.5 12.5
      vertex 76.5 54.5 12.5
    endloop
  endfacet
  facet normal -1 0 0
    outer loop
      vertex 55 54.5 6
      vertex 55 60 50
      vertex 55 60 6
    endloop
  endfacet
  facet normal -1 -0 0
    outer loop
      vertex 55 60 50
      vertex 55 54.5 6
      vertex 55 54.5 50
    endloop
  endfacet
  facet normal 1 -0 0
    outer loop
      vertex 25 54.5 50
      vertex 25 60 6
      vertex 25 60 50
    endloop
  endfacet
  facet normal 1 0 0
    outer loop
      vertex 25 60 6
      vertex 25 54.5 50
      vertex 25 54.5 6
    endloop
  endfacet
  facet normal 0 -1 0
    outer loop
      vertex 6.64819 54.5 12.5
      vertex 3.5 54.5 50
      vertex 3.5 54.5 12.5
    endloop
  endfacet
  facet normal 0 -1 0
    outer loop
      vertex 3.5 54.5 50
      vertex 6.64819 54.5 12.5
      vertex 25 54.5 50
    endloop
  endfacet
  facet normal 0 -1 0
    outer loop
      vertex 25 54.5 6
      vertex 6.64819 54.5 12.5
      vertex 6.64819 54.5 6
    endloop
  endfacet
  facet normal 0 -1 0
    outer loop
      vertex 6.64819 54.5 12.5
      vertex 25 54.5 6
      vertex 25 54.5 50
    endloop
  endfacet
  facet normal 1 0 0
    outer loop
      vertex 3.5 54.5 50
      vertex 3.5 53 12.5
      vertex 3.5 54.5 12.5
    endloop
  endfacet
  facet normal 1 0 0
    outer loop
      vertex 3.5 53 12.5
      vertex 3.5 8.00685 12.5
      vertex 3.5 53 6
    endloop
  endfacet
  facet normal 1 0 0
    outer loop
      vertex 3.5 54.5 50
      vertex 3.5 8.00685 12.5
      vertex 3.5 53 12.5
    endloop
  endfacet
  facet normal 1 -0 0
    outer loop
      vertex 3.5 5.5 50
      vertex 3.5 8.00685 12.5
      vertex 3.5 54.5 50
    endloop
  endfacet
  facet normal 1 0 0
    outer loop
      vertex 3.5 8.00685 12.5
      vertex 3.5 5.5 50
      vertex 3.5 5.5 12.5
    endloop
  endfacet
  facet normal 1 0 0
    outer loop
      vertex 3.5 53 6
      vertex 3.5 8.00685 12.5
      vertex 3.5 8.00685 6
    endloop
  endfacet
  facet normal 0.557322 -0.830296 0
    outer loop
      vertex 5.14819 5.5 6
      vertex 39.7067 28.6968 12.5
      vertex 5.14819 5.5 12.5
    endloop
  endfacet
  facet normal 0.557322 -0.830296 0
    outer loop
      vertex 39.7067 28.6968 12.5
      vertex 5.14819 5.5 6
      vertex 39.7067 28.6968 6
    endloop
  endfacet
  facet normal 0.557323 -0.830296 0
    outer loop
      vertex 42.3982 30.5034 6
      vertex 76.5 53.3937 12.5
      vertex 42.3982 30.5034 12.5
    endloop
  endfacet
  facet normal 0.557323 -0.830296 0
    outer loop
      vertex 76.5 53.3937 12.5
      vertex 42.3982 30.5034 6
      vertex 76.5 53.3937 6
    endloop
  endfacet
  facet normal 0 0 1
    outer loop
      vertex 6.64819 54.5 12.5
      vertex 37.0153 30.5034 12.5
      vertex 39.7067 32.31 12.5
    endloop
  endfacet
  facet normal 0 0 1
    outer loop
      vertex 3.5 53 12.5
      vertex 6.64819 54.5 12.5
      vertex 3.5 54.5 12.5
    endloop
  endfacet
  facet normal 0 0 1
    outer loop
      vertex 6.64819 54.5 12.5
      vertex 3.5 53 12.5
      vertex 37.0153 30.5034 12.5
    endloop
  endfacet
  facet normal -0 0 1
    outer loop
      vertex 72.7653 54.5 12.5
      vertex 76.5 53.3937 12.5
      vertex 76.5 54.5 12.5
    endloop
  endfacet
  facet normal 0 0 1
    outer loop
      vertex 72.7653 54.5 12.5
      vertex 42.3982 30.5034 12.5
      vertex 76.5 53.3937 12.5
    endloop
  endfacet
  facet normal -0 0 1
    outer loop
      vertex 39.7067 32.31 12.5
      vertex 42.3982 30.5034 12.5
      vertex 72.7653 54.5 12.5
    endloop
  endfacet
  facet normal 0 0 1
    outer loop
      vertex 42.3982 30.5034 12.5
      vertex 39.7067 32.31 12.5
      vertex 39.7067 28.6968 12.5
    endloop
  endfacet
  facet normal -0 0 1
    outer loop
      vertex 37.0153 30.5034 12.5
      vertex 39.7067 28.6968 12.5
      vertex 39.7067 32.31 12.5
    endloop
  endfacet
  facet normal 0 0 1
    outer loop
      vertex 37.0153 30.5034 12.5
      vertex 5.14819 5.5 12.5
      vertex 39.7067 28.6968 12.5
    endloop
  endfacet
  facet normal -0 0 1
    outer loop
      vertex 3.5 8.00685 12.5
      vertex 5.14819 5.5 12.5
      vertex 37.0153 30.5034 12.5
    endloop
  endfacet
  facet normal 0 0 1
    outer loop
      vertex 5.14819 5.5 12.5
      vertex 3.5 8.00685 12.5
      vertex 3.5 5.5 12.5
    endloop
  endfacet
  facet normal 0 0 1
    outer loop
      vertex 76.5 7.61317 12.5
      vertex 74.2653 5.5 12.5
      vertex 76.5 5.5 12.5
    endloop
  endfacet
  facet normal 0 0 1
    outer loop
      vertex 42.3982 30.5034 12.5
      vertex 74.2653 5.5 12.5
      vertex 76.5 7.61317 12.5
    endloop
  endfacet
  facet normal 0 0 1
    outer loop
      vertex 74.2653 5.5 12.5
      vertex 42.3982 30.5034 12.5
      vertex 39.7067 28.6968 12.5
    endloop
  endfacet
  facet normal -0.557322 0.830297 0
    outer loop
      vertex 37.0153 30.5034 6
      vertex 3.5 8.00685 12.5
      vertex 37.0153 30.5034 12.5
    endloop
  endfacet
  facet normal -0.557322 0.830297 0
    outer loop
      vertex 3.5 8.00685 12.5
      vertex 37.0153 30.5034 6
      vertex 3.5 8.00685 6
    endloop
  endfacet
  facet normal -0.557322 0.830297 0
    outer loop
      vertex 72.7653 54.5 6
      vertex 39.7067 32.31 12.5
      vertex 72.7653 54.5 12.5
    endloop
  endfacet
  facet normal -0.557322 0.830297 0
    outer loop
      vertex 39.7067 32.31 12.5
      vertex 72.7653 54.5 6
      vertex 39.7067 32.31 6
    endloop
  endfacet
  facet normal 0.557323 0.830296 -0
    outer loop
      vertex 39.7067 32.31 6
      vertex 6.64819 54.5 12.5
      vertex 39.7067 32.31 12.5
    endloop
  endfacet
  facet normal 0.557323 0.830296 0
    outer loop
      vertex 6.64819 54.5 12.5
      vertex 39.7067 32.31 6
      vertex 6.64819 54.5 6
    endloop
  endfacet
  facet normal 0.557322 0.830297 -0
    outer loop
      vertex 76.5 7.61317 6
      vertex 42.3982 30.5034 12.5
      vertex 76.5 7.61317 12.5
    endloop
  endfacet
  facet normal 0.557322 0.830297 0
    outer loop
      vertex 42.3982 30.5034 12.5
      vertex 76.5 7.61317 6
      vertex 42.3982 30.5034 6
    endloop
  endfacet
  facet normal -0.557323 -0.830296 0
    outer loop
      vertex 3.5 53 6
      vertex 37.0153 30.5034 12.5
      vertex 3.5 53 12.5
    endloop
  endfacet
  facet normal -0.557323 -0.830296 -0
    outer loop
      vertex 37.0153 30.5034 12.5
      vertex 3.5 53 6
      vertex 37.0153 30.5034 6
    endloop
  endfacet
  facet normal -0.557321 -0.830297 0
    outer loop
      vertex 39.7067 28.6968 6
      vertex 74.2653 5.5 12.5
      vertex 39.7067 28.6968 12.5
    endloop
  endfacet
  facet normal -0.557321 -0.830297 -0
    outer loop
      vertex 74.2653 5.5 12.5
      vertex 39.7067 28.6968 6
      vertex 74.2653 5.5 6
    endloop
  endfacet
endsolid OpenSCAD_Model
