solid OpenSCAD_Model
  facet normal -1 0 0
    outer loop
      vertex 29.125 45.3229 0
      vertex 29.125 47.5 4.5
      vertex 29.125 47.5 0
    endloop
  endfacet
  facet normal -1 -0 0
    outer loop
      vertex 29.125 47.5 4.5
      vertex 29.125 45.3229 0
      vertex 29.125 45.3229 4.5
    endloop
  endfacet
  facet normal -0 0 1
    outer loop
      vertex 10.875 47.5 4.5
      vertex 12.875 45.3229 4.5
      vertex 12.875 47.5 4.5
    endloop
  endfacet
  facet normal 0 0 1
    outer loop
      vertex 10.875 44.787 4.5
      vertex 12.875 45.3229 4.5
      vertex 10.875 47.5 4.5
    endloop
  endfacet
  facet normal -0 0 1
    outer loop
      vertex 10.875 44.787 4.5
      vertex 10.1266 43.3261 4.5
      vertex 12.875 45.3229 4.5
    endloop
  endfacet
  facet normal 0 0 1
    outer loop
      vertex 7.45011 42.2987 4.5
      vertex 10.1266 43.3261 4.5
      vertex 10.875 44.787 4.5
    endloop
  endfacet
  facet normal 0 0 1
    outer loop
      vertex 10.1266 43.3261 4.5
      vertex 7.45011 42.2987 4.5
      vertex 7.85347 40.8015 4.5
    endloop
  endfacet
  facet normal 0 0 1
    outer loop
      vertex 4.61741 39.1526 4.5
      vertex 7.85347 40.8015 4.5
      vertex 7.45011 42.2987 4.5
    endloop
  endfacet
  facet normal 0 0 1
    outer loop
      vertex 7.85347 40.8015 4.5
      vertex 4.61741 39.1526 4.5
      vertex 6.15489 37.8595 4.5
    endloop
  endfacet
  facet normal 0 0 1
    outer loop
      vertex 6.15489 37.8595 4.5
      vertex 2.5007 35.4864 4.5
      vertex 5.1051 34.6286 4.5
    endloop
  endfacet
  facet normal 0 0 1
    outer loop
      vertex 2.5007 35.4864 4.5
      vertex 6.15489 37.8595 4.5
      vertex 4.61741 39.1526 4.5
    endloop
  endfacet
  facet normal 0 0 1
    outer loop
      vertex 29.125 45.3229 4.5
      vertex 31.125 47.5 4.5
      vertex 29.125 47.5 4.5
    endloop
  endfacet
  facet normal -0 0 1
    outer loop
      vertex 36.8949 27.8714 4.5
      vertex 41.25 27.25 4.5
      vertex 40.8075 31.4602 4.5
    endloop
  endfacet
  facet normal 0 0 1
    outer loop
      vertex 37.25 31.25 4.5
      vertex 40.8075 31.4602 4.5
      vertex 39.4993 35.4864 4.5
    endloop
  endfacet
  facet normal 0 0 1
    outer loop
      vertex 36.8949 27.8714 4.5
      vertex 40.8075 31.4602 4.5
      vertex 37.25 31.25 4.5
    endloop
  endfacet
  facet normal -0 0 1
    outer loop
      vertex 35.8451 37.8595 4.5
      vertex 39.4993 35.4864 4.5
      vertex 37.3826 39.1526 4.5
    endloop
  endfacet
  facet normal 0 0 1
    outer loop
      vertex 35.8451 24.6405 4.5
      vertex 41.25 27.25 4.5
      vertex 36.8949 27.8714 4.5
    endloop
  endfacet
  facet normal 0 0 1
    outer loop
      vertex 41.25 27.25 4.5
      vertex 35.8451 24.6405 4.5
      vertex 40.8075 23.0398 4.5
    endloop
  endfacet
  facet normal 0 0 1
    outer loop
      vertex 39.4993 35.4864 4.5
      vertex 36.8949 34.6286 4.5
      vertex 37.25 31.25 4.5
    endloop
  endfacet
  facet normal 0 0 1
    outer loop
      vertex 39.4993 35.4864 4.5
      vertex 35.8451 37.8595 4.5
      vertex 36.8949 34.6286 4.5
    endloop
  endfacet
  facet normal -0 0 1
    outer loop
      vertex 34.1465 40.8015 4.5
      vertex 37.3826 39.1526 4.5
      vertex 34.5499 42.2987 4.5
    endloop
  endfacet
  facet normal 0 0 1
    outer loop
      vertex 37.3826 39.1526 4.5
      vertex 34.1465 40.8015 4.5
      vertex 35.8451 37.8595 4.5
    endloop
  endfacet
  facet normal 0 0 1
    outer loop
      vertex 34.5499 42.2987 4.5
      vertex 31.8734 43.3261 4.5
      vertex 34.1465 40.8015 4.5
    endloop
  endfacet
  facet normal 0 0 1
    outer loop
      vertex 31.125 44.787 4.5
      vertex 31.8734 43.3261 4.5
      vertex 34.5499 42.2987 4.5
    endloop
  endfacet
  facet normal 0 0 1
    outer loop
      vertex 31.125 47.5 4.5
      vertex 29.125 45.3229 4.5
      vertex 31.125 44.787 4.5
    endloop
  endfacet
  facet normal 0 0 1
    outer loop
      vertex 31.125 44.787 4.5
      vertex 29.125 45.3229 4.5
      vertex 31.8734 43.3261 4.5
    endloop
  endfacet
  facet normal 0 0 1
    outer loop
      vertex 40.8075 23.0398 4.5
      vertex 35.8451 24.6405 4.5
      vertex 39.4993 19.0136 4.5
    endloop
  endfacet
  facet normal -0 0 1
    outer loop
      vertex 34.1465 21.6985 4.5
      vertex 39.4993 19.0136 4.5
      vertex 35.8451 24.6405 4.5
    endloop
  endfacet
  facet normal 0 0 1
    outer loop
      vertex 39.4993 19.0136 4.5
      vertex 34.1465 21.6985 4.5
      vertex 37.3826 15.3473 4.5
    endloop
  endfacet
  facet normal -0 0 1
    outer loop
      vertex 31.8734 19.1739 4.5
      vertex 37.3826 15.3473 4.5
      vertex 34.1465 21.6985 4.5
    endloop
  endfacet
  facet normal 0 0 1
    outer loop
      vertex 37.3826 15.3473 4.5
      vertex 31.8734 19.1739 4.5
      vertex 34.5499 12.2013 4.5
    endloop
  endfacet
  facet normal -0 0 1
    outer loop
      vertex 29.125 17.1771 4.5
      vertex 34.5499 12.2013 4.5
      vertex 31.8734 19.1739 4.5
    endloop
  endfacet
  facet normal 0 0 1
    outer loop
      vertex 34.5499 12.2013 4.5
      vertex 29.125 17.1771 4.5
      vertex 31.125 9.71299 4.5
    endloop
  endfacet
  facet normal -0 0 1
    outer loop
      vertex 26.0215 15.7953 4.5
      vertex 31.125 9.71299 4.5
      vertex 29.125 17.1771 4.5
    endloop
  endfacet
  facet normal 0 0 1
    outer loop
      vertex 31.125 9.71299 4.5
      vertex 26.0215 15.7953 4.5
      vertex 27.2576 7.99111 4.5
    endloop
  endfacet
  facet normal -0 0 1
    outer loop
      vertex 22.6986 15.089 4.5
      vertex 27.2576 7.99111 4.5
      vertex 26.0215 15.7953 4.5
    endloop
  endfacet
  facet normal 0 0 1
    outer loop
      vertex 27.2576 7.99111 4.5
      vertex 22.6986 15.089 4.5
      vertex 23.1167 7.11093 4.5
    endloop
  endfacet
  facet normal -0 0 1
    outer loop
      vertex 19.3014 15.089 4.5
      vertex 23.1167 7.11093 4.5
      vertex 22.6986 15.089 4.5
    endloop
  endfacet
  facet normal 0 0 1
    outer loop
      vertex 19.3014 15.089 4.5
      vertex 18.8833 7.11093 4.5
      vertex 23.1167 7.11093 4.5
    endloop
  endfacet
  facet normal 0 0 1
    outer loop
      vertex 14.7424 7.99111 4.5
      vertex 19.3014 15.089 4.5
      vertex 15.9785 15.7953 4.5
    endloop
  endfacet
  facet normal 0 0 1
    outer loop
      vertex 19.3014 15.089 4.5
      vertex 14.7424 7.99111 4.5
      vertex 18.8833 7.11093 4.5
    endloop
  endfacet
  facet normal 0 0 1
    outer loop
      vertex 10.875 9.71299 4.5
      vertex 15.9785 15.7953 4.5
      vertex 12.875 17.1771 4.5
    endloop
  endfacet
  facet normal 0 0 1
    outer loop
      vertex 15.9785 15.7953 4.5
      vertex 10.875 9.71299 4.5
      vertex 14.7424 7.99111 4.5
    endloop
  endfacet
  facet normal 0 0 1
    outer loop
      vertex 7.45011 12.2013 4.5
      vertex 12.875 17.1771 4.5
      vertex 10.1266 19.1739 4.5
    endloop
  endfacet
  facet normal 0 0 1
    outer loop
      vertex 4.61741 15.3473 4.5
      vertex 10.1266 19.1739 4.5
      vertex 7.85347 21.6985 4.5
    endloop
  endfacet
  facet normal 0 0 1
    outer loop
      vertex 12.875 17.1771 4.5
      vertex 7.45011 12.2013 4.5
      vertex 10.875 9.71299 4.5
    endloop
  endfacet
  facet normal 0 0 1
    outer loop
      vertex 2.5007 19.0136 4.5
      vertex 7.85347 21.6985 4.5
      vertex 6.15489 24.6405 4.5
    endloop
  endfacet
  facet normal -0 0 1
    outer loop
      vertex 0.75 27.25 4.5
      vertex 6.15489 24.6405 4.5
      vertex 5.1051 27.8714 4.5
    endloop
  endfacet
  facet normal 0 0 1
    outer loop
      vertex 10.1266 19.1739 4.5
      vertex 4.61741 15.3473 4.5
      vertex 7.45011 12.2013 4.5
    endloop
  endfacet
  facet normal 0 0 1
    outer loop
      vertex 1.19251 31.4602 4.5
      vertex 5.1051 27.8714 4.5
      vertex 4.75 31.25 4.5
    endloop
  endfacet
  facet normal 0 0 1
    outer loop
      vertex 5.1051 34.6286 4.5
      vertex 2.5007 35.4864 4.5
      vertex 4.75 31.25 4.5
    endloop
  endfacet
  facet normal -0 0 1
    outer loop
      vertex 1.19251 31.4602 4.5
      vertex 4.75 31.25 4.5
      vertex 2.5007 35.4864 4.5
    endloop
  endfacet
  facet normal 0 0 1
    outer loop
      vertex 7.85347 21.6985 4.5
      vertex 2.5007 19.0136 4.5
      vertex 4.61741 15.3473 4.5
    endloop
  endfacet
  facet normal 0 0 1
    outer loop
      vertex 5.1051 27.8714 4.5
      vertex 1.19251 31.4602 4.5
      vertex 0.75 27.25 4.5
    endloop
  endfacet
  facet normal 0 0 1
    outer loop
      vertex 6.15489 24.6405 4.5
      vertex 1.19251 23.0398 4.5
      vertex 2.5007 19.0136 4.5
    endloop
  endfacet
  facet normal 0 0 1
    outer loop
      vertex 6.15489 24.6405 4.5
      vertex 0.75 27.25 4.5
      vertex 1.19251 23.0398 4.5
    endloop
  endfacet
  facet normal 0 0 -1
    outer loop
      vertex 10.1266 43.3261 0
      vertex 12.875 47.5 0
      vertex 12.875 45.3229 0
    endloop
  endfacet
  facet normal 0 0 -1
    outer loop
      vertex 5 47.5 0
      vertex 10.1266 43.3261 0
      vertex 7.85347 40.8015 0
    endloop
  endfacet
  facet normal 0 0 -1
    outer loop
      vertex 10.1266 43.3261 0
      vertex 5 47.5 0
      vertex 12.875 47.5 0
    endloop
  endfacet
  facet normal 0 0 -1
    outer loop
      vertex 6.15489 37.8595 0
      vertex 5 47.5 0
      vertex 7.85347 40.8015 0
    endloop
  endfacet
  facet normal 0 0 -1
    outer loop
      vertex 5.1051 34.6286 0
      vertex 5 47.5 0
      vertex 6.15489 37.8595 0
    endloop
  endfacet
  facet normal 0 0 -1
    outer loop
      vertex 0 0 0
      vertex 5 47.5 0
      vertex 4.75 31.25 0
    endloop
  endfacet
  facet normal 0 0 -1
    outer loop
      vertex 4.75 31.25 0
      vertex 5 47.5 0
      vertex 5.1051 34.6286 0
    endloop
  endfacet
  facet normal 0 0 -1
    outer loop
      vertex 88.616 44.0967 0
      vertex 89.5 47.5 0
      vertex 90.4695 42.0382 0
    endloop
  endfacet
  facet normal 0 0 -1
    outer loop
      vertex 86.375 45.7248 0
      vertex 89.5 47.5 0
      vertex 88.616 44.0967 0
    endloop
  endfacet
  facet normal -0 0 -1
    outer loop
      vertex 89.5 47.5 0
      vertex 86.375 45.7248 0
      vertex 86.375 47.5 0
    endloop
  endfacet
  facet normal 0 0 -1
    outer loop
      vertex 92.7105 37.0048 0
      vertex 103 0 0
      vertex 93 34.25 0
    endloop
  endfacet
  facet normal 0 0 -1
    outer loop
      vertex 103 0 0
      vertex 92.7105 31.4952 0
      vertex 93 34.25 0
    endloop
  endfacet
  facet normal 0 0 -1
    outer loop
      vertex 103 0 0
      vertex 91.8545 28.8607 0
      vertex 92.7105 31.4952 0
    endloop
  endfacet
  facet normal 0 0 -1
    outer loop
      vertex 103 0 0
      vertex 90.4695 26.4618 0
      vertex 91.8545 28.8607 0
    endloop
  endfacet
  facet normal 0 0 -1
    outer loop
      vertex 103 0 0
      vertex 88.616 24.4033 0
      vertex 90.4695 26.4618 0
    endloop
  endfacet
  facet normal 0 0 -1
    outer loop
      vertex 103 0 0
      vertex 86.375 22.7752 0
      vertex 88.616 24.4033 0
    endloop
  endfacet
  facet normal 0 0 -1
    outer loop
      vertex 103 0 0
      vertex 83.8445 21.6485 0
      vertex 86.375 22.7752 0
    endloop
  endfacet
  facet normal 0 0 -1
    outer loop
      vertex 103 0 0
      vertex 81.135 21.0726 0
      vertex 83.8445 21.6485 0
    endloop
  endfacet
  facet normal 0 0 -1
    outer loop
      vertex 103 0 0
      vertex 78.365 21.0726 0
      vertex 81.135 21.0726 0
    endloop
  endfacet
  facet normal 0 0 -1
    outer loop
      vertex 103 0 0
      vertex 75.6555 21.6485 0
      vertex 78.365 21.0726 0
    endloop
  endfacet
  facet normal 0 0 -1
    outer loop
      vertex 29.125 17.1771 0
      vertex 75.6555 21.6485 0
      vertex 103 0 0
    endloop
  endfacet
  facet normal -0 0 -1
    outer loop
      vertex 75.6555 21.6485 0
      vertex 29.125 17.1771 0
      vertex 73.125 22.7752 0
    endloop
  endfacet
  facet normal 0 0 -1
    outer loop
      vertex 66.7895 31.4952 0
      vertex 59.75 32.5 0
      vertex 66.5 34.25 0
    endloop
  endfacet
  facet normal 0 0 -1
    outer loop
      vertex 67.6455 28.8607 0
      vertex 59.75 32.5 0
      vertex 66.7895 31.4952 0
    endloop
  endfacet
  facet normal 0 0 -1
    outer loop
      vertex 69.0305 26.4618 0
      vertex 59.75 32.5 0
      vertex 67.6455 28.8607 0
    endloop
  endfacet
  facet normal 0 0 -1
    outer loop
      vertex 34.1465 21.6985 0
      vertex 69.0305 26.4618 0
      vertex 70.884 24.4033 0
    endloop
  endfacet
  facet normal 0 -0 -1
    outer loop
      vertex 31.8734 19.1739 0
      vertex 73.125 22.7752 0
      vertex 29.125 17.1771 0
    endloop
  endfacet
  facet normal 0 -0 -1
    outer loop
      vertex 34.1465 21.6985 0
      vertex 70.884 24.4033 0
      vertex 31.8734 19.1739 0
    endloop
  endfacet
  facet normal 0 0 -1
    outer loop
      vertex 36.8949 34.6286 0
      vertex 44.75 32.5 0
      vertex 37.25 31.25 0
    endloop
  endfacet
  facet normal 0 -0 -1
    outer loop
      vertex 35.8451 24.6405 0
      vertex 59.75 32.5 0
      vertex 34.1465 21.6985 0
    endloop
  endfacet
  facet normal 0 0 -1
    outer loop
      vertex 44.75 32.5 0
      vertex 36.8949 27.8714 0
      vertex 37.25 31.25 0
    endloop
  endfacet
  facet normal 0 0 -1
    outer loop
      vertex 44.75 32.5 0
      vertex 35.8451 24.6405 0
      vertex 36.8949 27.8714 0
    endloop
  endfacet
  facet normal -0 0 -1
    outer loop
      vertex 59.75 32.5 0
      vertex 35.8451 24.6405 0
      vertex 44.75 32.5 0
    endloop
  endfacet
  facet normal -0 0 -1
    outer loop
      vertex 69.0305 26.4618 0
      vertex 34.1465 21.6985 0
      vertex 59.75 32.5 0
    endloop
  endfacet
  facet normal -0 0 -1
    outer loop
      vertex 73.125 22.7752 0
      vertex 31.8734 19.1739 0
      vertex 70.884 24.4033 0
    endloop
  endfacet
  facet normal 0 0 -1
    outer loop
      vertex 103 0 0
      vertex 26.0215 15.7953 0
      vertex 29.125 17.1771 0
    endloop
  endfacet
  facet normal 0 0 -1
    outer loop
      vertex 0 0 0
      vertex 26.0215 15.7953 0
      vertex 103 0 0
    endloop
  endfacet
  facet normal 0 0 -1
    outer loop
      vertex 26.0215 15.7953 0
      vertex 0 0 0
      vertex 22.6986 15.089 0
    endloop
  endfacet
  facet normal -0 0 -1
    outer loop
      vertex 5.1051 27.8714 0
      vertex 0 0 0
      vertex 4.75 31.25 0
    endloop
  endfacet
  facet normal -0 0 -1
    outer loop
      vertex 6.15489 24.6405 0
      vertex 0 0 0
      vertex 5.1051 27.8714 0
    endloop
  endfacet
  facet normal -0 0 -1
    outer loop
      vertex 7.85347 21.6985 0
      vertex 0 0 0
      vertex 6.15489 24.6405 0
    endloop
  endfacet
  facet normal -0 0 -1
    outer loop
      vertex 10.1266 19.1739 0
      vertex 0 0 0
      vertex 7.85347 21.6985 0
    endloop
  endfacet
  facet normal -0 0 -1
    outer loop
      vertex 12.875 17.1771 0
      vertex 0 0 0
      vertex 10.1266 19.1739 0
    endloop
  endfacet
  facet normal -0 0 -1
    outer loop
      vertex 15.9785 15.7953 0
      vertex 0 0 0
      vertex 12.875 17.1771 0
    endloop
  endfacet
  facet normal -0 0 -1
    outer loop
      vertex 19.3014 15.089 0
      vertex 0 0 0
      vertex 15.9785 15.7953 0
    endloop
  endfacet
  facet normal -0 0 -1
    outer loop
      vertex 22.6986 15.089 0
      vertex 0 0 0
      vertex 19.3014 15.089 0
    endloop
  endfacet
  facet normal 0 0 -1
    outer loop
      vertex 103 0 0
      vertex 92.7105 37.0048 0
      vertex 103 103 0
    endloop
  endfacet
  facet normal 0 0 -1
    outer loop
      vertex 91.8545 39.6393 0
      vertex 103 103 0
      vertex 92.7105 37.0048 0
    endloop
  endfacet
  facet normal 0 0 -1
    outer loop
      vertex 89.5 47.5 0
      vertex 91.8545 39.6393 0
      vertex 90.4695 42.0382 0
    endloop
  endfacet
  facet normal 0 0 -1
    outer loop
      vertex 91.8545 39.6393 0
      vertex 89.5 47.5 0
      vertex 103 103 0
    endloop
  endfacet
  facet normal 0 0 -1
    outer loop
      vertex 89.5 98 0
      vertex 103 103 0
      vertex 89.5 47.5 0
    endloop
  endfacet
  facet normal 0 0 -1
    outer loop
      vertex 0 103 0
      vertex 89.5 98 0
      vertex 5 98 0
    endloop
  endfacet
  facet normal -0 0 -1
    outer loop
      vertex 5 47.5 0
      vertex 0 0 0
      vertex 0 103 0
    endloop
  endfacet
  facet normal 0 0 -1
    outer loop
      vertex 89.5 98 0
      vertex 0 103 0
      vertex 103 103 0
    endloop
  endfacet
  facet normal 0 0 -1
    outer loop
      vertex 5 47.5 0
      vertex 0 103 0
      vertex 5 98 0
    endloop
  endfacet
  facet normal 0 0 -1
    outer loop
      vertex 70.884 44.0967 0
      vertex 73.125 47.5 0
      vertex 73.125 45.7248 0
    endloop
  endfacet
  facet normal 0 0 -1
    outer loop
      vertex 59.75 47.5 0
      vertex 70.884 44.0967 0
      vertex 69.0305 42.0382 0
    endloop
  endfacet
  facet normal 0 0 -1
    outer loop
      vertex 59.75 32.5 0
      vertex 66.7895 37.0048 0
      vertex 66.5 34.25 0
    endloop
  endfacet
  facet normal 0 0 -1
    outer loop
      vertex 59.75 47.5 0
      vertex 66.7895 37.0048 0
      vertex 59.75 32.5 0
    endloop
  endfacet
  facet normal 0 0 -1
    outer loop
      vertex 66.7895 37.0048 0
      vertex 59.75 47.5 0
      vertex 67.6455 39.6393 0
    endloop
  endfacet
  facet normal 0 0 -1
    outer loop
      vertex 67.6455 39.6393 0
      vertex 59.75 47.5 0
      vertex 69.0305 42.0382 0
    endloop
  endfacet
  facet normal 0 0 -1
    outer loop
      vertex 70.884 44.0967 0
      vertex 59.75 47.5 0
      vertex 73.125 47.5 0
    endloop
  endfacet
  facet normal 0 0 -1
    outer loop
      vertex 35.8451 37.8595 0
      vertex 44.75 32.5 0
      vertex 36.8949 34.6286 0
    endloop
  endfacet
  facet normal 0 0 -1
    outer loop
      vertex 44.75 32.5 0
      vertex 35.8451 37.8595 0
      vertex 44.75 47.5 0
    endloop
  endfacet
  facet normal 0 0 -1
    outer loop
      vertex 34.1465 40.8015 0
      vertex 44.75 47.5 0
      vertex 35.8451 37.8595 0
    endloop
  endfacet
  facet normal 0 0 -1
    outer loop
      vertex 31.8734 43.3261 0
      vertex 44.75 47.5 0
      vertex 34.1465 40.8015 0
    endloop
  endfacet
  facet normal 0 0 -1
    outer loop
      vertex 29.125 47.5 0
      vertex 31.8734 43.3261 0
      vertex 29.125 45.3229 0
    endloop
  endfacet
  facet normal 0 0 -1
    outer loop
      vertex 31.8734 43.3261 0
      vertex 29.125 47.5 0
      vertex 44.75 47.5 0
    endloop
  endfacet
  facet normal 1 -0 0
    outer loop
      vertex 12.875 45.3229 4.5
      vertex 12.875 47.5 0
      vertex 12.875 47.5 4.5
    endloop
  endfacet
  facet normal 1 0 0
    outer loop
      vertex 12.875 47.5 0
      vertex 12.875 45.3229 4.5
      vertex 12.875 45.3229 0
    endloop
  endfacet
  facet normal 0.994522 -0.104527 0
    outer loop
      vertex 4.75 31.25 4.5
      vertex 5.1051 34.6286 0
      vertex 5.1051 34.6286 4.5
    endloop
  endfacet
  facet normal 0.994522 -0.104527 0
    outer loop
      vertex 5.1051 34.6286 0
      vertex 4.75 31.25 4.5
      vertex 4.75 31.25 0
    endloop
  endfacet
  facet normal -0.866021 0.500008 0
    outer loop
      vertex 34.1465 21.6985 0
      vertex 35.8451 24.6405 4.5
      vertex 35.8451 24.6405 0
    endloop
  endfacet
  facet normal -0.866021 0.500008 0
    outer loop
      vertex 35.8451 24.6405 4.5
      vertex 34.1465 21.6985 0
      vertex 34.1465 21.6985 4.5
    endloop
  endfacet
  facet normal -0.207911 0.978148 0
    outer loop
      vertex 26.0215 15.7953 0
      vertex 22.6986 15.089 4.5
      vertex 26.0215 15.7953 4.5
    endloop
  endfacet
  facet normal -0.207911 0.978148 0
    outer loop
      vertex 22.6986 15.089 4.5
      vertex 26.0215 15.7953 0
      vertex 22.6986 15.089 0
    endloop
  endfacet
  facet normal -0.951055 -0.309022 0
    outer loop
      vertex 36.8949 34.6286 0
      vertex 35.8451 37.8595 4.5
      vertex 35.8451 37.8595 0
    endloop
  endfacet
  facet normal -0.951055 -0.309022 0
    outer loop
      vertex 35.8451 37.8595 4.5
      vertex 36.8949 34.6286 0
      vertex 36.8949 34.6286 4.5
    endloop
  endfacet
  facet normal 0.58778 -0.809021 0
    outer loop
      vertex 10.1266 43.3261 0
      vertex 12.875 45.3229 4.5
      vertex 10.1266 43.3261 4.5
    endloop
  endfacet
  facet normal 0.58778 -0.809021 0
    outer loop
      vertex 12.875 45.3229 4.5
      vertex 10.1266 43.3261 0
      vertex 12.875 45.3229 0
    endloop
  endfacet
  facet normal -0.994522 0.104527 0
    outer loop
      vertex 36.8949 27.8714 0
      vertex 37.25 31.25 4.5
      vertex 37.25 31.25 0
    endloop
  endfacet
  facet normal -0.994522 0.104527 0
    outer loop
      vertex 37.25 31.25 4.5
      vertex 36.8949 27.8714 0
      vertex 36.8949 27.8714 4.5
    endloop
  endfacet
  facet normal -0.994522 -0.104527 0
    outer loop
      vertex 37.25 31.25 0
      vertex 36.8949 34.6286 4.5
      vertex 36.8949 34.6286 0
    endloop
  endfacet
  facet normal -0.994522 -0.104527 0
    outer loop
      vertex 36.8949 34.6286 4.5
      vertex 37.25 31.25 0
      vertex 37.25 31.25 4.5
    endloop
  endfacet
  facet normal 0.951056 -0.309019 0
    outer loop
      vertex 5.1051 34.6286 4.5
      vertex 6.15489 37.8595 0
      vertex 6.15489 37.8595 4.5
    endloop
  endfacet
  facet normal 0.951056 -0.309019 0
    outer loop
      vertex 6.15489 37.8595 0
      vertex 5.1051 34.6286 4.5
      vertex 5.1051 34.6286 0
    endloop
  endfacet
  facet normal 0.951056 0.309019 0
    outer loop
      vertex 6.15489 24.6405 4.5
      vertex 5.1051 27.8714 0
      vertex 5.1051 27.8714 4.5
    endloop
  endfacet
  facet normal 0.951056 0.309019 0
    outer loop
      vertex 5.1051 27.8714 0
      vertex 6.15489 24.6405 4.5
      vertex 6.15489 24.6405 0
    endloop
  endfacet
  facet normal 0.866023 -0.500003 0
    outer loop
      vertex 6.15489 37.8595 4.5
      vertex 7.85347 40.8015 0
      vertex 7.85347 40.8015 4.5
    endloop
  endfacet
  facet normal 0.866023 -0.500003 0
    outer loop
      vertex 7.85347 40.8015 0
      vertex 6.15489 37.8595 4.5
      vertex 6.15489 37.8595 0
    endloop
  endfacet
  facet normal 0.207911 0.978148 -0
    outer loop
      vertex 19.3014 15.089 0
      vertex 15.9785 15.7953 4.5
      vertex 19.3014 15.089 4.5
    endloop
  endfacet
  facet normal 0.207911 0.978148 0
    outer loop
      vertex 15.9785 15.7953 4.5
      vertex 19.3014 15.089 0
      vertex 15.9785 15.7953 0
    endloop
  endfacet
  facet normal -0.743154 -0.669121 0
    outer loop
      vertex 34.1465 40.8015 0
      vertex 31.8734 43.3261 4.5
      vertex 31.8734 43.3261 0
    endloop
  endfacet
  facet normal -0.743154 -0.669121 0
    outer loop
      vertex 31.8734 43.3261 4.5
      vertex 34.1465 40.8015 0
      vertex 34.1465 40.8015 4.5
    endloop
  endfacet
  facet normal 0 1 -0
    outer loop
      vertex 22.6986 15.089 0
      vertex 19.3014 15.089 4.5
      vertex 22.6986 15.089 4.5
    endloop
  endfacet
  facet normal 0 1 0
    outer loop
      vertex 19.3014 15.089 4.5
      vertex 22.6986 15.089 0
      vertex 19.3014 15.089 0
    endloop
  endfacet
  facet normal -0.866021 -0.500008 0
    outer loop
      vertex 35.8451 37.8595 0
      vertex 34.1465 40.8015 4.5
      vertex 34.1465 40.8015 0
    endloop
  endfacet
  facet normal -0.866021 -0.500008 0
    outer loop
      vertex 34.1465 40.8015 4.5
      vertex 35.8451 37.8595 0
      vertex 35.8451 37.8595 4.5
    endloop
  endfacet
  facet normal -0.406745 0.913542 0
    outer loop
      vertex 29.125 17.1771 0
      vertex 26.0215 15.7953 4.5
      vertex 29.125 17.1771 4.5
    endloop
  endfacet
  facet normal -0.406745 0.913542 0
    outer loop
      vertex 26.0215 15.7953 4.5
      vertex 29.125 17.1771 0
      vertex 26.0215 15.7953 0
    endloop
  endfacet
  facet normal 0.406745 0.913542 -0
    outer loop
      vertex 15.9785 15.7953 0
      vertex 12.875 17.1771 4.5
      vertex 15.9785 15.7953 4.5
    endloop
  endfacet
  facet normal 0.406745 0.913542 0
    outer loop
      vertex 12.875 17.1771 4.5
      vertex 15.9785 15.7953 0
      vertex 12.875 17.1771 0
    endloop
  endfacet
  facet normal 0.743149 -0.669126 0
    outer loop
      vertex 7.85347 40.8015 4.5
      vertex 10.1266 43.3261 0
      vertex 10.1266 43.3261 4.5
    endloop
  endfacet
  facet normal 0.743149 -0.669126 0
    outer loop
      vertex 10.1266 43.3261 0
      vertex 7.85347 40.8015 4.5
      vertex 7.85347 40.8015 0
    endloop
  endfacet
  facet normal -0.58778 0.809021 0
    outer loop
      vertex 31.8734 19.1739 0
      vertex 29.125 17.1771 4.5
      vertex 31.8734 19.1739 4.5
    endloop
  endfacet
  facet normal -0.58778 0.809021 0
    outer loop
      vertex 29.125 17.1771 4.5
      vertex 31.8734 19.1739 0
      vertex 29.125 17.1771 0
    endloop
  endfacet
  facet normal 0.58778 0.809021 -0
    outer loop
      vertex 12.875 17.1771 0
      vertex 10.1266 19.1739 4.5
      vertex 12.875 17.1771 4.5
    endloop
  endfacet
  facet normal 0.58778 0.809021 0
    outer loop
      vertex 10.1266 19.1739 4.5
      vertex 12.875 17.1771 0
      vertex 10.1266 19.1739 0
    endloop
  endfacet
  facet normal -0.58778 -0.809021 0
    outer loop
      vertex 29.125 45.3229 0
      vertex 31.8734 43.3261 4.5
      vertex 29.125 45.3229 4.5
    endloop
  endfacet
  facet normal -0.58778 -0.809021 -0
    outer loop
      vertex 31.8734 43.3261 4.5
      vertex 29.125 45.3229 0
      vertex 31.8734 43.3261 0
    endloop
  endfacet
  facet normal -0.743154 0.669121 0
    outer loop
      vertex 31.8734 19.1739 0
      vertex 34.1465 21.6985 4.5
      vertex 34.1465 21.6985 0
    endloop
  endfacet
  facet normal -0.743154 0.669121 0
    outer loop
      vertex 34.1465 21.6985 4.5
      vertex 31.8734 19.1739 0
      vertex 31.8734 19.1739 4.5
    endloop
  endfacet
  facet normal 0.866023 0.500003 0
    outer loop
      vertex 7.85347 21.6985 4.5
      vertex 6.15489 24.6405 0
      vertex 6.15489 24.6405 4.5
    endloop
  endfacet
  facet normal 0.866023 0.500003 0
    outer loop
      vertex 6.15489 24.6405 0
      vertex 7.85347 21.6985 4.5
      vertex 7.85347 21.6985 0
    endloop
  endfacet
  facet normal 0.743149 0.669126 0
    outer loop
      vertex 10.1266 19.1739 4.5
      vertex 7.85347 21.6985 0
      vertex 7.85347 21.6985 4.5
    endloop
  endfacet
  facet normal 0.743149 0.669126 0
    outer loop
      vertex 7.85347 21.6985 0
      vertex 10.1266 19.1739 4.5
      vertex 10.1266 19.1739 0
    endloop
  endfacet
  facet normal -0.951055 0.309022 0
    outer loop
      vertex 35.8451 24.6405 0
      vertex 36.8949 27.8714 4.5
      vertex 36.8949 27.8714 0
    endloop
  endfacet
  facet normal -0.951055 0.309022 0
    outer loop
      vertex 36.8949 27.8714 4.5
      vertex 35.8451 24.6405 0
      vertex 35.8451 24.6405 4.5
    endloop
  endfacet
  facet normal 0.994522 0.104527 0
    outer loop
      vertex 5.1051 27.8714 4.5
      vertex 4.75 31.25 0
      vertex 4.75 31.25 4.5
    endloop
  endfacet
  facet normal 0.994522 0.104527 0
    outer loop
      vertex 4.75 31.25 0
      vertex 5.1051 27.8714 4.5
      vertex 5.1051 27.8714 0
    endloop
  endfacet
  facet normal -1 0 0
    outer loop
      vertex 86.375 45.7248 0
      vertex 86.375 47.5 10.5
      vertex 86.375 47.5 0
    endloop
  endfacet
  facet normal -1 -0 0
    outer loop
      vertex 86.375 47.5 10.5
      vertex 86.375 45.7248 0
      vertex 86.375 45.7248 10.5
    endloop
  endfacet
  facet normal -0 0 1
    outer loop
      vertex 39.4993 35.4864 10.5
      vertex 44.75 32.5 10.5
      vertex 44.75 47.5 10.5
    endloop
  endfacet
  facet normal 0 0 1
    outer loop
      vertex 44.75 32.5 10.5
      vertex 40.8075 31.4602 10.5
      vertex 41.25 27.25 10.5
    endloop
  endfacet
  facet normal 0 0 1
    outer loop
      vertex 44.75 32.5 10.5
      vertex 39.4993 35.4864 10.5
      vertex 40.8075 31.4602 10.5
    endloop
  endfacet
  facet normal 0 0 1
    outer loop
      vertex 44.75 47.5 10.5
      vertex 37.3826 39.1526 10.5
      vertex 39.4993 35.4864 10.5
    endloop
  endfacet
  facet normal 0 0 1
    outer loop
      vertex 44.75 47.5 10.5
      vertex 34.5499 42.2987 10.5
      vertex 37.3826 39.1526 10.5
    endloop
  endfacet
  facet normal -0 0 1
    outer loop
      vertex 31.125 47.5 10.5
      vertex 34.5499 42.2987 10.5
      vertex 44.75 47.5 10.5
    endloop
  endfacet
  facet normal 0 0 1
    outer loop
      vertex 34.5499 42.2987 10.5
      vertex 31.125 47.5 10.5
      vertex 31.125 44.787 10.5
    endloop
  endfacet
  facet normal 0 0 1
    outer loop
      vertex 73.125 47.5 10.5
      vertex 70.884 44.0967 10.5
      vertex 73.125 45.7248 10.5
    endloop
  endfacet
  facet normal -0 0 1
    outer loop
      vertex 59.75 47.5 10.5
      vertex 70.884 44.0967 10.5
      vertex 73.125 47.5 10.5
    endloop
  endfacet
  facet normal 0 0 1
    outer loop
      vertex 59.75 32.5 10.5
      vertex 66.7895 37.0048 10.5
      vertex 59.75 47.5 10.5
    endloop
  endfacet
  facet normal 0 0 1
    outer loop
      vertex 67.6455 39.6393 10.5
      vertex 59.75 47.5 10.5
      vertex 66.7895 37.0048 10.5
    endloop
  endfacet
  facet normal 0 0 1
    outer loop
      vertex 69.0305 42.0382 10.5
      vertex 59.75 47.5 10.5
      vertex 67.6455 39.6393 10.5
    endloop
  endfacet
  facet normal 0 0 1
    outer loop
      vertex 70.884 44.0967 10.5
      vertex 59.75 47.5 10.5
      vertex 69.0305 42.0382 10.5
    endloop
  endfacet
  facet normal 0 0 1
    outer loop
      vertex 98 89.5 10.5
      vertex 93 34.25 10.5
      vertex 98 5 10.5
    endloop
  endfacet
  facet normal 0 0 1
    outer loop
      vertex 98 89.5 10.5
      vertex 92.7105 37.0048 10.5
      vertex 93 34.25 10.5
    endloop
  endfacet
  facet normal 0 0 1
    outer loop
      vertex 98 89.5 10.5
      vertex 91.8545 39.6393 10.5
      vertex 92.7105 37.0048 10.5
    endloop
  endfacet
  facet normal -0 0 1
    outer loop
      vertex 89.5 47.5 10.5
      vertex 91.8545 39.6393 10.5
      vertex 98 89.5 10.5
    endloop
  endfacet
  facet normal 0 0 1
    outer loop
      vertex 89.5 47.5 10.5
      vertex 98 89.5 10.5
      vertex 89.5 89.5 10.5
    endloop
  endfacet
  facet normal 0 0 1
    outer loop
      vertex 91.8545 39.6393 10.5
      vertex 89.5 47.5 10.5
      vertex 90.4695 42.0382 10.5
    endloop
  endfacet
  facet normal 0 0 1
    outer loop
      vertex 89.5 47.5 10.5
      vertex 88.616 44.0967 10.5
      vertex 90.4695 42.0382 10.5
    endloop
  endfacet
  facet normal 0 0 1
    outer loop
      vertex 86.375 45.7248 10.5
      vertex 89.5 47.5 10.5
      vertex 86.375 47.5 10.5
    endloop
  endfacet
  facet normal 0 0 1
    outer loop
      vertex 89.5 47.5 10.5
      vertex 86.375 45.7248 10.5
      vertex 88.616 44.0967 10.5
    endloop
  endfacet
  facet normal -0 0 1
    outer loop
      vertex 92.7105 31.4952 10.5
      vertex 98 5 10.5
      vertex 93 34.25 10.5
    endloop
  endfacet
  facet normal -0 0 1
    outer loop
      vertex 91.8545 28.8607 10.5
      vertex 98 5 10.5
      vertex 92.7105 31.4952 10.5
    endloop
  endfacet
  facet normal -0 0 1
    outer loop
      vertex 90.4695 26.4618 10.5
      vertex 98 5 10.5
      vertex 91.8545 28.8607 10.5
    endloop
  endfacet
  facet normal -0 0 1
    outer loop
      vertex 88.616 24.4033 10.5
      vertex 98 5 10.5
      vertex 90.4695 26.4618 10.5
    endloop
  endfacet
  facet normal -0 0 1
    outer loop
      vertex 86.375 22.7752 10.5
      vertex 98 5 10.5
      vertex 88.616 24.4033 10.5
    endloop
  endfacet
  facet normal -0 0 1
    outer loop
      vertex 83.8445 21.6485 10.5
      vertex 98 5 10.5
      vertex 86.375 22.7752 10.5
    endloop
  endfacet
  facet normal -0 0 1
    outer loop
      vertex 81.135 21.0726 10.5
      vertex 98 5 10.5
      vertex 83.8445 21.6485 10.5
    endloop
  endfacet
  facet normal -0 0 1
    outer loop
      vertex 78.365 21.0726 10.5
      vertex 98 5 10.5
      vertex 81.135 21.0726 10.5
    endloop
  endfacet
  facet normal 0 0 1
    outer loop
      vertex 75.6555 21.6485 10.5
      vertex 98 5 10.5
      vertex 78.365 21.0726 10.5
    endloop
  endfacet
  facet normal 0 0 1
    outer loop
      vertex 37.3826 15.3473 10.5
      vertex 75.6555 21.6485 10.5
      vertex 73.125 22.7752 10.5
    endloop
  endfacet
  facet normal 0 0 1
    outer loop
      vertex 66.7895 37.0048 10.5
      vertex 59.75 32.5 10.5
      vertex 66.5 34.25 10.5
    endloop
  endfacet
  facet normal 0 0 1
    outer loop
      vertex 66.5 34.25 10.5
      vertex 59.75 32.5 10.5
      vertex 66.7895 31.4952 10.5
    endloop
  endfacet
  facet normal 0 0 1
    outer loop
      vertex 66.7895 31.4952 10.5
      vertex 59.75 32.5 10.5
      vertex 67.6455 28.8607 10.5
    endloop
  endfacet
  facet normal 0 0 1
    outer loop
      vertex 59.75 32.5 10.5
      vertex 69.0305 26.4618 10.5
      vertex 67.6455 28.8607 10.5
    endloop
  endfacet
  facet normal 0 0 1
    outer loop
      vertex 40.8075 23.0398 10.5
      vertex 69.0305 26.4618 10.5
      vertex 59.75 32.5 10.5
    endloop
  endfacet
  facet normal 0 0 1
    outer loop
      vertex 40.8075 23.0398 10.5
      vertex 59.75 32.5 10.5
      vertex 44.75 32.5 10.5
    endloop
  endfacet
  facet normal 0 0 1
    outer loop
      vertex 39.4993 19.0136 10.5
      vertex 69.0305 26.4618 10.5
      vertex 40.8075 23.0398 10.5
    endloop
  endfacet
  facet normal 0 0 1
    outer loop
      vertex 69.0305 26.4618 10.5
      vertex 39.4993 19.0136 10.5
      vertex 70.884 24.4033 10.5
    endloop
  endfacet
  facet normal 0 0 1
    outer loop
      vertex 40.8075 23.0398 10.5
      vertex 44.75 32.5 10.5
      vertex 41.25 27.25 10.5
    endloop
  endfacet
  facet normal 0 0 1
    outer loop
      vertex 37.3826 15.3473 10.5
      vertex 70.884 24.4033 10.5
      vertex 39.4993 19.0136 10.5
    endloop
  endfacet
  facet normal 0 0 1
    outer loop
      vertex 70.884 24.4033 10.5
      vertex 37.3826 15.3473 10.5
      vertex 73.125 22.7752 10.5
    endloop
  endfacet
  facet normal 0 0 1
    outer loop
      vertex 75.6555 21.6485 10.5
      vertex 37.3826 15.3473 10.5
      vertex 34.5499 12.2013 10.5
    endloop
  endfacet
  facet normal 0 0 1
    outer loop
      vertex 75.6555 21.6485 10.5
      vertex 34.5499 12.2013 10.5
      vertex 98 5 10.5
    endloop
  endfacet
  facet normal -0 0 1
    outer loop
      vertex 31.125 9.71299 10.5
      vertex 98 5 10.5
      vertex 34.5499 12.2013 10.5
    endloop
  endfacet
  facet normal -0 0 1
    outer loop
      vertex 27.2576 7.99111 10.5
      vertex 98 5 10.5
      vertex 31.125 9.71299 10.5
    endloop
  endfacet
  facet normal -0 0 1
    outer loop
      vertex 23.1167 7.11093 10.5
      vertex 98 5 10.5
      vertex 27.2576 7.99111 10.5
    endloop
  endfacet
  facet normal 0 0 1
    outer loop
      vertex 13.5 5 10.5
      vertex 23.1167 7.11093 10.5
      vertex 18.8833 7.11093 10.5
    endloop
  endfacet
  facet normal 0 0 1
    outer loop
      vertex 23.1167 7.11093 10.5
      vertex 13.5 5 10.5
      vertex 98 5 10.5
    endloop
  endfacet
  facet normal 0 0 1
    outer loop
      vertex 14.7424 7.99111 10.5
      vertex 13.5 5 10.5
      vertex 18.8833 7.11093 10.5
    endloop
  endfacet
  facet normal 0 0 1
    outer loop
      vertex 13.5 5 10.5
      vertex 14.7424 7.99111 10.5
      vertex 13.5 8.54426 10.5
    endloop
  endfacet
  facet normal 1 -0 0
    outer loop
      vertex 73.125 45.7248 10.5
      vertex 73.125 47.5 0
      vertex 73.125 47.5 10.5
    endloop
  endfacet
  facet normal 1 0 0
    outer loop
      vertex 73.125 47.5 0
      vertex 73.125 45.7248 10.5
      vertex 73.125 45.7248 0
    endloop
  endfacet
  facet normal -0.951057 -0.309017 0
    outer loop
      vertex 92.7105 37.0048 0
      vertex 91.8545 39.6393 10.5
      vertex 91.8545 39.6393 0
    endloop
  endfacet
  facet normal -0.951057 -0.309017 0
    outer loop
      vertex 91.8545 39.6393 10.5
      vertex 92.7105 37.0048 0
      vertex 92.7105 37.0048 10.5
    endloop
  endfacet
  facet normal -0.994523 -0.104514 0
    outer loop
      vertex 93 34.25 0
      vertex 92.7105 37.0048 10.5
      vertex 92.7105 37.0048 0
    endloop
  endfacet
  facet normal -0.994523 -0.104514 0
    outer loop
      vertex 92.7105 37.0048 10.5
      vertex 93 34.25 0
      vertex 93 34.25 10.5
    endloop
  endfacet
  facet normal -0.866026 -0.499998 0
    outer loop
      vertex 91.8545 39.6393 0
      vertex 90.4695 42.0382 10.5
      vertex 90.4695 42.0382 0
    endloop
  endfacet
  facet normal -0.866026 -0.499998 0
    outer loop
      vertex 90.4695 42.0382 10.5
      vertex 91.8545 39.6393 0
      vertex 91.8545 39.6393 10.5
    endloop
  endfacet
  facet normal -0.994523 0.104514 0
    outer loop
      vertex 92.7105 31.4952 0
      vertex 93 34.25 10.5
      vertex 93 34.25 0
    endloop
  endfacet
  facet normal -0.994523 0.104514 0
    outer loop
      vertex 93 34.25 10.5
      vertex 92.7105 31.4952 0
      vertex 92.7105 31.4952 10.5
    endloop
  endfacet
  facet normal 0.743142 -0.669134 0
    outer loop
      vertex 69.0305 42.0382 10.5
      vertex 70.884 44.0967 0
      vertex 70.884 44.0967 10.5
    endloop
  endfacet
  facet normal 0.743142 -0.669134 0
    outer loop
      vertex 70.884 44.0967 0
      vertex 69.0305 42.0382 10.5
      vertex 69.0305 42.0382 0
    endloop
  endfacet
  facet normal 0.587766 -0.809031 0
    outer loop
      vertex 70.884 44.0967 0
      vertex 73.125 45.7248 10.5
      vertex 70.884 44.0967 10.5
    endloop
  endfacet
  facet normal 0.587766 -0.809031 0
    outer loop
      vertex 73.125 45.7248 10.5
      vertex 70.884 44.0967 0
      vertex 73.125 45.7248 0
    endloop
  endfacet
  facet normal -0.743142 -0.669134 0
    outer loop
      vertex 90.4695 42.0382 0
      vertex 88.616 44.0967 10.5
      vertex 88.616 44.0967 0
    endloop
  endfacet
  facet normal -0.743142 -0.669134 0
    outer loop
      vertex 88.616 44.0967 10.5
      vertex 90.4695 42.0382 0
      vertex 90.4695 42.0382 10.5
    endloop
  endfacet
  facet normal -0.951057 0.309017 0
    outer loop
      vertex 91.8545 28.8607 0
      vertex 92.7105 31.4952 10.5
      vertex 92.7105 31.4952 0
    endloop
  endfacet
  facet normal -0.951057 0.309017 0
    outer loop
      vertex 92.7105 31.4952 10.5
      vertex 91.8545 28.8607 0
      vertex 91.8545 28.8607 10.5
    endloop
  endfacet
  facet normal 0.406751 0.913539 -0
    outer loop
      vertex 75.6555 21.6485 0
      vertex 73.125 22.7752 10.5
      vertex 75.6555 21.6485 10.5
    endloop
  endfacet
  facet normal 0.406751 0.913539 0
    outer loop
      vertex 73.125 22.7752 10.5
      vertex 75.6555 21.6485 0
      vertex 73.125 22.7752 0
    endloop
  endfacet
  facet normal 0.866026 0.499998 0
    outer loop
      vertex 69.0305 26.4618 10.5
      vertex 67.6455 28.8607 0
      vertex 67.6455 28.8607 10.5
    endloop
  endfacet
  facet normal 0.866026 0.499998 0
    outer loop
      vertex 67.6455 28.8607 0
      vertex 69.0305 26.4618 10.5
      vertex 69.0305 26.4618 0
    endloop
  endfacet
  facet normal 0.951057 -0.309017 0
    outer loop
      vertex 66.7895 37.0048 10.5
      vertex 67.6455 39.6393 0
      vertex 67.6455 39.6393 10.5
    endloop
  endfacet
  facet normal 0.951057 -0.309017 0
    outer loop
      vertex 67.6455 39.6393 0
      vertex 66.7895 37.0048 10.5
      vertex 66.7895 37.0048 0
    endloop
  endfacet
  facet normal 0.207904 0.978149 -0
    outer loop
      vertex 78.365 21.0726 0
      vertex 75.6555 21.6485 10.5
      vertex 78.365 21.0726 10.5
    endloop
  endfacet
  facet normal 0.207904 0.978149 0
    outer loop
      vertex 75.6555 21.6485 10.5
      vertex 78.365 21.0726 0
      vertex 75.6555 21.6485 0
    endloop
  endfacet
  facet normal 0.951057 0.309017 0
    outer loop
      vertex 67.6455 28.8607 10.5
      vertex 66.7895 31.4952 0
      vertex 66.7895 31.4952 10.5
    endloop
  endfacet
  facet normal 0.951057 0.309017 0
    outer loop
      vertex 66.7895 31.4952 0
      vertex 67.6455 28.8607 10.5
      vertex 67.6455 28.8607 0
    endloop
  endfacet
  facet normal 0.994523 -0.104514 0
    outer loop
      vertex 66.5 34.25 10.5
      vertex 66.7895 37.0048 0
      vertex 66.7895 37.0048 10.5
    endloop
  endfacet
  facet normal 0.994523 -0.104514 0
    outer loop
      vertex 66.7895 37.0048 0
      vertex 66.5 34.25 10.5
      vertex 66.5 34.25 0
    endloop
  endfacet
  facet normal -0.743142 0.669134 0
    outer loop
      vertex 88.616 24.4033 0
      vertex 90.4695 26.4618 10.5
      vertex 90.4695 26.4618 0
    endloop
  endfacet
  facet normal -0.743142 0.669134 0
    outer loop
      vertex 90.4695 26.4618 10.5
      vertex 88.616 24.4033 0
      vertex 88.616 24.4033 10.5
    endloop
  endfacet
  facet normal -0.207904 0.978149 0
    outer loop
      vertex 83.8445 21.6485 0
      vertex 81.135 21.0726 10.5
      vertex 83.8445 21.6485 10.5
    endloop
  endfacet
  facet normal -0.207904 0.978149 0
    outer loop
      vertex 81.135 21.0726 10.5
      vertex 83.8445 21.6485 0
      vertex 81.135 21.0726 0
    endloop
  endfacet
  facet normal -0.866026 0.499998 0
    outer loop
      vertex 90.4695 26.4618 0
      vertex 91.8545 28.8607 10.5
      vertex 91.8545 28.8607 0
    endloop
  endfacet
  facet normal -0.866026 0.499998 0
    outer loop
      vertex 91.8545 28.8607 10.5
      vertex 90.4695 26.4618 0
      vertex 90.4695 26.4618 10.5
    endloop
  endfacet
  facet normal -0.587766 0.809031 0
    outer loop
      vertex 88.616 24.4033 0
      vertex 86.375 22.7752 10.5
      vertex 88.616 24.4033 10.5
    endloop
  endfacet
  facet normal -0.587766 0.809031 0
    outer loop
      vertex 86.375 22.7752 10.5
      vertex 88.616 24.4033 0
      vertex 86.375 22.7752 0
    endloop
  endfacet
  facet normal -0.587766 -0.809031 0
    outer loop
      vertex 86.375 45.7248 0
      vertex 88.616 44.0967 10.5
      vertex 86.375 45.7248 10.5
    endloop
  endfacet
  facet normal -0.587766 -0.809031 -0
    outer loop
      vertex 88.616 44.0967 10.5
      vertex 86.375 45.7248 0
      vertex 88.616 44.0967 0
    endloop
  endfacet
  facet normal 0 1 -0
    outer loop
      vertex 81.135 21.0726 0
      vertex 78.365 21.0726 10.5
      vertex 81.135 21.0726 10.5
    endloop
  endfacet
  facet normal 0 1 0
    outer loop
      vertex 78.365 21.0726 10.5
      vertex 81.135 21.0726 0
      vertex 78.365 21.0726 0
    endloop
  endfacet
  facet normal 0.994523 0.104514 0
    outer loop
      vertex 66.7895 31.4952 10.5
      vertex 66.5 34.25 0
      vertex 66.5 34.25 10.5
    endloop
  endfacet
  facet normal 0.994523 0.104514 0
    outer loop
      vertex 66.5 34.25 0
      vertex 66.7895 31.4952 10.5
      vertex 66.7895 31.4952 0
    endloop
  endfacet
  facet normal -0.406751 0.913539 0
    outer loop
      vertex 86.375 22.7752 0
      vertex 83.8445 21.6485 10.5
      vertex 86.375 22.7752 10.5
    endloop
  endfacet
  facet normal -0.406751 0.913539 0
    outer loop
      vertex 83.8445 21.6485 10.5
      vertex 86.375 22.7752 0
      vertex 83.8445 21.6485 0
    endloop
  endfacet
  facet normal 0.743142 0.669134 0
    outer loop
      vertex 70.884 24.4033 10.5
      vertex 69.0305 26.4618 0
      vertex 69.0305 26.4618 10.5
    endloop
  endfacet
  facet normal 0.743142 0.669134 0
    outer loop
      vertex 69.0305 26.4618 0
      vertex 70.884 24.4033 10.5
      vertex 70.884 24.4033 0
    endloop
  endfacet
  facet normal 0.587766 0.809031 -0
    outer loop
      vertex 73.125 22.7752 0
      vertex 70.884 24.4033 10.5
      vertex 73.125 22.7752 10.5
    endloop
  endfacet
  facet normal 0.587766 0.809031 0
    outer loop
      vertex 70.884 24.4033 10.5
      vertex 73.125 22.7752 0
      vertex 70.884 24.4033 0
    endloop
  endfacet
  facet normal 0.866026 -0.499998 0
    outer loop
      vertex 67.6455 39.6393 10.5
      vertex 69.0305 42.0382 0
      vertex 69.0305 42.0382 10.5
    endloop
  endfacet
  facet normal 0.866026 -0.499998 0
    outer loop
      vertex 69.0305 42.0382 0
      vertex 67.6455 39.6393 10.5
      vertex 67.6455 39.6393 0
    endloop
  endfacet
  facet normal -1 0 0
    outer loop
      vertex 31.125 44.787 4.5
      vertex 31.125 47.5 10.5
      vertex 31.125 47.5 4.5
    endloop
  endfacet
  facet normal -1 -0 0
    outer loop
      vertex 31.125 47.5 10.5
      vertex 31.125 44.787 4.5
      vertex 31.125 44.787 10.5
    endloop
  endfacet
  facet normal 1 -0 0
    outer loop
      vertex 10.875 44.787 24
      vertex 10.875 47.5 4.5
      vertex 10.875 47.5 24
    endloop
  endfacet
  facet normal 1 0 0
    outer loop
      vertex 10.875 47.5 4.5
      vertex 10.875 44.787 24
      vertex 10.875 44.787 4.5
    endloop
  endfacet
  facet normal 0.743141 0.669134 0
    outer loop
      vertex 7.45011 12.2013 24
      vertex 4.61741 15.3473 4.5
      vertex 4.61741 15.3473 24
    endloop
  endfacet
  facet normal 0.743141 0.669134 0
    outer loop
      vertex 4.61741 15.3473 4.5
      vertex 7.45011 12.2013 24
      vertex 7.45011 12.2013 4.5
    endloop
  endfacet
  facet normal -0.951056 -0.309019 0
    outer loop
      vertex 40.8075 31.4602 4.5
      vertex 39.4993 35.4864 10.5
      vertex 39.4993 35.4864 4.5
    endloop
  endfacet
  facet normal -0.951056 -0.309019 0
    outer loop
      vertex 39.4993 35.4864 10.5
      vertex 40.8075 31.4602 4.5
      vertex 40.8075 31.4602 10.5
    endloop
  endfacet
  facet normal -0.994522 -0.104526 0
    outer loop
      vertex 41.25 27.25 4.5
      vertex 40.8075 31.4602 10.5
      vertex 40.8075 31.4602 4.5
    endloop
  endfacet
  facet normal -0.994522 -0.104526 0
    outer loop
      vertex 40.8075 31.4602 10.5
      vertex 41.25 27.25 4.5
      vertex 41.25 27.25 10.5
    endloop
  endfacet
  facet normal -0.866024 -0.500003 0
    outer loop
      vertex 39.4993 35.4864 4.5
      vertex 37.3826 39.1526 10.5
      vertex 37.3826 39.1526 4.5
    endloop
  endfacet
  facet normal -0.866024 -0.500003 0
    outer loop
      vertex 37.3826 39.1526 10.5
      vertex 39.4993 35.4864 4.5
      vertex 39.4993 35.4864 10.5
    endloop
  endfacet
  facet normal -0.951056 0.309019 0
    outer loop
      vertex 39.4993 19.0136 4.5
      vertex 40.8075 23.0398 10.5
      vertex 40.8075 23.0398 4.5
    endloop
  endfacet
  facet normal -0.951056 0.309019 0
    outer loop
      vertex 40.8075 23.0398 10.5
      vertex 39.4993 19.0136 4.5
      vertex 39.4993 19.0136 10.5
    endloop
  endfacet
  facet normal -0.587781 0.80902 0
    outer loop
      vertex 34.5499 12.2013 4.5
      vertex 31.125 9.71299 10.5
      vertex 34.5499 12.2013 10.5
    endloop
  endfacet
  facet normal -0.587781 0.80902 0
    outer loop
      vertex 31.125 9.71299 10.5
      vertex 34.5499 12.2013 4.5
      vertex 31.125 9.71299 4.5
    endloop
  endfacet
  facet normal -0.743141 0.669134 0
    outer loop
      vertex 34.5499 12.2013 4.5
      vertex 37.3826 15.3473 10.5
      vertex 37.3826 15.3473 4.5
    endloop
  endfacet
  facet normal -0.743141 0.669134 0
    outer loop
      vertex 37.3826 15.3473 10.5
      vertex 34.5499 12.2013 4.5
      vertex 34.5499 12.2013 10.5
    endloop
  endfacet
  facet normal -0.994522 0.104526 0
    outer loop
      vertex 40.8075 23.0398 4.5
      vertex 41.25 27.25 10.5
      vertex 41.25 27.25 4.5
    endloop
  endfacet
  facet normal -0.994522 0.104526 0
    outer loop
      vertex 41.25 27.25 10.5
      vertex 40.8075 23.0398 4.5
      vertex 40.8075 23.0398 10.5
    endloop
  endfacet
  facet normal 0.406735 0.913546 0
    outer loop
      vertex 14.7424 7.99111 10.5
      vertex 14.7424 7.99111 4.5
      vertex 13.5 8.54426 10.5
    endloop
  endfacet
  facet normal 0.406738 0.913545 -0
    outer loop
      vertex 13.5 8.54426 10.5
      vertex 10.875 9.71299 24
      vertex 13.5 8.54426 24
    endloop
  endfacet
  facet normal 0.406738 0.913545 0
    outer loop
      vertex 13.5 8.54426 10.5
      vertex 10.875 9.71299 4.5
      vertex 10.875 9.71299 24
    endloop
  endfacet
  facet normal 0.406737 0.913545 4.48891e-07
    outer loop
      vertex 10.875 9.71299 4.5
      vertex 13.5 8.54426 10.5
      vertex 14.7424 7.99111 4.5
    endloop
  endfacet
  facet normal -0.743152 -0.669123 0
    outer loop
      vertex 37.3826 39.1526 4.5
      vertex 34.5499 42.2987 10.5
      vertex 34.5499 42.2987 4.5
    endloop
  endfacet
  facet normal -0.743152 -0.669123 0
    outer loop
      vertex 34.5499 42.2987 10.5
      vertex 37.3826 39.1526 4.5
      vertex 37.3826 39.1526 10.5
    endloop
  endfacet
  facet normal 0.587782 0.809019 -0
    outer loop
      vertex 10.875 9.71299 4.5
      vertex 7.45011 12.2013 24
      vertex 10.875 9.71299 24
    endloop
  endfacet
  facet normal 0.587782 0.809019 0
    outer loop
      vertex 7.45011 12.2013 24
      vertex 10.875 9.71299 4.5
      vertex 7.45011 12.2013 4.5
    endloop
  endfacet
  facet normal 0.743152 -0.669123 0
    outer loop
      vertex 4.61741 39.1526 24
      vertex 7.45011 42.2987 4.5
      vertex 7.45011 42.2987 24
    endloop
  endfacet
  facet normal 0.743152 -0.669123 0
    outer loop
      vertex 7.45011 42.2987 4.5
      vertex 4.61741 39.1526 24
      vertex 4.61741 39.1526 4.5
    endloop
  endfacet
  facet normal -0.406737 0.913545 0
    outer loop
      vertex 31.125 9.71299 4.5
      vertex 27.2576 7.99111 10.5
      vertex 31.125 9.71299 10.5
    endloop
  endfacet
  facet normal -0.406737 0.913545 0
    outer loop
      vertex 27.2576 7.99111 10.5
      vertex 31.125 9.71299 4.5
      vertex 27.2576 7.99111 4.5
    endloop
  endfacet
  facet normal -0.207913 0.978147 0
    outer loop
      vertex 27.2576 7.99111 4.5
      vertex 23.1167 7.11093 10.5
      vertex 27.2576 7.99111 10.5
    endloop
  endfacet
  facet normal -0.207913 0.978147 0
    outer loop
      vertex 23.1167 7.11093 10.5
      vertex 27.2576 7.99111 4.5
      vertex 23.1167 7.11093 4.5
    endloop
  endfacet
  facet normal 0.951057 -0.309017 0
    outer loop
      vertex 1.19251 31.4602 24
      vertex 2.5007 35.4864 4.5
      vertex 2.5007 35.4864 24
    endloop
  endfacet
  facet normal 0.951057 -0.309017 0
    outer loop
      vertex 2.5007 35.4864 4.5
      vertex 1.19251 31.4602 24
      vertex 1.19251 31.4602 4.5
    endloop
  endfacet
  facet normal 0.951057 0.309017 0
    outer loop
      vertex 2.5007 19.0136 24
      vertex 1.19251 23.0398 4.5
      vertex 1.19251 23.0398 24
    endloop
  endfacet
  facet normal 0.951057 0.309017 0
    outer loop
      vertex 1.19251 23.0398 4.5
      vertex 2.5007 19.0136 24
      vertex 2.5007 19.0136 4.5
    endloop
  endfacet
  facet normal 0.207913 0.978147 -0
    outer loop
      vertex 18.8833 7.11093 4.5
      vertex 14.7424 7.99111 10.5
      vertex 18.8833 7.11093 10.5
    endloop
  endfacet
  facet normal 0.207913 0.978147 0
    outer loop
      vertex 14.7424 7.99111 10.5
      vertex 18.8833 7.11093 4.5
      vertex 14.7424 7.99111 4.5
    endloop
  endfacet
  facet normal 0.994522 0.104528 0
    outer loop
      vertex 1.19251 23.0398 24
      vertex 0.75 27.25 4.5
      vertex 0.75 27.25 24
    endloop
  endfacet
  facet normal 0.994522 0.104528 0
    outer loop
      vertex 0.75 27.25 4.5
      vertex 1.19251 23.0398 24
      vertex 1.19251 23.0398 4.5
    endloop
  endfacet
  facet normal 0.866028 0.499995 0
    outer loop
      vertex 4.61741 15.3473 24
      vertex 2.5007 19.0136 4.5
      vertex 2.5007 19.0136 24
    endloop
  endfacet
  facet normal 0.866028 0.499995 0
    outer loop
      vertex 2.5007 19.0136 4.5
      vertex 4.61741 15.3473 24
      vertex 4.61741 15.3473 4.5
    endloop
  endfacet
  facet normal 0.866022 -0.500005 0
    outer loop
      vertex 2.5007 35.4864 24
      vertex 4.61741 39.1526 4.5
      vertex 4.61741 39.1526 24
    endloop
  endfacet
  facet normal 0.866022 -0.500005 0
    outer loop
      vertex 4.61741 39.1526 4.5
      vertex 2.5007 35.4864 24
      vertex 2.5007 35.4864 4.5
    endloop
  endfacet
  facet normal -0.866029 0.499993 0
    outer loop
      vertex 37.3826 15.3473 4.5
      vertex 39.4993 19.0136 10.5
      vertex 39.4993 19.0136 4.5
    endloop
  endfacet
  facet normal -0.866029 0.499993 0
    outer loop
      vertex 39.4993 19.0136 10.5
      vertex 37.3826 15.3473 4.5
      vertex 37.3826 15.3473 10.5
    endloop
  endfacet
  facet normal -0.58778 -0.809021 0
    outer loop
      vertex 31.125 44.787 4.5
      vertex 34.5499 42.2987 10.5
      vertex 31.125 44.787 10.5
    endloop
  endfacet
  facet normal -0.58778 -0.809021 -0
    outer loop
      vertex 34.5499 42.2987 10.5
      vertex 31.125 44.787 4.5
      vertex 34.5499 42.2987 4.5
    endloop
  endfacet
  facet normal 0.587781 -0.80902 0
    outer loop
      vertex 7.45011 42.2987 4.5
      vertex 10.875 44.787 24
      vertex 7.45011 42.2987 24
    endloop
  endfacet
  facet normal 0.587781 -0.80902 0
    outer loop
      vertex 10.875 44.787 24
      vertex 7.45011 42.2987 4.5
      vertex 10.875 44.787 4.5
    endloop
  endfacet
  facet normal 0 1 -0
    outer loop
      vertex 23.1167 7.11093 4.5
      vertex 18.8833 7.11093 10.5
      vertex 23.1167 7.11093 10.5
    endloop
  endfacet
  facet normal 0 1 0
    outer loop
      vertex 18.8833 7.11093 10.5
      vertex 23.1167 7.11093 4.5
      vertex 18.8833 7.11093 4.5
    endloop
  endfacet
  facet normal 0.994522 -0.104528 0
    outer loop
      vertex 0.75 27.25 24
      vertex 1.19251 31.4602 4.5
      vertex 1.19251 31.4602 24
    endloop
  endfacet
  facet normal 0.994522 -0.104528 0
    outer loop
      vertex 1.19251 31.4602 4.5
      vertex 0.75 27.25 24
      vertex 0.75 27.25 4.5
    endloop
  endfacet
  facet normal -1 0 0
    outer loop
      vertex 59.75 32.5 0
      vertex 59.75 47.5 10.5
      vertex 59.75 47.5 0
    endloop
  endfacet
  facet normal -1 -0 0
    outer loop
      vertex 59.75 47.5 10.5
      vertex 59.75 32.5 0
      vertex 59.75 32.5 10.5
    endloop
  endfacet
  facet normal -0 0 1
    outer loop
      vertex 5 47.5 24
      vertex 10.875 44.787 24
      vertex 10.875 47.5 24
    endloop
  endfacet
  facet normal 0 0 1
    outer loop
      vertex 10.875 44.787 24
      vertex 5 47.5 24
      vertex 7.45011 42.2987 24
    endloop
  endfacet
  facet normal 0 0 1
    outer loop
      vertex 7.45011 42.2987 24
      vertex 5 47.5 24
      vertex 4.61741 39.1526 24
    endloop
  endfacet
  facet normal 0 0 1
    outer loop
      vertex 13.5 8.54426 24
      vertex 10.875 9.71299 24
      vertex 13.5 5 24
    endloop
  endfacet
  facet normal 0 0 1
    outer loop
      vertex 103 103 24
      vertex 98 89.5 24
      vertex 103 0 24
    endloop
  endfacet
  facet normal 0 0 1
    outer loop
      vertex 103 103 24
      vertex 89.5 98 24
      vertex 98 89.5 24
    endloop
  endfacet
  facet normal -0 0 1
    outer loop
      vertex 0 103 24
      vertex 89.5 98 24
      vertex 103 103 24
    endloop
  endfacet
  facet normal 0 0 1
    outer loop
      vertex 0 103 24
      vertex 5 47.5 24
      vertex 5 98 24
    endloop
  endfacet
  facet normal 0 -0 1
    outer loop
      vertex 1.19251 31.4602 24
      vertex 5 47.5 24
      vertex 0 103 24
    endloop
  endfacet
  facet normal 0 0 1
    outer loop
      vertex 5 47.5 24
      vertex 2.5007 35.4864 24
      vertex 4.61741 39.1526 24
    endloop
  endfacet
  facet normal 0 0 1
    outer loop
      vertex 5 47.5 24
      vertex 1.19251 31.4602 24
      vertex 2.5007 35.4864 24
    endloop
  endfacet
  facet normal 0 0 1
    outer loop
      vertex 1.19251 31.4602 24
      vertex 0 103 24
      vertex 0.75 27.25 24
    endloop
  endfacet
  facet normal 0 0 1
    outer loop
      vertex 89.5 98 24
      vertex 0 103 24
      vertex 5 98 24
    endloop
  endfacet
  facet normal -0 0 1
    outer loop
      vertex 98 5 24
      vertex 103 0 24
      vertex 98 89.5 24
    endloop
  endfacet
  facet normal -0 0 1
    outer loop
      vertex 13.5 5 24
      vertex 103 0 24
      vertex 98 5 24
    endloop
  endfacet
  facet normal 0 0 1
    outer loop
      vertex 0 0 24
      vertex 10.875 9.71299 24
      vertex 7.45011 12.2013 24
    endloop
  endfacet
  facet normal 0 0 1
    outer loop
      vertex 0 0 24
      vertex 7.45011 12.2013 24
      vertex 4.61741 15.3473 24
    endloop
  endfacet
  facet normal 0 0 1
    outer loop
      vertex 13.5 5 24
      vertex 0 0 24
      vertex 103 0 24
    endloop
  endfacet
  facet normal 0 0 1
    outer loop
      vertex 10.875 9.71299 24
      vertex 0 0 24
      vertex 13.5 5 24
    endloop
  endfacet
  facet normal 0 0 1
    outer loop
      vertex 2.5007 19.0136 24
      vertex 0 0 24
      vertex 4.61741 15.3473 24
    endloop
  endfacet
  facet normal 0 0 1
    outer loop
      vertex 1.19251 23.0398 24
      vertex 0 0 24
      vertex 2.5007 19.0136 24
    endloop
  endfacet
  facet normal 0 0 1
    outer loop
      vertex 0.75 27.25 24
      vertex 0 0 24
      vertex 1.19251 23.0398 24
    endloop
  endfacet
  facet normal 0 0 1
    outer loop
      vertex 0 0 24
      vertex 0.75 27.25 24
      vertex 0 103 24
    endloop
  endfacet
  facet normal 0 0 1
    outer loop
      vertex 98 89.5 24
      vertex 89.5 98 24
      vertex 89.5 89.5 24
    endloop
  endfacet
  facet normal 1 -0 0
    outer loop
      vertex 44.75 32.5 10.5
      vertex 44.75 47.5 0
      vertex 44.75 47.5 10.5
    endloop
  endfacet
  facet normal 1 0 0
    outer loop
      vertex 44.75 47.5 0
      vertex 44.75 32.5 10.5
      vertex 44.75 32.5 0
    endloop
  endfacet
  facet normal 0 1 -0
    outer loop
      vertex 59.75 32.5 0
      vertex 44.75 32.5 10.5
      vertex 59.75 32.5 10.5
    endloop
  endfacet
  facet normal 0 1 0
    outer loop
      vertex 44.75 32.5 10.5
      vertex 59.75 32.5 0
      vertex 44.75 32.5 0
    endloop
  endfacet
  facet normal -1 0 0
    outer loop
      vertex 89.5 98 0
      vertex 89.5 89.5 10.5
      vertex 89.5 98 24
    endloop
  endfacet
  facet normal -1 0 0
    outer loop
      vertex 89.5 47.5 0
      vertex 89.5 89.5 10.5
      vertex 89.5 98 0
    endloop
  endfacet
  facet normal -1 -0 0
    outer loop
      vertex 89.5 89.5 10.5
      vertex 89.5 47.5 0
      vertex 89.5 47.5 10.5
    endloop
  endfacet
  facet normal -1 -0 0
    outer loop
      vertex 89.5 98 24
      vertex 89.5 89.5 10.5
      vertex 89.5 89.5 24
    endloop
  endfacet
  facet normal 1 -0 0
    outer loop
      vertex 5 47.5 24
      vertex 5 98 0
      vertex 5 98 24
    endloop
  endfacet
  facet normal 1 0 0
    outer loop
      vertex 5 98 0
      vertex 5 47.5 24
      vertex 5 47.5 0
    endloop
  endfacet
  facet normal 0 -1 0
    outer loop
      vertex 5 98 0
      vertex 89.5 98 24
      vertex 5 98 24
    endloop
  endfacet
  facet normal 0 -1 -0
    outer loop
      vertex 89.5 98 24
      vertex 5 98 0
      vertex 89.5 98 0
    endloop
  endfacet
  facet normal 0 1 0
    outer loop
      vertex 12.875 47.5 4.5
      vertex 12.875 47.5 0
      vertex 10.875 47.5 4.5
    endloop
  endfacet
  facet normal 0 1 -0
    outer loop
      vertex 10.875 47.5 4.5
      vertex 5 47.5 24
      vertex 10.875 47.5 24
    endloop
  endfacet
  facet normal 0 1 0
    outer loop
      vertex 10.875 47.5 4.5
      vertex 5 47.5 0
      vertex 5 47.5 24
    endloop
  endfacet
  facet normal 0 1 0
    outer loop
      vertex 5 47.5 0
      vertex 10.875 47.5 4.5
      vertex 12.875 47.5 0
    endloop
  endfacet
  facet normal 0 1 0
    outer loop
      vertex 44.75 47.5 10.5
      vertex 31.125 47.5 4.5
      vertex 31.125 47.5 10.5
    endloop
  endfacet
  facet normal 0 1 -0
    outer loop
      vertex 44.75 47.5 0
      vertex 31.125 47.5 4.5
      vertex 44.75 47.5 10.5
    endloop
  endfacet
  facet normal 0 1 0
    outer loop
      vertex 29.125 47.5 0
      vertex 31.125 47.5 4.5
      vertex 44.75 47.5 0
    endloop
  endfacet
  facet normal 0 1 0
    outer loop
      vertex 31.125 47.5 4.5
      vertex 29.125 47.5 0
      vertex 29.125 47.5 4.5
    endloop
  endfacet
  facet normal 0 1 -0
    outer loop
      vertex 73.125 47.5 0
      vertex 59.75 47.5 10.5
      vertex 73.125 47.5 10.5
    endloop
  endfacet
  facet normal 0 1 0
    outer loop
      vertex 59.75 47.5 10.5
      vertex 73.125 47.5 0
      vertex 59.75 47.5 0
    endloop
  endfacet
  facet normal 0 1 -0
    outer loop
      vertex 89.5 47.5 0
      vertex 86.375 47.5 10.5
      vertex 89.5 47.5 10.5
    endloop
  endfacet
  facet normal 0 1 0
    outer loop
      vertex 86.375 47.5 10.5
      vertex 89.5 47.5 0
      vertex 86.375 47.5 0
    endloop
  endfacet
  facet normal -1 0 0
    outer loop
      vertex 98 5 10.5
      vertex 98 89.5 24
      vertex 98 89.5 10.5
    endloop
  endfacet
  facet normal -1 -0 0
    outer loop
      vertex 98 89.5 24
      vertex 98 5 10.5
      vertex 98 5 24
    endloop
  endfacet
  facet normal 1 -0 0
    outer loop
      vertex 13.5 5 24
      vertex 13.5 8.54426 10.5
      vertex 13.5 8.54426 24
    endloop
  endfacet
  facet normal 1 0 0
    outer loop
      vertex 13.5 8.54426 10.5
      vertex 13.5 5 24
      vertex 13.5 5 10.5
    endloop
  endfacet
  facet normal 0 -1 0
    outer loop
      vertex 89.5 89.5 10.5
      vertex 98 89.5 24
      vertex 89.5 89.5 24
    endloop
  endfacet
  facet normal 0 -1 -0
    outer loop
      vertex 98 89.5 24
      vertex 89.5 89.5 10.5
      vertex 98 89.5 10.5
    endloop
  endfacet
  facet normal 0 1 -0
    outer loop
      vertex 98 5 10.5
      vertex 13.5 5 24
      vertex 98 5 24
    endloop
  endfacet
  facet normal 0 1 0
    outer loop
      vertex 13.5 5 24
      vertex 98 5 10.5
      vertex 13.5 5 10.5
    endloop
  endfacet
  facet normal 1 -0 0
    outer loop
      vertex 103 0 24
      vertex 103 103 0
      vertex 103 103 24
    endloop
  endfacet
  facet normal 1 0 0
    outer loop
      vertex 103 103 0
      vertex 103 0 24
      vertex 103 0 0
    endloop
  endfacet
  facet normal -1 0 0
    outer loop
      vertex 0 0 0
      vertex 0 103 24
      vertex 0 103 0
    endloop
  endfacet
  facet normal -1 -0 0
    outer loop
      vertex 0 103 24
      vertex 0 0 0
      vertex 0 0 24
    endloop
  endfacet
  facet normal 0 1 -0
    outer loop
      vertex 103 103 0
      vertex 0 103 24
      vertex 103 103 24
    endloop
  endfacet
  facet normal 0 1 0
    outer loop
      vertex 0 103 24
      vertex 103 103 0
      vertex 0 103 0
    endloop
  endfacet
  facet normal 0 -1 0
    outer loop
      vertex 0 0 0
      vertex 103 0 24
      vertex 0 0 24
    endloop
  endfacet
  facet normal 0 -1 -0
    outer loop
      vertex 103 0 24
      vertex 0 0 0
      vertex 103 0 0
    endloop
  endfacet
endsolid OpenSCAD_Model
