solid OpenSCAD_Model
  facet normal 0 0 -1
    outer loop
      vertex 17.5 2.5 0
      vertex 17.3426 17.5 0
      vertex 17.5 17.5 0
    endloop
  endfacet
  facet normal 0 0 -1
    outer loop
      vertex 17.5 2.5 0
      vertex 11.8684 17.5 0
      vertex 17.3426 17.5 0
    endloop
  endfacet
  facet normal 0 0 -1
    outer loop
      vertex 2.5 2.5 0
      vertex 11.8684 17.5 0
      vertex 17.5 2.5 0
    endloop
  endfacet
  facet normal -0 0 -1
    outer loop
      vertex 11.8684 17.5 0
      vertex 2.5 2.5 0
      vertex 2.5 17.5 0
    endloop
  endfacet
  facet normal 0 0 -1
    outer loop
      vertex 17.3426 17.5 0
      vertex 22.5 24.4655 0
      vertex 24.9742 22.5 0
    endloop
  endfacet
  facet normal 0 0 -1
    outer loop
      vertex 22.5 24.4655 0
      vertex 17.3426 17.5 0
      vertex 11.8684 17.5 0
    endloop
  endfacet
  facet normal 0 0 -1
    outer loop
      vertex 22.5 42.5 0
      vertex 37.5 46.6897 0
      vertex 37.5 42.5 0
    endloop
  endfacet
  facet normal -0 0 -1
    outer loop
      vertex 37.5 46.6897 0
      vertex 22.5 42.5 0
      vertex 37.5 50.2762 0
    endloop
  endfacet
  facet normal 0 0 -1
    outer loop
      vertex 37.5 50.2762 0
      vertex 26.4742 57.5 0
      vertex 37.5 57.5 0
    endloop
  endfacet
  facet normal -0 0 -1
    outer loop
      vertex 37.5 50.2762 0
      vertex 22.5 42.5 0
      vertex 26.4742 57.5 0
    endloop
  endfacet
  facet normal 0 0 -1
    outer loop
      vertex 22.5 56.5172 0
      vertex 26.4742 57.5 0
      vertex 22.5 42.5 0
    endloop
  endfacet
  facet normal 0 0 -1
    outer loop
      vertex 22.5 56.5172 0
      vertex 17.5 63.3796 0
      vertex 26.4742 57.5 0
    endloop
  endfacet
  facet normal 0 0 -1
    outer loop
      vertex 13.3684 62.5 0
      vertex 17.5 63.3796 0
      vertex 22.5 56.5172 0
    endloop
  endfacet
  facet normal 0 0 -1
    outer loop
      vertex 13.3684 62.5 0
      vertex 17.5 77.5 0
      vertex 17.5 63.3796 0
    endloop
  endfacet
  facet normal 0 0 -1
    outer loop
      vertex 2.5 77.5 0
      vertex 13.3684 62.5 0
      vertex 2.5 62.5 0
    endloop
  endfacet
  facet normal 0 0 -1
    outer loop
      vertex 13.3684 62.5 0
      vertex 2.5 77.5 0
      vertex 17.5 77.5 0
    endloop
  endfacet
  facet normal 0 0 -1
    outer loop
      vertex 24.9742 22.5 0
      vertex 37.5 30.7066 0
      vertex 37.5 22.5 0
    endloop
  endfacet
  facet normal 0 0 -1
    outer loop
      vertex 22.5 24.4655 0
      vertex 37.5 30.7066 0
      vertex 24.9742 22.5 0
    endloop
  endfacet
  facet normal 0 0 -1
    outer loop
      vertex 22.5 37.5 0
      vertex 37.5 30.7066 0
      vertex 22.5 24.4655 0
    endloop
  endfacet
  facet normal 0 0 -1
    outer loop
      vertex 37.5 30.7066 0
      vertex 22.5 37.5 0
      vertex 37.5 34.2931 0
    endloop
  endfacet
  facet normal 0 0 -1
    outer loop
      vertex 37.5 34.2931 0
      vertex 22.5 37.5 0
      vertex 37.5 37.5 0
    endloop
  endfacet
  facet normal 0 0 -1
    outer loop
      vertex 37.5 46.6897 0
      vertex 42.5 47.0003 0
      vertex 42.5 43.4138 0
    endloop
  endfacet
  facet normal -0 0 -1
    outer loop
      vertex 42.5 47.0003 0
      vertex 37.5 46.6897 0
      vertex 37.5 50.2762 0
    endloop
  endfacet
  facet normal 0 0 -1
    outer loop
      vertex 49.6976 42.2846 0
      vertex 52.4347 40.4914 0
      vertex 49.6976 38.6981 0
    endloop
  endfacet
  facet normal 0 0 -1
    outer loop
      vertex 52.4347 40.4914 0
      vertex 49.6976 42.2846 0
      vertex 50.0263 42.5 0
    endloop
  endfacet
  facet normal 0 0 -1
    outer loop
      vertex 46.9605 40.4914 0
      vertex 49.6976 42.2846 0
      vertex 49.6976 38.6981 0
    endloop
  endfacet
  facet normal 0 0 -1
    outer loop
      vertex 46.9605 40.4914 0
      vertex 49.6976 38.6981 0
      vertex 47.8689 37.5 0
    endloop
  endfacet
  facet normal 0 0 -1
    outer loop
      vertex 42.5 22.5 0
      vertex 57.5 33.5862 0
      vertex 57.5 22.5 0
    endloop
  endfacet
  facet normal -0 -0 -1
    outer loop
      vertex 57.0005 37.5 0
      vertex 57.5 33.5862 0
      vertex 51.5263 37.5 0
    endloop
  endfacet
  facet normal 0 0 -1
    outer loop
      vertex 57.5 37.1727 0
      vertex 57.0005 37.5 0
      vertex 57.5 37.5 0
    endloop
  endfacet
  facet normal 0 0 -1
    outer loop
      vertex 57.5 33.5862 0
      vertex 57.0005 37.5 0
      vertex 57.5 37.1727 0
    endloop
  endfacet
  facet normal 0 0 -1
    outer loop
      vertex 57.0005 37.5 0
      vertex 51.5263 37.5 0
      vertex 52.4347 40.4914 0
    endloop
  endfacet
  facet normal 0 0 -1
    outer loop
      vertex 42.5 33.9824 0
      vertex 57.5 33.5862 0
      vertex 42.5 22.5 0
    endloop
  endfacet
  facet normal 0 0 -1
    outer loop
      vertex 57.5 33.5862 0
      vertex 42.5 33.9824 0
      vertex 51.5263 37.5 0
    endloop
  endfacet
  facet normal -0 0 -1
    outer loop
      vertex 51.5263 37.5 0
      vertex 42.5 33.9824 0
      vertex 47.8689 37.5 0
    endloop
  endfacet
  facet normal -0 0 -1
    outer loop
      vertex 47.8689 37.5 0
      vertex 42.5 33.9824 0
      vertex 46.9605 40.4914 0
    endloop
  endfacet
  facet normal 0 0 -1
    outer loop
      vertex 37.5 34.2931 0
      vertex 42.5 33.9824 0
      vertex 37.5 30.7066 0
    endloop
  endfacet
  facet normal 0 0 -1
    outer loop
      vertex 42.5 33.9824 0
      vertex 37.5 34.2931 0
      vertex 46.9605 40.4914 0
    endloop
  endfacet
  facet normal 0 0 -1
    outer loop
      vertex 57.5 33.5862 0
      vertex 62.5 33.8969 0
      vertex 62.5 30.3103 0
    endloop
  endfacet
  facet normal -0 0 -1
    outer loop
      vertex 62.5 33.8969 0
      vertex 57.5 33.5862 0
      vertex 57.5 37.1727 0
    endloop
  endfacet
  facet normal 0 0 -1
    outer loop
      vertex 97.5 2.5 0
      vertex 87.5268 17.5 0
      vertex 97.5 17.5 0
    endloop
  endfacet
  facet normal 0 0 -1
    outer loop
      vertex 82.5 2.5 0
      vertex 87.5268 17.5 0
      vertex 97.5 2.5 0
    endloop
  endfacet
  facet normal 0 0 -1
    outer loop
      vertex 82.5 17.2069 0
      vertex 87.5268 17.5 0
      vertex 82.5 2.5 0
    endloop
  endfacet
  facet normal 0 0 -1
    outer loop
      vertex 82.5 17.2069 0
      vertex 77.5 24.0693 0
      vertex 87.5268 17.5 0
    endloop
  endfacet
  facet normal 0 0 -1
    outer loop
      vertex 74.4211 22.5 0
      vertex 77.5 24.0693 0
      vertex 82.5 17.2069 0
    endloop
  endfacet
  facet normal 0 0 -1
    outer loop
      vertex 74.4211 22.5 0
      vertex 77.5 37.5 0
      vertex 77.5 24.0693 0
    endloop
  endfacet
  facet normal 0 0 -1
    outer loop
      vertex 62.5 30.3103 0
      vertex 74.4211 22.5 0
      vertex 62.5 22.5 0
    endloop
  endfacet
  facet normal 0 0 -1
    outer loop
      vertex 74.4211 22.5 0
      vertex 62.5 30.3103 0
      vertex 77.5 37.5 0
    endloop
  endfacet
  facet normal 0 0 -1
    outer loop
      vertex 62.5 33.8969 0
      vertex 77.5 37.5 0
      vertex 62.5 30.3103 0
    endloop
  endfacet
  facet normal -0 0 -1
    outer loop
      vertex 77.5 37.5 0
      vertex 62.5 33.8969 0
      vertex 62.5 37.5 0
    endloop
  endfacet
  facet normal 0 0 -1
    outer loop
      vertex 55.5005 42.5 0
      vertex 57.5 43.81 0
      vertex 57.5 42.5 0
    endloop
  endfacet
  facet normal -0 0 -1
    outer loop
      vertex 57.5 43.81 0
      vertex 55.5005 42.5 0
      vertex 57.5 47.3966 0
    endloop
  endfacet
  facet normal 0 0 -1
    outer loop
      vertex 50.0263 42.5 0
      vertex 57.5 47.3966 0
      vertex 55.5005 42.5 0
    endloop
  endfacet
  facet normal 0 0 -1
    outer loop
      vertex 50.0263 42.5 0
      vertex 55.5005 42.5 0
      vertex 52.4347 40.4914 0
    endloop
  endfacet
  facet normal 0 0 -1
    outer loop
      vertex 49.6976 38.6981 0
      vertex 52.4347 40.4914 0
      vertex 51.5263 37.5 0
    endloop
  endfacet
  facet normal 0 0 -1
    outer loop
      vertex 42.5 47.0003 0
      vertex 57.5 47.3966 0
      vertex 50.0263 42.5 0
    endloop
  endfacet
  facet normal 0 0 -1
    outer loop
      vertex 42.5 47.0003 0
      vertex 50.0263 42.5 0
      vertex 49.3689 42.5 0
    endloop
  endfacet
  facet normal -0 0 -1
    outer loop
      vertex 49.6976 42.2846 0
      vertex 46.9605 40.4914 0
      vertex 49.3689 42.5 0
    endloop
  endfacet
  facet normal 0 0 -1
    outer loop
      vertex 43.8947 42.5 0
      vertex 49.3689 42.5 0
      vertex 46.9605 40.4914 0
    endloop
  endfacet
  facet normal 0 0 -1
    outer loop
      vertex 49.3689 42.5 0
      vertex 43.8947 42.5 0
      vertex 42.5 47.0003 0
    endloop
  endfacet
  facet normal 0 0 -1
    outer loop
      vertex 42.5 43.4138 0
      vertex 43.8947 42.5 0
      vertex 42.5 42.5 0
    endloop
  endfacet
  facet normal 0 0 -1
    outer loop
      vertex 42.5 47.0003 0
      vertex 43.8947 42.5 0
      vertex 42.5 43.4138 0
    endloop
  endfacet
  facet normal 0 0 -1
    outer loop
      vertex 42.5 57.5 0
      vertex 57.5 47.3966 0
      vertex 42.5 47.0003 0
    endloop
  endfacet
  facet normal 0 0 -1
    outer loop
      vertex 57.5 47.3966 0
      vertex 42.5 57.5 0
      vertex 57.5 57.5 0
    endloop
  endfacet
  facet normal 0 0 -1
    outer loop
      vertex 57.5 47.3966 0
      vertex 62.5 47.0859 0
      vertex 57.5 43.81 0
    endloop
  endfacet
  facet normal 0 0 -1
    outer loop
      vertex 62.5 47.0859 0
      vertex 57.5 47.3966 0
      vertex 62.5 50.6724 0
    endloop
  endfacet
  facet normal 0 0 -1
    outer loop
      vertex 77.5 42.5 0
      vertex 72.9211 57.5 0
      vertex 77.5 56.9135 0
    endloop
  endfacet
  facet normal 0 0 -1
    outer loop
      vertex 62.5 47.0859 0
      vertex 77.5 42.5 0
      vertex 62.5 42.5 0
    endloop
  endfacet
  facet normal 0 0 -1
    outer loop
      vertex 77.5 42.5 0
      vertex 62.5 47.0859 0
      vertex 72.9211 57.5 0
    endloop
  endfacet
  facet normal 0 0 -1
    outer loop
      vertex 62.5 50.6724 0
      vertex 72.9211 57.5 0
      vertex 62.5 47.0859 0
    endloop
  endfacet
  facet normal -0 0 -1
    outer loop
      vertex 72.9211 57.5 0
      vertex 62.5 50.6724 0
      vertex 62.5 57.5 0
    endloop
  endfacet
  facet normal 0 0 -1
    outer loop
      vertex 77.5 56.9135 0
      vertex 82.5 63.7759 0
      vertex 86.0268 62.5 0
    endloop
  endfacet
  facet normal 0 0 -1
    outer loop
      vertex 82.5 63.7759 0
      vertex 77.5 56.9135 0
      vertex 72.9211 57.5 0
    endloop
  endfacet
  facet normal 0 0 -1
    outer loop
      vertex 86.0268 62.5 0
      vertex 97.5 77.5 0
      vertex 97.5 62.5 0
    endloop
  endfacet
  facet normal 0 0 -1
    outer loop
      vertex 82.5 77.5 0
      vertex 86.0268 62.5 0
      vertex 82.5 63.7759 0
    endloop
  endfacet
  facet normal 0 0 -1
    outer loop
      vertex 86.0268 62.5 0
      vertex 82.5 77.5 0
      vertex 97.5 77.5 0
    endloop
  endfacet
  facet normal 0 0 -1
    outer loop
      vertex 22.5 62.5 0
      vertex 37.5 77.5 0
      vertex 37.5 62.5 0
    endloop
  endfacet
  facet normal -0 0 -1
    outer loop
      vertex 37.5 77.5 0
      vertex 22.5 62.5 0
      vertex 22.5 77.5 0
    endloop
  endfacet
  facet normal 0 0 -1
    outer loop
      vertex 42.5 62.5 0
      vertex 57.5 77.5 0
      vertex 57.5 62.5 0
    endloop
  endfacet
  facet normal -0 0 -1
    outer loop
      vertex 57.5 77.5 0
      vertex 42.5 62.5 0
      vertex 42.5 77.5 0
    endloop
  endfacet
  facet normal 0 0 -1
    outer loop
      vertex 62.5 62.5 0
      vertex 77.5 77.5 0
      vertex 77.5 62.5 0
    endloop
  endfacet
  facet normal -0 0 -1
    outer loop
      vertex 77.5 77.5 0
      vertex 62.5 62.5 0
      vertex 62.5 77.5 0
    endloop
  endfacet
  facet normal 0 0 -1
    outer loop
      vertex 2.5 42.5 0
      vertex 17.5 57.5 0
      vertex 17.5 42.5 0
    endloop
  endfacet
  facet normal -0 0 -1
    outer loop
      vertex 17.5 57.5 0
      vertex 2.5 42.5 0
      vertex 2.5 57.5 0
    endloop
  endfacet
  facet normal 0 0 -1
    outer loop
      vertex 82.5 42.5 0
      vertex 97.5 57.5 0
      vertex 97.5 42.5 0
    endloop
  endfacet
  facet normal -0 0 -1
    outer loop
      vertex 97.5 57.5 0
      vertex 82.5 42.5 0
      vertex 82.5 57.5 0
    endloop
  endfacet
  facet normal 0 0 -1
    outer loop
      vertex 2.5 22.5 0
      vertex 17.5 37.5 0
      vertex 17.5 22.5 0
    endloop
  endfacet
  facet normal -0 0 -1
    outer loop
      vertex 17.5 37.5 0
      vertex 2.5 22.5 0
      vertex 2.5 37.5 0
    endloop
  endfacet
  facet normal 0 0 -1
    outer loop
      vertex 82.5 22.5 0
      vertex 97.5 37.5 0
      vertex 97.5 22.5 0
    endloop
  endfacet
  facet normal -0 0 -1
    outer loop
      vertex 97.5 37.5 0
      vertex 82.5 22.5 0
      vertex 82.5 37.5 0
    endloop
  endfacet
  facet normal 0 0 -1
    outer loop
      vertex 22.5 2.5 0
      vertex 37.5 17.5 0
      vertex 37.5 2.5 0
    endloop
  endfacet
  facet normal -0 0 -1
    outer loop
      vertex 37.5 17.5 0
      vertex 22.5 2.5 0
      vertex 22.5 17.5 0
    endloop
  endfacet
  facet normal 0 0 -1
    outer loop
      vertex 42.5 2.5 0
      vertex 57.5 17.5 0
      vertex 57.5 2.5 0
    endloop
  endfacet
  facet normal -0 0 -1
    outer loop
      vertex 57.5 17.5 0
      vertex 42.5 2.5 0
      vertex 42.5 17.5 0
    endloop
  endfacet
  facet normal 0 0 -1
    outer loop
      vertex 62.5 2.5 0
      vertex 77.5 17.5 0
      vertex 77.5 2.5 0
    endloop
  endfacet
  facet normal -0 0 -1
    outer loop
      vertex 77.5 17.5 0
      vertex 62.5 2.5 0
      vertex 62.5 17.5 0
    endloop
  endfacet
  facet normal 0 -0.768221 -0.640184
    outer loop
      vertex 82.5 2.5 0
      vertex 100 0 3
      vertex 80 0 3
    endloop
  endfacet
  facet normal 0 -0.768221 -0.640184
    outer loop
      vertex 100 0 3
      vertex 82.5 2.5 0
      vertex 97.5 2.5 0
    endloop
  endfacet
  facet normal 0 -0.768221 -0.640184
    outer loop
      vertex 62.5 2.5 0
      vertex 80 0 3
      vertex 60 0 3
    endloop
  endfacet
  facet normal 0 -0.768221 -0.640184
    outer loop
      vertex 80 0 3
      vertex 62.5 2.5 0
      vertex 77.5 2.5 0
    endloop
  endfacet
  facet normal 0 -0.768221 -0.640184
    outer loop
      vertex 42.5 2.5 0
      vertex 60 0 3
      vertex 40 0 3
    endloop
  endfacet
  facet normal 0 -0.768221 -0.640184
    outer loop
      vertex 60 0 3
      vertex 42.5 2.5 0
      vertex 57.5 2.5 0
    endloop
  endfacet
  facet normal 0 -0.768221 -0.640184
    outer loop
      vertex 22.5 2.5 0
      vertex 40 0 3
      vertex 20 0 3
    endloop
  endfacet
  facet normal 0 -0.768221 -0.640184
    outer loop
      vertex 40 0 3
      vertex 22.5 2.5 0
      vertex 37.5 2.5 0
    endloop
  endfacet
  facet normal 0 -0.768221 -0.640184
    outer loop
      vertex 2.5 2.5 0
      vertex 20 0 3
      vertex 0 0 3
    endloop
  endfacet
  facet normal 0 -0.768221 -0.640184
    outer loop
      vertex 20 0 3
      vertex 2.5 2.5 0
      vertex 17.5 2.5 0
    endloop
  endfacet
  facet normal 0 -0.768221 -0.640184
    outer loop
      vertex 2.5 22.5 0
      vertex 15.6842 20 3
      vertex 0 20 3
    endloop
  endfacet
  facet normal -0 -0.768221 -0.640184
    outer loop
      vertex 17.5 22.5 0
      vertex 15.6842 20 3
      vertex 2.5 22.5 0
    endloop
  endfacet
  facet normal -1.87365e-05 -0.768216 -0.640191
    outer loop
      vertex 15.6842 20 3
      vertex 17.5 22.5 0
      vertex 18.2917 21.7083 0.95
    endloop
  endfacet
  facet normal -2.50966e-05 -0.768226 -0.640178
    outer loop
      vertex 82.5 22.5 0
      vertex 83.711 20 3
      vertex 81.4689 21.469 1.23726
    endloop
  endfacet
  facet normal 0 -0.768221 -0.640184
    outer loop
      vertex 83.711 20 3
      vertex 82.5 22.5 0
      vertex 97.5 22.5 0
    endloop
  endfacet
  facet normal 0 -0.768221 -0.640184
    outer loop
      vertex 83.711 20 3
      vertex 97.5 22.5 0
      vertex 100 20 3
    endloop
  endfacet
  facet normal 0 -0.768221 -0.640184
    outer loop
      vertex 24.9742 22.5 0
      vertex 40 20 3
      vertex 21.1584 20 3
    endloop
  endfacet
  facet normal 0 -0.768221 -0.640184
    outer loop
      vertex 40 20 3
      vertex 24.9742 22.5 0
      vertex 37.5 22.5 0
    endloop
  endfacet
  facet normal 0 -0.768221 -0.640184
    outer loop
      vertex 42.5 22.5 0
      vertex 60 20 3
      vertex 40 20 3
    endloop
  endfacet
  facet normal 0 -0.768221 -0.640184
    outer loop
      vertex 60 20 3
      vertex 42.5 22.5 0
      vertex 57.5 22.5 0
    endloop
  endfacet
  facet normal -0 -0.768221 -0.640184
    outer loop
      vertex 74.4211 22.5 0
      vertex 60 20 3
      vertex 62.5 22.5 0
    endloop
  endfacet
  facet normal 0 -0.768221 -0.640184
    outer loop
      vertex 60 20 3
      vertex 74.4211 22.5 0
      vertex 78.2368 20 3
    endloop
  endfacet
  facet normal 0 0.768221 -0.640184
    outer loop
      vertex 11.8684 17.5 0
      vertex 0 20 3
      vertex 15.6842 20 3
    endloop
  endfacet
  facet normal 0 0.768221 -0.640184
    outer loop
      vertex 0 20 3
      vertex 11.8684 17.5 0
      vertex 2.5 17.5 0
    endloop
  endfacet
  facet normal 0 0.768221 -0.640184
    outer loop
      vertex 87.5268 17.5 0
      vertex 100 20 3
      vertex 97.5 17.5 0
    endloop
  endfacet
  facet normal 0 0.768221 -0.640184
    outer loop
      vertex 100 20 3
      vertex 87.5268 17.5 0
      vertex 83.711 20 3
    endloop
  endfacet
  facet normal 0 0.768261 -0.640137
    outer loop
      vertex 17.799 17.799 0.358845
      vertex 17.5 17.5 0
      vertex 17.3426 17.5 0
    endloop
  endfacet
  facet normal 0 0.768221 -0.640184
    outer loop
      vertex 37.5 17.5 0
      vertex 21.1584 20 3
      vertex 40 20 3
    endloop
  endfacet
  facet normal 0 0.768221 -0.640184
    outer loop
      vertex 22.5 17.5 0
      vertex 21.1584 20 3
      vertex 37.5 17.5 0
    endloop
  endfacet
  facet normal 2.70703e-05 0.768227 -0.640177
    outer loop
      vertex 21.1584 20 3
      vertex 22.5 17.5 0
      vertex 20.4585 19.5415 2.44976
    endloop
  endfacet
  facet normal 0 0.768221 -0.640184
    outer loop
      vertex 57.5 17.5 0
      vertex 40 20 3
      vertex 60 20 3
    endloop
  endfacet
  facet normal 0 0.768221 -0.640184
    outer loop
      vertex 40 20 3
      vertex 57.5 17.5 0
      vertex 42.5 17.5 0
    endloop
  endfacet
  facet normal -1.00738e-05 0.768222 -0.640183
    outer loop
      vertex 77.5 17.5 0
      vertex 78.2368 20 3
      vertex 79.3021 19.3021 2.1625
    endloop
  endfacet
  facet normal 0 0.768221 -0.640184
    outer loop
      vertex 78.2368 20 3
      vertex 77.5 17.5 0
      vertex 62.5 17.5 0
    endloop
  endfacet
  facet normal 0 0.768221 -0.640184
    outer loop
      vertex 78.2368 20 3
      vertex 62.5 17.5 0
      vertex 60 20 3
    endloop
  endfacet
  facet normal 0 -0.768221 -0.640184
    outer loop
      vertex 2.5 42.5 0
      vertex 20 40 3
      vertex 0 40 3
    endloop
  endfacet
  facet normal 0 -0.768221 -0.640184
    outer loop
      vertex 20 40 3
      vertex 2.5 42.5 0
      vertex 17.5 42.5 0
    endloop
  endfacet
  facet normal 0 -0.768221 -0.640184
    outer loop
      vertex 82.5 42.5 0
      vertex 100 40 3
      vertex 80 40 3
    endloop
  endfacet
  facet normal 0 -0.768221 -0.640184
    outer loop
      vertex 100 40 3
      vertex 82.5 42.5 0
      vertex 97.5 42.5 0
    endloop
  endfacet
  facet normal 0 -0.768221 -0.640184
    outer loop
      vertex 22.5 42.5 0
      vertex 40 40 3
      vertex 20 40 3
    endloop
  endfacet
  facet normal 0 -0.768221 -0.640184
    outer loop
      vertex 40 40 3
      vertex 22.5 42.5 0
      vertex 37.5 42.5 0
    endloop
  endfacet
  facet normal 0 -0.768221 -0.640184
    outer loop
      vertex 42.5 42.5 0
      vertex 46.2105 40 3
      vertex 40 40 3
    endloop
  endfacet
  facet normal 0 -0.768221 -0.640184
    outer loop
      vertex 46.2105 40 3
      vertex 42.5 42.5 0
      vertex 43.8947 42.5 0
    endloop
  endfacet
  facet normal 1.59358e-05 -0.768215 -0.640192
    outer loop
      vertex 46.2105 40 3
      vertex 43.8947 42.5 0
      vertex 46.9605 40.4914 2.41035
    endloop
  endfacet
  facet normal 0 -0.768221 -0.640184
    outer loop
      vertex 62.5 42.5 0
      vertex 80 40 3
      vertex 60 40 3
    endloop
  endfacet
  facet normal 0 -0.768221 -0.640184
    outer loop
      vertex 80 40 3
      vertex 62.5 42.5 0
      vertex 77.5 42.5 0
    endloop
  endfacet
  facet normal -1.59358e-05 -0.768215 -0.640192
    outer loop
      vertex 55.5005 42.5 0
      vertex 53.1847 40 3
      vertex 52.4347 40.4914 2.41035
    endloop
  endfacet
  facet normal -0 -0.768221 -0.640184
    outer loop
      vertex 57.5 42.5 0
      vertex 53.1847 40 3
      vertex 55.5005 42.5 0
    endloop
  endfacet
  facet normal 0 -0.768221 -0.640184
    outer loop
      vertex 53.1847 40 3
      vertex 57.5 42.5 0
      vertex 60 40 3
    endloop
  endfacet
  facet normal -0 -0.768151 -0.640269
    outer loop
      vertex 50.0263 42.5 0
      vertex 49.6976 42.2846 0.258422
      vertex 49.3689 42.5 0
    endloop
  endfacet
  facet normal 0 0.768221 -0.640184
    outer loop
      vertex 17.5 37.5 0
      vertex 0 40 3
      vertex 20 40 3
    endloop
  endfacet
  facet normal 0 0.768221 -0.640184
    outer loop
      vertex 0 40 3
      vertex 17.5 37.5 0
      vertex 2.5 37.5 0
    endloop
  endfacet
  facet normal 0 0.768221 -0.640184
    outer loop
      vertex 97.5 37.5 0
      vertex 80 40 3
      vertex 100 40 3
    endloop
  endfacet
  facet normal 0 0.768221 -0.640184
    outer loop
      vertex 80 40 3
      vertex 97.5 37.5 0
      vertex 82.5 37.5 0
    endloop
  endfacet
  facet normal 0 0.768221 -0.640184
    outer loop
      vertex 37.5 37.5 0
      vertex 20 40 3
      vertex 40 40 3
    endloop
  endfacet
  facet normal 0 0.768221 -0.640184
    outer loop
      vertex 20 40 3
      vertex 37.5 37.5 0
      vertex 22.5 37.5 0
    endloop
  endfacet
  facet normal 0 0.768226 -0.640179
    outer loop
      vertex 46.2105 40 3
      vertex 42.4583 37.5417 0.0499999
      vertex 40 40 3
    endloop
  endfacet
  facet normal 0 0.768221 -0.640184
    outer loop
      vertex 77.5 37.5 0
      vertex 60 40 3
      vertex 80 40 3
    endloop
  endfacet
  facet normal 0 0.768221 -0.640184
    outer loop
      vertex 60 40 3
      vertex 77.5 37.5 0
      vertex 62.5 37.5 0
    endloop
  endfacet
  facet normal 0 0.768221 -0.640184
    outer loop
      vertex 57.0005 37.5 0
      vertex 60 40 3
      vertex 57.5 37.5 0
    endloop
  endfacet
  facet normal 0 0.768221 -0.640184
    outer loop
      vertex 60 40 3
      vertex 57.0005 37.5 0
      vertex 53.1847 40 3
    endloop
  endfacet
  facet normal 0 0.768223 -0.640182
    outer loop
      vertex 49.6976 38.6981 1.43773
      vertex 51.5263 37.5 0
      vertex 47.8689 37.5 0
    endloop
  endfacet
  facet normal -0 -0.768221 -0.640184
    outer loop
      vertex 13.3684 62.5 0
      vertex 0 60 3
      vertex 2.5 62.5 0
    endloop
  endfacet
  facet normal 0 -0.768221 -0.640184
    outer loop
      vertex 0 60 3
      vertex 13.3684 62.5 0
      vertex 17.1842 60 3
    endloop
  endfacet
  facet normal 0 -0.768221 -0.640184
    outer loop
      vertex 86.0268 62.5 0
      vertex 100 60 3
      vertex 82.211 60 3
    endloop
  endfacet
  facet normal 0 -0.768221 -0.640184
    outer loop
      vertex 100 60 3
      vertex 86.0268 62.5 0
      vertex 97.5 62.5 0
    endloop
  endfacet
  facet normal -8.31718e-06 -0.768221 -0.640184
    outer loop
      vertex 22.5 62.5 0
      vertex 22.6584 60 3
      vertex 21.0523 61.0523 1.73726
    endloop
  endfacet
  facet normal 0 -0.768221 -0.640184
    outer loop
      vertex 22.6584 60 3
      vertex 22.5 62.5 0
      vertex 37.5 62.5 0
    endloop
  endfacet
  facet normal 0 -0.768221 -0.640184
    outer loop
      vertex 22.6584 60 3
      vertex 37.5 62.5 0
      vertex 40 60 3
    endloop
  endfacet
  facet normal 0 -0.768221 -0.640184
    outer loop
      vertex 42.5 62.5 0
      vertex 60 60 3
      vertex 40 60 3
    endloop
  endfacet
  facet normal 0 -0.768221 -0.640184
    outer loop
      vertex 60 60 3
      vertex 42.5 62.5 0
      vertex 57.5 62.5 0
    endloop
  endfacet
  facet normal 0 -0.768221 -0.640184
    outer loop
      vertex 62.5 62.5 0
      vertex 76.7368 60 3
      vertex 60 60 3
    endloop
  endfacet
  facet normal -0 -0.768221 -0.640184
    outer loop
      vertex 77.5 62.5 0
      vertex 76.7368 60 3
      vertex 62.5 62.5 0
    endloop
  endfacet
  facet normal 1.62362e-05 -0.768223 -0.640182
    outer loop
      vertex 76.7368 60 3
      vertex 77.5 62.5 0
      vertex 78.7083 61.2917 1.45
    endloop
  endfacet
  facet normal 8.20536e-06 0.768222 -0.640184
    outer loop
      vertex 17.5 57.5 0
      vertex 17.1842 60 3
      vertex 18.8854 58.8854 1.6625
    endloop
  endfacet
  facet normal 0 0.768221 -0.640184
    outer loop
      vertex 17.1842 60 3
      vertex 17.5 57.5 0
      vertex 2.5 57.5 0
    endloop
  endfacet
  facet normal 0 0.768221 -0.640184
    outer loop
      vertex 17.1842 60 3
      vertex 2.5 57.5 0
      vertex 0 60 3
    endloop
  endfacet
  facet normal 0 0.768221 -0.640184
    outer loop
      vertex 97.5 57.5 0
      vertex 82.211 60 3
      vertex 100 60 3
    endloop
  endfacet
  facet normal 0 0.768221 -0.640184
    outer loop
      vertex 82.5 57.5 0
      vertex 82.211 60 3
      vertex 97.5 57.5 0
    endloop
  endfacet
  facet normal 3.16553e-16 0.768221 -0.640184
    outer loop
      vertex 82.211 60 3
      vertex 82.5 57.5 0
      vertex 80.8752 59.1248 1.94976
    endloop
  endfacet
  facet normal 0 0.768221 -0.640184
    outer loop
      vertex 26.4742 57.5 0
      vertex 40 60 3
      vertex 37.5 57.5 0
    endloop
  endfacet
  facet normal 0 0.768221 -0.640184
    outer loop
      vertex 40 60 3
      vertex 26.4742 57.5 0
      vertex 22.6584 60 3
    endloop
  endfacet
  facet normal 0 0.768221 -0.640184
    outer loop
      vertex 57.5 57.5 0
      vertex 40 60 3
      vertex 60 60 3
    endloop
  endfacet
  facet normal 0 0.768221 -0.640184
    outer loop
      vertex 40 60 3
      vertex 57.5 57.5 0
      vertex 42.5 57.5 0
    endloop
  endfacet
  facet normal 0 0.768221 -0.640184
    outer loop
      vertex 72.9211 57.5 0
      vertex 60 60 3
      vertex 76.7368 60 3
    endloop
  endfacet
  facet normal 0 0.768221 -0.640184
    outer loop
      vertex 60 60 3
      vertex 72.9211 57.5 0
      vertex 62.5 57.5 0
    endloop
  endfacet
  facet normal 0 0.768221 -0.640184
    outer loop
      vertex 97.5 77.5 0
      vertex 80 80 3
      vertex 100 80 3
    endloop
  endfacet
  facet normal 0 0.768221 -0.640184
    outer loop
      vertex 80 80 3
      vertex 97.5 77.5 0
      vertex 82.5 77.5 0
    endloop
  endfacet
  facet normal 0 0.768221 -0.640184
    outer loop
      vertex 77.5 77.5 0
      vertex 60 80 3
      vertex 80 80 3
    endloop
  endfacet
  facet normal 0 0.768221 -0.640184
    outer loop
      vertex 60 80 3
      vertex 77.5 77.5 0
      vertex 62.5 77.5 0
    endloop
  endfacet
  facet normal 0 0.768221 -0.640184
    outer loop
      vertex 57.5 77.5 0
      vertex 40 80 3
      vertex 60 80 3
    endloop
  endfacet
  facet normal 0 0.768221 -0.640184
    outer loop
      vertex 40 80 3
      vertex 57.5 77.5 0
      vertex 42.5 77.5 0
    endloop
  endfacet
  facet normal 0 0.768221 -0.640184
    outer loop
      vertex 37.5 77.5 0
      vertex 20 80 3
      vertex 40 80 3
    endloop
  endfacet
  facet normal 0 0.768221 -0.640184
    outer loop
      vertex 20 80 3
      vertex 37.5 77.5 0
      vertex 22.5 77.5 0
    endloop
  endfacet
  facet normal 0 0.768221 -0.640184
    outer loop
      vertex 17.5 77.5 0
      vertex 0 80 3
      vertex 20 80 3
    endloop
  endfacet
  facet normal 0 0.768221 -0.640184
    outer loop
      vertex 0 80 3
      vertex 17.5 77.5 0
      vertex 2.5 77.5 0
    endloop
  endfacet
  facet normal -0.768221 0 -0.640184
    outer loop
      vertex 2.5 62.5 0
      vertex 0 80 3
      vertex 2.5 77.5 0
    endloop
  endfacet
  facet normal -0.768221 -0 -0.640184
    outer loop
      vertex 0 80 3
      vertex 2.5 62.5 0
      vertex 0 60 3
    endloop
  endfacet
  facet normal -0.768221 0 -0.640184
    outer loop
      vertex 2.5 2.5 0
      vertex 0 20 3
      vertex 2.5 17.5 0
    endloop
  endfacet
  facet normal -0.768221 -0 -0.640184
    outer loop
      vertex 0 20 3
      vertex 2.5 2.5 0
      vertex 0 0 3
    endloop
  endfacet
  facet normal -0.768221 0 -0.640184
    outer loop
      vertex 2.5 42.5 0
      vertex 0 60 3
      vertex 2.5 57.5 0
    endloop
  endfacet
  facet normal -0.768221 -0 -0.640184
    outer loop
      vertex 0 60 3
      vertex 2.5 42.5 0
      vertex 0 40 3
    endloop
  endfacet
  facet normal -0.768221 0 -0.640184
    outer loop
      vertex 2.5 22.5 0
      vertex 0 40 3
      vertex 2.5 37.5 0
    endloop
  endfacet
  facet normal -0.768221 -0 -0.640184
    outer loop
      vertex 0 40 3
      vertex 2.5 22.5 0
      vertex 0 20 3
    endloop
  endfacet
  facet normal -0.768221 0 -0.640184
    outer loop
      vertex 20 61.7417 3
      vertex 22.5 77.5 0
      vertex 22.5 62.5 0
    endloop
  endfacet
  facet normal -0.768221 0 -0.640184
    outer loop
      vertex 22.5 77.5 0
      vertex 20 61.7417 3
      vertex 20 80 3
    endloop
  endfacet
  facet normal -0.76822 -1.26948e-05 -0.640186
    outer loop
      vertex 20 61.7417 3
      vertex 22.5 62.5 0
      vertex 21.0523 61.0523 1.73726
    endloop
  endfacet
  facet normal -0.768233 -4.13147e-05 -0.64017
    outer loop
      vertex 22.5 17.5 0
      vertex 20 19.241 3
      vertex 20.4585 19.5415 2.44976
    endloop
  endfacet
  facet normal -0.768221 0 -0.640184
    outer loop
      vertex 22.5 2.5 0
      vertex 20 19.241 3
      vertex 22.5 17.5 0
    endloop
  endfacet
  facet normal -0.768221 -0 -0.640184
    outer loop
      vertex 20 19.241 3
      vertex 22.5 2.5 0
      vertex 20 0 3
    endloop
  endfacet
  facet normal -0.768221 0 -0.640184
    outer loop
      vertex 20 22.8276 3
      vertex 22.5 37.5 0
      vertex 22.5 24.4655 0
    endloop
  endfacet
  facet normal -0.768221 0 -0.640184
    outer loop
      vertex 22.5 37.5 0
      vertex 20 22.8276 3
      vertex 20 40 3
    endloop
  endfacet
  facet normal -0.768221 0 -0.640184
    outer loop
      vertex 22.5 42.5 0
      vertex 20 58.1552 3
      vertex 22.5 56.5172 0
    endloop
  endfacet
  facet normal -0.768221 -0 -0.640184
    outer loop
      vertex 20 58.1552 3
      vertex 22.5 42.5 0
      vertex 20 40 3
    endloop
  endfacet
  facet normal 0.768221 0 -0.640184
    outer loop
      vertex 20 61.7417 3
      vertex 17.5 77.5 0
      vertex 20 80 3
    endloop
  endfacet
  facet normal 0.768221 0 -0.640184
    outer loop
      vertex 17.5 77.5 0
      vertex 20 61.7417 3
      vertex 17.5 63.3796 0
    endloop
  endfacet
  facet normal 0.768131 0.000317408 -0.640293
    outer loop
      vertex 20 19.241 3
      vertex 17.5 17.5 0
      vertex 17.799 17.799 0.358845
    endloop
  endfacet
  facet normal 0.768221 0 -0.640184
    outer loop
      vertex 20 19.241 3
      vertex 17.5 2.5 0
      vertex 17.5 17.5 0
    endloop
  endfacet
  facet normal 0.768221 0 -0.640184
    outer loop
      vertex 17.5 2.5 0
      vertex 20 19.241 3
      vertex 20 0 3
    endloop
  endfacet
  facet normal 0.76822 1.25242e-05 -0.640186
    outer loop
      vertex 20 58.1552 3
      vertex 17.5 57.5 0
      vertex 18.8854 58.8854 1.6625
    endloop
  endfacet
  facet normal 0.768221 0 -0.640184
    outer loop
      vertex 20 58.1552 3
      vertex 17.5 42.5 0
      vertex 17.5 57.5 0
    endloop
  endfacet
  facet normal 0.768221 0 -0.640184
    outer loop
      vertex 17.5 42.5 0
      vertex 20 58.1552 3
      vertex 20 40 3
    endloop
  endfacet
  facet normal 0.768221 0 -0.640184
    outer loop
      vertex 20 22.8276 3
      vertex 17.5 37.5 0
      vertex 20 40 3
    endloop
  endfacet
  facet normal 0.768221 0 -0.640184
    outer loop
      vertex 20 22.8276 3
      vertex 17.5 22.5 0
      vertex 17.5 37.5 0
    endloop
  endfacet
  facet normal 0.76822 2.85975e-05 -0.640186
    outer loop
      vertex 17.5 22.5 0
      vertex 20 22.8276 3
      vertex 18.2917 21.7083 0.95
    endloop
  endfacet
  facet normal -0.768221 0 -0.640184
    outer loop
      vertex 42.5 62.5 0
      vertex 40 80 3
      vertex 42.5 77.5 0
    endloop
  endfacet
  facet normal -0.768221 -0 -0.640184
    outer loop
      vertex 40 80 3
      vertex 42.5 62.5 0
      vertex 40 60 3
    endloop
  endfacet
  facet normal -0.768221 0 -0.640184
    outer loop
      vertex 42.5 2.5 0
      vertex 40 20 3
      vertex 42.5 17.5 0
    endloop
  endfacet
  facet normal -0.768221 -0 -0.640184
    outer loop
      vertex 40 20 3
      vertex 42.5 2.5 0
      vertex 40 0 3
    endloop
  endfacet
  facet normal -0.768221 0 -0.640184
    outer loop
      vertex 42.5 57.5 0
      vertex 40 48.6383 3
      vertex 40 60 3
    endloop
  endfacet
  facet normal -0.768221 0 -0.640184
    outer loop
      vertex 40 48.6383 3
      vertex 42.5 57.5 0
      vertex 42.5 47.0003 0
    endloop
  endfacet
  facet normal -0.768226 -0 -0.640179
    outer loop
      vertex 40 40 3
      vertex 42.4583 37.5417 0.0499999
      vertex 40 35.931 3
    endloop
  endfacet
  facet normal -0.768221 0 -0.640184
    outer loop
      vertex 42.5 42.5 0
      vertex 40 45.0517 3
      vertex 42.5 43.4138 0
    endloop
  endfacet
  facet normal -0.768221 -0 -0.640184
    outer loop
      vertex 40 45.0517 3
      vertex 42.5 42.5 0
      vertex 40 40 3
    endloop
  endfacet
  facet normal -0.768221 0 -0.640184
    outer loop
      vertex 42.5 22.5 0
      vertex 40 32.3445 3
      vertex 42.5 33.9824 0
    endloop
  endfacet
  facet normal -0.768221 -0 -0.640184
    outer loop
      vertex 40 32.3445 3
      vertex 42.5 22.5 0
      vertex 40 20 3
    endloop
  endfacet
  facet normal 0.768221 0 -0.640184
    outer loop
      vertex 40 80 3
      vertex 37.5 62.5 0
      vertex 37.5 77.5 0
    endloop
  endfacet
  facet normal 0.768221 0 -0.640184
    outer loop
      vertex 37.5 62.5 0
      vertex 40 80 3
      vertex 40 60 3
    endloop
  endfacet
  facet normal 0.768221 0 -0.640184
    outer loop
      vertex 40 20 3
      vertex 37.5 2.5 0
      vertex 37.5 17.5 0
    endloop
  endfacet
  facet normal 0.768221 0 -0.640184
    outer loop
      vertex 37.5 2.5 0
      vertex 40 20 3
      vertex 40 0 3
    endloop
  endfacet
  facet normal 0.768221 0 -0.640184
    outer loop
      vertex 40 48.6383 3
      vertex 37.5 57.5 0
      vertex 40 60 3
    endloop
  endfacet
  facet normal 0.768221 0 -0.640184
    outer loop
      vertex 37.5 57.5 0
      vertex 40 48.6383 3
      vertex 37.5 50.2762 0
    endloop
  endfacet
  facet normal 0.768221 0 -0.640184
    outer loop
      vertex 40 35.931 3
      vertex 37.5 37.5 0
      vertex 40 40 3
    endloop
  endfacet
  facet normal 0.768221 0 -0.640184
    outer loop
      vertex 37.5 37.5 0
      vertex 40 35.931 3
      vertex 37.5 34.2931 0
    endloop
  endfacet
  facet normal 0.768221 0 -0.640184
    outer loop
      vertex 40 45.0517 3
      vertex 37.5 42.5 0
      vertex 37.5 46.6897 0
    endloop
  endfacet
  facet normal 0.768221 0 -0.640184
    outer loop
      vertex 37.5 42.5 0
      vertex 40 45.0517 3
      vertex 40 40 3
    endloop
  endfacet
  facet normal 0.768221 0 -0.640184
    outer loop
      vertex 40 32.3445 3
      vertex 37.5 22.5 0
      vertex 37.5 30.7066 0
    endloop
  endfacet
  facet normal 0.768221 0 -0.640184
    outer loop
      vertex 37.5 22.5 0
      vertex 40 32.3445 3
      vertex 40 20 3
    endloop
  endfacet
  facet normal -0.768221 0 -0.640184
    outer loop
      vertex 62.5 62.5 0
      vertex 60 80 3
      vertex 62.5 77.5 0
    endloop
  endfacet
  facet normal -0.768221 -0 -0.640184
    outer loop
      vertex 60 80 3
      vertex 62.5 62.5 0
      vertex 60 60 3
    endloop
  endfacet
  facet normal -0.768221 0 -0.640184
    outer loop
      vertex 62.5 2.5 0
      vertex 60 20 3
      vertex 62.5 17.5 0
    endloop
  endfacet
  facet normal -0.768221 -0 -0.640184
    outer loop
      vertex 60 20 3
      vertex 62.5 2.5 0
      vertex 60 0 3
    endloop
  endfacet
  facet normal -0.768221 0 -0.640184
    outer loop
      vertex 60 49.0345 3
      vertex 62.5 57.5 0
      vertex 62.5 50.6724 0
    endloop
  endfacet
  facet normal -0.768221 0 -0.640184
    outer loop
      vertex 62.5 57.5 0
      vertex 60 49.0345 3
      vertex 60 60 3
    endloop
  endfacet
  facet normal -0.768221 0 -0.640184
    outer loop
      vertex 62.5 37.5 0
      vertex 60 35.5348 3
      vertex 60 40 3
    endloop
  endfacet
  facet normal -0.768221 0 -0.640184
    outer loop
      vertex 60 35.5348 3
      vertex 62.5 37.5 0
      vertex 62.5 33.8969 0
    endloop
  endfacet
  facet normal -0.768221 0 -0.640184
    outer loop
      vertex 62.5 42.5 0
      vertex 60 45.4479 3
      vertex 62.5 47.0859 0
    endloop
  endfacet
  facet normal -0.768221 -0 -0.640184
    outer loop
      vertex 60 45.4479 3
      vertex 62.5 42.5 0
      vertex 60 40 3
    endloop
  endfacet
  facet normal -0.768221 0 -0.640184
    outer loop
      vertex 62.5 22.5 0
      vertex 60 31.9483 3
      vertex 62.5 30.3103 0
    endloop
  endfacet
  facet normal -0.768221 -0 -0.640184
    outer loop
      vertex 60 31.9483 3
      vertex 62.5 22.5 0
      vertex 60 20 3
    endloop
  endfacet
  facet normal 0.768221 0 -0.640184
    outer loop
      vertex 60 80 3
      vertex 57.5 62.5 0
      vertex 57.5 77.5 0
    endloop
  endfacet
  facet normal 0.768221 0 -0.640184
    outer loop
      vertex 57.5 62.5 0
      vertex 60 80 3
      vertex 60 60 3
    endloop
  endfacet
  facet normal 0.768221 0 -0.640184
    outer loop
      vertex 60 20 3
      vertex 57.5 2.5 0
      vertex 57.5 17.5 0
    endloop
  endfacet
  facet normal 0.768221 0 -0.640184
    outer loop
      vertex 57.5 2.5 0
      vertex 60 20 3
      vertex 60 0 3
    endloop
  endfacet
  facet normal 0.768221 0 -0.640184
    outer loop
      vertex 60 49.0345 3
      vertex 57.5 57.5 0
      vertex 60 60 3
    endloop
  endfacet
  facet normal 0.768221 0 -0.640184
    outer loop
      vertex 57.5 57.5 0
      vertex 60 49.0345 3
      vertex 57.5 47.3966 0
    endloop
  endfacet
  facet normal 0.768221 0 -0.640184
    outer loop
      vertex 60 35.5348 3
      vertex 57.5 37.5 0
      vertex 60 40 3
    endloop
  endfacet
  facet normal 0.768221 0 -0.640184
    outer loop
      vertex 57.5 37.5 0
      vertex 60 35.5348 3
      vertex 57.5 37.1727 0
    endloop
  endfacet
  facet normal 0.768221 0 -0.640184
    outer loop
      vertex 60 45.4479 3
      vertex 57.5 42.5 0
      vertex 57.5 43.81 0
    endloop
  endfacet
  facet normal 0.768221 0 -0.640184
    outer loop
      vertex 57.5 42.5 0
      vertex 60 45.4479 3
      vertex 60 40 3
    endloop
  endfacet
  facet normal 0.768221 0 -0.640184
    outer loop
      vertex 60 31.9483 3
      vertex 57.5 22.5 0
      vertex 57.5 33.5862 0
    endloop
  endfacet
  facet normal 0.768221 0 -0.640184
    outer loop
      vertex 57.5 22.5 0
      vertex 60 31.9483 3
      vertex 60 20 3
    endloop
  endfacet
  facet normal -0.768221 0 -0.640184
    outer loop
      vertex 80 62.1379 3
      vertex 82.5 77.5 0
      vertex 82.5 63.7759 0
    endloop
  endfacet
  facet normal -0.768221 0 -0.640184
    outer loop
      vertex 82.5 77.5 0
      vertex 80 62.1379 3
      vertex 80 80 3
    endloop
  endfacet
  facet normal -0.768221 0 -0.640184
    outer loop
      vertex 82.5 2.5 0
      vertex 80 18.8448 3
      vertex 82.5 17.2069 0
    endloop
  endfacet
  facet normal -0.768221 -0 -0.640184
    outer loop
      vertex 80 18.8448 3
      vertex 82.5 2.5 0
      vertex 80 0 3
    endloop
  endfacet
  facet normal -0.768221 5.31471e-15 -0.640184
    outer loop
      vertex 82.5 57.5 0
      vertex 80 58.5514 3
      vertex 80.8752 59.1248 1.94976
    endloop
  endfacet
  facet normal -0.768221 0 -0.640184
    outer loop
      vertex 82.5 42.5 0
      vertex 80 58.5514 3
      vertex 82.5 57.5 0
    endloop
  endfacet
  facet normal -0.768221 -0 -0.640184
    outer loop
      vertex 80 58.5514 3
      vertex 82.5 42.5 0
      vertex 80 40 3
    endloop
  endfacet
  facet normal -0.768221 0 -0.640184
    outer loop
      vertex 80 22.4314 3
      vertex 82.5 37.5 0
      vertex 82.5 22.5 0
    endloop
  endfacet
  facet normal -0.768221 0 -0.640184
    outer loop
      vertex 82.5 37.5 0
      vertex 80 22.4314 3
      vertex 80 40 3
    endloop
  endfacet
  facet normal -0.768222 3.83073e-05 -0.640184
    outer loop
      vertex 80 22.4314 3
      vertex 82.5 22.5 0
      vertex 81.4689 21.469 1.23726
    endloop
  endfacet
  facet normal 0.768221 0 -0.640184
    outer loop
      vertex 80 62.1379 3
      vertex 77.5 77.5 0
      vertex 80 80 3
    endloop
  endfacet
  facet normal 0.768221 0 -0.640184
    outer loop
      vertex 77.5 77.5 0
      vertex 80 62.1379 3
      vertex 77.5 62.5 0
    endloop
  endfacet
  facet normal 0.76822 -2.47824e-05 -0.640186
    outer loop
      vertex 77.5 62.5 0
      vertex 80 62.1379 3
      vertex 78.7083 61.2917 1.45
    endloop
  endfacet
  facet normal 0.768225 -1.53757e-05 -0.64018
    outer loop
      vertex 80 18.8448 3
      vertex 77.5 17.5 0
      vertex 79.3021 19.3021 2.1625
    endloop
  endfacet
  facet normal 0.768221 0 -0.640184
    outer loop
      vertex 80 18.8448 3
      vertex 77.5 2.5 0
      vertex 77.5 17.5 0
    endloop
  endfacet
  facet normal 0.768221 0 -0.640184
    outer loop
      vertex 77.5 2.5 0
      vertex 80 18.8448 3
      vertex 80 0 3
    endloop
  endfacet
  facet normal 0.768221 0 -0.640184
    outer loop
      vertex 80 22.4314 3
      vertex 77.5 37.5 0
      vertex 80 40 3
    endloop
  endfacet
  facet normal 0.768221 0 -0.640184
    outer loop
      vertex 77.5 37.5 0
      vertex 80 22.4314 3
      vertex 77.5 24.0693 0
    endloop
  endfacet
  facet normal 0.768221 0 -0.640184
    outer loop
      vertex 80 58.5514 3
      vertex 77.5 42.5 0
      vertex 77.5 56.9135 0
    endloop
  endfacet
  facet normal 0.768221 0 -0.640184
    outer loop
      vertex 77.5 42.5 0
      vertex 80 58.5514 3
      vertex 80 40 3
    endloop
  endfacet
  facet normal 0.768221 0 -0.640184
    outer loop
      vertex 100 80 3
      vertex 97.5 62.5 0
      vertex 97.5 77.5 0
    endloop
  endfacet
  facet normal 0.768221 0 -0.640184
    outer loop
      vertex 97.5 62.5 0
      vertex 100 80 3
      vertex 100 60 3
    endloop
  endfacet
  facet normal 0.768221 0 -0.640184
    outer loop
      vertex 100 20 3
      vertex 97.5 2.5 0
      vertex 97.5 17.5 0
    endloop
  endfacet
  facet normal 0.768221 0 -0.640184
    outer loop
      vertex 97.5 2.5 0
      vertex 100 20 3
      vertex 100 0 3
    endloop
  endfacet
  facet normal 0.768221 0 -0.640184
    outer loop
      vertex 100 60 3
      vertex 97.5 42.5 0
      vertex 97.5 57.5 0
    endloop
  endfacet
  facet normal 0.768221 0 -0.640184
    outer loop
      vertex 97.5 42.5 0
      vertex 100 60 3
      vertex 100 40 3
    endloop
  endfacet
  facet normal 0.768221 0 -0.640184
    outer loop
      vertex 100 40 3
      vertex 97.5 22.5 0
      vertex 97.5 37.5 0
    endloop
  endfacet
  facet normal 0.768221 0 -0.640184
    outer loop
      vertex 97.5 22.5 0
      vertex 100 40 3
      vertex 100 20 3
    endloop
  endfacet
  facet normal 1 0 0
    outer loop
      vertex 100 80 53.25
      vertex 100 60 3
      vertex 100 80 3
    endloop
  endfacet
  facet normal 1 0 0
    outer loop
      vertex 100 80 53.25
      vertex 100 40 3
      vertex 100 60 3
    endloop
  endfacet
  facet normal 1 -0 0
    outer loop
      vertex 100 0 53.25
      vertex 100 40 3
      vertex 100 80 53.25
    endloop
  endfacet
  facet normal 1 0 0
    outer loop
      vertex 100 40 3
      vertex 100 0 53.25
      vertex 100 20 3
    endloop
  endfacet
  facet normal 1 0 0
    outer loop
      vertex 100 20 3
      vertex 100 0 53.25
      vertex 100 0 3
    endloop
  endfacet
  facet normal 0 0 1
    outer loop
      vertex 35 80 53.25
      vertex 6.5 68.5 53.25
      vertex 35 68.5 53.25
    endloop
  endfacet
  facet normal 0 0 1
    outer loop
      vertex 6.5 68.5 53.25
      vertex 0 80 53.25
      vertex 6.5 11.5 53.25
    endloop
  endfacet
  facet normal -0 0 1
    outer loop
      vertex 0 80 53.25
      vertex 6.5 68.5 53.25
      vertex 35 80 53.25
    endloop
  endfacet
  facet normal -0 0 1
    outer loop
      vertex 6.5 11.5 53.25
      vertex 35 0 53.25
      vertex 35 11.5 53.25
    endloop
  endfacet
  facet normal 0 0 1
    outer loop
      vertex 6.5 11.5 53.25
      vertex 0 0 53.25
      vertex 35 0 53.25
    endloop
  endfacet
  facet normal 0 0 1
    outer loop
      vertex 0 0 53.25
      vertex 6.5 11.5 53.25
      vertex 0 80 53.25
    endloop
  endfacet
  facet normal 0 0 1
    outer loop
      vertex 100 80 53.25
      vertex 93.5 68.5 53.25
      vertex 100 0 53.25
    endloop
  endfacet
  facet normal -0 0 1
    outer loop
      vertex 65 80 53.25
      vertex 93.5 68.5 53.25
      vertex 100 80 53.25
    endloop
  endfacet
  facet normal 0 0 1
    outer loop
      vertex 93.5 68.5 53.25
      vertex 65 80 53.25
      vertex 65 68.5 53.25
    endloop
  endfacet
  facet normal -0 0 1
    outer loop
      vertex 93.5 11.5 53.25
      vertex 100 0 53.25
      vertex 93.5 68.5 53.25
    endloop
  endfacet
  facet normal 0 0 1
    outer loop
      vertex 65 0 53.25
      vertex 93.5 11.5 53.25
      vertex 65 11.5 53.25
    endloop
  endfacet
  facet normal 0 0 1
    outer loop
      vertex 93.5 11.5 53.25
      vertex 65 0 53.25
      vertex 100 0 53.25
    endloop
  endfacet
  facet normal -1 0 0
    outer loop
      vertex 0 60 3
      vertex 0 80 53.25
      vertex 0 80 3
    endloop
  endfacet
  facet normal -1 0 0
    outer loop
      vertex 0 40 3
      vertex 0 80 53.25
      vertex 0 60 3
    endloop
  endfacet
  facet normal -1 0 0
    outer loop
      vertex 0 0 53.25
      vertex 0 40 3
      vertex 0 20 3
    endloop
  endfacet
  facet normal -1 0 0
    outer loop
      vertex 0 0 53.25
      vertex 0 20 3
      vertex 0 0 3
    endloop
  endfacet
  facet normal -1 0 0
    outer loop
      vertex 0 40 3
      vertex 0 0 53.25
      vertex 0 80 53.25
    endloop
  endfacet
  facet normal 0 1 -0
    outer loop
      vertex 80 80 3
      vertex 65 80 53.25
      vertex 100 80 53.25
    endloop
  endfacet
  facet normal 0 1 0
    outer loop
      vertex 65 80 53.25
      vertex 80 80 3
      vertex 65 80 6
    endloop
  endfacet
  facet normal 0 1 0
    outer loop
      vertex 80 80 3
      vertex 100 80 53.25
      vertex 100 80 3
    endloop
  endfacet
  facet normal 0 1 0
    outer loop
      vertex 20 80 3
      vertex 35 80 53.25
      vertex 35 80 6
    endloop
  endfacet
  facet normal 0 1 0
    outer loop
      vertex 60 80 3
      vertex 65 80 6
      vertex 80 80 3
    endloop
  endfacet
  facet normal 0 1 0
    outer loop
      vertex 65 80 6
      vertex 60 80 3
      vertex 35 80 6
    endloop
  endfacet
  facet normal 0 1 -0
    outer loop
      vertex 40 80 3
      vertex 35 80 6
      vertex 60 80 3
    endloop
  endfacet
  facet normal 0 1 0
    outer loop
      vertex 20 80 3
      vertex 35 80 6
      vertex 40 80 3
    endloop
  endfacet
  facet normal 0 1 0
    outer loop
      vertex 35 80 53.25
      vertex 20 80 3
      vertex 0 80 53.25
    endloop
  endfacet
  facet normal 0 1 0
    outer loop
      vertex 0 80 53.25
      vertex 20 80 3
      vertex 0 80 3
    endloop
  endfacet
  facet normal 0 -1 0
    outer loop
      vertex 20 0 3
      vertex 35 0 53.25
      vertex 0 0 53.25
    endloop
  endfacet
  facet normal 0 -1 -0
    outer loop
      vertex 35 0 53.25
      vertex 20 0 3
      vertex 35 0 6
    endloop
  endfacet
  facet normal 0 -1 0
    outer loop
      vertex 20 0 3
      vertex 0 0 53.25
      vertex 0 0 3
    endloop
  endfacet
  facet normal 0 -1 0
    outer loop
      vertex 80 0 3
      vertex 65 0 53.25
      vertex 65 0 6
    endloop
  endfacet
  facet normal 0 -1 0
    outer loop
      vertex 40 0 3
      vertex 35 0 6
      vertex 20 0 3
    endloop
  endfacet
  facet normal 0 -1 0
    outer loop
      vertex 35 0 6
      vertex 40 0 3
      vertex 65 0 6
    endloop
  endfacet
  facet normal 0 -1 0
    outer loop
      vertex 60 0 3
      vertex 65 0 6
      vertex 40 0 3
    endloop
  endfacet
  facet normal 0 -1 0
    outer loop
      vertex 80 0 3
      vertex 65 0 6
      vertex 60 0 3
    endloop
  endfacet
  facet normal 0 -1 0
    outer loop
      vertex 65 0 53.25
      vertex 80 0 3
      vertex 100 0 53.25
    endloop
  endfacet
  facet normal 0 -1 -0
    outer loop
      vertex 100 0 53.25
      vertex 80 0 3
      vertex 100 0 3
    endloop
  endfacet
  facet normal 0 0 1
    outer loop
      vertex 49.6976 38.6981 6
      vertex 8.18472 11.5 6
      vertex 35 11.5 6
    endloop
  endfacet
  facet normal 0 0 1
    outer loop
      vertex 49.6976 38.6981 6
      vertex 65 11.5 6
      vertex 91.2105 11.5 6
    endloop
  endfacet
  facet normal 0 0 1
    outer loop
      vertex 35 11.5 6
      vertex 65 11.5 6
      vertex 49.6976 38.6981 6
    endloop
  endfacet
  facet normal 0 0 1
    outer loop
      vertex 65 11.5 6
      vertex 35 11.5 6
      vertex 65 0 6
    endloop
  endfacet
  facet normal 0 0 1
    outer loop
      vertex 65 0 6
      vertex 35 11.5 6
      vertex 35 0 6
    endloop
  endfacet
  facet normal 0 0 1
    outer loop
      vertex 35 68.5 6
      vertex 65 68.5 6
      vertex 65 80 6
    endloop
  endfacet
  facet normal 0 0 1
    outer loop
      vertex 35 68.5 6
      vertex 65 80 6
      vertex 35 80 6
    endloop
  endfacet
  facet normal 0 0 1
    outer loop
      vertex 65 68.5 6
      vertex 35 68.5 6
      vertex 49.6976 42.2846 6
    endloop
  endfacet
  facet normal 0 0 1
    outer loop
      vertex 49.6976 42.2846 6
      vertex 35 68.5 6
      vertex 9.68472 68.5 6
    endloop
  endfacet
  facet normal 0 0 1
    outer loop
      vertex 89.7105 68.5 6
      vertex 65 68.5 6
      vertex 49.6976 42.2846 6
    endloop
  endfacet
  facet normal 0 0 1
    outer loop
      vertex 6.5 67 6
      vertex 6.5 13.9828 6
      vertex 46.9605 40.4914 6
    endloop
  endfacet
  facet normal 0 0 1
    outer loop
      vertex 93.5 67.3962 6
      vertex 52.4347 40.4914 6
      vertex 93.5 13.5865 6
    endloop
  endfacet
  facet normal 0 1 0
    outer loop
      vertex 35 11.5 53.25
      vertex 8.18472 11.5 26.75
      vertex 6.5 11.5 53.25
    endloop
  endfacet
  facet normal 0 1 -0
    outer loop
      vertex 35 11.5 6
      vertex 8.18472 11.5 26.75
      vertex 35 11.5 53.25
    endloop
  endfacet
  facet normal 0 1 0
    outer loop
      vertex 8.18472 11.5 26.75
      vertex 35 11.5 6
      vertex 8.18472 11.5 6
    endloop
  endfacet
  facet normal 0 1 0
    outer loop
      vertex 6.5 11.5 53.25
      vertex 8.18472 11.5 26.75
      vertex 6.5 11.5 26.75
    endloop
  endfacet
  facet normal 1 -0 0
    outer loop
      vertex 35 0 53.25
      vertex 35 11.5 6
      vertex 35 11.5 53.25
    endloop
  endfacet
  facet normal 1 0 0
    outer loop
      vertex 35 11.5 6
      vertex 35 0 53.25
      vertex 35 0 6
    endloop
  endfacet
  facet normal -1 0 0
    outer loop
      vertex 65 0 6
      vertex 65 11.5 53.25
      vertex 65 11.5 6
    endloop
  endfacet
  facet normal -1 -0 0
    outer loop
      vertex 65 11.5 53.25
      vertex 65 0 6
      vertex 65 0 53.25
    endloop
  endfacet
  facet normal 0 1 0
    outer loop
      vertex 91.2105 11.5 26.75
      vertex 93.5 11.5 53.25
      vertex 93.5 11.5 26.75
    endloop
  endfacet
  facet normal 0 1 0
    outer loop
      vertex 93.5 11.5 53.25
      vertex 91.2105 11.5 26.75
      vertex 65 11.5 53.25
    endloop
  endfacet
  facet normal 0 1 0
    outer loop
      vertex 65 11.5 6
      vertex 91.2105 11.5 26.75
      vertex 91.2105 11.5 6
    endloop
  endfacet
  facet normal 0 1 0
    outer loop
      vertex 91.2105 11.5 26.75
      vertex 65 11.5 6
      vertex 65 11.5 53.25
    endloop
  endfacet
  facet normal -1 0 0
    outer loop
      vertex 93.5 67.3962 6
      vertex 93.5 13.5865 6
      vertex 93.5 67.3962 26.75
    endloop
  endfacet
  facet normal -1 0 0
    outer loop
      vertex 93.5 67.3962 26.75
      vertex 93.5 68.5 53.25
      vertex 93.5 68.5 26.75
    endloop
  endfacet
  facet normal -1 0 0
    outer loop
      vertex 93.5 13.5865 26.75
      vertex 93.5 67.3962 26.75
      vertex 93.5 13.5865 6
    endloop
  endfacet
  facet normal -1 0 0
    outer loop
      vertex 93.5 67.3962 26.75
      vertex 93.5 13.5865 26.75
      vertex 93.5 68.5 53.25
    endloop
  endfacet
  facet normal -1 0 0
    outer loop
      vertex 93.5 11.5 53.25
      vertex 93.5 13.5865 26.75
      vertex 93.5 11.5 26.75
    endloop
  endfacet
  facet normal -1 0 0
    outer loop
      vertex 93.5 13.5865 26.75
      vertex 93.5 11.5 53.25
      vertex 93.5 68.5 53.25
    endloop
  endfacet
  facet normal 0 -1 0
    outer loop
      vertex 65 68.5 53.25
      vertex 89.7105 68.5 26.75
      vertex 93.5 68.5 53.25
    endloop
  endfacet
  facet normal 0 -1 0
    outer loop
      vertex 65 68.5 6
      vertex 89.7105 68.5 26.75
      vertex 65 68.5 53.25
    endloop
  endfacet
  facet normal 0 -1 -0
    outer loop
      vertex 89.7105 68.5 26.75
      vertex 65 68.5 6
      vertex 89.7105 68.5 6
    endloop
  endfacet
  facet normal 0 -1 -0
    outer loop
      vertex 93.5 68.5 53.25
      vertex 89.7105 68.5 26.75
      vertex 93.5 68.5 26.75
    endloop
  endfacet
  facet normal -1 0 0
    outer loop
      vertex 65 68.5 6
      vertex 65 80 53.25
      vertex 65 80 6
    endloop
  endfacet
  facet normal -1 -0 0
    outer loop
      vertex 65 80 53.25
      vertex 65 68.5 6
      vertex 65 68.5 53.25
    endloop
  endfacet
  facet normal 1 -0 0
    outer loop
      vertex 35 68.5 53.25
      vertex 35 80 6
      vertex 35 80 53.25
    endloop
  endfacet
  facet normal 1 0 0
    outer loop
      vertex 35 80 6
      vertex 35 68.5 53.25
      vertex 35 68.5 6
    endloop
  endfacet
  facet normal 0 -1 0
    outer loop
      vertex 9.68472 68.5 26.75
      vertex 6.5 68.5 53.25
      vertex 6.5 68.5 26.75
    endloop
  endfacet
  facet normal 0 -1 0
    outer loop
      vertex 6.5 68.5 53.25
      vertex 9.68472 68.5 26.75
      vertex 35 68.5 53.25
    endloop
  endfacet
  facet normal 0 -1 0
    outer loop
      vertex 35 68.5 6
      vertex 9.68472 68.5 26.75
      vertex 9.68472 68.5 6
    endloop
  endfacet
  facet normal 0 -1 0
    outer loop
      vertex 9.68472 68.5 26.75
      vertex 35 68.5 6
      vertex 35 68.5 53.25
    endloop
  endfacet
  facet normal 1 0 0
    outer loop
      vertex 6.5 68.5 53.25
      vertex 6.5 67 26.75
      vertex 6.5 68.5 26.75
    endloop
  endfacet
  facet normal 1 0 0
    outer loop
      vertex 6.5 67 26.75
      vertex 6.5 13.9828 26.75
      vertex 6.5 67 6
    endloop
  endfacet
  facet normal 1 0 0
    outer loop
      vertex 6.5 68.5 53.25
      vertex 6.5 13.9828 26.75
      vertex 6.5 67 26.75
    endloop
  endfacet
  facet normal 1 -0 0
    outer loop
      vertex 6.5 11.5 53.25
      vertex 6.5 13.9828 26.75
      vertex 6.5 68.5 53.25
    endloop
  endfacet
  facet normal 1 0 0
    outer loop
      vertex 6.5 13.9828 26.75
      vertex 6.5 11.5 53.25
      vertex 6.5 11.5 26.75
    endloop
  endfacet
  facet normal 1 0 0
    outer loop
      vertex 6.5 67 6
      vertex 6.5 13.9828 26.75
      vertex 6.5 13.9828 6
    endloop
  endfacet
  facet normal 0.548026 -0.836461 0
    outer loop
      vertex 8.18472 11.5 6
      vertex 49.6976 38.6981 26.75
      vertex 8.18472 11.5 26.75
    endloop
  endfacet
  facet normal 0.548026 -0.836461 0
    outer loop
      vertex 49.6976 38.6981 26.75
      vertex 8.18472 11.5 6
      vertex 49.6976 38.6981 6
    endloop
  endfacet
  facet normal 0.548022 -0.836464 0
    outer loop
      vertex 49.6976 38.6981 1.43773
      vertex 47.8689 37.5 0
      vertex 49.6976 38.6981 0
    endloop
  endfacet
  facet normal 0.548026 -0.836462 0
    outer loop
      vertex 52.4347 40.4914 6
      vertex 93.5 67.3962 26.75
      vertex 52.4347 40.4914 26.75
    endloop
  endfacet
  facet normal 0.548026 -0.836462 0
    outer loop
      vertex 93.5 67.3962 26.75
      vertex 52.4347 40.4914 6
      vertex 93.5 67.3962 6
    endloop
  endfacet
  facet normal 0.548021 -0.836465 0
    outer loop
      vertex 52.4347 40.4914 2.41035
      vertex 52.4347 40.4914 0
      vertex 55.5005 42.5 0
    endloop
  endfacet
  facet normal 0.548088 -0.836421 -8.40894e-05
    outer loop
      vertex 20 19.241 3
      vertex 17.799 17.799 0.358845
      vertex 20.4585 19.5415 2.44976
    endloop
  endfacet
  facet normal 0.548028 -0.83646 2.49778e-05
    outer loop
      vertex 24.9742 22.5 0
      vertex 20.4585 19.5415 2.44976
      vertex 17.799 17.799 0.358845
    endloop
  endfacet
  facet normal 0.548003 -0.836477 -4.09742e-05
    outer loop
      vertex 20.4585 19.5415 2.44976
      vertex 24.9742 22.5 0
      vertex 21.1584 20 3
    endloop
  endfacet
  facet normal 0.548025 -0.836462 -4.63045e-05
    outer loop
      vertex 24.9742 22.5 0
      vertex 17.799 17.799 0.358845
      vertex 17.3426 17.5 0
    endloop
  endfacet
  facet normal 0.548019 -0.836466 -9.90575e-16
    outer loop
      vertex 40 32.3445 3
      vertex 37.5 30.7066 0
      vertex 42.5 33.9824 0
    endloop
  endfacet
  facet normal 0.548031 -0.836458 -1.3941e-05
    outer loop
      vertex 60 45.4479 3
      vertex 57.5 43.81 0
      vertex 62.5 47.0859 0
    endloop
  endfacet
  facet normal 0.54802 -0.836465 -1.58016e-06
    outer loop
      vertex 80 58.5514 3
      vertex 77.5 56.9135 0
      vertex 80.8752 59.1248 1.94976
    endloop
  endfacet
  facet normal 0.54803 -0.836459 9.20063e-06
    outer loop
      vertex 80.8752 59.1248 1.94976
      vertex 86.0268 62.5 0
      vertex 82.211 60 3
    endloop
  endfacet
  facet normal 0.548025 -0.836462 -1.21737e-05
    outer loop
      vertex 86.0268 62.5 0
      vertex 80.8752 59.1248 1.94976
      vertex 77.5 56.9135 0
    endloop
  endfacet
  facet normal -0 0 1
    outer loop
      vertex 89.7105 68.5 26.75
      vertex 93.5 67.3962 26.75
      vertex 93.5 68.5 26.75
    endloop
  endfacet
  facet normal 0 0 1
    outer loop
      vertex 89.7105 68.5 26.75
      vertex 52.4347 40.4914 26.75
      vertex 93.5 67.3962 26.75
    endloop
  endfacet
  facet normal 0 -0 1
    outer loop
      vertex 52.4347 40.4914 26.75
      vertex 89.7105 68.5 26.75
      vertex 49.6976 42.2846 26.75
    endloop
  endfacet
  facet normal 0 0 1
    outer loop
      vertex 93.5 13.5865 26.75
      vertex 91.2105 11.5 26.75
      vertex 93.5 11.5 26.75
    endloop
  endfacet
  facet normal 0 0 1
    outer loop
      vertex 52.4347 40.4914 26.75
      vertex 91.2105 11.5 26.75
      vertex 93.5 13.5865 26.75
    endloop
  endfacet
  facet normal 0 0 1
    outer loop
      vertex 49.6976 38.6981 26.75
      vertex 52.4347 40.4914 26.75
      vertex 49.6976 42.2846 26.75
    endloop
  endfacet
  facet normal 0 0 1
    outer loop
      vertex 52.4347 40.4914 26.75
      vertex 49.6976 38.6981 26.75
      vertex 91.2105 11.5 26.75
    endloop
  endfacet
  facet normal 0 0 1
    outer loop
      vertex 49.6976 42.2846 26.75
      vertex 46.9605 40.4914 26.75
      vertex 49.6976 38.6981 26.75
    endloop
  endfacet
  facet normal 0 0 1
    outer loop
      vertex 9.68472 68.5 26.75
      vertex 46.9605 40.4914 26.75
      vertex 49.6976 42.2846 26.75
    endloop
  endfacet
  facet normal 0 0 1
    outer loop
      vertex 6.5 67 26.75
      vertex 9.68472 68.5 26.75
      vertex 6.5 68.5 26.75
    endloop
  endfacet
  facet normal 0 0 1
    outer loop
      vertex 9.68472 68.5 26.75
      vertex 6.5 67 26.75
      vertex 46.9605 40.4914 26.75
    endloop
  endfacet
  facet normal 0 0 1
    outer loop
      vertex 46.9605 40.4914 26.75
      vertex 8.18472 11.5 26.75
      vertex 49.6976 38.6981 26.75
    endloop
  endfacet
  facet normal -0 0 1
    outer loop
      vertex 6.5 13.9828 26.75
      vertex 8.18472 11.5 26.75
      vertex 46.9605 40.4914 26.75
    endloop
  endfacet
  facet normal 0 0 1
    outer loop
      vertex 8.18472 11.5 26.75
      vertex 6.5 13.9828 26.75
      vertex 6.5 11.5 26.75
    endloop
  endfacet
  facet normal -0.548026 0.836461 0
    outer loop
      vertex 46.9605 40.4914 6
      vertex 6.5 13.9828 26.75
      vertex 46.9605 40.4914 26.75
    endloop
  endfacet
  facet normal -0.548026 0.836461 0
    outer loop
      vertex 6.5 13.9828 26.75
      vertex 46.9605 40.4914 6
      vertex 6.5 13.9828 6
    endloop
  endfacet
  facet normal -0.548042 0.836451 0
    outer loop
      vertex 46.9605 40.4914 0
      vertex 46.2105 40 3
      vertex 46.9605 40.4914 2.41035
    endloop
  endfacet
  facet normal -0.548024 0.836463 6.58782e-06
    outer loop
      vertex 46.2105 40 3
      vertex 46.9605 40.4914 0
      vertex 42.4583 37.5417 0.0499999
    endloop
  endfacet
  facet normal -0.548033 0.836457 1.70372e-05
    outer loop
      vertex 42.4583 37.5417 0.0499999
      vertex 37.5 34.2931 0
      vertex 40 35.931 3
    endloop
  endfacet
  facet normal -0.548029 0.836459 -0.00061787
    outer loop
      vertex 37.5 34.2931 0
      vertex 42.4583 37.5417 0.0499999
      vertex 46.9605 40.4914 0
    endloop
  endfacet
  facet normal -0.548027 0.836461 0
    outer loop
      vertex 89.7105 68.5 6
      vertex 49.6976 42.2846 26.75
      vertex 89.7105 68.5 26.75
    endloop
  endfacet
  facet normal -0.548027 0.836461 0
    outer loop
      vertex 49.6976 42.2846 26.75
      vertex 89.7105 68.5 6
      vertex 49.6976 42.2846 6
    endloop
  endfacet
  facet normal -0.548106 0.836409 0
    outer loop
      vertex 50.0263 42.5 0
      vertex 49.6976 42.2846 0
      vertex 49.6976 42.2846 0.258422
    endloop
  endfacet
  facet normal -0.548034 0.836456 -1.83965e-05
    outer loop
      vertex 20 22.8276 3
      vertex 22.5 24.4655 0
      vertex 18.2917 21.7083 0.95
    endloop
  endfacet
  facet normal -0.548019 0.836466 -1.17015e-05
    outer loop
      vertex 18.2917 21.7083 0.95
      vertex 11.8684 17.5 0
      vertex 15.6842 20 3
    endloop
  endfacet
  facet normal -0.548025 0.836462 4.4214e-05
    outer loop
      vertex 11.8684 17.5 0
      vertex 18.2917 21.7083 0.95
      vertex 22.5 24.4655 0
    endloop
  endfacet
  facet normal -0.548019 0.836466 0
    outer loop
      vertex 62.5 50.6724 0
      vertex 57.5 47.3966 0
      vertex 60 49.0345 3
    endloop
  endfacet
  facet normal -0.548015 0.836469 3.28755e-05
    outer loop
      vertex 80 62.1379 3
      vertex 82.5 63.7759 0
      vertex 78.7083 61.2917 1.45
    endloop
  endfacet
  facet normal -0.548035 0.836456 -7.29054e-07
    outer loop
      vertex 78.7083 61.2917 1.45
      vertex 72.9211 57.5 0
      vertex 76.7368 60 3
    endloop
  endfacet
  facet normal -0.54803 0.836458 -2.5694e-05
    outer loop
      vertex 72.9211 57.5 0
      vertex 78.7083 61.2917 1.45
      vertex 82.5 63.7759 0
    endloop
  endfacet
  facet normal 0.548027 0.836461 -0
    outer loop
      vertex 49.6976 42.2846 6
      vertex 9.68472 68.5 26.75
      vertex 49.6976 42.2846 26.75
    endloop
  endfacet
  facet normal 0.548027 0.836461 0
    outer loop
      vertex 9.68472 68.5 26.75
      vertex 49.6976 42.2846 6
      vertex 9.68472 68.5 6
    endloop
  endfacet
  facet normal 0.548106 0.836409 -0
    outer loop
      vertex 49.6976 42.2846 0
      vertex 49.3689 42.5 0
      vertex 49.6976 42.2846 0.258422
    endloop
  endfacet
  facet normal 0.548027 0.836461 -0
    outer loop
      vertex 93.5 13.5865 6
      vertex 52.4347 40.4914 26.75
      vertex 93.5 13.5865 26.75
    endloop
  endfacet
  facet normal 0.548027 0.836461 0
    outer loop
      vertex 52.4347 40.4914 26.75
      vertex 93.5 13.5865 6
      vertex 52.4347 40.4914 6
    endloop
  endfacet
  facet normal 0.548028 0.83646 5.13696e-06
    outer loop
      vertex 52.4347 40.4914 0
      vertex 53.1847 40 3
      vertex 57.0005 37.5 0
    endloop
  endfacet
  facet normal 0.548042 0.836451 0
    outer loop
      vertex 53.1847 40 3
      vertex 52.4347 40.4914 0
      vertex 52.4347 40.4914 2.41035
    endloop
  endfacet
  facet normal 0.548031 0.836458 1.00983e-05
    outer loop
      vertex 22.6584 60 3
      vertex 26.4742 57.5 0
      vertex 21.0523 61.0523 1.73726
    endloop
  endfacet
  facet normal 0.548012 0.83647 8.23653e-06
    outer loop
      vertex 21.0523 61.0523 1.73726
      vertex 17.5 63.3796 0
      vertex 20 61.7417 3
    endloop
  endfacet
  facet normal 0.548023 0.836463 -2.4005e-05
    outer loop
      vertex 17.5 63.3796 0
      vertex 21.0523 61.0523 1.73726
      vertex 26.4742 57.5 0
    endloop
  endfacet
  facet normal 0.548031 0.836458 -1.3941e-05
    outer loop
      vertex 42.5 47.0003 0
      vertex 37.5 50.2762 0
      vertex 40 48.6383 3
    endloop
  endfacet
  facet normal 0.548019 0.836466 9.90575e-16
    outer loop
      vertex 62.5 33.8969 0
      vertex 57.5 37.1727 0
      vertex 60 35.5348 3
    endloop
  endfacet
  facet normal 0.548031 0.836458 9.96097e-06
    outer loop
      vertex 83.711 20 3
      vertex 87.5268 17.5 0
      vertex 81.4689 21.469 1.23726
    endloop
  endfacet
  facet normal 0.548026 0.836461 -8.41724e-06
    outer loop
      vertex 81.4689 21.469 1.23726
      vertex 77.5 24.0693 0
      vertex 80 22.4314 3
    endloop
  endfacet
  facet normal 0.548027 0.83646 -1.39388e-05
    outer loop
      vertex 77.5 24.0693 0
      vertex 81.4689 21.469 1.23726
      vertex 87.5268 17.5 0
    endloop
  endfacet
  facet normal -0.548026 -0.836461 0
    outer loop
      vertex 6.5 67 6
      vertex 46.9605 40.4914 26.75
      vertex 6.5 67 26.75
    endloop
  endfacet
  facet normal -0.548026 -0.836461 -0
    outer loop
      vertex 46.9605 40.4914 26.75
      vertex 6.5 67 6
      vertex 46.9605 40.4914 6
    endloop
  endfacet
  facet normal -0.548026 -0.836461 0
    outer loop
      vertex 49.6976 38.6981 6
      vertex 91.2105 11.5 26.75
      vertex 49.6976 38.6981 26.75
    endloop
  endfacet
  facet normal -0.548026 -0.836461 -0
    outer loop
      vertex 91.2105 11.5 26.75
      vertex 49.6976 38.6981 6
      vertex 91.2105 11.5 6
    endloop
  endfacet
  facet normal -0.548021 -0.836465 -0
    outer loop
      vertex 46.9605 40.4914 2.41035
      vertex 43.8947 42.5 0
      vertex 46.9605 40.4914 0
    endloop
  endfacet
  facet normal -0.548022 -0.836464 -0
    outer loop
      vertex 49.6976 38.6981 1.43773
      vertex 49.6976 38.6981 0
      vertex 51.5263 37.5 0
    endloop
  endfacet
  facet normal -0.548029 -0.836459 7.43102e-06
    outer loop
      vertex 17.1842 60 3
      vertex 13.3684 62.5 0
      vertex 18.8854 58.8854 1.6625
    endloop
  endfacet
  facet normal -0.54802 -0.836465 2.68668e-05
    outer loop
      vertex 18.8854 58.8854 1.6625
      vertex 22.5 56.5172 0
      vertex 20 58.1552 3
    endloop
  endfacet
  facet normal -0.548028 -0.83646 1.44577e-06
    outer loop
      vertex 22.5 56.5172 0
      vertex 18.8854 58.8854 1.6625
      vertex 13.3684 62.5 0
    endloop
  endfacet
  facet normal -0.548031 -0.836458 -1.3941e-05
    outer loop
      vertex 40 45.0517 3
      vertex 37.5 46.6897 0
      vertex 42.5 43.4138 0
    endloop
  endfacet
  facet normal -0.548031 -0.836458 1.3941e-05
    outer loop
      vertex 60 31.9483 3
      vertex 57.5 33.5862 0
      vertex 62.5 30.3103 0
    endloop
  endfacet
  facet normal -0.548016 -0.836468 -3.57238e-05
    outer loop
      vertex 78.2368 20 3
      vertex 74.4211 22.5 0
      vertex 79.3021 19.3021 2.1625
    endloop
  endfacet
  facet normal -0.548046 -0.836448 -3.18783e-05
    outer loop
      vertex 79.3021 19.3021 2.1625
      vertex 82.5 17.2069 0
      vertex 80 18.8448 3
    endloop
  endfacet
  facet normal -0.548028 -0.83646 5.1129e-06
    outer loop
      vertex 82.5 17.2069 0
      vertex 79.3021 19.3021 2.1625
      vertex 74.4211 22.5 0
    endloop
  endfacet
endsolid OpenSCAD_Model
