solid OpenSCAD_Model
  facet normal 0 1 -0
    outer loop
      vertex 20 20 0
      vertex 0 20 3
      vertex 20 20 3
    endloop
  endfacet
  facet normal 0 1 0
    outer loop
      vertex -20 20 0
      vertex 0 20 3
      vertex 20 20 0
    endloop
  endfacet
  facet normal 0 1 0
    outer loop
      vertex 0 20 3
      vertex -20 20 0
      vertex -20 20 3
    endloop
  endfacet
  facet normal 0 -1 0
    outer loop
      vertex -20 -20 0
      vertex 0 -20 3
      vertex -20 -20 3
    endloop
  endfacet
  facet normal 0 -1 0
    outer loop
      vertex 20 -20 0
      vertex 0 -20 3
      vertex -20 -20 0
    endloop
  endfacet
  facet normal 0 -1 0
    outer loop
      vertex 0 -20 3
      vertex 20 -20 0
      vertex 20 -20 3
    endloop
  endfacet
  facet normal 0.768221 0 0.640184
    outer loop
      vertex -20 0 3
      vertex -17.5 -17.5 0
      vertex -17.5 -2.5 0
    endloop
  endfacet
  facet normal 0.768221 0 0.640184
    outer loop
      vertex -17.5 -17.5 0
      vertex -20 0 3
      vertex -20 -20 3
    endloop
  endfacet
  facet normal 0.768221 0 0.640184
    outer loop
      vertex -20 20 3
      vertex -17.5 2.5 0
      vertex -17.5 17.5 0
    endloop
  endfacet
  facet normal 0.768221 0 0.640184
    outer loop
      vertex -17.5 2.5 0
      vertex -20 20 3
      vertex -20 0 3
    endloop
  endfacet
  facet normal 0 0 -1
    outer loop
      vertex -17.5 -2.5 0
      vertex -2.5 2.5 0
      vertex -2.5 -2.5 0
    endloop
  endfacet
  facet normal -0 0 -1
    outer loop
      vertex -2.5 2.5 0
      vertex -17.5 -2.5 0
      vertex -17.5 2.5 0
    endloop
  endfacet
  facet normal 0 0 -1
    outer loop
      vertex 2.5 -2.5 0
      vertex 17.5 2.5 0
      vertex 17.5 -2.5 0
    endloop
  endfacet
  facet normal -0 0 -1
    outer loop
      vertex 17.5 2.5 0
      vertex 2.5 -2.5 0
      vertex 2.5 2.5 0
    endloop
  endfacet
  facet normal 0 0 -1
    outer loop
      vertex 17.5 -2.5 0
      vertex 20 -20 0
      vertex 17.5 -17.5 0
    endloop
  endfacet
  facet normal 0 0 -1
    outer loop
      vertex 20 -20 0
      vertex 2.5 -17.5 0
      vertex 17.5 -17.5 0
    endloop
  endfacet
  facet normal 0 0 -1
    outer loop
      vertex -2.5 -2.5 0
      vertex 2.5 -2.5 0
      vertex 2.5 -17.5 0
    endloop
  endfacet
  facet normal 0 0 -1
    outer loop
      vertex 2.5 -2.5 0
      vertex -2.5 -2.5 0
      vertex 2.5 2.5 0
    endloop
  endfacet
  facet normal 0 0 -1
    outer loop
      vertex -2.5 -2.5 0
      vertex 2.5 -17.5 0
      vertex -2.5 -17.5 0
    endloop
  endfacet
  facet normal 0 0 -1
    outer loop
      vertex 20 -20 0
      vertex -2.5 -17.5 0
      vertex 2.5 -17.5 0
    endloop
  endfacet
  facet normal 0 0 -1
    outer loop
      vertex -20 -20 0
      vertex -2.5 -17.5 0
      vertex 20 -20 0
    endloop
  endfacet
  facet normal 0 0 -1
    outer loop
      vertex -20 -20 0
      vertex -17.5 -2.5 0
      vertex -17.5 -17.5 0
    endloop
  endfacet
  facet normal -0 0 -1
    outer loop
      vertex -17.5 -2.5 0
      vertex -20 -20 0
      vertex -17.5 2.5 0
    endloop
  endfacet
  facet normal 0 0 -1
    outer loop
      vertex -20 20 0
      vertex -17.5 2.5 0
      vertex -20 -20 0
    endloop
  endfacet
  facet normal -0 0 -1
    outer loop
      vertex -2.5 -17.5 0
      vertex -20 -20 0
      vertex -17.5 -17.5 0
    endloop
  endfacet
  facet normal 0 0 -1
    outer loop
      vertex 20 -20 0
      vertex 17.5 -2.5 0
      vertex 20 20 0
    endloop
  endfacet
  facet normal 0 0 -1
    outer loop
      vertex 17.5 2.5 0
      vertex 20 20 0
      vertex 17.5 -2.5 0
    endloop
  endfacet
  facet normal 0 0 -1
    outer loop
      vertex 17.5 17.5 0
      vertex 20 20 0
      vertex 17.5 2.5 0
    endloop
  endfacet
  facet normal 0 0 -1
    outer loop
      vertex 2.5 17.5 0
      vertex 20 20 0
      vertex 17.5 17.5 0
    endloop
  endfacet
  facet normal 0 0 -1
    outer loop
      vertex -2.5 2.5 0
      vertex 2.5 2.5 0
      vertex -2.5 -2.5 0
    endloop
  endfacet
  facet normal 0 0 -1
    outer loop
      vertex 2.5 2.5 0
      vertex -2.5 2.5 0
      vertex 2.5 17.5 0
    endloop
  endfacet
  facet normal 0 0 -1
    outer loop
      vertex -2.5 17.5 0
      vertex 2.5 17.5 0
      vertex -2.5 2.5 0
    endloop
  endfacet
  facet normal 0 0 -1
    outer loop
      vertex -2.5 17.5 0
      vertex 20 20 0
      vertex 2.5 17.5 0
    endloop
  endfacet
  facet normal 0 0 -1
    outer loop
      vertex -20 20 0
      vertex -2.5 17.5 0
      vertex -17.5 17.5 0
    endloop
  endfacet
  facet normal 0 0 -1
    outer loop
      vertex -2.5 17.5 0
      vertex -20 20 0
      vertex 20 20 0
    endloop
  endfacet
  facet normal 0 0 -1
    outer loop
      vertex -17.5 2.5 0
      vertex -20 20 0
      vertex -17.5 17.5 0
    endloop
  endfacet
  facet normal -1 0 0
    outer loop
      vertex -20 20 0
      vertex -20 0 3
      vertex -20 20 3
    endloop
  endfacet
  facet normal -1 0 0
    outer loop
      vertex -20 -20 0
      vertex -20 0 3
      vertex -20 20 0
    endloop
  endfacet
  facet normal -1 -0 0
    outer loop
      vertex -20 0 3
      vertex -20 -20 0
      vertex -20 -20 3
    endloop
  endfacet
  facet normal 1 -0 0
    outer loop
      vertex 20 0 3
      vertex 20 20 0
      vertex 20 20 3
    endloop
  endfacet
  facet normal 1 0 0
    outer loop
      vertex 20 -20 0
      vertex 20 0 3
      vertex 20 -20 3
    endloop
  endfacet
  facet normal 1 0 0
    outer loop
      vertex 20 0 3
      vertex 20 -20 0
      vertex 20 20 0
    endloop
  endfacet
  facet normal -0.768221 0 0.640184
    outer loop
      vertex 17.5 -17.5 0
      vertex 20 0 3
      vertex 17.5 -2.5 0
    endloop
  endfacet
  facet normal -0.768221 0 0.640184
    outer loop
      vertex 20 0 3
      vertex 17.5 -17.5 0
      vertex 20 -20 3
    endloop
  endfacet
  facet normal -0.768221 0 0.640184
    outer loop
      vertex 17.5 2.5 0
      vertex 20 20 3
      vertex 17.5 17.5 0
    endloop
  endfacet
  facet normal -0.768221 0 0.640184
    outer loop
      vertex 20 20 3
      vertex 17.5 2.5 0
      vertex 20 0 3
    endloop
  endfacet
  facet normal 0 0.768221 0.640184
    outer loop
      vertex 17.5 -17.5 0
      vertex 0 -20 3
      vertex 20 -20 3
    endloop
  endfacet
  facet normal 0 0.768221 0.640184
    outer loop
      vertex 0 -20 3
      vertex 17.5 -17.5 0
      vertex 2.5 -17.5 0
    endloop
  endfacet
  facet normal 0 0.768221 0.640184
    outer loop
      vertex -2.5 -17.5 0
      vertex -20 -20 3
      vertex 0 -20 3
    endloop
  endfacet
  facet normal 0 0.768221 0.640184
    outer loop
      vertex -20 -20 3
      vertex -2.5 -17.5 0
      vertex -17.5 -17.5 0
    endloop
  endfacet
  facet normal 0 -0.768221 0.640184
    outer loop
      vertex 2.5 17.5 0
      vertex 20 20 3
      vertex 0 20 3
    endloop
  endfacet
  facet normal 0 -0.768221 0.640184
    outer loop
      vertex 20 20 3
      vertex 2.5 17.5 0
      vertex 17.5 17.5 0
    endloop
  endfacet
  facet normal 0 -0.768221 0.640184
    outer loop
      vertex -17.5 17.5 0
      vertex 0 20 3
      vertex -20 20 3
    endloop
  endfacet
  facet normal 0 -0.768221 0.640184
    outer loop
      vertex 0 20 3
      vertex -17.5 17.5 0
      vertex -2.5 17.5 0
    endloop
  endfacet
  facet normal 0.768221 0 0.640184
    outer loop
      vertex 0 20 3
      vertex 2.5 2.5 0
      vertex 2.5 17.5 0
    endloop
  endfacet
  facet normal 0.768221 0 0.640184
    outer loop
      vertex 2.5 2.5 0
      vertex 0 20 3
      vertex 0 0 3
    endloop
  endfacet
  facet normal 0.768221 0 0.640184
    outer loop
      vertex 0 0 3
      vertex 2.5 -17.5 0
      vertex 2.5 -2.5 0
    endloop
  endfacet
  facet normal 0.768221 0 0.640184
    outer loop
      vertex 2.5 -17.5 0
      vertex 0 0 3
      vertex 0 -20 3
    endloop
  endfacet
  facet normal -0.768221 0 0.640184
    outer loop
      vertex -2.5 2.5 0
      vertex 0 20 3
      vertex -2.5 17.5 0
    endloop
  endfacet
  facet normal -0.768221 0 0.640184
    outer loop
      vertex 0 20 3
      vertex -2.5 2.5 0
      vertex 0 0 3
    endloop
  endfacet
  facet normal -0.768221 0 0.640184
    outer loop
      vertex -2.5 -17.5 0
      vertex 0 0 3
      vertex -2.5 -2.5 0
    endloop
  endfacet
  facet normal -0.768221 0 0.640184
    outer loop
      vertex 0 0 3
      vertex -2.5 -17.5 0
      vertex 0 -20 3
    endloop
  endfacet
  facet normal 0 0.768221 0.640184
    outer loop
      vertex -2.5 2.5 0
      vertex -20 0 3
      vertex 0 0 3
    endloop
  endfacet
  facet normal 0 0.768221 0.640184
    outer loop
      vertex -20 0 3
      vertex -2.5 2.5 0
      vertex -17.5 2.5 0
    endloop
  endfacet
  facet normal 0 0.768221 0.640184
    outer loop
      vertex 17.5 2.5 0
      vertex 0 0 3
      vertex 20 0 3
    endloop
  endfacet
  facet normal 0 0.768221 0.640184
    outer loop
      vertex 0 0 3
      vertex 17.5 2.5 0
      vertex 2.5 2.5 0
    endloop
  endfacet
  facet normal 0 -0.768221 0.640184
    outer loop
      vertex -17.5 -2.5 0
      vertex 0 0 3
      vertex -20 0 3
    endloop
  endfacet
  facet normal 0 -0.768221 0.640184
    outer loop
      vertex 0 0 3
      vertex -17.5 -2.5 0
      vertex -2.5 -2.5 0
    endloop
  endfacet
  facet normal 0 -0.768221 0.640184
    outer loop
      vertex 2.5 -2.5 0
      vertex 20 0 3
      vertex 0 0 3
    endloop
  endfacet
  facet normal 0 -0.768221 0.640184
    outer loop
      vertex 20 0 3
      vertex 2.5 -2.5 0
      vertex 17.5 -2.5 0
    endloop
  endfacet
endsolid OpenSCAD_Model
