solid OpenSCAD_Model
  facet normal 0 0 1
    outer loop
      vertex 36 36 18.25
      vertex 33 3 18.25
      vertex 36 3 18.25
    endloop
  endfacet
  facet normal 0 0 1
    outer loop
      vertex 33 3 18.25
      vertex 6 3 18.25
      vertex 33 0 18.25
    endloop
  endfacet
  facet normal 0 0 1
    outer loop
      vertex 36 36 18.25
      vertex 6 3 18.25
      vertex 33 3 18.25
    endloop
  endfacet
  facet normal -0 0 1
    outer loop
      vertex 3 36 18.25
      vertex 6 3 18.25
      vertex 36 36 18.25
    endloop
  endfacet
  facet normal 0 0 1
    outer loop
      vertex 6 3 18.25
      vertex 3 36 18.25
      vertex 3 3 18.25
    endloop
  endfacet
  facet normal 0 0 1
    outer loop
      vertex 33 0 18.25
      vertex 6 3 18.25
      vertex 6 0 18.25
    endloop
  endfacet
  facet normal 0 0 1
    outer loop
      vertex 6 80 53.25
      vertex 3 77 53.25
      vertex 6 77 53.25
    endloop
  endfacet
  facet normal 0 0 1
    outer loop
      vertex 0 80 53.25
      vertex 3 44 53.25
      vertex 3 77 53.25
    endloop
  endfacet
  facet normal 0 0 1
    outer loop
      vertex 3 44 53.25
      vertex 0 80 53.25
      vertex 3 36 53.25
    endloop
  endfacet
  facet normal 0 0 1
    outer loop
      vertex 0 0 53.25
      vertex 3 36 53.25
      vertex 0 80 53.25
    endloop
  endfacet
  facet normal -0 0 1
    outer loop
      vertex 0 80 53.25
      vertex 3 77 53.25
      vertex 6 80 53.25
    endloop
  endfacet
  facet normal -0 0 1
    outer loop
      vertex 3 44 53.25
      vertex 36 36 53.25
      vertex 36 44 53.25
    endloop
  endfacet
  facet normal 0 0 1
    outer loop
      vertex 36 36 53.25
      vertex 3 44 53.25
      vertex 3 36 53.25
    endloop
  endfacet
  facet normal 0 0 1
    outer loop
      vertex 46.3333 80 53.25
      vertex 43.3333 77 53.25
      vertex 46.3333 77 53.25
    endloop
  endfacet
  facet normal 0 0 1
    outer loop
      vertex 36 44 53.25
      vertex 43.3333 44 53.25
      vertex 43.3333 77 53.25
    endloop
  endfacet
  facet normal 0 0 1
    outer loop
      vertex 43.3333 44 53.25
      vertex 36 44 53.25
      vertex 43.3333 36 53.25
    endloop
  endfacet
  facet normal 0 0 1
    outer loop
      vertex 36 44 53.25
      vertex 43.3333 77 53.25
      vertex 36 77 53.25
    endloop
  endfacet
  facet normal 0 0 1
    outer loop
      vertex 46.3333 80 53.25
      vertex 36 77 53.25
      vertex 43.3333 77 53.25
    endloop
  endfacet
  facet normal -0 0 1
    outer loop
      vertex 33 80 53.25
      vertex 36 77 53.25
      vertex 46.3333 80 53.25
    endloop
  endfacet
  facet normal 0 0 1
    outer loop
      vertex 36 77 53.25
      vertex 33 80 53.25
      vertex 33 77 53.25
    endloop
  endfacet
  facet normal -0 0 1
    outer loop
      vertex 43.3333 44 53.25
      vertex 76.3333 36 53.25
      vertex 76.3333 44 53.25
    endloop
  endfacet
  facet normal 0 0 1
    outer loop
      vertex 76.3333 36 53.25
      vertex 43.3333 44 53.25
      vertex 43.3333 36 53.25
    endloop
  endfacet
  facet normal 0 0 1
    outer loop
      vertex 86.6667 80 53.25
      vertex 83.6667 77 53.25
      vertex 86.6667 77 53.25
    endloop
  endfacet
  facet normal 0 0 1
    outer loop
      vertex 76.3333 44 53.25
      vertex 83.6667 44 53.25
      vertex 83.6667 77 53.25
    endloop
  endfacet
  facet normal 0 0 1
    outer loop
      vertex 83.6667 44 53.25
      vertex 76.3333 44 53.25
      vertex 83.6667 36 53.25
    endloop
  endfacet
  facet normal 0 0 1
    outer loop
      vertex 76.3333 44 53.25
      vertex 83.6667 77 53.25
      vertex 76.3333 77 53.25
    endloop
  endfacet
  facet normal 0 0 1
    outer loop
      vertex 86.6667 80 53.25
      vertex 76.3333 77 53.25
      vertex 83.6667 77 53.25
    endloop
  endfacet
  facet normal -0 0 1
    outer loop
      vertex 73.3333 80 53.25
      vertex 76.3333 77 53.25
      vertex 86.6667 80 53.25
    endloop
  endfacet
  facet normal 0 0 1
    outer loop
      vertex 76.3333 77 53.25
      vertex 73.3333 80 53.25
      vertex 73.3333 77 53.25
    endloop
  endfacet
  facet normal -0 0 1
    outer loop
      vertex 83.6667 44 53.25
      vertex 116.667 36 53.25
      vertex 116.667 44 53.25
    endloop
  endfacet
  facet normal 0 0 1
    outer loop
      vertex 116.667 36 53.25
      vertex 83.6667 44 53.25
      vertex 83.6667 36 53.25
    endloop
  endfacet
  facet normal 0 0 1
    outer loop
      vertex 127 80 53.25
      vertex 124 77 53.25
      vertex 127 77 53.25
    endloop
  endfacet
  facet normal 0 0 1
    outer loop
      vertex 116.667 44 53.25
      vertex 124 44 53.25
      vertex 124 77 53.25
    endloop
  endfacet
  facet normal 0 0 1
    outer loop
      vertex 124 44 53.25
      vertex 116.667 44 53.25
      vertex 124 36 53.25
    endloop
  endfacet
  facet normal 0 0 1
    outer loop
      vertex 116.667 44 53.25
      vertex 124 77 53.25
      vertex 116.667 77 53.25
    endloop
  endfacet
  facet normal 0 0 1
    outer loop
      vertex 127 80 53.25
      vertex 116.667 77 53.25
      vertex 124 77 53.25
    endloop
  endfacet
  facet normal -0 0 1
    outer loop
      vertex 113.667 80 53.25
      vertex 116.667 77 53.25
      vertex 127 80 53.25
    endloop
  endfacet
  facet normal 0 0 1
    outer loop
      vertex 116.667 77 53.25
      vertex 113.667 80 53.25
      vertex 113.667 77 53.25
    endloop
  endfacet
  facet normal -0 0 1
    outer loop
      vertex 124 44 53.25
      vertex 157 36 53.25
      vertex 157 44 53.25
    endloop
  endfacet
  facet normal 0 0 1
    outer loop
      vertex 157 36 53.25
      vertex 124 44 53.25
      vertex 124 36 53.25
    endloop
  endfacet
  facet normal 0 0 1
    outer loop
      vertex 157 44 53.25
      vertex 160 80 53.25
      vertex 157 77 53.25
    endloop
  endfacet
  facet normal -0 0 1
    outer loop
      vertex 154 80 53.25
      vertex 157 77 53.25
      vertex 160 80 53.25
    endloop
  endfacet
  facet normal 0 0 1
    outer loop
      vertex 157 77 53.25
      vertex 154 80 53.25
      vertex 154 77 53.25
    endloop
  endfacet
  facet normal 0 0 1
    outer loop
      vertex 160 80 53.25
      vertex 157 44 53.25
      vertex 160 0 53.25
    endloop
  endfacet
  facet normal -0 0 1
    outer loop
      vertex 157 36 53.25
      vertex 160 0 53.25
      vertex 157 44 53.25
    endloop
  endfacet
  facet normal -0 0 1
    outer loop
      vertex 157 3 53.25
      vertex 160 0 53.25
      vertex 157 36 53.25
    endloop
  endfacet
  facet normal 0 0 1
    outer loop
      vertex 154 0 53.25
      vertex 157 3 53.25
      vertex 154 3 53.25
    endloop
  endfacet
  facet normal 0 0 1
    outer loop
      vertex 157 3 53.25
      vertex 154 0 53.25
      vertex 160 0 53.25
    endloop
  endfacet
  facet normal -0 0 1
    outer loop
      vertex 124 3 53.25
      vertex 127 0 53.25
      vertex 127 3 53.25
    endloop
  endfacet
  facet normal 0 0 1
    outer loop
      vertex 116.667 36 53.25
      vertex 124 36 53.25
      vertex 116.667 44 53.25
    endloop
  endfacet
  facet normal 0 0 1
    outer loop
      vertex 124 36 53.25
      vertex 116.667 36 53.25
      vertex 124 3 53.25
    endloop
  endfacet
  facet normal 0 0 1
    outer loop
      vertex 116.667 3 53.25
      vertex 124 3 53.25
      vertex 116.667 36 53.25
    endloop
  endfacet
  facet normal -0 0 1
    outer loop
      vertex 116.667 3 53.25
      vertex 127 0 53.25
      vertex 124 3 53.25
    endloop
  endfacet
  facet normal 0 0 1
    outer loop
      vertex 113.667 0 53.25
      vertex 116.667 3 53.25
      vertex 113.667 3 53.25
    endloop
  endfacet
  facet normal 0 0 1
    outer loop
      vertex 116.667 3 53.25
      vertex 113.667 0 53.25
      vertex 127 0 53.25
    endloop
  endfacet
  facet normal -0 0 1
    outer loop
      vertex 83.6667 3 53.25
      vertex 86.6667 0 53.25
      vertex 86.6667 3 53.25
    endloop
  endfacet
  facet normal 0 0 1
    outer loop
      vertex 76.3333 36 53.25
      vertex 83.6667 36 53.25
      vertex 76.3333 44 53.25
    endloop
  endfacet
  facet normal 0 0 1
    outer loop
      vertex 83.6667 36 53.25
      vertex 76.3333 36 53.25
      vertex 83.6667 3 53.25
    endloop
  endfacet
  facet normal 0 0 1
    outer loop
      vertex 76.3333 3 53.25
      vertex 83.6667 3 53.25
      vertex 76.3333 36 53.25
    endloop
  endfacet
  facet normal -0 0 1
    outer loop
      vertex 76.3333 3 53.25
      vertex 86.6667 0 53.25
      vertex 83.6667 3 53.25
    endloop
  endfacet
  facet normal 0 0 1
    outer loop
      vertex 73.3333 0 53.25
      vertex 76.3333 3 53.25
      vertex 73.3333 3 53.25
    endloop
  endfacet
  facet normal 0 0 1
    outer loop
      vertex 76.3333 3 53.25
      vertex 73.3333 0 53.25
      vertex 86.6667 0 53.25
    endloop
  endfacet
  facet normal -0 0 1
    outer loop
      vertex 43.3333 3 53.25
      vertex 46.3333 0 53.25
      vertex 46.3333 3 53.25
    endloop
  endfacet
  facet normal 0 0 1
    outer loop
      vertex 36 36 53.25
      vertex 43.3333 36 53.25
      vertex 36 44 53.25
    endloop
  endfacet
  facet normal 0 0 1
    outer loop
      vertex 43.3333 36 53.25
      vertex 36 36 53.25
      vertex 43.3333 3 53.25
    endloop
  endfacet
  facet normal 0 0 1
    outer loop
      vertex 36 3 53.25
      vertex 43.3333 3 53.25
      vertex 36 36 53.25
    endloop
  endfacet
  facet normal -0 0 1
    outer loop
      vertex 36 3 53.25
      vertex 46.3333 0 53.25
      vertex 43.3333 3 53.25
    endloop
  endfacet
  facet normal 0 0 1
    outer loop
      vertex 33 0 53.25
      vertex 36 3 53.25
      vertex 33 3 53.25
    endloop
  endfacet
  facet normal 0 0 1
    outer loop
      vertex 36 3 53.25
      vertex 33 0 53.25
      vertex 46.3333 0 53.25
    endloop
  endfacet
  facet normal -0 0 1
    outer loop
      vertex 3 3 53.25
      vertex 6 0 53.25
      vertex 6 3 53.25
    endloop
  endfacet
  facet normal 0 0 1
    outer loop
      vertex 3 3 53.25
      vertex 0 0 53.25
      vertex 6 0 53.25
    endloop
  endfacet
  facet normal 0 0 1
    outer loop
      vertex 3 36 53.25
      vertex 0 0 53.25
      vertex 3 3 53.25
    endloop
  endfacet
  facet normal -1 0 0
    outer loop
      vertex 33 0 18.25
      vertex 33 3 53.25
      vertex 33 3 18.25
    endloop
  endfacet
  facet normal -1 -0 0
    outer loop
      vertex 33 3 53.25
      vertex 33 0 18.25
      vertex 33 0 53.25
    endloop
  endfacet
  facet normal 0 1 -0
    outer loop
      vertex 36 3 18.25
      vertex 33 3 53.25
      vertex 36 3 53.25
    endloop
  endfacet
  facet normal 0 1 0
    outer loop
      vertex 33 3 53.25
      vertex 36 3 18.25
      vertex 33 3 18.25
    endloop
  endfacet
  facet normal -1 0 0
    outer loop
      vertex 36 3 18.25
      vertex 36 36 53.25
      vertex 36 36 18.25
    endloop
  endfacet
  facet normal -1 -0 0
    outer loop
      vertex 36 36 53.25
      vertex 36 3 18.25
      vertex 36 3 53.25
    endloop
  endfacet
  facet normal 0 -1 0
    outer loop
      vertex 3 36 18.25
      vertex 36 36 53.25
      vertex 3 36 53.25
    endloop
  endfacet
  facet normal 0 -1 -0
    outer loop
      vertex 36 36 53.25
      vertex 3 36 18.25
      vertex 36 36 18.25
    endloop
  endfacet
  facet normal 1 -0 0
    outer loop
      vertex 3 3 53.25
      vertex 3 36 18.25
      vertex 3 36 53.25
    endloop
  endfacet
  facet normal 1 0 0
    outer loop
      vertex 3 36 18.25
      vertex 3 3 53.25
      vertex 3 3 18.25
    endloop
  endfacet
  facet normal 0 1 -0
    outer loop
      vertex 6 3 18.25
      vertex 3 3 53.25
      vertex 6 3 53.25
    endloop
  endfacet
  facet normal 0 1 0
    outer loop
      vertex 3 3 53.25
      vertex 6 3 18.25
      vertex 3 3 18.25
    endloop
  endfacet
  facet normal 1 -0 0
    outer loop
      vertex 6 0 53.25
      vertex 6 3 18.25
      vertex 6 3 53.25
    endloop
  endfacet
  facet normal 1 0 0
    outer loop
      vertex 6 3 18.25
      vertex 6 0 53.25
      vertex 6 0 18.25
    endloop
  endfacet
  facet normal 0 -1 0
    outer loop
      vertex 0 0 53.25
      vertex 6 0 18.25
      vertex 6 0 53.25
    endloop
  endfacet
  facet normal 0 -1 0
    outer loop
      vertex 20 0 3
      vertex 33 0 18.25
      vertex 6 0 18.25
    endloop
  endfacet
  facet normal 0 -1 0
    outer loop
      vertex 40 0 3
      vertex 33 0 18.25
      vertex 20 0 3
    endloop
  endfacet
  facet normal 0 -1 0
    outer loop
      vertex 60 0 3
      vertex 46.3333 0 18.25
      vertex 40 0 3
    endloop
  endfacet
  facet normal 0 -1 0
    outer loop
      vertex 46.3333 0 18.25
      vertex 60 0 3
      vertex 73.3333 0 18.25
    endloop
  endfacet
  facet normal 0 -1 0
    outer loop
      vertex 73.3333 0 18.25
      vertex 80 0 3
      vertex 86.6667 0 18.25
    endloop
  endfacet
  facet normal 0 -1 0
    outer loop
      vertex 100 0 3
      vertex 86.6667 0 18.25
      vertex 80 0 3
    endloop
  endfacet
  facet normal 0 -1 0
    outer loop
      vertex 20 0 3
      vertex 6 0 18.25
      vertex 0 0 3
    endloop
  endfacet
  facet normal 0 -1 0
    outer loop
      vertex 0 0 3
      vertex 6 0 18.25
      vertex 0 0 53.25
    endloop
  endfacet
  facet normal 0 -1 0
    outer loop
      vertex 33 0 18.25
      vertex 46.3333 0 53.25
      vertex 33 0 53.25
    endloop
  endfacet
  facet normal 0 -1 -0
    outer loop
      vertex 46.3333 0 53.25
      vertex 33 0 18.25
      vertex 46.3333 0 18.25
    endloop
  endfacet
  facet normal 0 -1 0
    outer loop
      vertex 73.3333 0 18.25
      vertex 86.6667 0 53.25
      vertex 73.3333 0 53.25
    endloop
  endfacet
  facet normal 0 -1 -0
    outer loop
      vertex 86.6667 0 53.25
      vertex 73.3333 0 18.25
      vertex 86.6667 0 18.25
    endloop
  endfacet
  facet normal 0 -1 0
    outer loop
      vertex 113.667 0 18.25
      vertex 127 0 53.25
      vertex 113.667 0 53.25
    endloop
  endfacet
  facet normal 0 -1 -0
    outer loop
      vertex 127 0 53.25
      vertex 113.667 0 18.25
      vertex 127 0 18.25
    endloop
  endfacet
  facet normal 0 -1 0
    outer loop
      vertex 154 0 18.25
      vertex 160 0 53.25
      vertex 154 0 53.25
    endloop
  endfacet
  facet normal 0 -1 0
    outer loop
      vertex 33 0 18.25
      vertex 40 0 3
      vertex 46.3333 0 18.25
    endloop
  endfacet
  facet normal 0 -1 0
    outer loop
      vertex 80 0 3
      vertex 73.3333 0 18.25
      vertex 60 0 3
    endloop
  endfacet
  facet normal 0 -1 0
    outer loop
      vertex 86.6667 0 18.25
      vertex 100 0 3
      vertex 113.667 0 18.25
    endloop
  endfacet
  facet normal 0 -1 0
    outer loop
      vertex 120 0 3
      vertex 113.667 0 18.25
      vertex 100 0 3
    endloop
  endfacet
  facet normal 0 -1 0
    outer loop
      vertex 113.667 0 18.25
      vertex 120 0 3
      vertex 127 0 18.25
    endloop
  endfacet
  facet normal 0 -1 0
    outer loop
      vertex 140 0 3
      vertex 127 0 18.25
      vertex 120 0 3
    endloop
  endfacet
  facet normal 0 -1 0
    outer loop
      vertex 127 0 18.25
      vertex 140 0 3
      vertex 154 0 18.25
    endloop
  endfacet
  facet normal 0 -1 0
    outer loop
      vertex 154 0 18.25
      vertex 160 0 3
      vertex 160 0 53.25
    endloop
  endfacet
  facet normal 0 -1 0
    outer loop
      vertex 160 0 3
      vertex 154 0 18.25
      vertex 140 0 3
    endloop
  endfacet
  facet normal 0 0 1
    outer loop
      vertex 76.3333 36 18.25
      vertex 73.3333 3 18.25
      vertex 76.3333 3 18.25
    endloop
  endfacet
  facet normal 0 0 1
    outer loop
      vertex 73.3333 3 18.25
      vertex 46.3333 3 18.25
      vertex 73.3333 0 18.25
    endloop
  endfacet
  facet normal 0 0 1
    outer loop
      vertex 76.3333 36 18.25
      vertex 46.3333 3 18.25
      vertex 73.3333 3 18.25
    endloop
  endfacet
  facet normal -0 0 1
    outer loop
      vertex 43.3333 36 18.25
      vertex 46.3333 3 18.25
      vertex 76.3333 36 18.25
    endloop
  endfacet
  facet normal 0 0 1
    outer loop
      vertex 46.3333 3 18.25
      vertex 43.3333 36 18.25
      vertex 43.3333 3 18.25
    endloop
  endfacet
  facet normal 0 0 1
    outer loop
      vertex 73.3333 0 18.25
      vertex 46.3333 3 18.25
      vertex 46.3333 0 18.25
    endloop
  endfacet
  facet normal -1 0 0
    outer loop
      vertex 73.3333 0 18.25
      vertex 73.3333 3 53.25
      vertex 73.3333 3 18.25
    endloop
  endfacet
  facet normal -1 -0 0
    outer loop
      vertex 73.3333 3 53.25
      vertex 73.3333 0 18.25
      vertex 73.3333 0 53.25
    endloop
  endfacet
  facet normal 0 1 -0
    outer loop
      vertex 76.3333 3 18.25
      vertex 73.3333 3 53.25
      vertex 76.3333 3 53.25
    endloop
  endfacet
  facet normal 0 1 0
    outer loop
      vertex 73.3333 3 53.25
      vertex 76.3333 3 18.25
      vertex 73.3333 3 18.25
    endloop
  endfacet
  facet normal -1 0 0
    outer loop
      vertex 76.3333 3 18.25
      vertex 76.3333 36 53.25
      vertex 76.3333 36 18.25
    endloop
  endfacet
  facet normal -1 -0 0
    outer loop
      vertex 76.3333 36 53.25
      vertex 76.3333 3 18.25
      vertex 76.3333 3 53.25
    endloop
  endfacet
  facet normal 0 -1 0
    outer loop
      vertex 43.3333 36 18.25
      vertex 76.3333 36 53.25
      vertex 43.3333 36 53.25
    endloop
  endfacet
  facet normal 0 -1 -0
    outer loop
      vertex 76.3333 36 53.25
      vertex 43.3333 36 18.25
      vertex 76.3333 36 18.25
    endloop
  endfacet
  facet normal 1 -0 0
    outer loop
      vertex 43.3333 3 53.25
      vertex 43.3333 36 18.25
      vertex 43.3333 36 53.25
    endloop
  endfacet
  facet normal 1 0 0
    outer loop
      vertex 43.3333 36 18.25
      vertex 43.3333 3 53.25
      vertex 43.3333 3 18.25
    endloop
  endfacet
  facet normal 0 1 -0
    outer loop
      vertex 46.3333 3 18.25
      vertex 43.3333 3 53.25
      vertex 46.3333 3 53.25
    endloop
  endfacet
  facet normal 0 1 0
    outer loop
      vertex 43.3333 3 53.25
      vertex 46.3333 3 18.25
      vertex 43.3333 3 18.25
    endloop
  endfacet
  facet normal 1 -0 0
    outer loop
      vertex 46.3333 0 53.25
      vertex 46.3333 3 18.25
      vertex 46.3333 3 53.25
    endloop
  endfacet
  facet normal 1 0 0
    outer loop
      vertex 46.3333 3 18.25
      vertex 46.3333 0 53.25
      vertex 46.3333 0 18.25
    endloop
  endfacet
  facet normal 0 0 1
    outer loop
      vertex 116.667 36 18.25
      vertex 113.667 3 18.25
      vertex 116.667 3 18.25
    endloop
  endfacet
  facet normal 0 0 1
    outer loop
      vertex 113.667 3 18.25
      vertex 86.6667 3 18.25
      vertex 113.667 0 18.25
    endloop
  endfacet
  facet normal 0 0 1
    outer loop
      vertex 116.667 36 18.25
      vertex 86.6667 3 18.25
      vertex 113.667 3 18.25
    endloop
  endfacet
  facet normal -0 0 1
    outer loop
      vertex 83.6667 36 18.25
      vertex 86.6667 3 18.25
      vertex 116.667 36 18.25
    endloop
  endfacet
  facet normal 0 0 1
    outer loop
      vertex 86.6667 3 18.25
      vertex 83.6667 36 18.25
      vertex 83.6667 3 18.25
    endloop
  endfacet
  facet normal 0 0 1
    outer loop
      vertex 113.667 0 18.25
      vertex 86.6667 3 18.25
      vertex 86.6667 0 18.25
    endloop
  endfacet
  facet normal -1 0 0
    outer loop
      vertex 113.667 0 18.25
      vertex 113.667 3 53.25
      vertex 113.667 3 18.25
    endloop
  endfacet
  facet normal -1 -0 0
    outer loop
      vertex 113.667 3 53.25
      vertex 113.667 0 18.25
      vertex 113.667 0 53.25
    endloop
  endfacet
  facet normal 0 1 -0
    outer loop
      vertex 116.667 3 18.25
      vertex 113.667 3 53.25
      vertex 116.667 3 53.25
    endloop
  endfacet
  facet normal 0 1 0
    outer loop
      vertex 113.667 3 53.25
      vertex 116.667 3 18.25
      vertex 113.667 3 18.25
    endloop
  endfacet
  facet normal -1 0 0
    outer loop
      vertex 116.667 3 18.25
      vertex 116.667 36 53.25
      vertex 116.667 36 18.25
    endloop
  endfacet
  facet normal -1 -0 0
    outer loop
      vertex 116.667 36 53.25
      vertex 116.667 3 18.25
      vertex 116.667 3 53.25
    endloop
  endfacet
  facet normal 0 -1 0
    outer loop
      vertex 83.6667 36 18.25
      vertex 116.667 36 53.25
      vertex 83.6667 36 53.25
    endloop
  endfacet
  facet normal 0 -1 -0
    outer loop
      vertex 116.667 36 53.25
      vertex 83.6667 36 18.25
      vertex 116.667 36 18.25
    endloop
  endfacet
  facet normal 1 -0 0
    outer loop
      vertex 83.6667 3 53.25
      vertex 83.6667 36 18.25
      vertex 83.6667 36 53.25
    endloop
  endfacet
  facet normal 1 0 0
    outer loop
      vertex 83.6667 36 18.25
      vertex 83.6667 3 53.25
      vertex 83.6667 3 18.25
    endloop
  endfacet
  facet normal 0 1 -0
    outer loop
      vertex 86.6667 3 18.25
      vertex 83.6667 3 53.25
      vertex 86.6667 3 53.25
    endloop
  endfacet
  facet normal 0 1 0
    outer loop
      vertex 83.6667 3 53.25
      vertex 86.6667 3 18.25
      vertex 83.6667 3 18.25
    endloop
  endfacet
  facet normal 1 -0 0
    outer loop
      vertex 86.6667 0 53.25
      vertex 86.6667 3 18.25
      vertex 86.6667 3 53.25
    endloop
  endfacet
  facet normal 1 0 0
    outer loop
      vertex 86.6667 3 18.25
      vertex 86.6667 0 53.25
      vertex 86.6667 0 18.25
    endloop
  endfacet
  facet normal 0 0 1
    outer loop
      vertex 157 36 18.25
      vertex 154 3 18.25
      vertex 157 3 18.25
    endloop
  endfacet
  facet normal 0 0 1
    outer loop
      vertex 154 3 18.25
      vertex 127 3 18.25
      vertex 154 0 18.25
    endloop
  endfacet
  facet normal 0 0 1
    outer loop
      vertex 157 36 18.25
      vertex 127 3 18.25
      vertex 154 3 18.25
    endloop
  endfacet
  facet normal -0 0 1
    outer loop
      vertex 124 36 18.25
      vertex 127 3 18.25
      vertex 157 36 18.25
    endloop
  endfacet
  facet normal 0 0 1
    outer loop
      vertex 127 3 18.25
      vertex 124 36 18.25
      vertex 124 3 18.25
    endloop
  endfacet
  facet normal 0 0 1
    outer loop
      vertex 154 0 18.25
      vertex 127 3 18.25
      vertex 127 0 18.25
    endloop
  endfacet
  facet normal -1 0 0
    outer loop
      vertex 154 0 18.25
      vertex 154 3 53.25
      vertex 154 3 18.25
    endloop
  endfacet
  facet normal -1 -0 0
    outer loop
      vertex 154 3 53.25
      vertex 154 0 18.25
      vertex 154 0 53.25
    endloop
  endfacet
  facet normal 0 1 -0
    outer loop
      vertex 157 3 18.25
      vertex 154 3 53.25
      vertex 157 3 53.25
    endloop
  endfacet
  facet normal 0 1 0
    outer loop
      vertex 154 3 53.25
      vertex 157 3 18.25
      vertex 154 3 18.25
    endloop
  endfacet
  facet normal -1 0 0
    outer loop
      vertex 157 3 18.25
      vertex 157 36 53.25
      vertex 157 36 18.25
    endloop
  endfacet
  facet normal -1 -0 0
    outer loop
      vertex 157 36 53.25
      vertex 157 3 18.25
      vertex 157 3 53.25
    endloop
  endfacet
  facet normal 0 -1 0
    outer loop
      vertex 124 36 18.25
      vertex 157 36 53.25
      vertex 124 36 53.25
    endloop
  endfacet
  facet normal 0 -1 -0
    outer loop
      vertex 157 36 53.25
      vertex 124 36 18.25
      vertex 157 36 18.25
    endloop
  endfacet
  facet normal 1 -0 0
    outer loop
      vertex 124 3 53.25
      vertex 124 36 18.25
      vertex 124 36 53.25
    endloop
  endfacet
  facet normal 1 0 0
    outer loop
      vertex 124 36 18.25
      vertex 124 3 53.25
      vertex 124 3 18.25
    endloop
  endfacet
  facet normal 0 1 -0
    outer loop
      vertex 127 3 18.25
      vertex 124 3 53.25
      vertex 127 3 53.25
    endloop
  endfacet
  facet normal 0 1 0
    outer loop
      vertex 124 3 53.25
      vertex 127 3 18.25
      vertex 124 3 18.25
    endloop
  endfacet
  facet normal 1 -0 0
    outer loop
      vertex 127 0 53.25
      vertex 127 3 18.25
      vertex 127 3 53.25
    endloop
  endfacet
  facet normal 1 0 0
    outer loop
      vertex 127 3 18.25
      vertex 127 0 53.25
      vertex 127 0 18.25
    endloop
  endfacet
  facet normal 0 0 1
    outer loop
      vertex 33 80 18.25
      vertex 6 80 18.25
      vertex 33 77 18.25
    endloop
  endfacet
  facet normal -0 0 1
    outer loop
      vertex 33 77 18.25
      vertex 36 44 18.25
      vertex 36 77 18.25
    endloop
  endfacet
  facet normal 0 0 1
    outer loop
      vertex 6 77 18.25
      vertex 33 77 18.25
      vertex 6 80 18.25
    endloop
  endfacet
  facet normal 0 0 1
    outer loop
      vertex 33 77 18.25
      vertex 6 77 18.25
      vertex 36 44 18.25
    endloop
  endfacet
  facet normal 0 0 1
    outer loop
      vertex 3 44 18.25
      vertex 6 77 18.25
      vertex 3 77 18.25
    endloop
  endfacet
  facet normal 0 0 1
    outer loop
      vertex 6 77 18.25
      vertex 3 44 18.25
      vertex 36 44 18.25
    endloop
  endfacet
  facet normal 0 1 -0
    outer loop
      vertex 36 44 18.25
      vertex 3 44 53.25
      vertex 36 44 53.25
    endloop
  endfacet
  facet normal 0 1 0
    outer loop
      vertex 3 44 53.25
      vertex 36 44 18.25
      vertex 3 44 18.25
    endloop
  endfacet
  facet normal -1 0 0
    outer loop
      vertex 36 44 18.25
      vertex 36 77 53.25
      vertex 36 77 18.25
    endloop
  endfacet
  facet normal -1 -0 0
    outer loop
      vertex 36 77 53.25
      vertex 36 44 18.25
      vertex 36 44 53.25
    endloop
  endfacet
  facet normal 0 -1 0
    outer loop
      vertex 33 77 18.25
      vertex 36 77 53.25
      vertex 33 77 53.25
    endloop
  endfacet
  facet normal 0 -1 -0
    outer loop
      vertex 36 77 53.25
      vertex 33 77 18.25
      vertex 36 77 18.25
    endloop
  endfacet
  facet normal -1 0 0
    outer loop
      vertex 33 77 18.25
      vertex 33 80 53.25
      vertex 33 80 18.25
    endloop
  endfacet
  facet normal -1 -0 0
    outer loop
      vertex 33 80 53.25
      vertex 33 77 18.25
      vertex 33 77 53.25
    endloop
  endfacet
  facet normal 0 1 0
    outer loop
      vertex 160 80 53.25
      vertex 154 80 18.25
      vertex 154 80 53.25
    endloop
  endfacet
  facet normal 0 1 -0
    outer loop
      vertex 140 80 3
      vertex 127 80 18.25
      vertex 154 80 18.25
    endloop
  endfacet
  facet normal 0 1 0
    outer loop
      vertex 120 80 3
      vertex 127 80 18.25
      vertex 140 80 3
    endloop
  endfacet
  facet normal 0 1 0
    outer loop
      vertex 100 80 3
      vertex 113.667 80 18.25
      vertex 120 80 3
    endloop
  endfacet
  facet normal 0 1 0
    outer loop
      vertex 113.667 80 18.25
      vertex 100 80 3
      vertex 86.6667 80 18.25
    endloop
  endfacet
  facet normal 0 1 0
    outer loop
      vertex 86.6667 80 18.25
      vertex 80 80 3
      vertex 73.3333 80 18.25
    endloop
  endfacet
  facet normal 0 1 0
    outer loop
      vertex 60 80 3
      vertex 73.3333 80 18.25
      vertex 80 80 3
    endloop
  endfacet
  facet normal 0 1 0
    outer loop
      vertex 140 80 3
      vertex 154 80 18.25
      vertex 160 80 3
    endloop
  endfacet
  facet normal 0 1 -0
    outer loop
      vertex 160 80 3
      vertex 154 80 18.25
      vertex 160 80 53.25
    endloop
  endfacet
  facet normal 0 1 -0
    outer loop
      vertex 127 80 18.25
      vertex 113.667 80 53.25
      vertex 127 80 53.25
    endloop
  endfacet
  facet normal 0 1 0
    outer loop
      vertex 113.667 80 53.25
      vertex 127 80 18.25
      vertex 113.667 80 18.25
    endloop
  endfacet
  facet normal 0 1 -0
    outer loop
      vertex 86.6667 80 18.25
      vertex 73.3333 80 53.25
      vertex 86.6667 80 53.25
    endloop
  endfacet
  facet normal 0 1 0
    outer loop
      vertex 73.3333 80 53.25
      vertex 86.6667 80 18.25
      vertex 73.3333 80 18.25
    endloop
  endfacet
  facet normal 0 1 -0
    outer loop
      vertex 46.3333 80 18.25
      vertex 33 80 53.25
      vertex 46.3333 80 53.25
    endloop
  endfacet
  facet normal 0 1 0
    outer loop
      vertex 33 80 53.25
      vertex 46.3333 80 18.25
      vertex 33 80 18.25
    endloop
  endfacet
  facet normal 0 1 -0
    outer loop
      vertex 6 80 18.25
      vertex 0 80 53.25
      vertex 6 80 53.25
    endloop
  endfacet
  facet normal 0 1 0
    outer loop
      vertex 127 80 18.25
      vertex 120 80 3
      vertex 113.667 80 18.25
    endloop
  endfacet
  facet normal 0 1 0
    outer loop
      vertex 80 80 3
      vertex 86.6667 80 18.25
      vertex 100 80 3
    endloop
  endfacet
  facet normal 0 1 0
    outer loop
      vertex 73.3333 80 18.25
      vertex 60 80 3
      vertex 46.3333 80 18.25
    endloop
  endfacet
  facet normal 0 1 0
    outer loop
      vertex 40 80 3
      vertex 46.3333 80 18.25
      vertex 60 80 3
    endloop
  endfacet
  facet normal 0 1 0
    outer loop
      vertex 46.3333 80 18.25
      vertex 40 80 3
      vertex 33 80 18.25
    endloop
  endfacet
  facet normal 0 1 0
    outer loop
      vertex 20 80 3
      vertex 33 80 18.25
      vertex 40 80 3
    endloop
  endfacet
  facet normal 0 1 0
    outer loop
      vertex 33 80 18.25
      vertex 20 80 3
      vertex 6 80 18.25
    endloop
  endfacet
  facet normal 0 1 0
    outer loop
      vertex 6 80 18.25
      vertex 0 80 3
      vertex 0 80 53.25
    endloop
  endfacet
  facet normal 0 1 0
    outer loop
      vertex 0 80 3
      vertex 6 80 18.25
      vertex 20 80 3
    endloop
  endfacet
  facet normal 1 -0 0
    outer loop
      vertex 6 77 53.25
      vertex 6 80 18.25
      vertex 6 80 53.25
    endloop
  endfacet
  facet normal 1 0 0
    outer loop
      vertex 6 80 18.25
      vertex 6 77 53.25
      vertex 6 77 18.25
    endloop
  endfacet
  facet normal 0 -1 0
    outer loop
      vertex 3 77 18.25
      vertex 6 77 53.25
      vertex 3 77 53.25
    endloop
  endfacet
  facet normal 0 -1 -0
    outer loop
      vertex 6 77 53.25
      vertex 3 77 18.25
      vertex 6 77 18.25
    endloop
  endfacet
  facet normal 1 -0 0
    outer loop
      vertex 3 44 53.25
      vertex 3 77 18.25
      vertex 3 77 53.25
    endloop
  endfacet
  facet normal 1 0 0
    outer loop
      vertex 3 77 18.25
      vertex 3 44 53.25
      vertex 3 44 18.25
    endloop
  endfacet
  facet normal 0 0 1
    outer loop
      vertex 73.3333 80 18.25
      vertex 46.3333 80 18.25
      vertex 73.3333 77 18.25
    endloop
  endfacet
  facet normal -0 0 1
    outer loop
      vertex 73.3333 77 18.25
      vertex 76.3333 44 18.25
      vertex 76.3333 77 18.25
    endloop
  endfacet
  facet normal 0 0 1
    outer loop
      vertex 46.3333 77 18.25
      vertex 73.3333 77 18.25
      vertex 46.3333 80 18.25
    endloop
  endfacet
  facet normal 0 0 1
    outer loop
      vertex 73.3333 77 18.25
      vertex 46.3333 77 18.25
      vertex 76.3333 44 18.25
    endloop
  endfacet
  facet normal 0 0 1
    outer loop
      vertex 43.3333 44 18.25
      vertex 46.3333 77 18.25
      vertex 43.3333 77 18.25
    endloop
  endfacet
  facet normal 0 0 1
    outer loop
      vertex 46.3333 77 18.25
      vertex 43.3333 44 18.25
      vertex 76.3333 44 18.25
    endloop
  endfacet
  facet normal 0 1 -0
    outer loop
      vertex 76.3333 44 18.25
      vertex 43.3333 44 53.25
      vertex 76.3333 44 53.25
    endloop
  endfacet
  facet normal 0 1 0
    outer loop
      vertex 43.3333 44 53.25
      vertex 76.3333 44 18.25
      vertex 43.3333 44 18.25
    endloop
  endfacet
  facet normal -1 0 0
    outer loop
      vertex 76.3333 44 18.25
      vertex 76.3333 77 53.25
      vertex 76.3333 77 18.25
    endloop
  endfacet
  facet normal -1 -0 0
    outer loop
      vertex 76.3333 77 53.25
      vertex 76.3333 44 18.25
      vertex 76.3333 44 53.25
    endloop
  endfacet
  facet normal 0 -1 0
    outer loop
      vertex 73.3333 77 18.25
      vertex 76.3333 77 53.25
      vertex 73.3333 77 53.25
    endloop
  endfacet
  facet normal 0 -1 -0
    outer loop
      vertex 76.3333 77 53.25
      vertex 73.3333 77 18.25
      vertex 76.3333 77 18.25
    endloop
  endfacet
  facet normal -1 0 0
    outer loop
      vertex 73.3333 77 18.25
      vertex 73.3333 80 53.25
      vertex 73.3333 80 18.25
    endloop
  endfacet
  facet normal -1 -0 0
    outer loop
      vertex 73.3333 80 53.25
      vertex 73.3333 77 18.25
      vertex 73.3333 77 53.25
    endloop
  endfacet
  facet normal 1 -0 0
    outer loop
      vertex 46.3333 77 53.25
      vertex 46.3333 80 18.25
      vertex 46.3333 80 53.25
    endloop
  endfacet
  facet normal 1 0 0
    outer loop
      vertex 46.3333 80 18.25
      vertex 46.3333 77 53.25
      vertex 46.3333 77 18.25
    endloop
  endfacet
  facet normal 0 -1 0
    outer loop
      vertex 43.3333 77 18.25
      vertex 46.3333 77 53.25
      vertex 43.3333 77 53.25
    endloop
  endfacet
  facet normal 0 -1 -0
    outer loop
      vertex 46.3333 77 53.25
      vertex 43.3333 77 18.25
      vertex 46.3333 77 18.25
    endloop
  endfacet
  facet normal 1 -0 0
    outer loop
      vertex 43.3333 44 53.25
      vertex 43.3333 77 18.25
      vertex 43.3333 77 53.25
    endloop
  endfacet
  facet normal 1 0 0
    outer loop
      vertex 43.3333 77 18.25
      vertex 43.3333 44 53.25
      vertex 43.3333 44 18.25
    endloop
  endfacet
  facet normal 0 0 1
    outer loop
      vertex 113.667 80 18.25
      vertex 86.6667 80 18.25
      vertex 113.667 77 18.25
    endloop
  endfacet
  facet normal -0 0 1
    outer loop
      vertex 113.667 77 18.25
      vertex 116.667 44 18.25
      vertex 116.667 77 18.25
    endloop
  endfacet
  facet normal 0 0 1
    outer loop
      vertex 86.6667 77 18.25
      vertex 113.667 77 18.25
      vertex 86.6667 80 18.25
    endloop
  endfacet
  facet normal 0 0 1
    outer loop
      vertex 113.667 77 18.25
      vertex 86.6667 77 18.25
      vertex 116.667 44 18.25
    endloop
  endfacet
  facet normal 0 0 1
    outer loop
      vertex 83.6667 44 18.25
      vertex 86.6667 77 18.25
      vertex 83.6667 77 18.25
    endloop
  endfacet
  facet normal 0 0 1
    outer loop
      vertex 86.6667 77 18.25
      vertex 83.6667 44 18.25
      vertex 116.667 44 18.25
    endloop
  endfacet
  facet normal 0 1 -0
    outer loop
      vertex 116.667 44 18.25
      vertex 83.6667 44 53.25
      vertex 116.667 44 53.25
    endloop
  endfacet
  facet normal 0 1 0
    outer loop
      vertex 83.6667 44 53.25
      vertex 116.667 44 18.25
      vertex 83.6667 44 18.25
    endloop
  endfacet
  facet normal -1 0 0
    outer loop
      vertex 116.667 44 18.25
      vertex 116.667 77 53.25
      vertex 116.667 77 18.25
    endloop
  endfacet
  facet normal -1 -0 0
    outer loop
      vertex 116.667 77 53.25
      vertex 116.667 44 18.25
      vertex 116.667 44 53.25
    endloop
  endfacet
  facet normal 0 -1 0
    outer loop
      vertex 113.667 77 18.25
      vertex 116.667 77 53.25
      vertex 113.667 77 53.25
    endloop
  endfacet
  facet normal 0 -1 -0
    outer loop
      vertex 116.667 77 53.25
      vertex 113.667 77 18.25
      vertex 116.667 77 18.25
    endloop
  endfacet
  facet normal -1 0 0
    outer loop
      vertex 113.667 77 18.25
      vertex 113.667 80 53.25
      vertex 113.667 80 18.25
    endloop
  endfacet
  facet normal -1 -0 0
    outer loop
      vertex 113.667 80 53.25
      vertex 113.667 77 18.25
      vertex 113.667 77 53.25
    endloop
  endfacet
  facet normal 1 -0 0
    outer loop
      vertex 86.6667 77 53.25
      vertex 86.6667 80 18.25
      vertex 86.6667 80 53.25
    endloop
  endfacet
  facet normal 1 0 0
    outer loop
      vertex 86.6667 80 18.25
      vertex 86.6667 77 53.25
      vertex 86.6667 77 18.25
    endloop
  endfacet
  facet normal 0 -1 0
    outer loop
      vertex 83.6667 77 18.25
      vertex 86.6667 77 53.25
      vertex 83.6667 77 53.25
    endloop
  endfacet
  facet normal 0 -1 -0
    outer loop
      vertex 86.6667 77 53.25
      vertex 83.6667 77 18.25
      vertex 86.6667 77 18.25
    endloop
  endfacet
  facet normal 1 -0 0
    outer loop
      vertex 83.6667 44 53.25
      vertex 83.6667 77 18.25
      vertex 83.6667 77 53.25
    endloop
  endfacet
  facet normal 1 0 0
    outer loop
      vertex 83.6667 77 18.25
      vertex 83.6667 44 53.25
      vertex 83.6667 44 18.25
    endloop
  endfacet
  facet normal 0 0 1
    outer loop
      vertex 154 80 18.25
      vertex 127 80 18.25
      vertex 154 77 18.25
    endloop
  endfacet
  facet normal -0 0 1
    outer loop
      vertex 154 77 18.25
      vertex 157 44 18.25
      vertex 157 77 18.25
    endloop
  endfacet
  facet normal 0 0 1
    outer loop
      vertex 127 77 18.25
      vertex 154 77 18.25
      vertex 127 80 18.25
    endloop
  endfacet
  facet normal 0 0 1
    outer loop
      vertex 154 77 18.25
      vertex 127 77 18.25
      vertex 157 44 18.25
    endloop
  endfacet
  facet normal 0 0 1
    outer loop
      vertex 124 44 18.25
      vertex 127 77 18.25
      vertex 124 77 18.25
    endloop
  endfacet
  facet normal 0 0 1
    outer loop
      vertex 127 77 18.25
      vertex 124 44 18.25
      vertex 157 44 18.25
    endloop
  endfacet
  facet normal 0 1 -0
    outer loop
      vertex 157 44 18.25
      vertex 124 44 53.25
      vertex 157 44 53.25
    endloop
  endfacet
  facet normal 0 1 0
    outer loop
      vertex 124 44 53.25
      vertex 157 44 18.25
      vertex 124 44 18.25
    endloop
  endfacet
  facet normal -1 0 0
    outer loop
      vertex 157 44 18.25
      vertex 157 77 53.25
      vertex 157 77 18.25
    endloop
  endfacet
  facet normal -1 -0 0
    outer loop
      vertex 157 77 53.25
      vertex 157 44 18.25
      vertex 157 44 53.25
    endloop
  endfacet
  facet normal 0 -1 0
    outer loop
      vertex 154 77 18.25
      vertex 157 77 53.25
      vertex 154 77 53.25
    endloop
  endfacet
  facet normal 0 -1 -0
    outer loop
      vertex 157 77 53.25
      vertex 154 77 18.25
      vertex 157 77 18.25
    endloop
  endfacet
  facet normal -1 0 0
    outer loop
      vertex 154 77 18.25
      vertex 154 80 53.25
      vertex 154 80 18.25
    endloop
  endfacet
  facet normal -1 -0 0
    outer loop
      vertex 154 80 53.25
      vertex 154 77 18.25
      vertex 154 77 53.25
    endloop
  endfacet
  facet normal 1 -0 0
    outer loop
      vertex 127 77 53.25
      vertex 127 80 18.25
      vertex 127 80 53.25
    endloop
  endfacet
  facet normal 1 0 0
    outer loop
      vertex 127 80 18.25
      vertex 127 77 53.25
      vertex 127 77 18.25
    endloop
  endfacet
  facet normal 0 -1 0
    outer loop
      vertex 124 77 18.25
      vertex 127 77 53.25
      vertex 124 77 53.25
    endloop
  endfacet
  facet normal 0 -1 -0
    outer loop
      vertex 127 77 53.25
      vertex 124 77 18.25
      vertex 127 77 18.25
    endloop
  endfacet
  facet normal 1 -0 0
    outer loop
      vertex 124 44 53.25
      vertex 124 77 18.25
      vertex 124 77 53.25
    endloop
  endfacet
  facet normal 1 0 0
    outer loop
      vertex 124 77 18.25
      vertex 124 44 53.25
      vertex 124 44 18.25
    endloop
  endfacet
  facet normal 0 0 -1
    outer loop
      vertex 2.5 62.5 0
      vertex 17.5 77.5 0
      vertex 17.5 62.5 0
    endloop
  endfacet
  facet normal -0 0 -1
    outer loop
      vertex 17.5 77.5 0
      vertex 2.5 62.5 0
      vertex 2.5 77.5 0
    endloop
  endfacet
  facet normal 0 0 -1
    outer loop
      vertex 22.5 62.5 0
      vertex 37.5 77.5 0
      vertex 37.5 62.5 0
    endloop
  endfacet
  facet normal -0 0 -1
    outer loop
      vertex 37.5 77.5 0
      vertex 22.5 62.5 0
      vertex 22.5 77.5 0
    endloop
  endfacet
  facet normal 0 0 -1
    outer loop
      vertex 42.5 62.5 0
      vertex 57.5 77.5 0
      vertex 57.5 62.5 0
    endloop
  endfacet
  facet normal -0 0 -1
    outer loop
      vertex 57.5 77.5 0
      vertex 42.5 62.5 0
      vertex 42.5 77.5 0
    endloop
  endfacet
  facet normal 0 0 -1
    outer loop
      vertex 62.5 62.5 0
      vertex 77.5 77.5 0
      vertex 77.5 62.5 0
    endloop
  endfacet
  facet normal -0 0 -1
    outer loop
      vertex 77.5 77.5 0
      vertex 62.5 62.5 0
      vertex 62.5 77.5 0
    endloop
  endfacet
  facet normal 0 0 -1
    outer loop
      vertex 82.5 62.5 0
      vertex 97.5 77.5 0
      vertex 97.5 62.5 0
    endloop
  endfacet
  facet normal -0 0 -1
    outer loop
      vertex 97.5 77.5 0
      vertex 82.5 62.5 0
      vertex 82.5 77.5 0
    endloop
  endfacet
  facet normal 0 0 -1
    outer loop
      vertex 102.5 62.5 0
      vertex 117.5 77.5 0
      vertex 117.5 62.5 0
    endloop
  endfacet
  facet normal -0 0 -1
    outer loop
      vertex 117.5 77.5 0
      vertex 102.5 62.5 0
      vertex 102.5 77.5 0
    endloop
  endfacet
  facet normal 0 0 -1
    outer loop
      vertex 122.5 62.5 0
      vertex 137.5 77.5 0
      vertex 137.5 62.5 0
    endloop
  endfacet
  facet normal -0 0 -1
    outer loop
      vertex 137.5 77.5 0
      vertex 122.5 62.5 0
      vertex 122.5 77.5 0
    endloop
  endfacet
  facet normal 0 0 -1
    outer loop
      vertex 142.5 62.5 0
      vertex 157.5 77.5 0
      vertex 157.5 62.5 0
    endloop
  endfacet
  facet normal -0 0 -1
    outer loop
      vertex 157.5 77.5 0
      vertex 142.5 62.5 0
      vertex 142.5 77.5 0
    endloop
  endfacet
  facet normal 0 0 -1
    outer loop
      vertex 2.5 42.5 0
      vertex 17.5 57.5 0
      vertex 17.5 42.5 0
    endloop
  endfacet
  facet normal -0 0 -1
    outer loop
      vertex 17.5 57.5 0
      vertex 2.5 42.5 0
      vertex 2.5 57.5 0
    endloop
  endfacet
  facet normal 0 0 -1
    outer loop
      vertex 22.5 42.5 0
      vertex 37.5 57.5 0
      vertex 37.5 42.5 0
    endloop
  endfacet
  facet normal -0 0 -1
    outer loop
      vertex 37.5 57.5 0
      vertex 22.5 42.5 0
      vertex 22.5 57.5 0
    endloop
  endfacet
  facet normal 0 0 -1
    outer loop
      vertex 42.5 42.5 0
      vertex 57.5 57.5 0
      vertex 57.5 42.5 0
    endloop
  endfacet
  facet normal -0 0 -1
    outer loop
      vertex 57.5 57.5 0
      vertex 42.5 42.5 0
      vertex 42.5 57.5 0
    endloop
  endfacet
  facet normal 0 0 -1
    outer loop
      vertex 62.5 42.5 0
      vertex 77.5 57.5 0
      vertex 77.5 42.5 0
    endloop
  endfacet
  facet normal -0 0 -1
    outer loop
      vertex 77.5 57.5 0
      vertex 62.5 42.5 0
      vertex 62.5 57.5 0
    endloop
  endfacet
  facet normal 0 0 -1
    outer loop
      vertex 82.5 42.5 0
      vertex 97.5 57.5 0
      vertex 97.5 42.5 0
    endloop
  endfacet
  facet normal -0 0 -1
    outer loop
      vertex 97.5 57.5 0
      vertex 82.5 42.5 0
      vertex 82.5 57.5 0
    endloop
  endfacet
  facet normal 0 0 -1
    outer loop
      vertex 102.5 42.5 0
      vertex 117.5 57.5 0
      vertex 117.5 42.5 0
    endloop
  endfacet
  facet normal -0 0 -1
    outer loop
      vertex 117.5 57.5 0
      vertex 102.5 42.5 0
      vertex 102.5 57.5 0
    endloop
  endfacet
  facet normal 0 0 -1
    outer loop
      vertex 122.5 42.5 0
      vertex 137.5 57.5 0
      vertex 137.5 42.5 0
    endloop
  endfacet
  facet normal -0 0 -1
    outer loop
      vertex 137.5 57.5 0
      vertex 122.5 42.5 0
      vertex 122.5 57.5 0
    endloop
  endfacet
  facet normal 0 0 -1
    outer loop
      vertex 142.5 42.5 0
      vertex 157.5 57.5 0
      vertex 157.5 42.5 0
    endloop
  endfacet
  facet normal -0 0 -1
    outer loop
      vertex 157.5 57.5 0
      vertex 142.5 42.5 0
      vertex 142.5 57.5 0
    endloop
  endfacet
  facet normal 0 0 -1
    outer loop
      vertex 2.5 22.5 0
      vertex 17.5 37.5 0
      vertex 17.5 22.5 0
    endloop
  endfacet
  facet normal -0 0 -1
    outer loop
      vertex 17.5 37.5 0
      vertex 2.5 22.5 0
      vertex 2.5 37.5 0
    endloop
  endfacet
  facet normal 0 0 -1
    outer loop
      vertex 22.5 22.5 0
      vertex 37.5 37.5 0
      vertex 37.5 22.5 0
    endloop
  endfacet
  facet normal -0 0 -1
    outer loop
      vertex 37.5 37.5 0
      vertex 22.5 22.5 0
      vertex 22.5 37.5 0
    endloop
  endfacet
  facet normal 0 0 -1
    outer loop
      vertex 42.5 22.5 0
      vertex 57.5 37.5 0
      vertex 57.5 22.5 0
    endloop
  endfacet
  facet normal -0 0 -1
    outer loop
      vertex 57.5 37.5 0
      vertex 42.5 22.5 0
      vertex 42.5 37.5 0
    endloop
  endfacet
  facet normal 0 0 -1
    outer loop
      vertex 62.5 22.5 0
      vertex 77.5 37.5 0
      vertex 77.5 22.5 0
    endloop
  endfacet
  facet normal -0 0 -1
    outer loop
      vertex 77.5 37.5 0
      vertex 62.5 22.5 0
      vertex 62.5 37.5 0
    endloop
  endfacet
  facet normal 0 0 -1
    outer loop
      vertex 82.5 22.5 0
      vertex 97.5 37.5 0
      vertex 97.5 22.5 0
    endloop
  endfacet
  facet normal -0 0 -1
    outer loop
      vertex 97.5 37.5 0
      vertex 82.5 22.5 0
      vertex 82.5 37.5 0
    endloop
  endfacet
  facet normal 0 0 -1
    outer loop
      vertex 102.5 22.5 0
      vertex 117.5 37.5 0
      vertex 117.5 22.5 0
    endloop
  endfacet
  facet normal -0 0 -1
    outer loop
      vertex 117.5 37.5 0
      vertex 102.5 22.5 0
      vertex 102.5 37.5 0
    endloop
  endfacet
  facet normal 0 0 -1
    outer loop
      vertex 122.5 22.5 0
      vertex 137.5 37.5 0
      vertex 137.5 22.5 0
    endloop
  endfacet
  facet normal -0 0 -1
    outer loop
      vertex 137.5 37.5 0
      vertex 122.5 22.5 0
      vertex 122.5 37.5 0
    endloop
  endfacet
  facet normal 0 0 -1
    outer loop
      vertex 142.5 22.5 0
      vertex 157.5 37.5 0
      vertex 157.5 22.5 0
    endloop
  endfacet
  facet normal -0 0 -1
    outer loop
      vertex 157.5 37.5 0
      vertex 142.5 22.5 0
      vertex 142.5 37.5 0
    endloop
  endfacet
  facet normal 0 0 -1
    outer loop
      vertex 2.5 2.5 0
      vertex 17.5 17.5 0
      vertex 17.5 2.5 0
    endloop
  endfacet
  facet normal -0 0 -1
    outer loop
      vertex 17.5 17.5 0
      vertex 2.5 2.5 0
      vertex 2.5 17.5 0
    endloop
  endfacet
  facet normal 0 0 -1
    outer loop
      vertex 22.5 2.5 0
      vertex 37.5 17.5 0
      vertex 37.5 2.5 0
    endloop
  endfacet
  facet normal -0 0 -1
    outer loop
      vertex 37.5 17.5 0
      vertex 22.5 2.5 0
      vertex 22.5 17.5 0
    endloop
  endfacet
  facet normal 0 0 -1
    outer loop
      vertex 42.5 2.5 0
      vertex 57.5 17.5 0
      vertex 57.5 2.5 0
    endloop
  endfacet
  facet normal -0 0 -1
    outer loop
      vertex 57.5 17.5 0
      vertex 42.5 2.5 0
      vertex 42.5 17.5 0
    endloop
  endfacet
  facet normal 0 0 -1
    outer loop
      vertex 62.5 2.5 0
      vertex 77.5 17.5 0
      vertex 77.5 2.5 0
    endloop
  endfacet
  facet normal -0 0 -1
    outer loop
      vertex 77.5 17.5 0
      vertex 62.5 2.5 0
      vertex 62.5 17.5 0
    endloop
  endfacet
  facet normal 0 0 -1
    outer loop
      vertex 82.5 2.5 0
      vertex 97.5 17.5 0
      vertex 97.5 2.5 0
    endloop
  endfacet
  facet normal -0 0 -1
    outer loop
      vertex 97.5 17.5 0
      vertex 82.5 2.5 0
      vertex 82.5 17.5 0
    endloop
  endfacet
  facet normal 0 0 -1
    outer loop
      vertex 102.5 2.5 0
      vertex 117.5 17.5 0
      vertex 117.5 2.5 0
    endloop
  endfacet
  facet normal -0 0 -1
    outer loop
      vertex 117.5 17.5 0
      vertex 102.5 2.5 0
      vertex 102.5 17.5 0
    endloop
  endfacet
  facet normal 0 0 -1
    outer loop
      vertex 122.5 2.5 0
      vertex 137.5 17.5 0
      vertex 137.5 2.5 0
    endloop
  endfacet
  facet normal -0 0 -1
    outer loop
      vertex 137.5 17.5 0
      vertex 122.5 2.5 0
      vertex 122.5 17.5 0
    endloop
  endfacet
  facet normal 0 0 -1
    outer loop
      vertex 142.5 2.5 0
      vertex 157.5 17.5 0
      vertex 157.5 2.5 0
    endloop
  endfacet
  facet normal -0 0 -1
    outer loop
      vertex 157.5 17.5 0
      vertex 142.5 2.5 0
      vertex 142.5 17.5 0
    endloop
  endfacet
  facet normal 0 -0.768221 -0.640184
    outer loop
      vertex 142.5 2.5 0
      vertex 160 0 3
      vertex 140 0 3
    endloop
  endfacet
  facet normal 0 -0.768221 -0.640184
    outer loop
      vertex 160 0 3
      vertex 142.5 2.5 0
      vertex 157.5 2.5 0
    endloop
  endfacet
  facet normal 0 -0.768221 -0.640184
    outer loop
      vertex 122.5 2.5 0
      vertex 140 0 3
      vertex 120 0 3
    endloop
  endfacet
  facet normal 0 -0.768221 -0.640184
    outer loop
      vertex 140 0 3
      vertex 122.5 2.5 0
      vertex 137.5 2.5 0
    endloop
  endfacet
  facet normal 0 -0.768221 -0.640184
    outer loop
      vertex 102.5 2.5 0
      vertex 120 0 3
      vertex 100 0 3
    endloop
  endfacet
  facet normal 0 -0.768221 -0.640184
    outer loop
      vertex 120 0 3
      vertex 102.5 2.5 0
      vertex 117.5 2.5 0
    endloop
  endfacet
  facet normal 0 -0.768221 -0.640184
    outer loop
      vertex 82.5 2.5 0
      vertex 100 0 3
      vertex 80 0 3
    endloop
  endfacet
  facet normal 0 -0.768221 -0.640184
    outer loop
      vertex 100 0 3
      vertex 82.5 2.5 0
      vertex 97.5 2.5 0
    endloop
  endfacet
  facet normal 0 -0.768221 -0.640184
    outer loop
      vertex 62.5 2.5 0
      vertex 80 0 3
      vertex 60 0 3
    endloop
  endfacet
  facet normal 0 -0.768221 -0.640184
    outer loop
      vertex 80 0 3
      vertex 62.5 2.5 0
      vertex 77.5 2.5 0
    endloop
  endfacet
  facet normal 0 -0.768221 -0.640184
    outer loop
      vertex 42.5 2.5 0
      vertex 60 0 3
      vertex 40 0 3
    endloop
  endfacet
  facet normal 0 -0.768221 -0.640184
    outer loop
      vertex 60 0 3
      vertex 42.5 2.5 0
      vertex 57.5 2.5 0
    endloop
  endfacet
  facet normal 0 -0.768221 -0.640184
    outer loop
      vertex 22.5 2.5 0
      vertex 40 0 3
      vertex 20 0 3
    endloop
  endfacet
  facet normal 0 -0.768221 -0.640184
    outer loop
      vertex 40 0 3
      vertex 22.5 2.5 0
      vertex 37.5 2.5 0
    endloop
  endfacet
  facet normal 0 -0.768221 -0.640184
    outer loop
      vertex 2.5 2.5 0
      vertex 20 0 3
      vertex 0 0 3
    endloop
  endfacet
  facet normal 0 -0.768221 -0.640184
    outer loop
      vertex 20 0 3
      vertex 2.5 2.5 0
      vertex 17.5 2.5 0
    endloop
  endfacet
  facet normal 0 -0.768221 -0.640184
    outer loop
      vertex 2.5 22.5 0
      vertex 20 20 3
      vertex 0 20 3
    endloop
  endfacet
  facet normal 0 -0.768221 -0.640184
    outer loop
      vertex 20 20 3
      vertex 2.5 22.5 0
      vertex 17.5 22.5 0
    endloop
  endfacet
  facet normal 0 -0.768221 -0.640184
    outer loop
      vertex 142.5 22.5 0
      vertex 160 20 3
      vertex 140 20 3
    endloop
  endfacet
  facet normal 0 -0.768221 -0.640184
    outer loop
      vertex 160 20 3
      vertex 142.5 22.5 0
      vertex 157.5 22.5 0
    endloop
  endfacet
  facet normal 0 -0.768221 -0.640184
    outer loop
      vertex 22.5 22.5 0
      vertex 40 20 3
      vertex 20 20 3
    endloop
  endfacet
  facet normal 0 -0.768221 -0.640184
    outer loop
      vertex 40 20 3
      vertex 22.5 22.5 0
      vertex 37.5 22.5 0
    endloop
  endfacet
  facet normal 0 -0.768221 -0.640184
    outer loop
      vertex 42.5 22.5 0
      vertex 60 20 3
      vertex 40 20 3
    endloop
  endfacet
  facet normal 0 -0.768221 -0.640184
    outer loop
      vertex 60 20 3
      vertex 42.5 22.5 0
      vertex 57.5 22.5 0
    endloop
  endfacet
  facet normal 0 -0.768221 -0.640184
    outer loop
      vertex 62.5 22.5 0
      vertex 80 20 3
      vertex 60 20 3
    endloop
  endfacet
  facet normal 0 -0.768221 -0.640184
    outer loop
      vertex 80 20 3
      vertex 62.5 22.5 0
      vertex 77.5 22.5 0
    endloop
  endfacet
  facet normal 0 -0.768221 -0.640184
    outer loop
      vertex 82.5 22.5 0
      vertex 100 20 3
      vertex 80 20 3
    endloop
  endfacet
  facet normal 0 -0.768221 -0.640184
    outer loop
      vertex 100 20 3
      vertex 82.5 22.5 0
      vertex 97.5 22.5 0
    endloop
  endfacet
  facet normal 0 -0.768221 -0.640184
    outer loop
      vertex 102.5 22.5 0
      vertex 120 20 3
      vertex 100 20 3
    endloop
  endfacet
  facet normal 0 -0.768221 -0.640184
    outer loop
      vertex 120 20 3
      vertex 102.5 22.5 0
      vertex 117.5 22.5 0
    endloop
  endfacet
  facet normal 0 -0.768221 -0.640184
    outer loop
      vertex 122.5 22.5 0
      vertex 140 20 3
      vertex 120 20 3
    endloop
  endfacet
  facet normal 0 -0.768221 -0.640184
    outer loop
      vertex 140 20 3
      vertex 122.5 22.5 0
      vertex 137.5 22.5 0
    endloop
  endfacet
  facet normal 0 0.768221 -0.640184
    outer loop
      vertex 17.5 17.5 0
      vertex 0 20 3
      vertex 20 20 3
    endloop
  endfacet
  facet normal 0 0.768221 -0.640184
    outer loop
      vertex 0 20 3
      vertex 17.5 17.5 0
      vertex 2.5 17.5 0
    endloop
  endfacet
  facet normal 0 0.768221 -0.640184
    outer loop
      vertex 157.5 17.5 0
      vertex 140 20 3
      vertex 160 20 3
    endloop
  endfacet
  facet normal 0 0.768221 -0.640184
    outer loop
      vertex 140 20 3
      vertex 157.5 17.5 0
      vertex 142.5 17.5 0
    endloop
  endfacet
  facet normal 0 0.768221 -0.640184
    outer loop
      vertex 37.5 17.5 0
      vertex 20 20 3
      vertex 40 20 3
    endloop
  endfacet
  facet normal 0 0.768221 -0.640184
    outer loop
      vertex 20 20 3
      vertex 37.5 17.5 0
      vertex 22.5 17.5 0
    endloop
  endfacet
  facet normal 0 0.768221 -0.640184
    outer loop
      vertex 57.5 17.5 0
      vertex 40 20 3
      vertex 60 20 3
    endloop
  endfacet
  facet normal 0 0.768221 -0.640184
    outer loop
      vertex 40 20 3
      vertex 57.5 17.5 0
      vertex 42.5 17.5 0
    endloop
  endfacet
  facet normal 0 0.768221 -0.640184
    outer loop
      vertex 77.5 17.5 0
      vertex 60 20 3
      vertex 80 20 3
    endloop
  endfacet
  facet normal 0 0.768221 -0.640184
    outer loop
      vertex 60 20 3
      vertex 77.5 17.5 0
      vertex 62.5 17.5 0
    endloop
  endfacet
  facet normal 0 0.768221 -0.640184
    outer loop
      vertex 97.5 17.5 0
      vertex 80 20 3
      vertex 100 20 3
    endloop
  endfacet
  facet normal 0 0.768221 -0.640184
    outer loop
      vertex 80 20 3
      vertex 97.5 17.5 0
      vertex 82.5 17.5 0
    endloop
  endfacet
  facet normal 0 0.768221 -0.640184
    outer loop
      vertex 117.5 17.5 0
      vertex 100 20 3
      vertex 120 20 3
    endloop
  endfacet
  facet normal 0 0.768221 -0.640184
    outer loop
      vertex 100 20 3
      vertex 117.5 17.5 0
      vertex 102.5 17.5 0
    endloop
  endfacet
  facet normal 0 0.768221 -0.640184
    outer loop
      vertex 137.5 17.5 0
      vertex 120 20 3
      vertex 140 20 3
    endloop
  endfacet
  facet normal 0 0.768221 -0.640184
    outer loop
      vertex 120 20 3
      vertex 137.5 17.5 0
      vertex 122.5 17.5 0
    endloop
  endfacet
  facet normal 0 -0.768221 -0.640184
    outer loop
      vertex 2.5 42.5 0
      vertex 20 40 3
      vertex 0 40 3
    endloop
  endfacet
  facet normal 0 -0.768221 -0.640184
    outer loop
      vertex 20 40 3
      vertex 2.5 42.5 0
      vertex 17.5 42.5 0
    endloop
  endfacet
  facet normal 0 -0.768221 -0.640184
    outer loop
      vertex 142.5 42.5 0
      vertex 160 40 3
      vertex 140 40 3
    endloop
  endfacet
  facet normal 0 -0.768221 -0.640184
    outer loop
      vertex 160 40 3
      vertex 142.5 42.5 0
      vertex 157.5 42.5 0
    endloop
  endfacet
  facet normal 0 -0.768221 -0.640184
    outer loop
      vertex 22.5 42.5 0
      vertex 40 40 3
      vertex 20 40 3
    endloop
  endfacet
  facet normal 0 -0.768221 -0.640184
    outer loop
      vertex 40 40 3
      vertex 22.5 42.5 0
      vertex 37.5 42.5 0
    endloop
  endfacet
  facet normal 0 -0.768221 -0.640184
    outer loop
      vertex 42.5 42.5 0
      vertex 60 40 3
      vertex 40 40 3
    endloop
  endfacet
  facet normal 0 -0.768221 -0.640184
    outer loop
      vertex 60 40 3
      vertex 42.5 42.5 0
      vertex 57.5 42.5 0
    endloop
  endfacet
  facet normal 0 -0.768221 -0.640184
    outer loop
      vertex 62.5 42.5 0
      vertex 80 40 3
      vertex 60 40 3
    endloop
  endfacet
  facet normal 0 -0.768221 -0.640184
    outer loop
      vertex 80 40 3
      vertex 62.5 42.5 0
      vertex 77.5 42.5 0
    endloop
  endfacet
  facet normal 0 -0.768221 -0.640184
    outer loop
      vertex 82.5 42.5 0
      vertex 100 40 3
      vertex 80 40 3
    endloop
  endfacet
  facet normal 0 -0.768221 -0.640184
    outer loop
      vertex 100 40 3
      vertex 82.5 42.5 0
      vertex 97.5 42.5 0
    endloop
  endfacet
  facet normal 0 -0.768221 -0.640184
    outer loop
      vertex 102.5 42.5 0
      vertex 120 40 3
      vertex 100 40 3
    endloop
  endfacet
  facet normal 0 -0.768221 -0.640184
    outer loop
      vertex 120 40 3
      vertex 102.5 42.5 0
      vertex 117.5 42.5 0
    endloop
  endfacet
  facet normal 0 -0.768221 -0.640184
    outer loop
      vertex 122.5 42.5 0
      vertex 140 40 3
      vertex 120 40 3
    endloop
  endfacet
  facet normal 0 -0.768221 -0.640184
    outer loop
      vertex 140 40 3
      vertex 122.5 42.5 0
      vertex 137.5 42.5 0
    endloop
  endfacet
  facet normal 0 0.768221 -0.640184
    outer loop
      vertex 17.5 37.5 0
      vertex 0 40 3
      vertex 20 40 3
    endloop
  endfacet
  facet normal 0 0.768221 -0.640184
    outer loop
      vertex 0 40 3
      vertex 17.5 37.5 0
      vertex 2.5 37.5 0
    endloop
  endfacet
  facet normal 0 0.768221 -0.640184
    outer loop
      vertex 157.5 37.5 0
      vertex 140 40 3
      vertex 160 40 3
    endloop
  endfacet
  facet normal 0 0.768221 -0.640184
    outer loop
      vertex 140 40 3
      vertex 157.5 37.5 0
      vertex 142.5 37.5 0
    endloop
  endfacet
  facet normal 0 0.768221 -0.640184
    outer loop
      vertex 37.5 37.5 0
      vertex 20 40 3
      vertex 40 40 3
    endloop
  endfacet
  facet normal 0 0.768221 -0.640184
    outer loop
      vertex 20 40 3
      vertex 37.5 37.5 0
      vertex 22.5 37.5 0
    endloop
  endfacet
  facet normal 0 0.768221 -0.640184
    outer loop
      vertex 57.5 37.5 0
      vertex 40 40 3
      vertex 60 40 3
    endloop
  endfacet
  facet normal 0 0.768221 -0.640184
    outer loop
      vertex 40 40 3
      vertex 57.5 37.5 0
      vertex 42.5 37.5 0
    endloop
  endfacet
  facet normal 0 0.768221 -0.640184
    outer loop
      vertex 77.5 37.5 0
      vertex 60 40 3
      vertex 80 40 3
    endloop
  endfacet
  facet normal 0 0.768221 -0.640184
    outer loop
      vertex 60 40 3
      vertex 77.5 37.5 0
      vertex 62.5 37.5 0
    endloop
  endfacet
  facet normal 0 0.768221 -0.640184
    outer loop
      vertex 97.5 37.5 0
      vertex 80 40 3
      vertex 100 40 3
    endloop
  endfacet
  facet normal 0 0.768221 -0.640184
    outer loop
      vertex 80 40 3
      vertex 97.5 37.5 0
      vertex 82.5 37.5 0
    endloop
  endfacet
  facet normal 0 0.768221 -0.640184
    outer loop
      vertex 117.5 37.5 0
      vertex 100 40 3
      vertex 120 40 3
    endloop
  endfacet
  facet normal 0 0.768221 -0.640184
    outer loop
      vertex 100 40 3
      vertex 117.5 37.5 0
      vertex 102.5 37.5 0
    endloop
  endfacet
  facet normal 0 0.768221 -0.640184
    outer loop
      vertex 137.5 37.5 0
      vertex 120 40 3
      vertex 140 40 3
    endloop
  endfacet
  facet normal 0 0.768221 -0.640184
    outer loop
      vertex 120 40 3
      vertex 137.5 37.5 0
      vertex 122.5 37.5 0
    endloop
  endfacet
  facet normal 0 -0.768221 -0.640184
    outer loop
      vertex 2.5 62.5 0
      vertex 20 60 3
      vertex 0 60 3
    endloop
  endfacet
  facet normal 0 -0.768221 -0.640184
    outer loop
      vertex 20 60 3
      vertex 2.5 62.5 0
      vertex 17.5 62.5 0
    endloop
  endfacet
  facet normal 0 -0.768221 -0.640184
    outer loop
      vertex 142.5 62.5 0
      vertex 160 60 3
      vertex 140 60 3
    endloop
  endfacet
  facet normal 0 -0.768221 -0.640184
    outer loop
      vertex 160 60 3
      vertex 142.5 62.5 0
      vertex 157.5 62.5 0
    endloop
  endfacet
  facet normal 0 -0.768221 -0.640184
    outer loop
      vertex 22.5 62.5 0
      vertex 40 60 3
      vertex 20 60 3
    endloop
  endfacet
  facet normal 0 -0.768221 -0.640184
    outer loop
      vertex 40 60 3
      vertex 22.5 62.5 0
      vertex 37.5 62.5 0
    endloop
  endfacet
  facet normal 0 -0.768221 -0.640184
    outer loop
      vertex 42.5 62.5 0
      vertex 60 60 3
      vertex 40 60 3
    endloop
  endfacet
  facet normal 0 -0.768221 -0.640184
    outer loop
      vertex 60 60 3
      vertex 42.5 62.5 0
      vertex 57.5 62.5 0
    endloop
  endfacet
  facet normal 0 -0.768221 -0.640184
    outer loop
      vertex 62.5 62.5 0
      vertex 80 60 3
      vertex 60 60 3
    endloop
  endfacet
  facet normal 0 -0.768221 -0.640184
    outer loop
      vertex 80 60 3
      vertex 62.5 62.5 0
      vertex 77.5 62.5 0
    endloop
  endfacet
  facet normal 0 -0.768221 -0.640184
    outer loop
      vertex 82.5 62.5 0
      vertex 100 60 3
      vertex 80 60 3
    endloop
  endfacet
  facet normal 0 -0.768221 -0.640184
    outer loop
      vertex 100 60 3
      vertex 82.5 62.5 0
      vertex 97.5 62.5 0
    endloop
  endfacet
  facet normal 0 -0.768221 -0.640184
    outer loop
      vertex 102.5 62.5 0
      vertex 120 60 3
      vertex 100 60 3
    endloop
  endfacet
  facet normal 0 -0.768221 -0.640184
    outer loop
      vertex 120 60 3
      vertex 102.5 62.5 0
      vertex 117.5 62.5 0
    endloop
  endfacet
  facet normal 0 -0.768221 -0.640184
    outer loop
      vertex 122.5 62.5 0
      vertex 140 60 3
      vertex 120 60 3
    endloop
  endfacet
  facet normal 0 -0.768221 -0.640184
    outer loop
      vertex 140 60 3
      vertex 122.5 62.5 0
      vertex 137.5 62.5 0
    endloop
  endfacet
  facet normal 0 0.768221 -0.640184
    outer loop
      vertex 17.5 57.5 0
      vertex 0 60 3
      vertex 20 60 3
    endloop
  endfacet
  facet normal 0 0.768221 -0.640184
    outer loop
      vertex 0 60 3
      vertex 17.5 57.5 0
      vertex 2.5 57.5 0
    endloop
  endfacet
  facet normal 0 0.768221 -0.640184
    outer loop
      vertex 157.5 57.5 0
      vertex 140 60 3
      vertex 160 60 3
    endloop
  endfacet
  facet normal 0 0.768221 -0.640184
    outer loop
      vertex 140 60 3
      vertex 157.5 57.5 0
      vertex 142.5 57.5 0
    endloop
  endfacet
  facet normal 0 0.768221 -0.640184
    outer loop
      vertex 37.5 57.5 0
      vertex 20 60 3
      vertex 40 60 3
    endloop
  endfacet
  facet normal 0 0.768221 -0.640184
    outer loop
      vertex 20 60 3
      vertex 37.5 57.5 0
      vertex 22.5 57.5 0
    endloop
  endfacet
  facet normal 0 0.768221 -0.640184
    outer loop
      vertex 57.5 57.5 0
      vertex 40 60 3
      vertex 60 60 3
    endloop
  endfacet
  facet normal 0 0.768221 -0.640184
    outer loop
      vertex 40 60 3
      vertex 57.5 57.5 0
      vertex 42.5 57.5 0
    endloop
  endfacet
  facet normal 0 0.768221 -0.640184
    outer loop
      vertex 77.5 57.5 0
      vertex 60 60 3
      vertex 80 60 3
    endloop
  endfacet
  facet normal 0 0.768221 -0.640184
    outer loop
      vertex 60 60 3
      vertex 77.5 57.5 0
      vertex 62.5 57.5 0
    endloop
  endfacet
  facet normal 0 0.768221 -0.640184
    outer loop
      vertex 97.5 57.5 0
      vertex 80 60 3
      vertex 100 60 3
    endloop
  endfacet
  facet normal 0 0.768221 -0.640184
    outer loop
      vertex 80 60 3
      vertex 97.5 57.5 0
      vertex 82.5 57.5 0
    endloop
  endfacet
  facet normal 0 0.768221 -0.640184
    outer loop
      vertex 117.5 57.5 0
      vertex 100 60 3
      vertex 120 60 3
    endloop
  endfacet
  facet normal 0 0.768221 -0.640184
    outer loop
      vertex 100 60 3
      vertex 117.5 57.5 0
      vertex 102.5 57.5 0
    endloop
  endfacet
  facet normal 0 0.768221 -0.640184
    outer loop
      vertex 137.5 57.5 0
      vertex 120 60 3
      vertex 140 60 3
    endloop
  endfacet
  facet normal 0 0.768221 -0.640184
    outer loop
      vertex 120 60 3
      vertex 137.5 57.5 0
      vertex 122.5 57.5 0
    endloop
  endfacet
  facet normal 0 0.768221 -0.640184
    outer loop
      vertex 157.5 77.5 0
      vertex 140 80 3
      vertex 160 80 3
    endloop
  endfacet
  facet normal 0 0.768221 -0.640184
    outer loop
      vertex 140 80 3
      vertex 157.5 77.5 0
      vertex 142.5 77.5 0
    endloop
  endfacet
  facet normal 0 0.768221 -0.640184
    outer loop
      vertex 137.5 77.5 0
      vertex 120 80 3
      vertex 140 80 3
    endloop
  endfacet
  facet normal 0 0.768221 -0.640184
    outer loop
      vertex 120 80 3
      vertex 137.5 77.5 0
      vertex 122.5 77.5 0
    endloop
  endfacet
  facet normal 0 0.768221 -0.640184
    outer loop
      vertex 117.5 77.5 0
      vertex 100 80 3
      vertex 120 80 3
    endloop
  endfacet
  facet normal 0 0.768221 -0.640184
    outer loop
      vertex 100 80 3
      vertex 117.5 77.5 0
      vertex 102.5 77.5 0
    endloop
  endfacet
  facet normal 0 0.768221 -0.640184
    outer loop
      vertex 97.5 77.5 0
      vertex 80 80 3
      vertex 100 80 3
    endloop
  endfacet
  facet normal 0 0.768221 -0.640184
    outer loop
      vertex 80 80 3
      vertex 97.5 77.5 0
      vertex 82.5 77.5 0
    endloop
  endfacet
  facet normal 0 0.768221 -0.640184
    outer loop
      vertex 77.5 77.5 0
      vertex 60 80 3
      vertex 80 80 3
    endloop
  endfacet
  facet normal 0 0.768221 -0.640184
    outer loop
      vertex 60 80 3
      vertex 77.5 77.5 0
      vertex 62.5 77.5 0
    endloop
  endfacet
  facet normal 0 0.768221 -0.640184
    outer loop
      vertex 57.5 77.5 0
      vertex 40 80 3
      vertex 60 80 3
    endloop
  endfacet
  facet normal 0 0.768221 -0.640184
    outer loop
      vertex 40 80 3
      vertex 57.5 77.5 0
      vertex 42.5 77.5 0
    endloop
  endfacet
  facet normal 0 0.768221 -0.640184
    outer loop
      vertex 37.5 77.5 0
      vertex 20 80 3
      vertex 40 80 3
    endloop
  endfacet
  facet normal 0 0.768221 -0.640184
    outer loop
      vertex 20 80 3
      vertex 37.5 77.5 0
      vertex 22.5 77.5 0
    endloop
  endfacet
  facet normal 0 0.768221 -0.640184
    outer loop
      vertex 17.5 77.5 0
      vertex 0 80 3
      vertex 20 80 3
    endloop
  endfacet
  facet normal 0 0.768221 -0.640184
    outer loop
      vertex 0 80 3
      vertex 17.5 77.5 0
      vertex 2.5 77.5 0
    endloop
  endfacet
  facet normal -0.768221 0 -0.640184
    outer loop
      vertex 2.5 62.5 0
      vertex 0 80 3
      vertex 2.5 77.5 0
    endloop
  endfacet
  facet normal -0.768221 -0 -0.640184
    outer loop
      vertex 0 80 3
      vertex 2.5 62.5 0
      vertex 0 60 3
    endloop
  endfacet
  facet normal -0.768221 0 -0.640184
    outer loop
      vertex 2.5 2.5 0
      vertex 0 20 3
      vertex 2.5 17.5 0
    endloop
  endfacet
  facet normal -0.768221 -0 -0.640184
    outer loop
      vertex 0 20 3
      vertex 2.5 2.5 0
      vertex 0 0 3
    endloop
  endfacet
  facet normal -0.768221 0 -0.640184
    outer loop
      vertex 2.5 42.5 0
      vertex 0 60 3
      vertex 2.5 57.5 0
    endloop
  endfacet
  facet normal -0.768221 -0 -0.640184
    outer loop
      vertex 0 60 3
      vertex 2.5 42.5 0
      vertex 0 40 3
    endloop
  endfacet
  facet normal -0.768221 0 -0.640184
    outer loop
      vertex 2.5 22.5 0
      vertex 0 40 3
      vertex 2.5 37.5 0
    endloop
  endfacet
  facet normal -0.768221 -0 -0.640184
    outer loop
      vertex 0 40 3
      vertex 2.5 22.5 0
      vertex 0 20 3
    endloop
  endfacet
  facet normal -0.768221 0 -0.640184
    outer loop
      vertex 22.5 62.5 0
      vertex 20 80 3
      vertex 22.5 77.5 0
    endloop
  endfacet
  facet normal -0.768221 -0 -0.640184
    outer loop
      vertex 20 80 3
      vertex 22.5 62.5 0
      vertex 20 60 3
    endloop
  endfacet
  facet normal -0.768221 0 -0.640184
    outer loop
      vertex 22.5 2.5 0
      vertex 20 20 3
      vertex 22.5 17.5 0
    endloop
  endfacet
  facet normal -0.768221 -0 -0.640184
    outer loop
      vertex 20 20 3
      vertex 22.5 2.5 0
      vertex 20 0 3
    endloop
  endfacet
  facet normal -0.768221 0 -0.640184
    outer loop
      vertex 22.5 42.5 0
      vertex 20 60 3
      vertex 22.5 57.5 0
    endloop
  endfacet
  facet normal -0.768221 -0 -0.640184
    outer loop
      vertex 20 60 3
      vertex 22.5 42.5 0
      vertex 20 40 3
    endloop
  endfacet
  facet normal -0.768221 0 -0.640184
    outer loop
      vertex 22.5 22.5 0
      vertex 20 40 3
      vertex 22.5 37.5 0
    endloop
  endfacet
  facet normal -0.768221 -0 -0.640184
    outer loop
      vertex 20 40 3
      vertex 22.5 22.5 0
      vertex 20 20 3
    endloop
  endfacet
  facet normal 0.768221 0 -0.640184
    outer loop
      vertex 20 80 3
      vertex 17.5 62.5 0
      vertex 17.5 77.5 0
    endloop
  endfacet
  facet normal 0.768221 0 -0.640184
    outer loop
      vertex 17.5 62.5 0
      vertex 20 80 3
      vertex 20 60 3
    endloop
  endfacet
  facet normal 0.768221 0 -0.640184
    outer loop
      vertex 20 20 3
      vertex 17.5 2.5 0
      vertex 17.5 17.5 0
    endloop
  endfacet
  facet normal 0.768221 0 -0.640184
    outer loop
      vertex 17.5 2.5 0
      vertex 20 20 3
      vertex 20 0 3
    endloop
  endfacet
  facet normal 0.768221 0 -0.640184
    outer loop
      vertex 20 60 3
      vertex 17.5 42.5 0
      vertex 17.5 57.5 0
    endloop
  endfacet
  facet normal 0.768221 0 -0.640184
    outer loop
      vertex 17.5 42.5 0
      vertex 20 60 3
      vertex 20 40 3
    endloop
  endfacet
  facet normal 0.768221 0 -0.640184
    outer loop
      vertex 20 40 3
      vertex 17.5 22.5 0
      vertex 17.5 37.5 0
    endloop
  endfacet
  facet normal 0.768221 0 -0.640184
    outer loop
      vertex 17.5 22.5 0
      vertex 20 40 3
      vertex 20 20 3
    endloop
  endfacet
  facet normal -0.768221 0 -0.640184
    outer loop
      vertex 42.5 62.5 0
      vertex 40 80 3
      vertex 42.5 77.5 0
    endloop
  endfacet
  facet normal -0.768221 -0 -0.640184
    outer loop
      vertex 40 80 3
      vertex 42.5 62.5 0
      vertex 40 60 3
    endloop
  endfacet
  facet normal -0.768221 0 -0.640184
    outer loop
      vertex 42.5 2.5 0
      vertex 40 20 3
      vertex 42.5 17.5 0
    endloop
  endfacet
  facet normal -0.768221 -0 -0.640184
    outer loop
      vertex 40 20 3
      vertex 42.5 2.5 0
      vertex 40 0 3
    endloop
  endfacet
  facet normal -0.768221 0 -0.640184
    outer loop
      vertex 42.5 42.5 0
      vertex 40 60 3
      vertex 42.5 57.5 0
    endloop
  endfacet
  facet normal -0.768221 -0 -0.640184
    outer loop
      vertex 40 60 3
      vertex 42.5 42.5 0
      vertex 40 40 3
    endloop
  endfacet
  facet normal -0.768221 0 -0.640184
    outer loop
      vertex 42.5 22.5 0
      vertex 40 40 3
      vertex 42.5 37.5 0
    endloop
  endfacet
  facet normal -0.768221 -0 -0.640184
    outer loop
      vertex 40 40 3
      vertex 42.5 22.5 0
      vertex 40 20 3
    endloop
  endfacet
  facet normal 0.768221 0 -0.640184
    outer loop
      vertex 40 80 3
      vertex 37.5 62.5 0
      vertex 37.5 77.5 0
    endloop
  endfacet
  facet normal 0.768221 0 -0.640184
    outer loop
      vertex 37.5 62.5 0
      vertex 40 80 3
      vertex 40 60 3
    endloop
  endfacet
  facet normal 0.768221 0 -0.640184
    outer loop
      vertex 40 20 3
      vertex 37.5 2.5 0
      vertex 37.5 17.5 0
    endloop
  endfacet
  facet normal 0.768221 0 -0.640184
    outer loop
      vertex 37.5 2.5 0
      vertex 40 20 3
      vertex 40 0 3
    endloop
  endfacet
  facet normal 0.768221 0 -0.640184
    outer loop
      vertex 40 60 3
      vertex 37.5 42.5 0
      vertex 37.5 57.5 0
    endloop
  endfacet
  facet normal 0.768221 0 -0.640184
    outer loop
      vertex 37.5 42.5 0
      vertex 40 60 3
      vertex 40 40 3
    endloop
  endfacet
  facet normal 0.768221 0 -0.640184
    outer loop
      vertex 40 40 3
      vertex 37.5 22.5 0
      vertex 37.5 37.5 0
    endloop
  endfacet
  facet normal 0.768221 0 -0.640184
    outer loop
      vertex 37.5 22.5 0
      vertex 40 40 3
      vertex 40 20 3
    endloop
  endfacet
  facet normal -0.768221 0 -0.640184
    outer loop
      vertex 62.5 62.5 0
      vertex 60 80 3
      vertex 62.5 77.5 0
    endloop
  endfacet
  facet normal -0.768221 -0 -0.640184
    outer loop
      vertex 60 80 3
      vertex 62.5 62.5 0
      vertex 60 60 3
    endloop
  endfacet
  facet normal -0.768221 0 -0.640184
    outer loop
      vertex 62.5 2.5 0
      vertex 60 20 3
      vertex 62.5 17.5 0
    endloop
  endfacet
  facet normal -0.768221 -0 -0.640184
    outer loop
      vertex 60 20 3
      vertex 62.5 2.5 0
      vertex 60 0 3
    endloop
  endfacet
  facet normal -0.768221 0 -0.640184
    outer loop
      vertex 62.5 42.5 0
      vertex 60 60 3
      vertex 62.5 57.5 0
    endloop
  endfacet
  facet normal -0.768221 -0 -0.640184
    outer loop
      vertex 60 60 3
      vertex 62.5 42.5 0
      vertex 60 40 3
    endloop
  endfacet
  facet normal -0.768221 0 -0.640184
    outer loop
      vertex 62.5 22.5 0
      vertex 60 40 3
      vertex 62.5 37.5 0
    endloop
  endfacet
  facet normal -0.768221 -0 -0.640184
    outer loop
      vertex 60 40 3
      vertex 62.5 22.5 0
      vertex 60 20 3
    endloop
  endfacet
  facet normal 0.768221 0 -0.640184
    outer loop
      vertex 60 80 3
      vertex 57.5 62.5 0
      vertex 57.5 77.5 0
    endloop
  endfacet
  facet normal 0.768221 0 -0.640184
    outer loop
      vertex 57.5 62.5 0
      vertex 60 80 3
      vertex 60 60 3
    endloop
  endfacet
  facet normal 0.768221 0 -0.640184
    outer loop
      vertex 60 20 3
      vertex 57.5 2.5 0
      vertex 57.5 17.5 0
    endloop
  endfacet
  facet normal 0.768221 0 -0.640184
    outer loop
      vertex 57.5 2.5 0
      vertex 60 20 3
      vertex 60 0 3
    endloop
  endfacet
  facet normal 0.768221 0 -0.640184
    outer loop
      vertex 60 60 3
      vertex 57.5 42.5 0
      vertex 57.5 57.5 0
    endloop
  endfacet
  facet normal 0.768221 0 -0.640184
    outer loop
      vertex 57.5 42.5 0
      vertex 60 60 3
      vertex 60 40 3
    endloop
  endfacet
  facet normal 0.768221 0 -0.640184
    outer loop
      vertex 60 40 3
      vertex 57.5 22.5 0
      vertex 57.5 37.5 0
    endloop
  endfacet
  facet normal 0.768221 0 -0.640184
    outer loop
      vertex 57.5 22.5 0
      vertex 60 40 3
      vertex 60 20 3
    endloop
  endfacet
  facet normal -0.768221 0 -0.640184
    outer loop
      vertex 82.5 62.5 0
      vertex 80 80 3
      vertex 82.5 77.5 0
    endloop
  endfacet
  facet normal -0.768221 -0 -0.640184
    outer loop
      vertex 80 80 3
      vertex 82.5 62.5 0
      vertex 80 60 3
    endloop
  endfacet
  facet normal -0.768221 0 -0.640184
    outer loop
      vertex 82.5 2.5 0
      vertex 80 20 3
      vertex 82.5 17.5 0
    endloop
  endfacet
  facet normal -0.768221 -0 -0.640184
    outer loop
      vertex 80 20 3
      vertex 82.5 2.5 0
      vertex 80 0 3
    endloop
  endfacet
  facet normal -0.768221 0 -0.640184
    outer loop
      vertex 82.5 42.5 0
      vertex 80 60 3
      vertex 82.5 57.5 0
    endloop
  endfacet
  facet normal -0.768221 -0 -0.640184
    outer loop
      vertex 80 60 3
      vertex 82.5 42.5 0
      vertex 80 40 3
    endloop
  endfacet
  facet normal -0.768221 0 -0.640184
    outer loop
      vertex 82.5 22.5 0
      vertex 80 40 3
      vertex 82.5 37.5 0
    endloop
  endfacet
  facet normal -0.768221 -0 -0.640184
    outer loop
      vertex 80 40 3
      vertex 82.5 22.5 0
      vertex 80 20 3
    endloop
  endfacet
  facet normal 0.768221 0 -0.640184
    outer loop
      vertex 80 80 3
      vertex 77.5 62.5 0
      vertex 77.5 77.5 0
    endloop
  endfacet
  facet normal 0.768221 0 -0.640184
    outer loop
      vertex 77.5 62.5 0
      vertex 80 80 3
      vertex 80 60 3
    endloop
  endfacet
  facet normal 0.768221 0 -0.640184
    outer loop
      vertex 80 20 3
      vertex 77.5 2.5 0
      vertex 77.5 17.5 0
    endloop
  endfacet
  facet normal 0.768221 0 -0.640184
    outer loop
      vertex 77.5 2.5 0
      vertex 80 20 3
      vertex 80 0 3
    endloop
  endfacet
  facet normal 0.768221 0 -0.640184
    outer loop
      vertex 80 60 3
      vertex 77.5 42.5 0
      vertex 77.5 57.5 0
    endloop
  endfacet
  facet normal 0.768221 0 -0.640184
    outer loop
      vertex 77.5 42.5 0
      vertex 80 60 3
      vertex 80 40 3
    endloop
  endfacet
  facet normal 0.768221 0 -0.640184
    outer loop
      vertex 80 40 3
      vertex 77.5 22.5 0
      vertex 77.5 37.5 0
    endloop
  endfacet
  facet normal 0.768221 0 -0.640184
    outer loop
      vertex 77.5 22.5 0
      vertex 80 40 3
      vertex 80 20 3
    endloop
  endfacet
  facet normal -0.768221 0 -0.640184
    outer loop
      vertex 102.5 62.5 0
      vertex 100 80 3
      vertex 102.5 77.5 0
    endloop
  endfacet
  facet normal -0.768221 -0 -0.640184
    outer loop
      vertex 100 80 3
      vertex 102.5 62.5 0
      vertex 100 60 3
    endloop
  endfacet
  facet normal -0.768221 0 -0.640184
    outer loop
      vertex 102.5 2.5 0
      vertex 100 20 3
      vertex 102.5 17.5 0
    endloop
  endfacet
  facet normal -0.768221 -0 -0.640184
    outer loop
      vertex 100 20 3
      vertex 102.5 2.5 0
      vertex 100 0 3
    endloop
  endfacet
  facet normal -0.768221 0 -0.640184
    outer loop
      vertex 102.5 42.5 0
      vertex 100 60 3
      vertex 102.5 57.5 0
    endloop
  endfacet
  facet normal -0.768221 -0 -0.640184
    outer loop
      vertex 100 60 3
      vertex 102.5 42.5 0
      vertex 100 40 3
    endloop
  endfacet
  facet normal -0.768221 0 -0.640184
    outer loop
      vertex 102.5 22.5 0
      vertex 100 40 3
      vertex 102.5 37.5 0
    endloop
  endfacet
  facet normal -0.768221 -0 -0.640184
    outer loop
      vertex 100 40 3
      vertex 102.5 22.5 0
      vertex 100 20 3
    endloop
  endfacet
  facet normal 0.768221 0 -0.640184
    outer loop
      vertex 100 80 3
      vertex 97.5 62.5 0
      vertex 97.5 77.5 0
    endloop
  endfacet
  facet normal 0.768221 0 -0.640184
    outer loop
      vertex 97.5 62.5 0
      vertex 100 80 3
      vertex 100 60 3
    endloop
  endfacet
  facet normal 0.768221 0 -0.640184
    outer loop
      vertex 100 20 3
      vertex 97.5 2.5 0
      vertex 97.5 17.5 0
    endloop
  endfacet
  facet normal 0.768221 0 -0.640184
    outer loop
      vertex 97.5 2.5 0
      vertex 100 20 3
      vertex 100 0 3
    endloop
  endfacet
  facet normal 0.768221 0 -0.640184
    outer loop
      vertex 100 60 3
      vertex 97.5 42.5 0
      vertex 97.5 57.5 0
    endloop
  endfacet
  facet normal 0.768221 0 -0.640184
    outer loop
      vertex 97.5 42.5 0
      vertex 100 60 3
      vertex 100 40 3
    endloop
  endfacet
  facet normal 0.768221 0 -0.640184
    outer loop
      vertex 100 40 3
      vertex 97.5 22.5 0
      vertex 97.5 37.5 0
    endloop
  endfacet
  facet normal 0.768221 0 -0.640184
    outer loop
      vertex 97.5 22.5 0
      vertex 100 40 3
      vertex 100 20 3
    endloop
  endfacet
  facet normal -0.768221 0 -0.640184
    outer loop
      vertex 122.5 62.5 0
      vertex 120 80 3
      vertex 122.5 77.5 0
    endloop
  endfacet
  facet normal -0.768221 -0 -0.640184
    outer loop
      vertex 120 80 3
      vertex 122.5 62.5 0
      vertex 120 60 3
    endloop
  endfacet
  facet normal -0.768221 0 -0.640184
    outer loop
      vertex 122.5 2.5 0
      vertex 120 20 3
      vertex 122.5 17.5 0
    endloop
  endfacet
  facet normal -0.768221 -0 -0.640184
    outer loop
      vertex 120 20 3
      vertex 122.5 2.5 0
      vertex 120 0 3
    endloop
  endfacet
  facet normal -0.768221 0 -0.640184
    outer loop
      vertex 122.5 42.5 0
      vertex 120 60 3
      vertex 122.5 57.5 0
    endloop
  endfacet
  facet normal -0.768221 -0 -0.640184
    outer loop
      vertex 120 60 3
      vertex 122.5 42.5 0
      vertex 120 40 3
    endloop
  endfacet
  facet normal -0.768221 0 -0.640184
    outer loop
      vertex 122.5 22.5 0
      vertex 120 40 3
      vertex 122.5 37.5 0
    endloop
  endfacet
  facet normal -0.768221 -0 -0.640184
    outer loop
      vertex 120 40 3
      vertex 122.5 22.5 0
      vertex 120 20 3
    endloop
  endfacet
  facet normal 0.768221 0 -0.640184
    outer loop
      vertex 120 80 3
      vertex 117.5 62.5 0
      vertex 117.5 77.5 0
    endloop
  endfacet
  facet normal 0.768221 0 -0.640184
    outer loop
      vertex 117.5 62.5 0
      vertex 120 80 3
      vertex 120 60 3
    endloop
  endfacet
  facet normal 0.768221 0 -0.640184
    outer loop
      vertex 120 20 3
      vertex 117.5 2.5 0
      vertex 117.5 17.5 0
    endloop
  endfacet
  facet normal 0.768221 0 -0.640184
    outer loop
      vertex 117.5 2.5 0
      vertex 120 20 3
      vertex 120 0 3
    endloop
  endfacet
  facet normal 0.768221 0 -0.640184
    outer loop
      vertex 120 60 3
      vertex 117.5 42.5 0
      vertex 117.5 57.5 0
    endloop
  endfacet
  facet normal 0.768221 0 -0.640184
    outer loop
      vertex 117.5 42.5 0
      vertex 120 60 3
      vertex 120 40 3
    endloop
  endfacet
  facet normal 0.768221 0 -0.640184
    outer loop
      vertex 120 40 3
      vertex 117.5 22.5 0
      vertex 117.5 37.5 0
    endloop
  endfacet
  facet normal 0.768221 0 -0.640184
    outer loop
      vertex 117.5 22.5 0
      vertex 120 40 3
      vertex 120 20 3
    endloop
  endfacet
  facet normal -0.768221 0 -0.640184
    outer loop
      vertex 142.5 62.5 0
      vertex 140 80 3
      vertex 142.5 77.5 0
    endloop
  endfacet
  facet normal -0.768221 -0 -0.640184
    outer loop
      vertex 140 80 3
      vertex 142.5 62.5 0
      vertex 140 60 3
    endloop
  endfacet
  facet normal -0.768221 0 -0.640184
    outer loop
      vertex 142.5 2.5 0
      vertex 140 20 3
      vertex 142.5 17.5 0
    endloop
  endfacet
  facet normal -0.768221 -0 -0.640184
    outer loop
      vertex 140 20 3
      vertex 142.5 2.5 0
      vertex 140 0 3
    endloop
  endfacet
  facet normal -0.768221 0 -0.640184
    outer loop
      vertex 142.5 42.5 0
      vertex 140 60 3
      vertex 142.5 57.5 0
    endloop
  endfacet
  facet normal -0.768221 -0 -0.640184
    outer loop
      vertex 140 60 3
      vertex 142.5 42.5 0
      vertex 140 40 3
    endloop
  endfacet
  facet normal -0.768221 0 -0.640184
    outer loop
      vertex 142.5 22.5 0
      vertex 140 40 3
      vertex 142.5 37.5 0
    endloop
  endfacet
  facet normal -0.768221 -0 -0.640184
    outer loop
      vertex 140 40 3
      vertex 142.5 22.5 0
      vertex 140 20 3
    endloop
  endfacet
  facet normal 0.768221 0 -0.640184
    outer loop
      vertex 140 80 3
      vertex 137.5 62.5 0
      vertex 137.5 77.5 0
    endloop
  endfacet
  facet normal 0.768221 0 -0.640184
    outer loop
      vertex 137.5 62.5 0
      vertex 140 80 3
      vertex 140 60 3
    endloop
  endfacet
  facet normal 0.768221 0 -0.640184
    outer loop
      vertex 140 20 3
      vertex 137.5 2.5 0
      vertex 137.5 17.5 0
    endloop
  endfacet
  facet normal 0.768221 0 -0.640184
    outer loop
      vertex 137.5 2.5 0
      vertex 140 20 3
      vertex 140 0 3
    endloop
  endfacet
  facet normal 0.768221 0 -0.640184
    outer loop
      vertex 140 60 3
      vertex 137.5 42.5 0
      vertex 137.5 57.5 0
    endloop
  endfacet
  facet normal 0.768221 0 -0.640184
    outer loop
      vertex 137.5 42.5 0
      vertex 140 60 3
      vertex 140 40 3
    endloop
  endfacet
  facet normal 0.768221 0 -0.640184
    outer loop
      vertex 140 40 3
      vertex 137.5 22.5 0
      vertex 137.5 37.5 0
    endloop
  endfacet
  facet normal 0.768221 0 -0.640184
    outer loop
      vertex 137.5 22.5 0
      vertex 140 40 3
      vertex 140 20 3
    endloop
  endfacet
  facet normal 0.768221 0 -0.640184
    outer loop
      vertex 160 80 3
      vertex 157.5 62.5 0
      vertex 157.5 77.5 0
    endloop
  endfacet
  facet normal 0.768221 0 -0.640184
    outer loop
      vertex 157.5 62.5 0
      vertex 160 80 3
      vertex 160 60 3
    endloop
  endfacet
  facet normal 0.768221 0 -0.640184
    outer loop
      vertex 160 20 3
      vertex 157.5 2.5 0
      vertex 157.5 17.5 0
    endloop
  endfacet
  facet normal 0.768221 0 -0.640184
    outer loop
      vertex 157.5 2.5 0
      vertex 160 20 3
      vertex 160 0 3
    endloop
  endfacet
  facet normal 0.768221 0 -0.640184
    outer loop
      vertex 160 60 3
      vertex 157.5 42.5 0
      vertex 157.5 57.5 0
    endloop
  endfacet
  facet normal 0.768221 0 -0.640184
    outer loop
      vertex 157.5 42.5 0
      vertex 160 60 3
      vertex 160 40 3
    endloop
  endfacet
  facet normal 0.768221 0 -0.640184
    outer loop
      vertex 160 40 3
      vertex 157.5 22.5 0
      vertex 157.5 37.5 0
    endloop
  endfacet
  facet normal 0.768221 0 -0.640184
    outer loop
      vertex 157.5 22.5 0
      vertex 160 40 3
      vertex 160 20 3
    endloop
  endfacet
  facet normal 1 0 0
    outer loop
      vertex 160 80 53.25
      vertex 160 60 3
      vertex 160 80 3
    endloop
  endfacet
  facet normal 1 0 0
    outer loop
      vertex 160 80 53.25
      vertex 160 40 3
      vertex 160 60 3
    endloop
  endfacet
  facet normal 1 -0 0
    outer loop
      vertex 160 0 53.25
      vertex 160 40 3
      vertex 160 80 53.25
    endloop
  endfacet
  facet normal 1 0 0
    outer loop
      vertex 160 40 3
      vertex 160 0 53.25
      vertex 160 20 3
    endloop
  endfacet
  facet normal 1 0 0
    outer loop
      vertex 160 20 3
      vertex 160 0 53.25
      vertex 160 0 3
    endloop
  endfacet
  facet normal -1 0 0
    outer loop
      vertex 0 60 3
      vertex 0 80 53.25
      vertex 0 80 3
    endloop
  endfacet
  facet normal -1 0 0
    outer loop
      vertex 0 40 3
      vertex 0 80 53.25
      vertex 0 60 3
    endloop
  endfacet
  facet normal -1 0 0
    outer loop
      vertex 0 0 53.25
      vertex 0 40 3
      vertex 0 20 3
    endloop
  endfacet
  facet normal -1 0 0
    outer loop
      vertex 0 0 53.25
      vertex 0 20 3
      vertex 0 0 3
    endloop
  endfacet
  facet normal -1 0 0
    outer loop
      vertex 0 40 3
      vertex 0 0 53.25
      vertex 0 80 53.25
    endloop
  endfacet
endsolid OpenSCAD_Model
